<svg width="48" height="49" viewBox="0 0 48 49" fill="none" xmlns="http://www.w3.org/2000/svg">
<path d="M40.4133 17.6091V17.1824C40.3224 13.5704 38.8062 10.1411 36.1957 7.643C33.5852 5.14493 30.0925 3.78105 26.48 3.84911C23.7895 3.82716 21.1501 4.58314 18.8792 6.02608C16.6084 7.46902 14.8029 9.53744 13.68 11.9824C10.5184 12.3351 7.59619 13.836 5.46781 16.2003C3.33942 18.5647 2.15288 21.628 2.1333 24.8091C2.1368 26.4947 2.47247 28.163 3.12114 29.7187C3.76981 31.2745 4.71875 32.6871 5.91371 33.8759C7.10866 35.0646 8.5262 36.0062 10.0853 36.6468C11.6444 37.2874 13.3144 37.6144 15 37.6091H20V34.9424H15C12.4228 34.803 9.99436 33.6917 8.20409 31.8327C6.41381 29.9736 5.39484 27.505 5.35256 24.9244C5.31029 22.3439 6.24785 19.8432 7.97627 17.9265C9.70468 16.0098 12.0954 14.8196 14.6666 14.5958H15.56L15.8666 13.7558C16.6936 11.608 18.1599 9.76576 20.0675 8.47812C21.9752 7.19048 24.2321 6.51948 26.5333 6.55578C29.4387 6.48751 32.2533 7.57039 34.3637 9.56843C36.4742 11.5665 37.7093 14.3177 37.8 17.2224C37.8183 17.5778 37.8183 17.9338 37.8 18.2891L37.6933 19.2491L38.56 19.6491C40.2362 20.4043 41.6012 21.7137 42.4252 23.3572C43.2493 25.0006 43.4822 26.8778 43.0847 28.6728C42.6872 30.4677 41.6836 32.0711 40.2427 33.2129C38.8018 34.3548 37.0116 34.9656 35.1733 34.9424H28V37.6091H35.1733C37.5446 37.6261 39.854 36.8525 41.7364 35.4104C43.6189 33.9683 44.9672 31.9401 45.5682 29.6461C46.1692 27.3522 45.9887 24.9234 45.0552 22.7435C44.1216 20.5637 42.4883 18.757 40.4133 17.6091Z" fill="#F46C1D"/>
<path d="M29.7066 29.4091C29.9726 29.4133 30.2338 29.3379 30.4565 29.1925C30.6793 29.0472 30.8535 28.8385 30.9567 28.5933C31.0599 28.3482 31.0875 28.0777 31.0358 27.8168C30.9841 27.5559 30.8555 27.3164 30.6666 27.1291L24 20.4624L17.3333 27.1291C17.1149 27.3841 17.0007 27.7122 17.0137 28.0478C17.0267 28.3834 17.1658 28.7017 17.4032 28.9392C17.6407 29.1766 17.959 29.3157 18.2946 29.3287C18.6301 29.3416 18.9582 29.2275 19.2133 29.0091L22.6666 25.6091V41.9424C22.6666 42.296 22.8071 42.6352 23.0572 42.8852C23.3072 43.1353 23.6464 43.2757 24 43.2757C24.3536 43.2757 24.6927 43.1353 24.9428 42.8852C25.1928 42.6352 25.3333 42.296 25.3333 41.9424V25.6091L28.76 29.0357C29.0138 29.2804 29.3541 29.4147 29.7066 29.4091Z" fill="#F46C1D"/>
</svg>
