<svg width="48" height="38" viewBox="0 0 48 38" fill="none" xmlns="http://www.w3.org/2000/svg">
<path d="M11.2547 37.8953C9.12881 37.8953 7.28024 37.3389 5.70895 36.2261C4.13766 35.0206 2.93609 33.3978 2.10423 31.3577C1.27237 29.3176 0.856445 26.9993 0.856445 24.4028C0.856445 21.2499 1.3648 18.2361 2.38152 15.3614C3.49066 12.394 5.15438 9.65842 7.37267 7.15466C9.59096 4.6509 12.4562 2.56444 15.9685 0.895264L21.7915 6.32008C19.296 7.15467 17.0777 8.31381 15.1367 9.79752C13.2881 11.2812 11.763 12.9504 10.5615 14.805C9.45232 16.6597 8.66667 18.5607 8.20453 20.508L8.7591 20.7862C9.12881 20.508 9.59096 20.2762 10.1455 20.0908C10.7001 19.9053 11.532 19.8126 12.6411 19.8126C13.7502 19.8126 14.9056 20.1371 16.1072 20.7862C17.3088 21.4354 18.2793 22.409 19.0187 23.7073C19.8505 24.9128 20.2665 26.5356 20.2665 28.5757C20.2665 30.2449 19.8505 31.775 19.0187 33.1659C18.2793 34.5569 17.2163 35.7161 15.8299 36.6434C14.4435 37.478 12.9184 37.8953 11.2547 37.8953ZM37.3196 37.8953C35.1937 37.8953 33.3451 37.3389 31.7738 36.2261C30.2026 35.0206 29.001 33.3978 28.1691 31.3577C27.3373 29.3176 26.9213 26.9993 26.9213 24.4028C26.9213 21.2499 27.4297 18.2361 28.4464 15.3614C29.5556 12.394 31.2193 9.65842 33.4376 7.15466C35.6559 4.6509 38.5211 2.56444 42.0334 0.895264L47.8564 6.32008C45.3609 7.15467 43.1426 8.31381 41.2016 9.79752C39.353 11.2812 37.8279 12.9504 36.6264 14.805C35.5172 16.6597 34.7316 18.5607 34.2694 20.508L34.824 20.7862C35.1937 20.508 35.6559 20.2762 36.2104 20.0908C36.765 19.9053 37.5969 19.8126 38.706 19.8126C39.8151 19.8126 40.9705 20.1371 42.1721 20.7862C43.3736 21.4354 44.3442 22.409 45.0836 23.7073C45.9154 24.9128 46.3314 26.5356 46.3314 28.5757C46.3314 30.2449 45.9154 31.775 45.0836 33.1659C44.3442 34.5569 43.2812 35.7161 41.8948 36.6434C40.5084 37.478 38.9833 37.8953 37.3196 37.8953Z" fill="#F46E21"/>
</svg>
