<svg width="80" height="78" viewBox="0 0 80 78" fill="none" xmlns="http://www.w3.org/2000/svg">
<g clip-path="url(#clip0_805_1902)">
<path d="M42.3762 4.96202C41.9619 3.70245 42.5946 3.0538 43.6717 2.57863C56.2659 -2.98009 71.3006 5.24109 73.4248 18.8551C75.2476 30.5683 68.0919 41.1427 56.5974 43.6619C55.6031 43.8806 55.4073 44.2427 55.6106 45.1704C56.1229 47.6216 56.0776 47.6367 58.6914 47.6367H75.0518C77.9443 47.6367 79.2624 48.9717 79.2624 51.8906C79.2624 55.0358 79.2624 58.1809 79.2624 61.3186C79.2624 63.9584 77.9141 65.3311 75.2778 65.316C67.5119 65.2557 59.7459 65.5046 51.98 65.1727C51.2268 65.135 51.1439 65.663 50.8727 66.025C48.729 69.0572 46.0014 71.6295 42.8502 73.5906C39.6991 75.5516 36.1881 76.8618 32.5238 77.4442C18.1293 79.903 3.71227 70.0074 0.887615 55.6618C-2.35132 39.3099 8.33717 24.3459 24.8934 22.1209C26.4298 21.9624 27.9761 21.9245 29.5183 22.0078C30.2716 22.0078 30.5427 21.8645 30.5955 21.0348C30.7731 18.4639 31.4003 15.9442 32.4485 13.5905C32.9682 12.4063 33.7515 11.9236 35.0095 12.3988C35.7627 13.2435 35.6271 14.1034 35.2053 15.0914C34.0459 17.6306 33.4971 20.4067 33.6031 23.1967C33.709 25.9867 34.4668 28.713 35.8154 31.1567C36.5905 32.6002 36.9332 34.237 36.8022 35.8706C36.7399 37.4162 36.3872 38.9361 35.7627 40.3508C35.371 41.1955 35.6045 41.4218 36.4482 41.4671C38.6065 41.6943 40.7872 41.3753 42.7905 40.5394C44.1815 39.9083 45.7613 39.8354 47.2044 40.3357C53.9309 42.1459 60.0095 40.6902 64.996 35.8103C69.9825 30.9304 71.7752 24.8512 70.103 18.0028C69.4802 15.4305 68.3111 13.0229 66.6752 10.9439C65.0394 8.86493 62.9753 7.16337 60.6235 5.95515C58.2718 4.74693 55.6875 4.06043 53.0469 3.94242C50.4063 3.8244 47.7713 4.27764 45.3213 5.27126C44.2291 5.70871 43.2273 6.09338 42.3762 4.96202ZM10.966 67.4958C11.9014 62.9649 14.5697 58.9802 18.4005 56.3934C19.3646 55.7297 18.4834 55.3526 18.2197 54.9453C16.8632 52.9247 16.1517 50.5391 16.1795 48.1046C16.2073 45.6701 16.9732 43.3014 18.3755 41.3125C19.7779 39.3235 21.7506 37.8081 24.0324 36.9669C26.3141 36.1258 28.7973 35.9986 31.1529 36.6022C31.9061 36.7983 33.0962 37.6431 33.3674 37.1302C33.8785 35.9913 33.9245 34.6974 33.4954 33.525C33.405 33.2383 33.1716 32.997 33.051 32.7179C32.5087 31.4433 32.0116 30.1535 31.4391 28.8864C30.8666 27.6193 31.4391 25.7714 30.1586 25.2359C28.8781 24.7004 27.3264 25.1228 25.8877 25.1228C25.6835 25.1228 25.4796 25.138 25.2776 25.168C15.4854 26.6312 8.50287 31.8355 5.00783 41.0673C1.51278 50.2992 3.29047 58.8522 9.65536 66.4097C10.0019 66.8245 10.2881 67.36 10.966 67.4958ZM28.1625 74.6761C32.9203 74.7048 37.5829 73.3417 41.5778 70.7541C42.1803 70.3694 42.5795 69.9998 42.444 69.1777C42.1622 67.0791 41.4333 65.0656 40.3065 63.2737C39.1798 61.4818 37.6816 59.9534 35.9134 58.7919C35.6266 58.5552 35.2704 58.419 34.8991 58.404C34.5278 58.389 34.1618 58.4961 33.857 58.7089C32.1122 59.7185 30.1325 60.2501 28.1173 60.2501C26.1021 60.2501 24.1225 59.7185 22.3776 58.7089C22.0681 58.5009 21.6984 58.4014 21.3263 58.4259C20.9543 58.4505 20.6009 58.5977 20.3212 58.8447C18.5992 59.9792 17.135 61.4642 16.0241 63.203C14.9132 64.9417 14.1804 66.8952 13.8735 68.9364C13.7719 69.3025 13.8031 69.6928 13.9617 70.038C14.1203 70.3832 14.396 70.661 14.7397 70.822C18.7497 73.3747 23.4109 74.7131 28.1625 74.6761ZM48.8164 56.5141C49.2081 56.8007 49.4416 56.9968 49.7052 57.1552C51.4151 58.1583 53.1174 59.1237 52.6579 61.6127C52.5148 62.367 53.2756 62.2614 53.7577 62.2614C60.8457 62.2614 67.9337 62.2614 75.0292 62.2614C75.8728 62.2614 76.2042 62.0426 76.1892 61.1376C76.144 58.0527 76.1515 54.9604 76.1892 51.8755C76.1892 50.9855 75.8879 50.7366 75.0292 50.7366C67.9337 50.7668 60.8432 50.7668 53.7577 50.7366C52.8764 50.7366 52.4997 51.0157 52.6278 51.8831C52.8688 53.4896 52.1533 54.5078 50.7522 55.2093C50.077 55.598 49.4301 56.034 48.8164 56.5141ZM28.1248 39.2571C26.9107 39.274 25.7126 39.538 24.6037 40.0333C23.4947 40.5286 22.4979 41.2446 21.6742 42.1379C20.8504 43.0312 20.2169 44.0831 19.812 45.2294C19.4072 46.3757 19.2396 47.5925 19.3194 48.8058C19.386 49.979 19.6859 51.127 20.2016 52.1826C20.7172 53.2382 21.4382 54.18 22.3223 54.9528C23.2063 55.7256 24.2356 56.3138 25.3497 56.6829C26.4638 57.0521 27.6404 57.1947 28.8103 57.1024C30.0181 57.0077 31.1938 56.6671 32.2656 56.1016C33.3374 55.5361 34.2826 54.7574 35.0435 53.8134C35.8043 52.8694 36.3647 51.7799 36.6905 50.6115C37.0162 49.443 37.1003 48.2204 36.9378 47.0182C36.644 44.831 36.4708 44.665 34.2336 44.303C33.6725 44.2372 33.1197 44.1134 32.584 43.9334C31.6576 43.5639 31.0248 42.787 31.6048 41.8819C32.6518 40.2301 31.6425 39.9284 30.3996 39.672C29.6464 39.5211 28.8856 39.3854 28.1248 39.2571ZM45.3289 67.707C46.8611 66.3015 48.1716 64.6714 49.2156 62.8723C49.7805 61.8692 49.8257 60.8434 48.5829 60.1193C47.4339 59.4399 46.3201 58.7023 45.246 57.9094C44.071 57.0571 44.071 55.9861 45.246 55.1489C46.4211 54.3117 47.5057 53.5801 48.7185 52.8862C48.9923 52.7483 49.2177 52.53 49.3644 52.2604C49.5111 51.9909 49.5722 51.683 49.5395 51.3777C49.4623 50.5964 49.6687 49.8134 50.1211 49.172C50.5734 48.5307 51.2414 48.074 52.0026 47.8856C53.1174 47.5613 52.8161 46.7769 52.6278 46.1961C52.4018 45.4947 52.9592 44.2804 51.5356 44.1974C47.9953 43.9787 44.4476 42.4099 40.9224 44.303C40.7781 44.3566 40.6242 44.3797 40.4705 44.3709C39.7172 44.4237 39.5967 44.8385 39.7549 45.5249C40.1692 47.2051 40.2051 48.9567 39.8599 50.6525C39.5146 52.3484 38.7969 53.9461 37.7588 55.3299C37.45 55.7674 37.2843 56.0163 37.8417 56.401C41.7229 59.0393 44.4122 63.1002 45.3289 67.707Z" fill="#050505"/>
<path d="M42.3762 4.96207C43.2273 6.09343 44.2291 5.71631 45.2837 5.29394C47.7336 4.30032 50.3686 3.84708 53.0092 3.9651C55.6498 4.08311 58.234 4.76961 60.5858 5.97783C62.9376 7.18604 65.0017 8.88761 66.6375 10.9666C68.2734 13.0456 69.4425 15.4532 70.0653 18.0254C71.7526 24.8739 69.9975 30.938 64.9583 35.833C59.9191 40.728 53.8932 42.1459 47.1668 40.3584C45.7236 39.858 44.1438 39.9309 42.7528 40.562C40.7496 41.398 38.5688 41.717 36.4104 41.4897C35.5668 41.4445 35.3333 41.2182 35.725 40.3735C36.3495 38.9587 36.7022 37.4388 36.7645 35.8933C36.8955 34.2596 36.5529 32.6228 35.7777 31.1793C34.4291 28.7356 33.6713 26.0093 33.5654 23.2193C33.4594 20.4293 34.0082 17.6533 35.1676 15.1141C35.5894 14.126 35.7627 13.2662 34.9718 12.4215C35.3107 11.1619 36.2749 10.3172 37.0131 9.3291C37.7663 9.7213 38.5196 9.90986 39.2201 9.18579C39.9206 8.46173 39.7097 7.72258 39.2201 6.99097L42.3762 4.96207ZM48.8465 16.6452C48.0932 15.4912 47.2722 14.7671 46.0972 14.7521C44.5907 14.7521 43.0842 14.6766 41.6305 14.7521C41.2537 14.7503 40.8806 14.826 40.5343 14.9747C40.1881 15.1233 39.876 15.3415 39.6175 15.616C39.359 15.8904 39.1595 16.2151 39.0316 16.5699C38.9036 16.9247 38.8498 17.302 38.8736 17.6785C38.8284 21.691 38.8736 25.7036 38.8736 29.7463C38.8736 31.2547 39.6268 32.5068 41.1333 32.5822C43.4683 32.6953 45.954 33.4948 48.1008 31.7752C48.2099 31.6996 48.337 31.6542 48.4693 31.6436C48.6016 31.633 48.7343 31.6576 48.854 31.7148C51.867 32.7104 54.9703 32.2428 58.036 32.2353C59.7518 32.2127 61.3975 31.5501 62.6512 30.377C63.9049 29.2039 64.6766 27.6047 64.8152 25.8921C64.9432 24.2509 64.9583 22.6028 64.8604 20.9594C64.7248 18.2291 62.9622 16.1474 60.2581 16.0795C58.3223 16.0343 58.0888 15.2272 58.2846 13.7188C58.3035 13.513 58.3035 13.306 58.2846 13.1003C58.2846 10.7848 57.0869 9.20088 55.0984 8.80868C53.3057 8.46173 51.7766 9.42715 50.8501 11.5918C50.1797 13.1229 49.5997 14.7219 48.8465 16.6452Z" fill="#FBCA67"/>
<path d="M39.2125 6.96826C39.7096 7.72249 39.898 8.47673 39.2125 9.16309C38.5271 9.84944 37.7663 9.6986 37.0055 9.30639C36.5611 8.55216 36.3351 7.79792 37.0055 7.04368C37.6759 6.28945 38.4517 6.478 39.2125 6.96826Z" fill="#050505"/>
<path d="M10.9659 67.4957C10.288 67.36 10.0018 66.8245 9.65531 66.4096C3.29042 58.8673 1.52027 50.2916 5.00778 41.0673C8.49529 31.843 15.5155 26.6312 25.2775 25.168C25.4795 25.1379 25.6835 25.1228 25.8877 25.1227C27.3264 25.1227 28.9006 24.723 30.1585 25.2359C31.4164 25.7487 30.9118 27.6796 31.4391 28.8864C31.9663 30.0931 32.5087 31.4432 33.051 32.7179C33.1715 32.9969 33.405 33.2383 33.4954 33.5249C33.9244 34.6973 33.8785 35.9912 33.3674 37.1302C33.0962 37.643 31.9211 36.7983 31.1528 36.6022C28.7967 35.9965 26.3124 36.122 24.0292 36.9623C21.746 37.8026 19.7718 39.3179 18.3683 41.3074C16.9648 43.2968 16.1983 45.6664 16.1704 48.102C16.1425 50.5376 16.8545 52.9241 18.2121 54.9452C18.4758 55.3525 19.357 55.6995 18.3929 56.3934C14.5649 58.9816 11.8995 62.9661 10.9659 67.4957Z" fill="#F46E21"/>
<path d="M28.1626 74.6762C23.4079 74.7042 18.7465 73.3553 14.7398 70.7919C14.396 70.6309 14.1204 70.3532 13.9618 70.008C13.8032 69.6627 13.7719 69.2724 13.8736 68.9063C14.1805 66.8652 14.9132 64.9116 16.0241 63.1729C17.1351 61.4342 18.5992 59.9492 20.3213 58.8146C20.6009 58.5677 20.9544 58.4204 21.3264 58.3958C21.6984 58.3713 22.0681 58.4708 22.3777 58.6788C24.1225 59.6884 26.1022 60.22 28.1174 60.22C30.1326 60.22 32.1122 59.6884 33.8571 58.6788C34.1619 58.466 34.5279 58.359 34.8992 58.3739C35.2705 58.3889 35.6267 58.5251 35.9134 58.7618C37.6816 59.9233 39.1798 61.4518 40.3066 63.2437C41.4333 65.0356 42.1623 67.049 42.444 69.1476C42.5796 69.9848 42.1804 70.3393 41.5778 70.724C37.5862 73.3223 32.9234 74.696 28.1626 74.6762Z" fill="#FBCA67"/>
<path d="M48.8164 56.5142C49.4306 56.0393 50.0775 55.6083 50.7522 55.2245C52.1533 54.523 52.8688 53.5048 52.6278 51.8983C52.4998 51.0309 52.8764 50.7443 53.7577 50.7519C60.8482 50.782 67.9387 50.782 75.0292 50.7519C75.8879 50.7519 76.2043 51.0007 76.1892 51.8907C76.1515 54.9756 76.144 58.0679 76.1892 61.1528C76.1892 62.0579 75.8728 62.2841 75.0292 62.2766C67.9337 62.2766 60.8457 62.2766 53.7577 62.2766C53.2756 62.2766 52.5148 62.4123 52.6579 61.6279C53.1174 59.139 51.4151 58.1735 49.7052 57.1704C49.4416 56.9969 49.2081 56.8008 48.8164 56.5142ZM57.5465 55.0057C57.3396 54.9863 57.131 55.0113 56.9346 55.079C56.7381 55.1466 56.5583 55.2555 56.4072 55.3982C56.2561 55.541 56.1371 55.7144 56.0582 55.9068C55.9793 56.0992 55.9423 56.3063 55.9496 56.5142C55.9379 56.7199 55.9707 56.9258 56.0456 57.1177C56.1206 57.3096 56.236 57.483 56.384 57.6262C56.532 57.7694 56.7091 57.8789 56.9032 57.9473C57.0973 58.0158 57.3039 58.0415 57.5088 58.0227C57.7064 58.0366 57.9046 58.0087 58.0907 57.9407C58.2768 57.8727 58.4464 57.7662 58.5886 57.6282C58.7308 57.4901 58.8422 57.3235 58.9157 57.1394C58.9893 56.9552 59.0232 56.7576 59.0153 56.5595C59.0324 56.3582 59.0068 56.1555 58.9401 55.9648C58.8735 55.7741 58.7673 55.5997 58.6286 55.453C58.4899 55.3063 58.3218 55.1906 58.1353 55.1135C57.9488 55.0364 57.7481 54.9997 57.5465 55.0057ZM71.4287 58.0981C72.3552 57.9171 72.9352 57.4118 72.875 56.4237C72.855 56.0236 72.6771 55.6479 72.3805 55.3791C72.0838 55.1104 71.6927 54.9707 71.2931 54.9907C70.8936 55.0107 70.5184 55.1888 70.25 55.4858C69.9816 55.7829 69.842 56.1745 69.862 56.5746C69.8598 56.7791 69.8991 56.982 69.9777 57.1708C70.0562 57.3596 70.1723 57.5305 70.3188 57.673C70.4654 57.8155 70.6394 57.9267 70.8302 57.9998C71.021 58.0728 71.2246 58.1063 71.4287 58.0981ZM65.9903 56.5067C65.8472 55.579 65.3651 54.9982 64.3709 54.9982C64.1765 54.9852 63.9816 55.0135 63.799 55.0813C63.6164 55.1492 63.4503 55.255 63.3115 55.3918C63.1728 55.5287 63.0645 55.6934 62.9939 55.8752C62.9233 56.0569 62.892 56.2516 62.902 56.4463C62.8761 56.6548 62.8964 56.8663 62.9616 57.066C63.0268 57.2656 63.1352 57.4484 63.2792 57.6011C63.4231 57.7539 63.599 57.8729 63.7942 57.9497C63.9894 58.0265 64.1992 58.0592 64.4085 58.0453C65.3425 58.0906 65.8773 57.4721 65.9903 56.5067Z" fill="#9ACBF8"/>
<path d="M28.125 39.2571C28.8782 39.3853 29.6314 39.4909 30.3847 39.6417C31.6275 39.8982 32.6444 40.1999 31.5899 41.8517C31.0099 42.7567 31.6426 43.5336 32.5691 43.9032C33.1047 44.0831 33.6576 44.207 34.2187 44.2728C36.4784 44.6348 36.6291 44.8007 36.9229 46.988C37.0854 48.1901 37.0012 49.4128 36.6755 50.5812C36.3498 51.7496 35.7894 52.8392 35.0285 53.7832C34.2677 54.7272 33.3225 55.5058 32.2507 56.0713C31.1789 56.6369 30.0031 56.9774 28.7954 57.0722C27.6255 57.1644 26.4489 57.0218 25.3348 56.6527C24.2207 56.2836 23.1914 55.6953 22.3074 54.9225C21.4233 54.1497 20.7023 53.2079 20.1867 52.1524C19.671 51.0968 19.3711 49.9487 19.3045 48.7756C19.2289 47.5635 19.4001 46.3487 19.8078 45.2049C20.2154 44.0611 20.851 43.0123 21.676 42.1221C22.5009 41.2318 23.498 40.5188 24.6066 40.0263C25.7152 39.5338 26.9122 39.2721 28.125 39.2571Z" fill="#FCD9D2"/>
<path d="M45.3289 67.7069C44.4029 63.0901 41.6964 59.025 37.7964 56.3934C37.239 56.0087 37.4048 55.7598 37.7136 55.3223C38.7517 53.9385 39.4694 52.3408 39.8147 50.645C40.1599 48.9491 40.124 47.1976 39.7097 45.5173C39.5515 44.8309 39.6494 44.4161 40.4252 44.3633C40.579 44.3722 40.7329 44.3491 40.8772 44.2954C44.4024 42.4023 47.9501 43.9711 51.4904 44.1898C52.914 44.2728 52.3566 45.4871 52.5826 46.1885C52.7709 46.7693 53.0722 47.5537 51.9574 47.878C51.1962 48.0664 50.5282 48.5231 50.0759 49.1644C49.6235 49.8058 49.4171 50.5888 49.4943 51.3702C49.527 51.6754 49.4659 51.9833 49.3192 52.2529C49.1725 52.5224 48.9471 52.7407 48.6733 52.8786C47.4907 53.6329 46.3231 54.3871 45.2008 55.1413C44.0785 55.8956 44.0408 57.0495 45.2008 57.9018C46.2749 58.6947 47.3886 59.4323 48.5377 60.1118C49.7805 60.866 49.7353 61.8616 49.1704 62.8647C48.1408 64.6633 46.8457 66.2958 45.3289 67.7069Z" fill="#F46E21"/>
<path d="M48.8465 16.6453C49.5997 14.722 50.1797 13.1381 50.8426 11.5768C51.7691 9.41213 53.2982 8.44672 55.0909 8.79366C57.0794 9.18587 58.262 10.7698 58.2771 13.0853C58.2959 13.291 58.2959 13.498 58.2771 13.7037C58.0812 15.2122 58.2771 16.0192 60.2506 16.0645C62.9547 16.1324 64.7173 18.2141 64.8529 20.9444C64.9508 22.5877 64.9357 24.2359 64.8077 25.8771C64.6691 27.5897 63.8974 29.1889 62.6437 30.362C61.3899 31.5351 59.7443 32.1977 58.0285 32.2203C54.9628 32.2203 51.8595 32.6954 48.8465 31.6998C48.7268 31.6426 48.594 31.618 48.4618 31.6286C48.3295 31.6392 48.2024 31.6846 48.0932 31.7602C45.9465 33.4798 43.4608 32.6803 41.1258 32.5672C39.6193 32.4918 38.866 31.2322 38.866 29.7313C38.866 25.7187 38.8208 21.7062 38.866 17.6635C38.8423 17.287 38.8961 16.9096 39.024 16.5548C39.152 16.2 39.3515 15.8754 39.61 15.6009C39.8685 15.3265 40.1805 15.1082 40.5268 14.9596C40.8731 14.811 41.2462 14.7353 41.6229 14.737C43.1294 14.6465 44.6359 14.6993 46.0896 14.737C47.2722 14.7672 48.0631 15.4913 48.8465 16.6453ZM48.8465 24.0669C48.903 24.9913 48.903 25.9182 48.8465 26.8425C48.6883 28.1172 49.1704 28.7508 50.4208 28.9393C53.1694 29.2974 55.9507 29.3278 58.7064 29.0298C60.2732 28.9016 61.5085 27.3479 61.7194 25.7338C61.7923 25.0198 61.8199 24.3018 61.8023 23.5842C61.8023 19.0588 61.8022 19.0588 57.4108 19.0211C55.5955 19.0211 55.2189 18.6364 55.2038 16.864C55.2038 15.6798 55.2038 14.4957 55.2038 13.3115C55.2038 12.7685 55.3545 12.0369 54.6088 11.9237C53.8631 11.8106 53.8028 12.5724 53.5994 13.0626C53.0948 14.292 52.6202 15.5441 52.1382 16.781C51.7841 17.7087 51.3849 18.7647 50.4434 19.0814C48.7712 19.6622 48.7637 20.8464 48.8691 22.2191C48.8992 22.83 48.8616 23.4485 48.8616 24.0669H48.8465ZM41.9393 23.72V27.2574C41.9393 29.6634 41.9393 29.6106 44.4099 29.6558C45.4946 29.6558 45.8109 29.3391 45.7808 28.268C45.7055 25.6584 45.7808 23.0412 45.7808 20.424C45.7808 17.6182 45.7808 17.6409 42.9034 17.8143C42.1502 17.8143 41.9242 18.0632 41.9468 18.8024C41.9845 20.4391 41.9544 22.0833 41.9544 23.72H41.9393Z" fill="#050505"/>
<path d="M57.5465 55.0057C57.7506 55.0032 57.9529 55.0443 58.1397 55.1265C58.3266 55.2086 58.4938 55.3298 58.6301 55.482C58.7664 55.6341 58.8685 55.8137 58.9298 56.0086C58.991 56.2036 59.0099 56.4094 58.9852 56.6123C58.9931 56.8104 58.9592 57.008 58.8857 57.1922C58.8121 57.3763 58.7006 57.5429 58.5585 57.681C58.4163 57.819 58.2467 57.9255 58.0606 57.9935C57.8746 58.0615 57.6763 58.0894 57.4787 58.0755C57.2738 58.0943 57.0672 58.0686 56.8731 58.0001C56.679 57.9317 56.5019 57.8222 56.3539 57.679C56.2059 57.5358 56.0905 57.3624 56.0156 57.1705C55.9406 56.9786 55.9078 56.7727 55.9195 56.567C55.9036 56.352 55.9354 56.1361 56.0125 55.9348C56.0897 55.7335 56.2103 55.5518 56.3657 55.4026C56.5212 55.2535 56.7076 55.1405 56.9118 55.0719C57.1159 55.0033 57.3326 54.9807 57.5465 55.0057Z" fill="#050505"/>
<path d="M71.4289 58.0979C71.2242 58.1092 71.0194 58.0785 70.8269 58.0078C70.6345 57.9371 70.4584 57.8277 70.3097 57.6865C70.1609 57.5453 70.0424 57.3752 69.9616 57.1865C69.8808 56.9979 69.8392 56.7947 69.8395 56.5894C69.8196 56.1894 69.9591 55.7977 70.2275 55.5007C70.4959 55.2037 70.8712 55.0256 71.2707 55.0055C71.6703 54.9855 72.0614 55.1253 72.358 55.394C72.6546 55.6628 72.8325 56.0385 72.8525 56.4386C72.9504 57.4116 72.3554 57.9169 71.4289 58.0979Z" fill="#050505"/>
<path d="M65.9903 56.5065C65.8773 57.4719 65.3425 58.0904 64.401 58.0678C64.1917 58.0816 63.9819 58.049 63.7867 57.9722C63.5915 57.8954 63.4156 57.7764 63.2716 57.6236C63.1277 57.4708 63.0192 57.2881 62.954 57.0884C62.8889 56.8888 62.8685 56.6772 62.8945 56.4688C62.8845 56.274 62.9158 56.0794 62.9864 55.8976C63.057 55.7159 63.1652 55.5511 63.304 55.4143C63.4428 55.2775 63.6089 55.1717 63.7915 55.1038C63.9741 55.036 64.169 55.0076 64.3633 55.0207C65.3652 54.9905 65.8472 55.5788 65.9903 56.5065Z" fill="#050505"/>
<path d="M48.8618 24.0668C48.8618 23.4483 48.8618 22.8298 48.8618 22.2189C48.7563 20.8462 48.7638 19.662 50.436 19.0813C51.3475 18.7645 51.7768 17.7085 52.1308 16.7808C52.6129 15.5439 53.0874 14.2919 53.5921 13.0624C53.7955 12.5722 53.8708 11.8029 54.6014 11.9236C55.3321 12.0442 55.189 12.7683 55.1965 13.3113C55.1965 14.4955 55.1965 15.6796 55.1965 16.8638C55.1965 18.6363 55.5882 18.9907 57.4035 19.0209C61.8025 19.0963 61.8024 19.0963 61.7949 23.584C61.8126 24.3016 61.7849 25.0196 61.7121 25.7336C61.5011 27.3477 60.2658 28.9014 58.6991 29.0296C55.9433 29.3276 53.162 29.2972 50.4134 28.9391C49.163 28.7506 48.6809 28.117 48.8391 26.8423C48.9032 25.9185 48.9108 24.9915 48.8618 24.0668Z" fill="#FCD9D2"/>
<path d="M41.9543 23.7198C41.9543 22.0831 41.9543 20.4389 41.9543 18.8022C41.9543 18.0479 42.1878 17.8518 42.9109 17.8141C45.7883 17.6406 45.7883 17.618 45.7883 20.4238C45.7883 23.041 45.7356 25.6582 45.7883 28.2678C45.7883 29.3388 45.5021 29.6783 44.4174 29.6556C41.9468 29.6104 41.9468 29.6556 41.9468 27.2572L41.9543 23.7198Z" fill="#F46E21"/>
</g>
<defs>
<clipPath id="clip0_805_1902">
<rect width="79" height="77" fill="white" transform="translate(0.27002 0.821289)"/>
</clipPath>
</defs>
</svg>
