<svg width="75" height="99" viewBox="0 0 75 99" fill="none" xmlns="http://www.w3.org/2000/svg">
<g clip-path="url(#clip0_805_1952)">
<path d="M3.60348 86.3519C1.90647 86.2229 0.554953 85.7072 0.554953 84.0903C0.554953 82.2553 -0.32914 80.0037 2.31292 79.0316C3.17667 78.7142 2.93281 78.0397 2.97346 77.4446C3.16653 74.1614 3.31899 70.8782 3.51206 67.595C3.79659 62.9926 5.54431 60.9889 10.1374 59.8185C11.0926 59.5189 12.0668 59.2803 13.0538 59.1043C16.5725 58.7318 19.7978 57.0168 22.0268 54.3333C23.0429 53.1033 24.5266 52.1213 26.3659 53.2422C26.9451 53.5893 27.1178 53.1827 27.2194 52.7462C27.5547 51.2782 28.073 49.9094 26.2541 48.7786C22.8484 46.6058 20.4655 43.2024 19.6286 39.3159C19.6021 38.8577 19.4044 38.4249 19.0729 38.0995C18.7414 37.7741 18.2992 37.5787 17.83 37.5503C16.4794 37.3208 15.2199 36.732 14.1902 35.8487C13.1605 34.9654 12.4005 33.8218 11.9939 32.5439C11.5873 31.266 11.5499 29.9034 11.8857 28.6061C12.2216 27.3088 12.9176 26.1271 13.8974 25.1912C14.2411 24.8539 14.509 24.4503 14.6839 24.0063C14.8589 23.5622 14.9371 23.0874 14.9135 22.6122C14.9135 20.0333 14.6696 17.4246 15.259 14.8655C17.2913 6.26566 23.9981 0.97882 33.916 0.353921C37.4209 -0.0134549 40.9657 0.324123 44.3318 1.34582C48.0612 2.6353 50.5509 5.00594 51.1504 8.96364C51.2317 9.5191 51.1503 9.95554 51.9633 10.1936C55.1744 11.007 55.8248 13.6454 56.3125 16.3136C56.4807 17.4233 56.552 18.5448 56.5259 19.6663C56.5259 22.146 56.6479 24.3183 58.4567 26.6096C61.6881 30.6962 58.9342 36.5286 53.5993 37.58C53.128 37.608 52.6833 37.8027 52.3484 38.1277C52.0136 38.4527 51.8117 38.8857 51.7804 39.3456C50.8633 43.2775 48.4471 46.7211 45.0228 48.977C44.458 49.4737 44.0756 50.1376 43.9342 50.8667C43.7929 51.5959 43.9004 52.3502 44.2404 53.014C44.4639 53.4009 44.6265 53.4108 45.033 53.3315C46.3426 53.1548 47.6763 53.3634 48.8638 53.9306C50.0512 54.4977 51.0384 55.3977 51.6991 56.5154C51.8906 56.9045 52.1753 57.2428 52.529 57.5018C52.8828 57.7608 53.2952 57.9328 53.7314 58.0033C56.3836 58.6282 59.0054 59.3126 61.6373 59.9871C65.5902 60.979 67.4905 63.0719 67.7954 67.0296C68.0697 70.5211 68.2018 74.0225 68.3949 77.514C68.3949 78.1984 68.3948 78.7638 69.2281 79.23C71.3824 80.4402 71.7178 84.3284 69.7769 85.8758C69.4608 86.0938 69.2191 86.3995 69.0832 86.7532C68.9473 87.107 68.9234 87.4924 69.0147 87.8596C69.1773 90.1608 69.2993 92.4719 69.4212 94.8029C69.5432 97.2628 68.5778 98.3242 66.0576 98.3341H16.7731C16.0414 98.3341 15.1167 98.4333 14.7407 97.8381C13.6534 96.0428 12.6271 97.0347 11.4076 97.6298C10.0515 98.2979 8.5043 98.4997 7.01608 98.2027C5.52786 97.9057 4.18579 97.1272 3.20716 95.9932C2.16396 94.8246 1.55935 93.3442 1.49286 91.7956C1.42637 90.247 1.90197 88.7224 2.84135 87.4727C3.06491 87.0661 3.20717 86.8478 3.60348 86.3519ZM50.0123 29.625H50.0936C50.0936 27.5221 50.0936 25.4292 50.0936 23.3264C50.1521 21.9938 49.8395 20.6707 49.1891 19.4976C47.9697 17.5138 47.1568 17.2559 45.1244 18.5553C42.3585 20.4063 39.0834 21.3969 35.7299 21.3969C32.3763 21.3969 29.1013 20.4063 26.3353 18.5553C24.303 17.2559 23.4596 17.4543 22.2706 19.4778C21.715 20.3764 21.4167 21.404 21.4069 22.4535C21.4069 27.2146 21.2036 31.9857 21.4882 36.7171C21.7756 40.2193 23.4038 43.4873 26.0487 45.8705C28.6935 48.2536 32.161 49.5769 35.7604 49.5769C39.3598 49.5769 42.8272 48.2536 45.472 45.8705C48.1169 43.4873 49.7451 40.2193 50.0325 36.7171C50.1646 34.3663 50.0123 31.9758 50.0123 29.5952V29.625ZM44.2099 81.8883C44.2099 86.0246 44.2911 90.1509 44.2099 94.2772C44.2099 95.8047 44.6773 96.1717 46.1406 96.1023C48.7217 95.9932 51.3129 95.9833 53.8839 96.1023C55.4589 96.1816 55.7638 95.6163 55.7536 94.2078C55.6825 87.0661 55.7536 79.9244 55.7536 72.7827C55.7536 71.9098 55.5199 70.6798 56.841 70.6699C58.162 70.66 57.8571 71.8899 57.9791 72.7628C58.223 74.7466 56.9629 77.6231 58.5888 78.6448C60.2147 79.6665 62.8974 78.8729 65.1127 78.9225C66.0272 78.9225 66.4133 78.6944 66.3422 77.7422C66.0882 73.963 65.9561 70.1839 65.6309 66.4246C65.562 65.3536 65.1221 64.3372 64.3835 63.5424C63.6449 62.7475 62.6515 62.2214 61.5662 62.0503C58.7209 61.346 55.8451 60.7608 53.0507 59.8978C52.5089 59.6513 51.891 59.6168 51.324 59.8013C50.7569 59.9858 50.284 60.3753 50.0021 60.8897C48.4677 62.8736 46.852 64.8574 45.1855 66.8412C44.485 67.6315 44.1213 68.6538 44.1693 69.6978C44.2404 73.7448 44.2099 77.8017 44.2099 81.8586V81.8883ZM17.1389 19.329C17.0931 19.814 17.0931 20.3021 17.1389 20.7871C17.2812 21.531 16.5902 22.6717 17.8096 22.9098C19.2424 23.1875 19.0799 21.9179 19.2628 21.0847C19.5437 19.5693 20.2469 18.1588 21.2951 17.008C23.0633 15.2027 24.7501 14.925 26.8333 16.3037C32.7881 20.2713 38.6717 20.2713 44.596 16.2343C46.4759 14.9547 48.1526 15.2424 49.809 16.8096C51.1486 18.1871 51.9937 19.9519 52.2173 21.8385C52.3494 22.513 52.5831 23.0387 53.457 22.9594C54.3309 22.88 54.2192 22.2551 54.2192 21.7096C54.2974 20.0356 54.2533 18.3584 54.0871 16.6906C53.7822 14.6175 53.3758 12.465 50.5915 12.0484C49.5753 11.8897 49.1384 11.0565 48.9758 10.0646C48.3051 5.62092 46.2016 3.54784 41.7101 2.77416C38.5998 2.27999 35.431 2.24655 32.3105 2.67497C22.8702 3.8355 17.1592 9.97538 17.1389 19.2993V19.329ZM41.9947 70.7493C41.9947 67.3867 41.9947 64.0242 41.9947 60.6715C41.9947 59.0944 41.2833 58.3604 39.6472 58.3802C37.2829 58.4199 34.9118 58.4199 32.534 58.3802C27.2905 58.3108 27.8596 58.4298 27.8596 62.9331C27.8596 66.6229 27.8596 66.6229 31.5687 66.7122C34.4546 66.7816 35.9586 68.1703 36.0297 70.9576C36.0297 72.9414 36.0907 75.0144 36.0297 77.0478C36.0705 77.5754 35.9961 78.1054 35.8115 78.6029C35.6269 79.1003 35.3363 79.5539 34.9588 79.9336C34.5814 80.3133 34.1257 80.6104 33.6219 80.8055C33.118 81.0005 32.5775 81.089 32.0361 81.065C31.3206 81.0383 30.6041 81.0615 29.892 81.1345C29.1705 81.2634 28.4083 81.7594 28.4489 82.4636C28.4489 83.3266 29.4652 83.0786 30.0139 83.0786C33.0624 83.0786 36.1821 82.9794 39.2611 83.1381C41.4255 83.2373 42.0353 82.2851 42.0048 80.4005C41.9642 77.157 41.9947 73.9432 41.9947 70.7195V70.7493ZM15.696 76.3733C16.5609 75.5884 17.4773 74.8594 18.4396 74.1912C20.9902 72.7529 21.6406 70.5905 21.4171 67.8727C21.2951 66.4543 20.8886 64.8078 21.9454 63.6076C22.8599 62.5561 22.2605 61.9808 21.6304 61.3361C21.0004 60.6914 20.6143 59.2134 18.8258 59.7986C16.0618 60.7013 13.1657 61.2468 10.3306 61.961C7.11945 62.7644 5.94061 64.1233 5.68657 67.3768C5.4935 69.9557 5.37159 72.5347 5.21917 75.1136C4.99561 78.9126 4.99563 78.9126 8.79613 78.9126C9.73101 78.9126 10.6659 78.9126 11.5906 78.9126C12.9625 78.992 13.5417 78.4068 13.501 77.0578C13.4401 75.3814 13.501 73.7051 13.501 72.0288C13.501 71.265 13.7755 70.5707 14.7002 70.6302C15.6249 70.6897 15.7163 71.3444 15.7163 72.0189C15.7062 73.2489 15.696 74.4986 15.696 76.3436V76.3733ZM21.1224 74.7367L6.01182 87.2942C5.67696 87.5569 5.35796 87.8385 5.05654 88.1373C4.20727 89.0078 3.73361 90.1639 3.73361 91.366C3.73361 92.568 4.20727 93.7241 5.05654 94.5946C5.46142 95.0456 5.95531 95.4124 6.50862 95.673C7.06192 95.9336 7.66335 96.0827 8.277 96.1114C8.89065 96.1401 9.50394 96.0478 10.0802 95.84C10.6565 95.6323 11.1841 95.3133 11.6313 94.9021C16.448 90.498 21.1325 85.975 25.8578 81.4816C25.9289 81.4221 25.8578 81.2337 25.8578 81.1047C22.23 80.7873 21.8743 80.331 21.1224 74.7069V74.7367ZM36.0297 85.2806C34.3835 85.2806 32.727 85.3401 31.091 85.2806C29.8208 85.2112 29.2822 85.5484 29.333 86.8974C29.4211 89.4764 29.4211 92.0619 29.333 94.6541C29.333 95.894 29.7802 96.1916 30.9488 96.1519C32.9812 96.0725 35.0135 96.1519 36.9645 96.1519C42.0454 96.1519 42.0454 96.1519 42.0454 91.1924C42.0454 89.2086 42.9193 86.6792 41.6389 85.5782C40.5414 84.507 37.9503 85.2509 36.0297 85.2509V85.2806ZM28.4591 78.9325C34.0379 78.9325 33.8856 79.6565 33.8551 73.8142C33.8551 68.8547 33.855 68.8547 28.8758 68.8547C23.0836 68.8547 23.5409 68.3786 23.551 74.0225C23.5307 79.3391 23.0632 78.9027 28.4591 78.9027V78.9325ZM67.0738 91.6486C67.0738 91.0138 67.0738 90.3889 67.0738 89.764C66.8807 86.2725 66.8807 86.2725 63.2428 86.2725C57.9384 86.2725 57.9384 86.2725 57.9384 91.4602C57.9384 96.0725 57.9385 96.0725 62.7145 96.0725C67.2771 96.0428 67.277 96.0428 67.0535 91.6189L67.0738 91.6486ZM27.1991 90.1112C27.1991 88.5043 27.1991 86.8974 27.1991 85.3005C27.1991 84.3086 26.7418 83.763 25.7764 84.6657C22.6262 87.6414 19.4965 90.5675 16.3362 93.5035C16.0775 93.7451 15.8915 94.0512 15.7983 94.3887C15.7052 94.7262 15.7084 95.0821 15.8078 95.4179C16.0008 96.3106 16.8239 96.0626 17.3828 96.0626C20.1671 96.0626 22.9617 96.0031 25.746 96.0626C27.0569 96.0626 27.2906 95.5766 27.2398 94.4656C27.128 93.0175 27.1889 91.5495 27.1787 90.0814L27.1991 90.1112ZM41.6592 50.6434C37.807 51.9573 33.6121 51.9573 29.7599 50.6434C29.7136 51.7377 29.4942 52.8184 29.1095 53.8472C28.0933 56.0988 28.1746 56.1187 30.776 56.1782C34.3326 56.2774 37.8893 55.9402 41.4561 56.3667C42.7059 56.5155 43.3664 55.8509 42.6856 54.6011C42.043 53.374 41.6922 52.0212 41.6592 50.6434ZM19.1205 30.1308C19.1205 28.8711 19.0697 27.6213 19.1205 26.3715C19.1713 25.1217 18.8359 24.8738 17.647 25.2606C16.5373 25.5752 15.5613 26.2312 14.8643 27.1308C14.1672 28.0305 13.7864 29.1258 13.7784 30.2537C13.7704 31.3817 14.1356 32.482 14.8199 33.391C15.5041 34.3 16.4708 34.9691 17.5759 35.2986C18.5921 35.6458 19.1916 35.6161 19.1205 34.3067C19.0494 32.9974 19.1205 31.5096 19.1205 30.1209V30.1308ZM52.2784 30.1308C52.2784 31.46 52.3596 32.7891 52.2784 34.0985C52.1564 35.6756 52.8474 35.6657 54.0363 35.2094C55.0189 34.8686 55.8781 34.2553 56.5087 33.4447C57.1392 32.6341 57.5136 31.6615 57.5859 30.6461C57.6582 29.6308 57.4252 28.6169 56.9157 27.729C56.4061 26.841 55.6419 26.1176 54.7171 25.6474C52.6847 24.5762 52.3089 24.7646 52.2987 27.0063L52.2784 30.1308ZM63.314 84.1499C64.6655 84.1499 66.0272 84.0804 67.3787 84.1499C68.7302 84.2193 68.8014 83.4555 68.8116 82.4438C68.8217 81.432 68.5778 80.9163 67.3991 80.946C64.757 81.0154 62.1149 81.0452 59.483 80.946C58.0909 80.8865 57.8165 81.442 57.8165 82.6521C57.8165 83.8622 58.2839 84.2292 59.4627 84.1598C60.6414 84.0903 62.0336 84.1499 63.314 84.1499ZM44.4233 64.4507C46.2524 62.2189 47.8174 60.3144 49.3721 58.4001C49.616 58.1025 50.1241 57.6958 49.7583 57.3288C48.8818 56.322 47.7889 55.516 46.5573 54.9681C46.0797 54.7895 43.6917 57.8446 43.8949 58.4794C44.4436 60.3045 43.9254 62.1991 44.4233 64.4507ZM25.563 62.209C25.7256 60.8402 25.4818 59.4316 26.0813 58.6282C27.2601 57.0511 26.3759 56.0889 25.3902 55.2954C24.1607 54.3035 23.6424 55.9203 22.8498 56.3766C22.3214 56.6841 21.0817 57.0213 21.8336 58.0132C22.8438 59.5939 24.1023 61.0098 25.563 62.209ZM10.1172 80.9857C7.68855 80.9857 5.77811 80.9857 3.8677 80.9857C2.68893 80.9857 2.6279 81.6106 2.65838 82.4636C2.68887 83.3167 2.52634 84.0209 3.85753 84.2094C6.51991 84.5764 8.01367 82.9298 10.0663 80.9857H10.1172ZM25.6646 65.5219C25.6646 64.7681 25.6646 64.163 24.6485 64.2622C23.6323 64.3614 23.4494 65.1053 23.5103 65.9286C23.5103 66.4146 23.3072 67.0991 24.3437 66.9205C25.2582 66.6725 25.9085 66.5138 25.6646 65.5219Z" fill="#0B0909"/>
<path d="M73.2321 64.3515C73.057 64.3542 72.8831 64.3224 72.7209 64.2579C72.5587 64.1935 72.4115 64.0977 72.2881 63.9764C72.1648 63.855 72.0677 63.7106 72.0029 63.5518C71.9381 63.393 71.9069 63.223 71.911 63.0521C71.8895 62.7207 72.0037 62.3944 72.2286 62.1451C72.4535 61.8959 72.7706 61.744 73.1102 61.723C73.4497 61.7019 73.7839 61.8134 74.0393 62.0329C74.2946 62.2524 74.4503 62.562 74.4718 62.8934C74.4929 63.0694 74.4771 63.2477 74.4255 63.4175C74.374 63.5873 74.2876 63.7452 74.1717 63.8815C74.0558 64.0178 73.9127 64.1298 73.7512 64.2105C73.5897 64.2913 73.4132 64.3393 73.2321 64.3515Z" fill="#5A5C5F"/>
<path d="M50.0124 29.5951C50.0124 31.9756 50.1648 34.3661 50.0124 36.7269C49.725 40.2291 48.0966 43.4971 45.4518 45.8803C42.8069 48.2634 39.3396 49.5867 35.7402 49.5867C32.1407 49.5867 28.6734 48.2634 26.0285 45.8803C23.3837 43.4971 21.7554 40.2291 21.4679 36.7269C21.1834 31.9955 21.3765 27.2244 21.3867 22.4633C21.3965 21.4138 21.6948 20.3861 22.2504 19.4876C23.4698 17.5038 24.2827 17.2657 26.3151 18.5651C29.0811 20.4161 32.3561 21.4067 35.7096 21.4067C39.0632 21.4067 42.3382 20.4161 45.1042 18.5651C47.1365 17.2657 47.9698 17.474 49.1689 19.5074C49.8193 20.6804 50.1318 22.0036 50.0733 23.3362C50.0733 25.439 50.0733 27.5319 50.0733 29.6348L50.0124 29.5951ZM35.9688 42.2914C36.8248 42.311 37.6763 42.1642 38.4736 41.8593C39.2709 41.5545 39.9981 41.0978 40.6128 40.5159C41.0904 40.0696 41.4968 39.524 40.9379 38.8793C40.379 38.2345 39.8302 38.3932 39.2713 38.8793C37.0053 40.7242 34.7697 40.6945 32.5341 38.8297C32.4387 38.7241 32.3215 38.6396 32.1901 38.5817C32.0587 38.5238 31.9161 38.4939 31.772 38.4939C31.6278 38.4939 31.4853 38.5238 31.3539 38.5817C31.2225 38.6396 31.1052 38.7241 31.0098 38.8297C30.4103 39.405 30.644 39.9803 31.1419 40.4663C31.7716 41.0823 32.5264 41.5628 33.3576 41.8772C34.1889 42.1915 35.0783 42.3326 35.9688 42.2914ZM31.0098 30.8052C30.9812 30.2982 30.7545 29.8212 30.3764 29.4724C29.9984 29.1237 29.4977 28.9297 28.9775 28.9305C28.4385 28.941 27.9258 29.1601 27.5523 29.5396C27.1788 29.9191 26.975 30.4278 26.9858 30.954C26.9966 31.4801 27.221 31.9805 27.6098 32.3451C27.9985 32.7097 28.5197 32.9086 29.0587 32.8981C30.2578 32.9477 30.9184 32.174 31.0098 30.8052ZM45.0026 31.0333C45.0176 30.7687 44.9782 30.5039 44.8866 30.2544C44.795 30.0049 44.6532 29.7758 44.4694 29.5807C44.2857 29.3856 44.0637 29.2285 43.8167 29.1185C43.5697 29.0085 43.3025 28.948 43.0311 28.9404C42.4921 28.9233 41.9683 29.1159 41.5747 29.4759C41.1812 29.8358 40.9503 30.3336 40.9328 30.8597C40.9153 31.3859 41.1126 31.8973 41.4813 32.2814C41.8501 32.6655 42.3601 32.8909 42.8992 32.908C44.1694 33.0271 44.7994 32.2137 45.0026 31.073V31.0333Z" fill="#F6CDB2"/>
<path d="M44.21 81.8585C44.21 77.8016 44.21 73.7448 44.21 69.678C44.1621 68.6339 44.5257 67.6116 45.2262 66.8213C46.8927 64.897 48.5084 62.933 50.0429 60.8698C50.3247 60.3554 50.7978 59.9659 51.3648 59.7814C51.9318 59.5969 52.5497 59.6314 53.0914 59.8779C55.8859 60.7409 58.7617 61.3261 61.6069 62.0304C62.6922 62.2015 63.6858 62.7276 64.4244 63.5225C65.163 64.3173 65.6027 65.3337 65.6717 66.4047C65.9968 70.164 66.129 73.9431 66.3831 77.7223C66.4542 78.7142 66.068 78.9324 65.1534 78.9027C62.9381 78.9027 60.225 79.6168 58.6296 78.6249C57.0342 77.633 58.2637 74.7664 58.0198 72.7429C57.908 71.8701 58.2129 70.6401 56.8817 70.65C55.5505 70.6599 55.7944 71.8899 55.7944 72.7628C55.7944 79.9045 55.7436 87.0462 55.7944 94.1879C55.7944 95.5964 55.4998 96.1717 53.9247 96.0824C51.3538 95.9634 48.7625 95.9733 46.1815 96.0824C44.7182 96.1518 44.2101 95.7848 44.2507 94.2573C44.2913 90.1211 44.21 85.9948 44.21 81.8585Z" fill="#F46E21"/>
<path d="M17.139 19.2992C17.139 9.9852 22.8702 3.8354 32.3816 2.67487C35.5021 2.24645 38.671 2.27989 41.7813 2.77406C46.2728 3.54774 48.3763 5.62082 49.0469 10.0645C49.2095 11.0564 49.616 11.8599 50.6626 12.0483C53.447 12.4649 53.8535 14.6174 54.1583 16.6905C54.3246 18.3583 54.3687 20.0355 54.2905 21.7095C54.2905 22.255 54.3819 22.87 53.5283 22.9593C52.6747 23.0486 52.4207 22.5129 52.2886 21.8384C52.065 19.9518 51.2198 18.187 49.8803 16.8095C48.2239 15.2423 46.5472 14.9546 44.6673 16.2342C38.743 20.2018 32.8592 20.2712 26.9044 16.3036C24.8721 14.9249 23.1345 15.2026 21.3663 17.0079C20.3181 18.1587 19.6149 19.5692 19.334 21.0846C19.151 21.8781 19.3339 23.1874 17.8808 22.9097C16.6614 22.6716 17.3525 21.5309 17.2102 20.787C17.1387 20.2943 17.1149 19.7962 17.139 19.2992Z" fill="#5A5C5F"/>
<path d="M41.9949 70.7193C41.9949 73.943 41.9949 77.1568 41.9949 80.3805C41.9949 82.2651 41.4156 83.2173 39.2511 83.1181C36.2026 82.9594 33.0829 83.1181 30.0039 83.0586C29.4146 83.0586 28.4796 83.3066 28.439 82.4436C28.439 81.7394 29.1605 81.2434 29.882 81.1145C30.5941 81.0415 31.3106 81.0183 32.0261 81.045C32.5676 81.069 33.1081 80.9805 33.6119 80.7855C34.1157 80.5904 34.5715 80.2933 34.949 79.9136C35.3264 79.5339 35.617 79.0803 35.8015 78.5829C35.9861 78.0854 36.0606 77.5554 36.0197 77.0279C36.0909 75.044 36.0807 72.9611 36.0197 70.9376C35.9486 68.1503 34.4447 66.7616 31.5587 66.6922C27.8497 66.6029 27.8496 66.6029 27.8496 62.9131C27.8496 58.4098 27.2806 58.2908 32.524 58.3602C34.8883 58.3602 37.2594 58.3602 39.6373 58.3602C41.2733 58.3602 41.9949 59.0744 41.9847 60.6515C41.9847 63.9942 41.9949 67.3568 41.9949 70.7193ZM40.3689 62.308C40.3689 61.5938 40.2165 60.7507 39.1699 60.7805C38.1232 60.8102 38.1537 61.7129 38.1537 62.4766C38.1537 63.2404 38.2045 64.143 39.2816 64.0934C40.3588 64.0438 40.3587 63.1809 40.3689 62.308Z" fill="#F7F9FA"/>
<path d="M15.6961 76.3434C15.6961 74.4985 15.6961 73.2486 15.6961 71.9989C15.6961 71.3244 15.4725 70.6598 14.6799 70.6102C13.8873 70.5606 13.4909 71.245 13.4807 72.0088C13.4807 73.6851 13.4198 75.3614 13.4807 77.0377C13.4807 78.3867 12.9422 78.9719 11.5703 78.8926C10.6456 78.8926 9.71071 78.8926 8.77583 78.8926C4.97533 78.8926 4.97531 78.8926 5.19887 75.0936C5.3513 72.5146 5.47332 69.9357 5.6664 67.3568C5.92044 64.1033 7.09915 62.7444 10.3103 61.941C13.1454 61.2268 16.0415 60.6812 18.8055 59.7786C20.594 59.1934 20.8379 60.5523 21.6101 61.3161C22.3824 62.0798 22.8398 62.5361 21.9252 63.5875C20.909 64.7877 21.2748 66.4343 21.3968 67.8527C21.6203 70.5705 20.9699 72.7329 18.4193 74.1711C17.4643 74.8369 16.5547 75.5625 15.6961 76.3434Z" fill="#F46E21"/>
<path d="M21.1224 74.7068C21.8744 80.3309 22.2301 80.7871 25.8578 81.0748C25.8578 81.2037 25.9188 81.3922 25.8578 81.4517C21.1326 85.945 16.448 90.4681 11.6313 94.8722C11.1841 95.2834 10.6566 95.6024 10.0803 95.8101C9.50398 96.0179 8.89069 96.1102 8.27704 96.0815C7.66339 96.0528 7.06196 95.9037 6.50865 95.6431C5.95534 95.3825 5.46146 95.0157 5.05658 94.5647C4.20731 93.6942 3.73364 92.5381 3.73364 91.336C3.73364 90.1339 4.20731 88.9779 5.05658 88.1074C5.35799 87.8086 5.677 87.527 6.01185 87.2643L21.1224 74.7068Z" fill="#F6CDB2"/>
<path d="M36.0299 85.2509C37.9505 85.2509 40.5417 84.5069 41.6189 85.4393C42.8993 86.5403 41.9948 89.1193 42.0253 91.0535C42.0253 96.013 42.0253 96.013 36.9444 96.013C34.912 96.013 32.8798 95.9535 30.9287 96.013C29.7601 96.013 29.2722 95.7551 29.3129 94.5152C29.401 91.9297 29.401 89.3441 29.3129 86.7586C29.3129 85.4096 29.8008 85.0723 31.071 85.1418C32.707 85.2211 34.3634 85.1418 36.0096 85.1418L36.0299 85.2509Z" fill="#68A7E6"/>
<path d="M28.4593 78.9025C23.0634 78.9025 23.5512 79.339 23.5512 74.0125C23.5512 68.3685 23.0838 68.8347 28.876 68.8446C33.8553 68.8446 33.835 68.8446 33.8553 73.8042C33.8858 79.6266 34.0381 78.8629 28.4593 78.9025Z" fill="#F6CDB2"/>
<path d="M67.0535 91.6188C67.2771 96.0427 67.2772 96.0427 62.6841 96.0427C57.908 96.0427 57.908 96.0427 57.908 91.4303C57.908 86.2427 57.9081 86.2427 63.2125 86.2427C66.8504 86.2427 66.8503 86.2427 67.0434 89.7342C67.0739 90.3194 67.0535 90.984 67.0535 91.6188Z" fill="#F6CDB2"/>
<path d="M27.1889 90.0814C27.1889 91.5494 27.1279 93.0571 27.1889 94.4755C27.2397 95.5864 27.006 96.1121 25.6951 96.0725C22.9108 95.9733 20.1164 96.0725 17.332 96.0725C16.7325 96.0725 15.95 96.3204 15.7569 95.4277C15.6576 95.0919 15.6543 94.736 15.7475 94.3986C15.8406 94.0611 16.0266 93.755 16.2853 93.5133C19.4456 90.5376 22.5755 87.5619 25.7257 84.6755C26.7418 83.7729 27.1178 84.2688 27.1483 85.3103C27.2195 86.8676 27.1787 88.4745 27.1889 90.0814Z" fill="#F46E21"/>
<path d="M41.6593 50.6433C41.6875 52.0237 42.0349 53.38 42.6755 54.6109C43.3563 55.8607 42.6755 56.5253 41.4459 56.3765C37.8791 55.95 34.3327 56.2872 30.7659 56.188C28.1645 56.1285 28.1137 56.1087 29.0994 53.8571C29.484 52.8282 29.7034 51.7475 29.7497 50.6532C33.6062 51.9662 37.8051 51.9627 41.6593 50.6433Z" fill="#F6CDB2"/>
<path d="M19.1206 30.1208C19.1206 31.5095 19.0596 32.9081 19.1206 34.2967C19.1815 35.6854 18.6226 35.6358 17.576 35.2887C16.4708 34.9591 15.5042 34.29 14.8199 33.381C14.1357 32.472 13.7705 31.3717 13.7784 30.2437C13.7864 29.1158 14.1673 28.0205 14.8643 27.1208C15.5614 26.2212 16.5373 25.5652 17.647 25.2506C18.836 24.8637 19.1815 25.2506 19.1206 26.3615C19.0596 27.4725 19.1206 28.8214 19.1206 30.1208Z" fill="#F6CDB2"/>
<path d="M52.2783 30.1308V27.0063C52.2783 24.7646 52.6238 24.5761 54.6968 25.6474C55.6216 26.1175 56.3857 26.8409 56.8953 27.7289C57.4049 28.6168 57.6378 29.6307 57.5655 30.646C57.4932 31.6614 57.1188 32.634 56.4883 33.4447C55.8578 34.2553 54.9985 34.8686 54.016 35.2093C52.827 35.6656 52.1361 35.6755 52.258 34.0984C52.3596 32.7891 52.2783 31.4599 52.2783 30.1308Z" fill="#F6CDB2"/>
<path d="M63.3142 84.1498C62.0338 84.1498 60.7432 84.0903 59.4628 84.1498C58.1824 84.2093 57.8064 83.8621 57.8166 82.6421C57.8268 81.4221 58.091 80.8765 59.4831 80.936C62.115 81.0451 64.7571 81.0154 67.3992 80.936C68.578 80.936 68.832 81.4121 68.8117 82.4338C68.7914 83.4555 68.8117 84.2192 67.3789 84.1399C65.9461 84.0605 64.6657 84.1498 63.3142 84.1498Z" fill="#F46E21"/>
<path d="M44.4235 64.4505C43.9256 62.1989 44.4235 60.3043 43.8951 58.4991C43.6918 57.8643 46.0798 54.8092 46.5574 54.9877C47.7891 55.5357 48.882 56.3417 49.7584 57.3485C50.1242 57.7155 49.6161 58.1221 49.3723 58.4197C47.8175 60.3143 46.2526 62.2187 44.4235 64.4505Z" fill="#F46E21"/>
<path d="M25.5632 62.2089C24.1025 61.0097 22.844 59.5938 21.8338 58.0131C21.0818 57.0212 22.3216 56.684 22.85 56.3765C23.6426 55.9202 24.1609 54.3034 25.3904 55.2953C26.4066 56.0888 27.2602 57.051 26.0815 58.6281C25.4311 59.4315 25.675 60.84 25.5632 62.2089Z" fill="#F46E21"/>
<path d="M10.0664 80.9857C8.03408 82.9695 6.51995 84.5764 3.80676 84.1994C2.47557 84.011 2.62806 83.2869 2.60774 82.4537C2.58741 81.6205 2.60768 80.9361 3.81693 80.9758C5.72734 81.0254 7.63778 80.9857 10.0664 80.9857Z" fill="#F46E21"/>
<path d="M25.6647 65.5218C25.9086 66.5137 25.2582 66.7022 24.3843 66.8807C23.3681 67.0989 23.5918 66.4145 23.5511 65.8888C23.4901 65.0655 23.6426 64.3414 24.6892 64.2224C25.7359 64.1034 25.7054 64.7382 25.6647 65.5218Z" fill="#F6CDB2"/>
<path d="M35.9587 42.2916C35.0655 42.3236 34.1754 42.1725 33.3457 41.8479C32.516 41.5232 31.7653 41.0323 31.142 40.4069C30.6441 39.9209 30.4104 39.3456 31.0099 38.7703C31.1053 38.6648 31.2226 38.5802 31.354 38.5223C31.4854 38.4644 31.6279 38.4345 31.7721 38.4345C31.9162 38.4345 32.0588 38.4644 32.1902 38.5223C32.3216 38.5802 32.4388 38.6648 32.5342 38.7703C34.7698 40.6351 37.0054 40.6648 39.2715 38.8199C39.8304 38.3537 40.3994 38.2148 40.938 38.8199C41.4766 39.425 41.0905 40.0102 40.6129 40.4565C40.0017 41.0499 39.275 41.518 38.4757 41.8331C37.6764 42.1482 36.8206 42.3041 35.9587 42.2916Z" fill="#0B0909"/>
<path d="M31.01 30.8052C30.9186 32.1343 30.2581 32.908 29.0285 32.9477C28.4895 32.9582 27.9683 32.7593 27.5796 32.3947C27.1908 32.0301 26.9663 31.5297 26.9555 31.0035C26.9447 30.4774 27.1485 29.9686 27.522 29.5892C27.8955 29.2097 28.4081 28.9906 28.9472 28.9801C29.4644 28.9709 29.9658 29.1546 30.3491 29.4937C30.7324 29.8328 30.9687 30.3018 31.01 30.8052Z" fill="#0B0909"/>
<path d="M45.0025 31.0731C44.7993 32.2138 44.1693 33.0569 42.8991 32.9875C42.3601 32.9704 41.85 32.745 41.4812 32.3608C41.1125 31.9767 40.9152 31.4653 40.9327 30.9392C40.9502 30.413 41.1811 29.9152 41.5746 29.5553C41.9682 29.1954 42.492 29.0027 43.0311 29.0198C43.2989 29.0275 43.5626 29.0868 43.8068 29.1943C44.0511 29.3018 44.2711 29.4554 44.4544 29.6462C44.6376 29.837 44.7803 30.0614 44.8744 30.3062C44.9684 30.5511 45.012 30.8117 45.0025 31.0731Z" fill="#0B0909"/>
<path d="M40.3689 62.3081C40.3689 63.181 40.2775 64.0439 39.2613 64.0935C38.2451 64.1431 38.1232 63.2703 38.1334 62.4767C38.1435 61.6832 38.1334 60.8103 39.1495 60.7806C40.1657 60.7508 40.3283 61.5543 40.3689 62.3081Z" fill="#0B0909"/>
</g>
<defs>
<clipPath id="clip0_805_1952">
<rect width="74.0894" height="98" fill="white" transform="translate(0.382324 0.175293)"/>
</clipPath>
</defs>
</svg>
