<svg width="96" height="84" viewBox="0 0 96 84" fill="none" xmlns="http://www.w3.org/2000/svg">
<g clip-path="url(#clip0_805_1921)">
<path d="M62.8297 43.196L51.4054 29.8919C53.272 29.8919 54.7816 29.8298 56.2811 29.8919C57.3011 29.9451 57.5255 29.5903 57.5153 28.7654C57.5153 25.1644 57.5153 21.5635 57.5153 17.9714C57.5153 16.7651 57.9131 16.5168 59.2085 16.5523C62.1972 16.6409 65.1961 16.6587 68.1848 16.5523C69.5822 16.499 69.8372 16.907 69.8066 18.0246C69.725 21.457 69.8678 24.8984 69.7352 28.322C69.7352 29.6967 70.2249 29.9983 71.6325 29.8919C73.0401 29.7854 74.1621 29.8919 75.8758 29.8919L64.6555 42.8856C65.2063 43.4266 65.8795 43.1694 66.461 43.1694C74.866 43.1694 83.2607 43.1694 91.6657 43.1694C94.7258 43.1694 95.7459 44.0563 95.7459 46.6107V79.6581C95.7459 82.1327 94.7258 83.0197 91.8086 83.0197H4.90237C2.03609 83.0197 1.00586 82.1327 1.00586 79.6227C1.00586 68.6069 1.00586 57.591 1.00586 46.5752C1.00586 44.961 1.4751 43.6838 3.39275 43.2492C4.53518 42.9831 4.04559 42.2913 4.05579 41.8035C4.05579 35.4352 4.05579 29.067 4.05579 22.7076V5.63401C4.05579 3.47874 4.5964 2.75144 7.11587 1.99754C11.9712 0.525217 16.9897 0.516358 22.0286 0.844527C24.3832 0.943764 26.7058 1.35963 28.9138 2.07736C29.774 2.2974 30.5179 2.77321 31.0157 3.42166C31.5135 4.07011 31.7335 4.84999 31.6373 5.62513C31.4945 8.83586 31.6373 12.0466 31.5659 15.2573C31.5659 16.3837 31.6576 16.8538 33.2591 16.7385C37.5157 16.3708 41.8138 16.6712 45.9482 17.6254C49.2735 18.4503 49.9365 19.2486 49.9365 22.1755C49.9365 28.7122 49.9365 35.2401 49.9365 41.7769C49.9365 42.9299 50.2425 43.2581 51.5992 43.2226C55.1081 43.1428 58.7394 43.196 62.8297 43.196ZM48.4269 45.8568C34.2383 45.8568 20.0395 45.8568 5.85098 45.8568C4.32094 45.8568 3.98439 46.2205 3.99459 47.4977C4.05579 57.9577 4.05579 68.4176 3.99459 78.8776C3.99459 80.075 4.26997 80.4475 5.749 80.4387C34.1397 80.4032 62.527 80.4032 90.9109 80.4387C92.3594 80.4387 92.6756 80.1016 92.6654 78.8865C92.611 68.4206 92.611 57.9606 92.6654 47.5065C92.6654 46.2471 92.3696 45.8479 90.8192 45.8479C76.6918 45.8923 62.5645 45.8657 48.4269 45.8657V45.8568ZM69.5924 32.6946C66.665 32.4551 66.6649 32.4551 66.6649 30.0338V23.2398C66.6649 19.2042 66.6649 19.2397 62.034 19.2574C60.9018 19.2574 60.4938 19.4614 60.5244 20.5258C60.606 23.8341 60.4428 27.1601 60.606 30.4595C60.6876 32.1536 60.1776 32.8986 58.1885 32.6059C58.1069 32.6059 58.0151 32.7123 57.7805 32.872C59.5452 34.9208 61.3404 36.9696 63.0847 39.0806C63.5947 39.6748 63.8599 39.4087 64.2067 39.0007C65.9407 36.9342 67.685 34.9208 69.5924 32.7035V32.6946ZM7.18721 7.5232C7.12601 13.2883 5.67757 12.6497 12.8586 13.6874C13.1748 13.7318 13.4808 13.7939 13.797 13.8116C18.2423 14.2218 22.7365 13.9212 27.0574 12.9247C27.7714 12.7384 28.5466 12.6054 28.5058 11.6741C28.4344 10.3082 28.5058 8.93343 28.5058 7.4611C21.5155 9.01588 14.191 9.04027 7.18721 7.53207V7.5232ZM25.4151 23.4349C25.4975 24.5632 25.4975 25.6948 25.4151 26.8231C25.2111 28.2422 25.9761 28.7566 27.4552 29.0493C33.1625 30.1779 39.0883 30.1779 44.7956 29.0493C46.3665 28.7477 47.0703 28.1623 46.8357 26.6723C46.7584 25.5824 46.7584 24.4893 46.8357 23.3994C39.8113 24.9664 32.448 24.9816 25.4151 23.4438V23.4349ZM36.7986 37.8832C38.6307 37.9044 40.4611 37.7767 42.2659 37.5018C46.7948 36.9696 46.8254 36.9076 46.805 32.9341C46.8 32.878 46.8 32.8216 46.805 32.7655C46.9784 31.6923 46.6418 31.3553 45.2852 31.6569C40.0053 32.7168 34.539 32.8765 29.1892 32.1269C27.9549 31.985 26.2515 31.0537 25.6497 31.6835C25.0479 32.3132 25.5069 33.9008 25.3845 35.0539C25.3298 35.266 25.3277 35.4858 25.3781 35.6987C25.4285 35.9117 25.5304 36.1129 25.677 36.289C25.8236 36.4651 26.0115 36.6121 26.2284 36.7203C26.4453 36.8284 26.6861 36.8953 26.935 36.9164C30.1566 37.6298 33.475 37.958 36.7986 37.8921V37.8832ZM7.07503 15.4791C7.07503 16.7563 7.17703 17.9182 7.07503 19.0268C6.97302 20.1355 7.52385 20.6765 8.74788 20.9692C12.823 21.8345 17.0299 22.1338 21.2126 21.8562C22.049 21.8562 22.4672 21.5812 22.406 20.7652C22.3824 20.2333 22.5587 19.7091 22.9085 19.2722C23.2582 18.8353 23.7622 18.5093 24.3441 18.3439C25.4111 17.9106 26.5297 17.5805 27.6796 17.3594C28.8118 17.1376 28.4344 16.4724 28.3936 15.9403C28.3324 15.0533 27.6081 15.6299 27.2817 15.7097C23.8216 16.4227 20.2685 16.7358 16.7143 16.641C13.4613 16.5691 10.2279 16.1793 7.07503 15.4791ZM7.07503 23.4615C7.14637 24.6433 7.14637 25.8275 7.07503 27.0093C6.91182 28.2865 7.59526 28.7388 8.88049 29.0315C11.7048 29.6798 14.6202 29.9784 17.5405 29.9185C23.6607 29.7854 22.1714 30.6103 22.3856 25.4838C22.3805 25.4277 22.3805 25.3713 22.3856 25.3152C22.457 24.6855 22.1918 24.4283 21.4166 24.4904C16.6012 24.8444 11.7517 24.4845 7.07503 23.4261V23.4615ZM17.2753 37.9276C23.7218 37.7413 22.1408 38.5839 22.3754 33.4928C22.3754 32.6059 22.049 32.4019 21.0698 32.4729C17.7108 32.68 14.3359 32.576 11.0022 32.1624C9.70673 32.0117 8.03388 31.0538 7.29946 31.719C6.56504 32.3842 7.17707 33.9274 7.05467 35.0716C6.93226 36.2158 7.42183 36.6415 8.60506 36.9253C11.4265 37.563 14.3295 37.8879 17.2447 37.8921L17.2753 37.9276ZM46.7234 39.4531C43.406 40.1721 40.0031 40.5501 36.5844 40.5795C33.0746 40.638 29.5718 40.286 26.1699 39.5329C25.5579 39.391 25.3947 39.6128 25.4049 40.1006C25.4662 40.6521 25.4662 41.2076 25.4049 41.7591C25.1499 43.0718 25.8333 43.2758 27.19 43.2581C32.4635 43.1871 37.737 43.2581 43.0106 43.2581C47.0601 43.2049 47.0601 43.2048 46.6929 39.4176L46.7234 39.4531ZM14.7558 43.2403C16.8469 43.2403 18.9583 43.1428 21.0392 43.2403C22.8344 43.3468 22.2836 42.3534 22.3958 41.5285C22.5488 40.4908 21.9674 40.4021 20.9576 40.4553C17.2784 40.703 13.5777 40.527 9.9515 39.932C7.01383 39.4354 7.06482 39.4442 7.07503 42.0429C7.07503 42.9831 7.39122 43.267 8.46224 43.2315C10.5227 43.1516 12.624 43.2049 14.7252 43.2049L14.7558 43.2403ZM27.5469 4.70273C21.2024 2.96897 14.3989 2.96897 8.05427 4.70273C14.3928 6.42393 21.1862 6.41154 27.5164 4.66724L27.5469 4.70273ZM26.3943 20.6677C32.7429 22.3738 39.5386 22.3583 45.8768 20.6233C39.5258 18.8807 32.7106 18.8869 26.3637 20.6411L26.3943 20.6677Z" fill="#030201"/>
<path d="M71.2551 13.9712C75.2842 9.29701 79.0583 4.92441 82.812 0.542914C83.2098 0.0817043 83.4955 -0.211001 84.0667 0.445336C87.8408 4.88004 91.6557 9.2704 95.7052 13.9712C94.2306 14.039 92.7528 14.039 91.2782 13.9712C89.7686 13.8204 89.5238 14.3437 89.5544 15.5233C89.6462 19.009 89.5544 22.4947 89.6156 25.9804C89.6156 26.8673 89.5238 27.3552 88.2182 27.3197C85.0459 27.2221 81.8634 27.2399 78.6809 27.3197C77.5589 27.3197 77.3243 27.0181 77.3447 26.1045C77.3447 22.5124 77.3447 18.9203 77.3447 15.3194C77.3447 14.2107 76.9877 13.9091 75.7637 13.989C74.4377 14.0422 73.0504 13.9712 71.2551 13.9712ZM77.4467 11.2394C80.4252 11.3725 80.4252 11.3725 80.4252 13.5898V20.5434C80.4252 24.7032 80.4252 24.6589 85.1377 24.6322C86.3924 24.6322 86.5759 24.242 86.5555 23.293C86.4943 20.0379 86.678 16.7739 86.474 13.5366C86.3618 11.7627 86.8922 10.9911 88.973 11.2749C89.0342 11.2749 89.126 11.133 89.279 10.9822L84.0769 4.93326C83.7198 4.52527 83.4547 4.2592 82.9549 4.84459C81.2106 6.91116 79.4153 8.95999 77.4467 11.2394Z" fill="#030201"/>
<path d="M48.427 45.8657C62.5645 45.8657 76.6919 45.8657 90.8192 45.8657C92.3697 45.8657 92.6757 46.2648 92.6655 47.5243C92.6111 57.9784 92.6111 68.4384 92.6655 78.9043C92.6655 80.1194 92.3594 80.4653 90.911 80.4565C62.5203 80.421 34.133 80.421 5.74906 80.4565C4.27002 80.4565 3.98444 80.0928 3.99464 78.8954C4.05585 68.4295 4.05585 57.9695 3.99464 47.5154C3.99464 46.2382 4.321 45.8657 5.85104 45.8746C20.0396 45.8923 34.2384 45.8657 48.427 45.8657ZM48.1209 77.7513C61.3812 77.7513 74.6416 77.7513 87.8305 77.7513C89.2177 77.7513 89.6461 77.5029 89.636 76.2257C89.5611 67.4805 89.5611 58.7382 89.636 49.9988C89.636 48.766 89.3198 48.4378 87.8713 48.4378C61.5207 48.4792 35.1734 48.4792 8.82956 48.4378C7.44232 48.4378 7.01389 48.6773 7.02409 49.9545C7.09889 58.6465 7.09889 67.3356 7.02409 76.0217C7.02409 77.3876 7.38108 77.7513 8.98252 77.7424C22.0287 77.7246 35.0748 77.7513 48.0801 77.7513H48.1209Z" fill="#00C91A"/>
<path d="M69.5927 32.7035C67.6852 34.9208 65.941 36.9342 64.2069 38.9653C63.8601 39.3733 63.5949 39.6394 63.0849 39.0451C61.3407 36.9697 59.5454 34.9208 57.7808 32.8365C58.0154 32.6769 58.1071 32.5616 58.1887 32.5704C60.2288 32.8631 60.6879 32.1181 60.6063 30.424C60.443 27.1246 60.6062 23.7986 60.5246 20.4903C60.5246 19.4259 60.902 19.2308 62.0343 19.222C66.6652 19.222 66.6651 19.1687 66.6651 23.2043V29.9983C66.6651 32.4374 66.6652 32.4374 69.5927 32.7035Z" fill="#FC816D"/>
<path d="M7.18739 7.53198C14.1715 9.05751 21.4811 9.05751 28.4652 7.53198C28.4652 9.00431 28.4652 10.3791 28.4652 11.745C28.4652 12.6762 27.7307 12.8093 27.0167 12.9955C22.6958 13.9921 18.2017 14.2927 13.7564 13.8825C13.4402 13.8825 13.1342 13.8026 12.818 13.7583C5.67777 12.6585 7.12619 13.2971 7.18739 7.53198Z" fill="#FAC328"/>
<path d="M25.4153 23.4438C32.4439 24.9962 39.8073 24.9962 46.8359 23.4438C46.7587 24.5338 46.7587 25.6268 46.8359 26.7167C47.0501 28.1712 46.3463 28.7921 44.7958 29.0937C39.0886 30.2223 33.1627 30.2223 27.4554 29.0937C26.007 28.801 25.2419 28.2866 25.4153 26.8675C25.4994 25.7274 25.4994 24.5839 25.4153 23.4438Z" fill="#F9D46F"/>
<path d="M36.7987 37.8919C33.4756 37.9608 30.1572 37.6355 26.9351 36.9252C26.6862 36.9041 26.4454 36.8372 26.2285 36.729C26.0116 36.6208 25.8237 36.4738 25.6771 36.2977C25.5305 36.1216 25.4286 35.9204 25.3782 35.7075C25.3278 35.4946 25.33 35.2747 25.3846 35.0626C25.507 33.9096 24.9868 32.4018 25.6498 31.6922C26.3128 30.9827 27.9551 31.9938 29.1893 32.1357C34.5391 32.8852 40.0054 32.7256 45.2853 31.6656C46.642 31.3641 46.9786 31.6656 46.8051 32.7743C46.8001 32.8304 46.8001 32.8867 46.8051 32.9428C46.8051 36.9163 46.8051 36.9784 42.266 37.5106C40.4612 37.7854 38.6308 37.9131 36.7987 37.8919Z" fill="#FAC328"/>
<path d="M7.07522 15.4791C10.2388 16.1754 13.4826 16.5592 16.7451 16.6233C20.2994 16.7181 23.8525 16.405 27.3126 15.692C27.639 15.6122 28.3325 15.0711 28.4243 15.9226C28.4243 16.437 28.8426 17.12 27.7104 17.3417C26.5383 17.5675 25.399 17.9067 24.3137 18.3528C23.7318 18.5183 23.2278 18.8442 22.8781 19.2811C22.5284 19.7181 22.3519 20.2422 22.3756 20.7742C22.4368 21.5901 22.0186 21.8296 21.1822 21.8651C16.9995 22.1427 12.7926 21.8434 8.71745 20.9781C7.49342 20.6854 6.91205 20.2154 7.04465 19.0358C7.17725 17.8561 7.07522 16.7563 7.07522 15.4791Z" fill="#F9D46F"/>
<path d="M7.07525 23.426C11.7329 24.4754 16.5611 24.8323 21.3556 24.4815C22.1308 24.4815 22.3756 24.6766 22.3246 25.3063C22.3195 25.3624 22.3195 25.4188 22.3246 25.4749C22.1104 30.5925 23.6303 29.7677 17.4795 29.9096C14.5593 29.9695 11.6439 29.6709 8.81952 29.0226C7.53429 28.7299 6.85085 28.2776 7.01405 27.0004C7.10687 25.8107 7.1273 24.6176 7.07525 23.426Z" fill="#FAC328"/>
<path d="M17.2448 37.892C14.3296 37.8878 11.4266 37.563 8.60514 36.9252C7.42191 36.6414 6.93234 36.1536 7.05475 35.0715C7.17715 33.9895 6.61613 32.3309 7.29954 31.7189C7.98296 31.1069 9.70681 32.0116 11.0022 32.1624C14.336 32.5759 17.7108 32.68 21.0699 32.4728C22.0899 32.4018 22.4163 32.5704 22.3755 33.4928C22.1103 38.5483 23.6914 37.7057 17.2448 37.892Z" fill="#F9D46F"/>
<path d="M46.6931 39.4175C47.0501 43.2047 47.0501 43.2047 43.0006 43.2047C37.7271 43.2047 32.4535 43.1604 27.18 43.2047C25.8234 43.2047 25.1399 43.0185 25.3949 41.7058C25.4562 41.1542 25.4562 40.5988 25.3949 40.0472C25.3949 39.5594 25.5479 39.3377 26.16 39.4796C29.5524 40.2273 33.0448 40.5763 36.5438 40.5173C39.9647 40.4973 43.3712 40.1282 46.6931 39.4175Z" fill="#F9D46F"/>
<path d="M14.7253 43.2048C12.624 43.2048 10.5228 43.1516 8.43175 43.2048C7.41173 43.2048 7.04453 42.9564 7.04453 42.0163C7.04453 39.4176 6.98334 39.4087 9.92101 39.9054C13.5472 40.5004 17.2479 40.6763 20.9271 40.4287C21.9471 40.3755 22.5183 40.4287 22.3653 41.5019C22.2531 42.2913 22.8039 43.3201 21.0087 43.2137C18.9278 43.0806 16.8163 43.2048 14.7253 43.2048Z" fill="#FAC328"/>
<path d="M27.5164 4.66726C21.1726 6.4056 14.3675 6.4056 8.02368 4.66726C14.3683 2.9335 21.1718 2.9335 27.5164 4.66726Z" fill="#F9D46F"/>
<path d="M26.3638 20.6409C32.698 18.8837 39.5015 18.8682 45.8462 20.5965C39.508 22.3316 32.7124 22.3471 26.3638 20.6409Z" fill="#FAC328"/>
<path d="M77.4468 11.2394C79.4154 8.95996 81.2107 6.91112 82.9549 4.83568C83.4548 4.2503 83.7199 4.51638 84.0769 4.92438L89.2791 10.9733C89.1261 11.1241 89.0343 11.2749 88.9731 11.266C86.9331 10.9822 86.3618 11.7449 86.474 13.5277C86.678 16.7739 86.474 20.0378 86.5556 23.2841C86.5556 24.2331 86.3924 24.6145 85.1378 24.6233C80.4253 24.6233 80.4253 24.6943 80.4253 20.5345V13.5809C80.4253 11.3724 80.4253 11.3724 77.4468 11.2394Z" fill="#FC816D"/>
<path d="M48.0802 77.7511C35.034 77.7511 21.9879 77.7511 8.94179 77.7511C7.34035 77.7511 6.97316 77.3963 6.98336 76.0304C7.05816 67.3384 7.05816 58.6493 6.98336 49.9632C6.98336 48.686 7.40153 48.4376 8.78876 48.4465C35.1394 48.482 61.4867 48.482 87.8305 48.4465C89.279 48.4465 89.6054 48.7747 89.5952 50.0075C89.534 58.7469 89.534 67.4892 89.5952 76.2344C89.5952 77.5116 89.177 77.76 87.7898 77.76C74.6008 77.7333 61.3405 77.7511 48.0802 77.7511ZM58.1478 75.0902C64.4414 75.0902 70.3881 75.0902 76.2635 75.0902C76.4307 75.1181 76.6028 75.1151 76.7686 75.0814C76.9344 75.0476 77.0902 74.9839 77.2259 74.8944C77.3615 74.8049 77.474 74.6916 77.5559 74.5619C77.6379 74.4321 77.6876 74.2888 77.7017 74.1412C78.1312 72.514 79.0766 71.0241 80.4306 69.8405C81.7846 68.6569 83.4931 67.8269 85.3621 67.4448C86.1781 67.2497 86.5249 66.9925 86.5147 66.2297C86.4535 64.1809 86.4637 62.132 86.5147 60.0921C86.5147 59.3914 86.3515 59.01 85.4947 58.806C83.5898 58.4322 81.8466 57.5949 80.4685 56.3919C79.0904 55.1889 78.1343 53.6698 77.7119 52.012C77.5487 51.4621 77.3141 51.1251 76.5797 51.1251C70.5615 51.1251 64.5536 51.1251 58.3416 51.1251C68.3889 58.8149 66.308 69.4848 58.1886 75.0902H58.1478ZM38.5531 75.0902C33.8508 71.7731 31.4741 67.8972 31.4945 63.0367C31.5149 58.1763 33.9936 54.4068 38.4919 51.1872C32.0861 51.1872 26.119 51.1872 20.1314 51.1872C19.3256 51.1872 19.1114 51.4799 18.8666 52.0741C18.4329 53.73 17.4658 55.2441 16.0785 56.4395C14.6912 57.6348 12.941 58.4618 11.0328 58.8237C10.8755 58.8364 10.7229 58.8772 10.5847 58.9437C10.4465 59.0102 10.3256 59.101 10.2298 59.2102C10.1339 59.3193 10.0651 59.4446 10.0278 59.5781C9.99047 59.7116 9.98534 59.8504 10.0128 59.9856C10.0536 62.0906 10.0536 64.1927 10.0128 66.2918C10.0128 66.9747 10.2882 67.2497 11.0328 67.4182C12.937 67.7942 14.68 68.6308 16.0607 69.8314C17.4415 71.032 18.4036 72.5476 18.8361 74.2033C18.9993 74.7355 19.1828 75.0902 19.9376 75.0902C26.068 75.0814 32.0964 75.0814 38.5939 75.0814L38.5531 75.0902ZM62.0137 63.0633C61.9974 60.6947 61.173 58.3836 59.6448 56.4228C58.1166 54.462 55.9535 52.9396 53.4295 52.0487C50.9055 51.1578 48.1341 50.9383 45.4665 51.4181C42.799 51.8979 40.3551 53.0554 38.4447 54.7439C36.5343 56.4324 35.2433 58.576 34.7352 60.9031C34.227 63.2302 34.5247 65.6361 35.5905 67.8159C36.6562 69.9958 38.442 71.8515 40.7217 73.1481C43.0014 74.4446 45.6725 75.1237 48.3964 75.0991C52.0451 75.071 55.5329 73.7885 58.0977 71.5317C60.6625 69.2749 62.096 66.2273 62.0851 63.0544L62.0137 63.0633ZM10.125 56.1274C11.3846 55.9665 12.5698 55.5097 13.553 54.8064C14.5362 54.1031 15.2801 53.1799 15.7046 52.1362C15.9494 51.4266 15.7862 51.2493 14.8783 51.1694C10.023 50.9211 10.023 50.8945 10.074 55.1518C10.1454 55.4977 10.176 55.7904 10.1964 56.1186L10.125 56.1274ZM86.3515 56.1274C86.8208 51.0275 86.8208 51.0275 81.8328 51.196H81.4554C80.7108 51.1251 80.6292 51.4267 80.7618 51.9854C81.1717 53.0631 81.9184 54.0204 82.9181 54.7503C83.9179 55.4802 85.1313 55.9539 86.423 56.1186L86.3515 56.1274ZM13.1545 75.0814C13.9195 74.9661 15.3475 75.4805 15.6637 74.8685C16.1431 73.9816 15.1027 73.0503 14.4193 72.2609C14.0778 71.8633 13.6684 71.5134 13.2055 71.2232C12.3385 70.6822 11.3287 69.8041 10.3596 70.2032C9.58442 70.5225 10.1046 71.7021 10.0944 72.4915C10.1148 75.0725 10.1454 75.0725 13.2259 75.0725L13.1545 75.0814ZM83.1792 75.0814C83.6716 75.0496 84.1659 75.0496 84.6583 75.0814C86.2087 75.3297 86.6983 74.7089 86.4535 73.4672C86.4535 73.2543 86.4535 73.0237 86.4535 72.8108C86.3311 71.9239 86.9432 70.4693 86.1577 70.2209C84.9031 69.8218 83.7504 70.895 82.7406 71.6401C82.4466 71.8526 82.189 72.1004 81.9756 72.3762C81.3942 73.1567 80.3844 73.9993 80.8536 74.8685C81.231 75.4362 82.5468 75.0104 83.2506 75.0725L83.1792 75.0814Z" fill="#030201"/>
<path d="M58.1887 75.0902C66.3489 69.4848 68.389 58.8149 58.3417 51.1428C64.5537 51.1428 70.5821 51.1428 76.5798 51.1428C77.3142 51.1428 77.5488 51.4533 77.712 52.0298C78.1344 53.6876 79.0905 55.2066 80.4686 56.4097C81.8467 57.6127 83.59 58.45 85.4948 58.8237C86.3822 59.0277 86.5149 59.4091 86.5149 60.1098C86.5149 62.1498 86.4639 64.1986 86.5149 66.2474C86.5149 67.0102 86.1782 67.2674 85.3622 67.4625C83.4932 67.8446 81.7848 68.6746 80.4307 69.8582C79.0767 71.0419 78.1313 72.5318 77.7018 74.159C77.6877 74.3065 77.6381 74.4498 77.5561 74.5796C77.4741 74.7094 77.3616 74.8227 77.226 74.9122C77.0903 75.0017 76.9346 75.0654 76.7688 75.0991C76.603 75.1329 76.4308 75.1359 76.2636 75.108C70.3985 75.0725 64.4823 75.0902 58.1887 75.0902Z" fill="#00C91A"/>
<path d="M38.594 75.0815C32.0964 75.0815 26.0681 75.0815 20.0499 75.0815C19.2951 75.0815 19.1115 74.7267 18.9483 74.1946C18.5158 72.5389 17.5537 71.0233 16.173 69.8227C14.7923 68.6221 13.0492 67.7855 11.1451 67.4095C10.3903 67.241 10.1251 66.966 10.1251 66.2831C10.1659 64.1781 10.1659 62.076 10.1251 59.9769C10.0976 59.8416 10.1027 59.7029 10.1401 59.5694C10.1774 59.4359 10.2462 59.3106 10.342 59.2014C10.4379 59.0922 10.5587 59.0015 10.697 58.935C10.8352 58.8685 10.9878 58.8276 11.1451 58.815C13.0533 58.4531 14.8035 57.6261 16.1908 56.4307C17.5781 55.2354 18.5452 53.7212 18.9789 52.0654C19.1727 51.4357 19.4379 51.1785 20.2438 51.1785C26.2109 51.1785 32.1781 51.1785 38.6042 51.1785C34.1059 54.3981 31.6374 58.2208 31.6068 63.028C31.5762 67.8352 33.8917 71.7644 38.594 75.0815Z" fill="#00C91A"/>
<path d="M62.0851 63.0544C62.1033 65.4231 61.3125 67.7431 59.813 69.7206C58.3135 71.6981 56.1727 73.2441 53.6618 74.1627C51.1509 75.0813 48.3829 75.3312 45.7085 74.8808C43.0341 74.4303 40.5737 73.2997 38.6389 71.6323C36.7041 69.9649 35.382 67.8356 34.8402 65.5143C34.2983 63.1929 34.561 60.784 35.595 58.5926C36.6291 56.4012 38.3878 54.526 40.6486 53.2045C42.9094 51.883 45.5704 51.1748 48.2944 51.1694C51.9301 51.1716 55.4178 52.4211 58 54.6465C60.5822 56.8719 62.0502 59.8933 62.0851 63.0544ZM46.7848 64.447C45.7647 64.6332 44.2041 63.9503 43.8471 64.8195C43.591 65.5147 43.5879 66.2616 43.838 66.9584C44.0881 67.6552 44.5792 68.268 45.2445 68.7131C45.3305 68.7964 45.4302 68.8681 45.5404 68.926C46.0201 69.068 46.4173 69.3669 46.6477 69.7594C46.8782 70.1518 46.9236 70.6069 46.7745 71.0281C46.6011 72.0037 46.846 72.5359 48.2434 72.4738C49.3756 72.4206 50.0897 72.3141 49.8245 71.1434C49.5593 69.9726 50.2733 69.6444 51.5279 69.7509C52.0481 69.7952 52.8539 70.0702 52.8947 69.1123C53.0069 66.3095 53.2823 63.4624 49.8346 61.7772C50.8547 61.591 52.4153 62.274 52.7723 61.4047C53.0283 60.7096 53.0315 59.9626 52.7815 59.2658C52.5314 58.569 52.0402 57.9562 51.3749 57.5111C51.294 57.4233 51.1933 57.3509 51.0791 57.2982C50.6009 57.1543 50.2053 56.8551 49.9753 56.4633C49.7452 56.0714 49.6984 55.6173 49.8448 55.1962C50.0182 54.2205 49.7734 53.6884 48.3862 53.7504C47.2438 53.8037 46.5298 53.919 46.795 55.0808C47.0602 56.2427 46.3462 56.5798 45.0915 56.4734C44.5713 56.429 43.7655 56.1541 43.7247 57.112C43.6227 59.9236 43.3371 62.7618 46.7848 64.447Z" fill="#F9D46F"/>
<path d="M10.1965 56.1187C10.1965 55.7906 10.1455 55.4624 10.1455 55.1431C10.1455 50.8858 10.1455 50.9124 14.9499 51.1607C15.8577 51.2139 16.0209 51.4179 15.7761 52.1275C15.3516 53.1712 14.6077 54.0944 13.6245 54.7977C12.6413 55.501 11.4561 55.9578 10.1965 56.1187Z" fill="#F7F9FA"/>
<path d="M86.4231 56.1188C85.1431 55.9427 83.9439 55.4628 82.9576 54.732C81.9713 54.0011 81.2362 53.0477 80.8333 51.9767C80.7007 51.418 80.7823 51.0898 81.5269 51.1874H81.9043C86.8922 51.0632 86.8923 51.0632 86.4231 56.1188Z" fill="#F7F9FA"/>
<path d="M13.2259 75.0725C10.1659 75.0725 10.1149 75.0725 10.1659 72.4827C10.1659 71.6933 9.65586 70.5137 10.4311 70.1944C11.4001 69.7952 12.4099 70.6733 13.2769 71.2143C13.7399 71.5045 14.1492 71.8545 14.4908 72.2521C15.1742 73.0414 16.2146 73.9461 15.7352 74.8597C15.4394 75.4716 13.991 74.9572 13.2259 75.0725Z" fill="#F7F9FA"/>
<path d="M83.2508 75.0726C82.5469 74.9751 81.2107 75.4363 80.9149 74.8686C80.4457 73.9817 81.4555 73.1568 82.0369 72.3763C82.2504 72.1006 82.508 71.8527 82.802 71.6402C83.822 70.8951 84.9644 69.8219 86.2191 70.2211C87.0045 70.4694 86.3925 71.9062 86.5149 72.8109C86.5149 73.0238 86.5149 73.2544 86.5149 73.4673C86.7393 74.709 86.27 75.3298 84.7196 75.0815C84.2309 75.0472 83.74 75.0443 83.2508 75.0726Z" fill="#F7F9FA"/>
<path d="M49.8755 61.7774C53.313 63.4626 53.0376 66.3097 52.9356 69.1124C52.9356 70.0703 52.0889 69.7954 51.5687 69.751C50.3141 69.6446 49.5899 69.8929 49.8653 71.1435C50.1407 72.3941 49.4165 72.4207 48.2843 72.4739C46.8868 72.536 46.642 72.0039 46.8154 71.0282C46.9645 70.6071 46.919 70.152 46.6886 69.7596C46.4581 69.3671 46.0609 69.0682 45.5812 68.9262C45.4711 68.8683 45.3714 68.7965 45.2854 68.7133C44.6201 68.2681 44.1289 67.6554 43.8788 66.9585C43.6287 66.2617 43.6319 65.5148 43.888 64.8196C44.245 63.9327 45.826 64.6334 46.8257 64.4471C46.8257 64.8817 46.8257 65.334 46.8257 65.7509C46.9277 66.7709 47.6722 67.1434 48.7637 67.1168C49.3043 67.1168 49.8959 67.241 49.8857 66.4338C49.8755 65.6267 49.7429 64.66 48.4475 64.4915C47.9112 64.3359 47.3313 64.3359 46.795 64.4915C43.3575 62.8063 43.6431 59.968 43.7349 57.1564C43.7349 56.1985 44.5816 56.4735 45.1018 56.5178C46.3564 56.6243 47.0806 56.3759 46.8052 55.1253C46.5298 53.8748 47.254 53.8481 48.3965 53.7949C49.7837 53.7328 50.0285 54.265 49.8551 55.2406C49.7087 55.6618 49.7554 56.1159 49.9855 56.5077C50.2156 56.8996 50.6112 57.1988 51.0894 57.3427C51.2036 57.3954 51.3043 57.4678 51.3851 57.5556C52.0504 58.0007 52.5416 58.6135 52.7917 59.3103C53.0418 60.0071 53.0386 60.7541 52.7826 61.4492C52.4256 62.3362 50.8445 61.6355 49.8449 61.8218C49.8449 61.3872 49.8449 60.9348 49.8449 60.518C49.7429 59.498 49.0085 59.1255 47.9171 59.1521C47.3663 59.1521 46.7746 59.0279 46.7848 59.835C46.7848 60.7841 46.9277 61.6089 48.2333 61.7774C48.7661 61.9329 49.3427 61.9329 49.8755 61.7774Z" fill="#030201"/>
<path d="M49.8754 61.7774C49.3426 61.9329 48.766 61.9329 48.2331 61.7774C46.9275 61.6267 46.8051 60.7841 46.7847 59.8351C46.7847 59.0279 47.3661 59.1698 47.9169 59.1521C49.0084 59.1521 49.7427 59.498 49.8447 60.518C49.8447 60.9437 49.8447 61.4049 49.8447 61.8218L49.8754 61.7774Z" fill="#F9D46F"/>
<path d="M46.7847 64.4826C47.321 64.3271 47.9008 64.3271 48.4371 64.4826C49.7325 64.6334 49.8652 65.4849 49.8754 66.425C49.8856 67.3652 49.2939 67.0902 48.7533 67.108C47.6619 67.108 46.9173 66.762 46.8153 65.7421C46.8153 65.3163 46.8153 64.8551 46.8153 64.4383L46.7847 64.4826Z" fill="#F9D46F"/>
</g>
<defs>
<clipPath id="clip0_805_1921">
<rect width="94.7706" height="83" fill="white" transform="translate(0.944824 0.0639648)"/>
</clipPath>
</defs>
</svg>
