<svg width="117" height="100" viewBox="0 0 117 100" fill="none" xmlns="http://www.w3.org/2000/svg">
<g clip-path="url(#clip0_805_1830)">
<path d="M70.279 13.7786H72.635C73.3185 20.2481 76.7521 24.5342 82.4049 25.9089C86.5621 26.9198 90.261 25.6987 93.6624 23.2969V84.6684C92.7618 84.7251 91.8612 84.8302 90.9525 84.8302H24.6461C20.4005 84.8302 16.1628 84.7736 11.9252 84.8302C10.51 84.8302 9.88279 84.5552 9.98733 82.9702C10.124 80.8514 9.98732 78.7084 10.0275 76.5815C10.0275 75.7081 10.0275 74.8833 9.10278 74.4385V72.0124C10.4135 70.3951 10.4135 67.0794 9.10278 65.4297V57.3428C10.2446 56.7767 10.0195 55.7254 10.0195 54.7469C10.0195 44.2393 10.0195 33.7263 10.0195 23.2079C10.0195 17.3287 12.6167 14.7247 18.4626 14.7247C34.8073 14.7247 51.1574 14.7247 67.5129 14.7247C68.5261 14.749 69.7242 15.1614 70.279 13.7786ZM58.1531 73.2174C65.4973 73.2174 72.8441 73.2174 80.1936 73.2174C84.1016 73.2174 86.4335 71.2118 86.4737 67.8881C86.5139 64.5644 84.1498 62.4052 80.3223 62.3971C65.5589 62.3971 50.7902 62.3971 36.0162 62.3971C32.3253 62.3971 29.9934 64.5239 29.9693 67.7506C29.9693 71.1148 32.269 73.2093 36.1126 73.2093C43.4782 73.2255 50.825 73.2282 58.1531 73.2174ZM58.1531 46.2152C60.6467 46.2214 63.0864 45.4852 65.1648 44.0995C67.2431 42.7137 68.8672 40.7403 69.8323 38.4279C70.7975 36.1155 71.0606 33.5675 70.5884 31.1051C70.1162 28.6426 68.9299 26.3757 67.179 24.59C65.4281 22.8044 63.1908 21.5799 60.7491 21.0707C58.3074 20.5616 55.7705 20.7906 53.458 21.7289C51.1455 22.6672 49.1608 24.2729 47.754 26.3436C46.3473 28.4143 45.5814 30.8574 45.5528 33.3651C45.542 36.7485 46.8627 39.9988 49.2265 42.4063C51.5903 44.8139 54.8051 46.1831 58.1692 46.2152H58.1531ZM58.3702 48.9405C50.8679 48.9405 43.3737 48.9405 35.8553 48.9405C32.2771 48.9405 30.0095 50.9703 29.9291 54.1323C29.8487 57.4317 32.0921 59.6556 35.7508 59.6718C50.6642 59.7041 65.5804 59.7041 80.4992 59.6718C84.1981 59.6718 86.4656 57.5045 86.4335 54.2374C86.4013 50.9703 84.1096 48.9405 80.3785 48.9324C73.0692 48.9243 65.7278 48.9405 58.4185 48.9405H58.3702ZM58.1692 78.7812H64.3045C65.1086 78.7812 65.9127 78.5467 65.8725 77.5762C65.8323 76.6058 65.1086 76.3955 64.2643 76.3955H51.9856C51.2218 76.3955 50.5865 76.6786 50.5302 77.5034C50.4739 78.4981 51.1815 78.765 52.0339 78.7731L58.1692 78.7812Z" fill="#F1F1F2"/>
<path d="M93.6863 84.7088V23.3372C96.2716 20.8193 97.8215 17.4162 98.0285 13.8027H100.296C100.369 14.1366 100.529 14.445 100.759 14.6964C100.989 14.9479 101.282 15.1334 101.607 15.2341C105.241 16.6008 106.431 19.407 106.431 23.135C106.375 35.2654 106.431 47.4605 106.431 59.6313V82.8488C106.431 83.8273 106.656 84.8544 105.056 84.8139C101.245 84.7088 97.4656 84.7088 93.6863 84.7088Z" fill="#C7C7C7"/>
<path d="M93.6862 84.7087C97.4655 84.7492 101.245 84.7492 105.016 84.8543C106.624 84.8947 106.391 83.8677 106.391 82.8892V59.5827C106.391 47.4119 106.391 35.2492 106.391 23.0864C106.391 19.3584 105.193 16.5522 101.566 15.1855C101.242 15.0848 100.949 14.8993 100.719 14.6478C100.489 14.3964 100.329 14.088 100.256 13.7541C100.795 12.2904 101.864 12.6058 102.877 13.0344C104.444 13.6312 105.816 14.6529 106.841 15.9862C107.866 17.3194 108.503 18.9121 108.683 20.5876C108.788 21.6624 108.823 22.7429 108.787 23.8223C108.787 43.3846 108.787 62.9468 108.787 82.5172C108.787 84.3933 109.262 84.9432 111.2 84.9432C116.877 84.8705 116.024 84.1346 116.265 90.0461C116.563 97.1949 114.899 99.9687 106.52 99.9202C73.7364 99.7099 40.9612 99.8313 8.17787 99.8313C2.31595 99.8313 0.313705 97.8014 0.305664 91.8576C0.305664 90.1836 0.305664 88.5096 0.305664 86.8356C0.305664 85.5093 0.812263 84.8139 2.17924 84.8947H2.63758C7.68736 84.7572 7.68733 84.7572 7.68733 79.7514C7.68733 78.5303 7.68733 77.3254 7.68733 76.0962C7.64862 75.8858 7.65926 75.6693 7.7184 75.4638C7.77753 75.2583 7.88354 75.0695 8.02799 74.9124C8.17243 74.7554 8.35136 74.6344 8.55048 74.5591C8.74959 74.4838 8.96341 74.4563 9.17495 74.4788C10.0997 74.9236 10.1077 75.7484 10.0996 76.6218C10.0996 78.7487 10.1961 80.8917 10.0594 83.0105C9.95491 84.6278 10.5821 84.8947 11.9974 84.8705C16.235 84.7896 20.4726 84.8705 24.7183 84.8705H91.0327C91.8851 84.83 92.7856 84.7087 93.6862 84.7087ZM58.2092 87.4664V87.3855H7.55065C2.72602 87.3855 2.72602 87.3855 2.72602 92.2376C2.72602 96.3781 3.8196 97.4618 8.00094 97.4618L106.102 97.389C113.411 97.389 113.572 97.1626 113.66 89.8682C113.66 88.0324 113.314 87.4421 111.344 87.4421C93.646 87.4583 75.9316 87.4259 58.2092 87.4259V87.4664Z" fill="#334369"/>
<path d="M70.2789 13.7785C69.724 15.129 68.5259 14.7489 67.5288 14.7489C51.1787 14.7489 34.8286 14.7489 18.4785 14.7489C12.6327 14.7489 10.0435 17.3529 10.0354 23.2321C10.0354 33.7343 10.0354 44.2473 10.0354 54.7711C10.0354 55.7334 10.2606 56.8009 9.11873 57.367C7.9367 57.3184 7.63112 56.5583 7.63916 55.5312C7.63916 44.0397 7.57487 32.5482 7.72765 21.0648C7.80002 16.0509 12.0055 12.4037 17.2965 12.3875C31.4487 12.3552 45.6009 12.3552 59.7531 12.3875C62.5514 12.3875 65.3819 12.3875 68.156 12.3875C69.2174 12.3471 70.1582 12.4118 70.2789 13.7785Z" fill="#334369"/>
<path d="M98.0045 13.7622C97.7975 17.3756 96.2477 20.7788 93.6623 23.2967C90.261 25.7228 86.5621 26.9196 82.4049 25.9088C76.7762 24.534 73.3185 20.2479 72.635 13.7784C72.828 3.42715 83.2331 -1.95874 91.2661 2.40011C95.7128 4.8181 97.7391 8.78877 98.0045 13.7622ZM95.4876 13.5924C95.4939 11.5565 94.8979 9.56483 93.7755 7.87057C92.6531 6.17632 91.055 4.85609 89.1844 4.07783C87.3139 3.29956 85.2554 3.09843 83.2708 3.5C81.2863 3.90158 79.4654 4.88772 78.0397 6.33299C76.614 7.77826 75.6479 9.61735 75.2643 11.6163C74.8808 13.6153 75.0972 15.6839 75.8858 17.5589C76.6745 19.4339 77.9998 21.0306 79.6933 22.1459C81.3868 23.2612 83.3719 23.8448 85.3961 23.8223C88.0727 23.7781 90.6262 22.6836 92.5115 20.7724C94.3969 18.8611 95.4649 16.2845 95.4876 13.5924Z" fill="#334369"/>
<path d="M9.1188 65.4539C10.4295 67.0712 10.4295 70.4435 9.1188 72.0366C8.89418 72.0258 8.67344 71.9737 8.46748 71.883C6.95576 70.7184 7.37389 66.3272 9.1188 65.4539Z" fill="#334369"/>
<path d="M58.1529 73.2172C50.8034 73.2172 43.4566 73.2172 36.1124 73.2172C32.2688 73.2172 29.9369 71.1227 29.9691 67.7586C29.9691 64.5238 32.3251 62.4131 36.016 62.405C50.7847 62.405 65.5533 62.405 80.322 62.405C84.1496 62.405 86.5056 64.5642 86.4735 67.8961C86.4413 71.2279 84.1014 73.2172 80.1934 73.2253C72.8439 73.2307 65.4971 73.228 58.1529 73.2172ZM58.2172 64.9201H36.1687C33.6841 64.9201 32.3412 65.9794 32.3492 67.8233C32.3573 69.6671 33.8047 70.7912 36.1687 70.8235C38.8223 70.8235 41.4758 70.8235 44.1293 70.8235H78.8988C79.5099 70.8235 80.113 70.8235 80.7161 70.8235C82.6298 70.7265 83.9325 69.845 84.0612 67.8233C84.1737 66.1088 82.8228 64.9362 80.7161 64.9281C73.2218 64.9039 65.7195 64.9201 58.2172 64.9201Z" fill="#334369"/>
<path d="M58.1691 46.2151C55.6758 46.2023 53.242 45.4477 51.1744 44.0465C49.1067 42.6452 47.4975 40.66 46.5496 38.3407C45.6017 36.0214 45.3574 33.4719 45.8476 31.0133C46.3377 28.5547 47.5403 26.2969 49.3039 24.5244C51.0675 22.7519 53.3132 21.5438 55.7582 21.0525C58.2031 20.5611 60.738 20.8084 63.0435 21.7632C65.349 22.7179 67.322 24.3375 68.714 26.4179C70.106 28.4983 70.8547 30.9464 70.8659 33.4539C70.8553 36.8365 69.5139 40.0774 67.1349 42.4685C64.7558 44.8596 61.5325 46.2065 58.1691 46.2151ZM50.8196 40.2308C51.4647 39.2394 52.1938 38.3059 52.9987 37.4408C53.8832 36.6321 54.0923 36.1226 53.2962 35.0632C52.8261 34.4585 52.5028 33.7518 52.352 32.9993C52.2013 32.2468 52.2272 31.4693 52.4278 30.7286C52.6474 29.5955 53.1989 28.5543 54.0113 27.7387C54.8237 26.9231 55.86 26.3704 56.987 26.1514C58.1208 25.9151 59.2987 26.0193 60.374 26.4512C61.4494 26.8831 62.3746 27.6236 63.0346 28.5804C63.6946 29.5372 64.0601 30.6681 64.0858 31.8324C64.1114 32.9966 63.7959 34.1427 63.1786 35.1279C62.8892 35.6293 61.9001 36.1064 62.8329 36.7938C64.0471 37.6834 64.6421 39.1067 65.6553 40.1903C69.322 35.7587 69.0406 29.8067 65.1005 26.0868C63.229 24.3243 60.7611 23.3436 58.1972 23.3436C55.6333 23.3436 53.1655 24.3243 51.294 26.0868C47.3619 29.8957 47.1127 35.9043 50.8196 40.2308ZM58.153 43.7162C59.4295 43.6285 60.692 43.3952 61.9162 43.0207C63.2992 42.5436 63.3877 41.8077 62.7685 40.5947C62.4218 39.9193 61.9306 39.3297 61.3302 38.8681C60.7299 38.4065 60.0352 38.0845 59.2963 37.9252C58.5573 37.7659 57.7925 37.7733 57.0567 37.9468C56.321 38.1203 55.6326 38.4557 55.0411 38.9288C54.0762 39.7375 53.1113 40.7564 53.3445 41.9614C53.5777 43.1663 55.0974 43.134 56.1347 43.4332C56.7983 43.5892 57.4732 43.692 58.153 43.7405V43.7162ZM58.2897 28.5533C57.4206 28.5503 56.584 28.8852 55.9546 29.488C55.3253 30.0908 54.9519 30.9149 54.9125 31.788C54.904 32.2245 54.9811 32.6584 55.1394 33.0649C55.2977 33.4714 55.534 33.8426 55.835 34.1572C56.1359 34.4718 56.4955 34.7238 56.8932 34.8987C57.2909 35.0736 57.719 35.1679 58.153 35.1764C58.587 35.1849 59.0184 35.1074 59.4226 34.9482C59.8268 34.789 60.1959 34.5513 60.5088 34.2487C60.8216 33.9461 61.0721 33.5844 61.246 33.1844C61.4199 32.7844 61.5137 32.3539 61.5222 31.9174C61.5125 31.0499 61.1715 30.2193 60.5698 29.5976C59.9681 28.9759 59.1518 28.6107 58.2897 28.5775V28.5533Z" fill="#334369"/>
<path d="M58.4184 48.9403C65.7599 48.9403 73.1014 48.9403 80.4509 48.9403C84.1819 48.9403 86.4736 50.9863 86.5057 54.2454C86.5379 57.5044 84.2703 59.6717 80.5715 59.6798C65.658 59.7121 50.7419 59.7121 35.8231 59.6798C32.1644 59.6798 29.9209 57.4397 30.0014 54.1402C30.0818 50.9782 32.3494 48.9565 35.9276 48.9484C43.3897 48.9242 50.884 48.9403 58.4184 48.9403ZM58.1289 57.2133C65.6151 57.2133 73.1013 57.2133 80.5876 57.2133C83.1687 57.2133 84.7046 55.3614 83.8924 53.3396C83.225 51.6818 81.842 51.3017 80.2016 51.3098C65.6044 51.3098 51.0099 51.3098 36.4181 51.3098C33.8691 51.3098 32.3976 52.4339 32.3494 54.2615C32.3011 56.0892 33.7244 57.2133 36.3699 57.2133H58.1289Z" fill="#334369"/>
<path d="M58.1851 78.7811H52.0498C51.1974 78.7811 50.4898 78.5062 50.5461 77.5115C50.6024 76.7028 51.2376 76.4036 52.0015 76.4036H64.2722C65.1245 76.4036 65.8804 76.63 65.8804 77.5843C65.8804 78.5385 65.1567 78.7973 64.3124 78.7892L58.1851 78.7811Z" fill="#334369"/>
<path d="M58.2092 87.4259C75.8995 87.4259 93.6461 87.4259 111.361 87.3774C113.331 87.3774 113.7 87.9758 113.676 89.8035C113.588 97.0817 113.427 97.3243 106.118 97.3243L8.01711 97.3971C3.83577 97.3971 2.75023 96.3134 2.74219 92.1729C2.74219 87.3208 2.74219 87.3208 7.56681 87.3208H58.2253L58.2092 87.4259Z" fill="#F46E21"/>
<path d="M95.4874 13.5925C95.4826 15.618 94.8819 17.5968 93.761 19.2797C92.64 20.9625 91.0489 22.2741 89.1882 23.0492C87.3274 23.8243 85.2802 24.0283 83.3044 23.6354C81.3286 23.2426 79.5126 22.2705 78.0851 20.8416C76.6576 19.4127 75.6824 17.5909 75.2825 15.6057C74.8826 13.6204 75.0758 11.5606 75.8378 9.6856C76.5997 7.8106 77.8963 6.2043 79.5643 5.06903C81.2323 3.93377 83.197 3.32031 85.211 3.30594C86.5574 3.30275 87.8912 3.56629 89.1362 4.08151C90.3813 4.59674 91.5133 5.35355 92.4676 6.30874C93.4218 7.26394 94.1797 8.39881 94.6978 9.64856C95.216 10.8983 95.4843 12.2385 95.4874 13.5925ZM81.681 12.9617C81.0136 13.0507 80.4507 13.4146 80.5311 14.102C80.7 15.6142 82.0268 16.3016 83.0238 17.1588C83.8762 17.8786 84.5516 17.1022 85.1386 16.5119C86.4252 15.2341 87.7118 13.9564 88.9742 12.6544C89.6899 11.9185 90.8076 11.1017 89.6175 10.0423C88.4274 8.98295 88.0093 10.4305 87.2052 10.9238C85.5246 12.0155 84.7366 15.598 81.681 12.9617Z" fill="#00C91A"/>
<path d="M58.2173 64.9202C65.7196 64.9202 73.2218 64.9202 80.7322 64.9202C82.8389 64.9202 84.1898 66.1009 84.0772 67.8153C83.9486 69.837 82.6459 70.7185 80.7322 70.8156C80.1291 70.8156 79.526 70.8156 78.9149 70.8156H44.1294C41.4758 70.8156 38.8223 70.8156 36.1688 70.8156C33.8047 70.8156 32.3653 69.6268 32.3493 67.8153C32.3332 66.0038 33.6841 64.9202 36.1688 64.9121L58.2173 64.9202Z" fill="#00C91A"/>
<path d="M50.8196 40.2307C47.1127 35.88 47.362 29.8714 51.2941 26.1272C53.1655 24.3647 55.6334 23.384 58.1973 23.384C60.7611 23.384 63.2291 24.3647 65.1005 26.1272C69.0406 29.8471 69.3221 35.8314 65.6553 40.2307C64.6422 39.1471 64.0471 37.7238 62.8329 36.8342C61.9002 36.1468 62.8892 35.6697 63.1787 35.1683C63.7959 34.1831 64.1114 33.037 64.0858 31.8728C64.0602 30.7085 63.6946 29.5776 63.0346 28.6208C62.3747 27.664 61.4494 26.9235 60.3741 26.4916C59.2988 26.0597 58.1209 25.9555 56.9871 26.1918C55.86 26.4108 54.8237 26.9635 54.0113 27.7791C53.1989 28.5947 52.6475 29.6359 52.4278 30.769C52.2273 31.5097 52.2013 32.2872 52.3521 33.0397C52.5029 33.7922 52.8262 34.4989 53.2963 35.1036C54.1004 36.163 53.8833 36.721 52.9988 37.4812C52.1957 38.3335 51.4666 39.2534 50.8196 40.2307Z" fill="#F46E21"/>
<path d="M58.1531 43.7404C57.4744 43.7052 56.7995 43.616 56.1348 43.4736C55.0975 43.1743 53.5777 43.2471 53.3446 42.0017C53.1114 40.7564 54.0763 39.7536 55.0412 38.9691C55.6327 38.4961 56.3211 38.1607 57.0568 37.9872C57.7926 37.8136 58.5574 37.8063 59.2964 37.9656C60.0353 38.1249 60.7299 38.4469 61.3303 38.9085C61.9307 39.37 62.4219 39.9597 62.7686 40.6351C63.3878 41.8319 63.2993 42.5678 61.9163 43.0611C60.6915 43.4301 59.429 43.658 58.1531 43.7404Z" fill="#F46E21"/>
<path d="M58.2897 28.5775C59.1586 28.6151 59.9791 28.9901 60.5789 29.6234C61.1787 30.2568 61.5111 31.0994 61.5061 31.974C61.4977 32.4105 61.4038 32.841 61.2299 33.241C61.056 33.641 60.8055 34.0026 60.4927 34.3053C60.1798 34.6079 59.8108 34.8456 59.4066 35.0048C59.0024 35.164 58.5709 35.2415 58.1369 35.233C57.7029 35.2245 57.2748 35.1302 56.8771 34.9553C56.4794 34.7804 56.1198 34.5284 55.8189 34.2138C55.5179 33.8991 55.2816 33.528 55.1233 33.1215C54.965 32.715 54.8879 32.2811 54.8964 31.8446C54.9278 30.9629 55.2998 30.1283 55.9335 29.5182C56.5672 28.9081 57.4125 28.5706 58.2897 28.5775Z" fill="#F46E21"/>
<path d="M58.1289 57.2133H36.3538C33.7244 57.2133 32.3333 56.162 32.3333 54.2615C32.3333 52.3611 33.853 51.3179 36.402 51.3098C50.9992 51.3098 65.5937 51.3098 80.1855 51.3098C81.7937 51.3098 83.2089 51.6818 83.8763 53.3396C84.6804 55.3614 83.1526 57.2052 80.5714 57.2133C73.1013 57.2537 65.6553 57.2133 58.1289 57.2133Z" fill="#00C91A"/>
<path d="M81.6812 12.9618C84.7368 15.5982 85.5248 12.0157 87.2054 10.9239C88.0095 10.4306 88.5322 9.08013 89.6177 10.0425C90.7033 11.0048 89.6901 11.9186 88.9744 12.6545C87.712 13.9565 86.4254 15.2343 85.1389 16.512C84.5519 17.1023 83.8764 17.8787 83.0241 17.159C82.027 16.3017 80.7002 15.6144 80.5314 14.1021C80.4509 13.4147 81.0138 13.0508 81.6812 12.9618Z" fill="#334369"/>
</g>
<defs>
<clipPath id="clip0_805_1830">
<rect width="116" height="99" fill="white" transform="translate(0.249512 0.879883)"/>
</clipPath>
</defs>
</svg>
