<svg width="86" height="95" viewBox="0 0 86 95" fill="none" xmlns="http://www.w3.org/2000/svg">
<g clip-path="url(#clip0_805_1856)">
<path d="M2.20044 23.2108V20.3342C3.42346 20.1621 3.71702 19.3836 3.70886 18.2526C3.70886 13.9173 3.76594 9.58202 3.65994 5.24671C3.65994 3.81253 4.09204 3.53389 5.40475 3.56667C9.28633 3.77161 13.1764 3.7552 17.0561 3.5175C21.1328 3.14052 24.2474 4.18132 26.6038 7.54959C27.5985 8.95918 29.0091 9.33616 30.7376 9.31977C38.9971 9.2624 47.2566 9.31977 55.516 9.31977V23.5304C53.8201 23.5304 52.116 23.5304 50.4201 23.6042C48.447 23.6533 47.436 24.5794 47.4196 26.4807C47.3816 31.1848 47.3816 35.8889 47.4196 40.593C47.4196 42.4615 48.3818 43.3794 50.2326 43.4368C52.0834 43.4941 53.7467 43.4942 55.5079 43.5187V46.3133C53.7549 46.3133 51.9856 46.3133 50.2326 46.4035C48.4796 46.4936 47.4278 47.4443 47.4115 49.28C47.3734 53.9841 47.3734 58.6882 47.4115 63.3923C47.4115 65.269 48.3573 66.1705 50.2163 66.2361C52.0753 66.3016 53.7386 66.3016 55.4997 66.3262V71.9892C46.3841 71.9892 37.2604 71.9892 28.1448 72.0711C27.4248 72.0043 26.7422 71.7185 26.188 71.2516C24.2149 69.9599 21.9201 69.2518 19.5658 69.2084C17.2114 69.1649 14.8924 69.7877 12.8734 71.0057C11.9113 71.5302 11.3487 72.2104 11.846 73.366L9.76689 75.8246C8.56018 75.4968 8.00574 76.1442 7.58176 77.1768C6.40509 80.0681 6.30375 83.2887 7.29636 86.249C3.68437 86.503 3.68438 86.503 3.68438 83.0282C3.68438 63.966 3.68438 44.9065 3.68438 25.8497C3.70884 24.6613 3.80667 23.4648 2.20044 23.2108ZM25.5113 66.2689H38.1002C43.9463 66.2689 43.9055 66.2689 43.9381 60.3683C44.0727 58.1518 43.3414 55.97 41.8997 54.2873C40.0489 52.2139 40.0897 52.1156 40.1794 49.3702C40.269 46.256 40.1794 43.1417 40.1794 40.0193C40.0738 39.2316 40.1838 38.4298 40.4973 37.7001C40.8073 37.1658 40.9971 36.5698 41.0534 35.9539C41.1098 35.3381 41.0312 34.7173 40.8235 34.1351C39.9673 31.9306 40.2446 29.7015 40.163 27.4723C40.1381 25.5928 39.4867 23.7759 38.3131 22.3124C37.1394 20.8489 35.5112 19.8234 33.6892 19.4C32.122 19.0428 30.6049 18.4923 29.1722 17.7609C26.8484 16.6136 24.2801 17.0807 21.834 17.1299C15.4254 17.2692 10.9736 21.9405 10.9002 28.3984C10.9002 30.2096 11.1285 32.0207 10.2642 33.7745C10.0447 34.2538 9.93106 34.7753 9.93106 35.3029C9.93106 35.8306 10.0447 36.3521 10.2642 36.8314C11.1285 38.6425 10.8187 40.5193 10.9328 42.3878C11.1285 45.5266 10.3295 48.7473 11.5769 51.8124C11.8868 52.5581 11.2427 52.6319 10.8839 52.845C9.47367 53.7144 8.37451 55.0115 7.74484 56.5492C6.85611 58.6472 7.13329 60.8764 7.14144 63.0645C7.14144 65.392 8.04648 66.2443 10.4028 66.2525C15.4172 66.2771 20.4643 66.2689 25.5113 66.2689ZM15.7271 7.93477C15.7349 7.74871 15.703 7.56312 15.6334 7.39051C15.5639 7.2179 15.4583 7.06229 15.3239 6.93415C15.1894 6.80601 15.0292 6.70831 14.8541 6.64766C14.6789 6.58701 14.4928 6.56481 14.3084 6.58255C14.1397 6.57063 13.9704 6.59496 13.8118 6.65394C13.6532 6.71292 13.5089 6.8052 13.3886 6.92461C13.2682 7.04402 13.1746 7.18783 13.1139 7.34647C13.0532 7.5051 13.0268 7.67492 13.0364 7.84462C13.0095 8.02651 13.0232 8.21216 13.0766 8.38806C13.1299 8.56396 13.2217 8.72568 13.3451 8.86148C13.4685 8.99727 13.6204 9.10371 13.7899 9.17306C13.9593 9.24242 14.142 9.27293 14.3247 9.2624C14.5049 9.2736 14.6854 9.24755 14.8552 9.18587C15.025 9.12418 15.1804 9.02817 15.3118 8.90376C15.4433 8.77934 15.5479 8.62916 15.6193 8.4625C15.6908 8.29584 15.7274 8.11623 15.7271 7.93477ZM8.56019 9.31157C8.90569 9.28896 9.23004 9.13645 9.46875 8.88437C9.70746 8.63229 9.84299 8.29913 9.84841 7.95116C9.8661 7.76701 9.84305 7.58121 9.78087 7.40708C9.7187 7.23295 9.61895 7.07481 9.4888 6.94399C9.35865 6.81318 9.20132 6.71291 9.02808 6.65042C8.85484 6.58793 8.67 6.56476 8.48679 6.58255C8.31869 6.56635 8.14909 6.58604 7.98909 6.64033C7.82909 6.69463 7.68227 6.78229 7.55833 6.89759C7.43438 7.01288 7.33611 7.15319 7.26989 7.30934C7.20367 7.46548 7.17102 7.63393 7.17409 7.80364C7.11702 8.65595 7.57362 9.15586 8.56019 9.31157ZM21.6058 7.8856C21.6052 7.70582 21.5677 7.5281 21.4955 7.36361C21.4234 7.19912 21.3181 7.05142 21.1863 6.9298C21.0546 6.80818 20.8993 6.71528 20.7301 6.65693C20.561 6.59857 20.3816 6.57604 20.2033 6.59074C20.0363 6.57534 19.8679 6.5961 19.7095 6.65163C19.5511 6.70715 19.4063 6.79617 19.285 6.91265C19.1637 7.02914 19.0687 7.1704 19.0063 7.32692C18.9439 7.48344 18.9155 7.65159 18.9232 7.82003C18.8927 8.00162 18.903 8.18775 18.9531 8.36486C19.0033 8.54198 19.0922 8.70561 19.2133 8.84381C19.3344 8.98201 19.4846 9.09129 19.6531 9.16371C19.8215 9.23613 20.0039 9.26984 20.187 9.2624C21.0268 9.28698 21.4671 8.7543 21.5894 7.8856H21.6058Z" fill="#ECF8FB"/>
<path d="M2.20023 23.2107C3.83093 23.4648 3.70865 24.6613 3.70049 25.8578C3.70049 44.9201 3.70049 63.9796 3.70049 83.0364C3.70049 86.5112 3.70049 86.5112 7.31248 86.2571C6.31987 83.2969 6.42115 80.0763 7.59783 77.1849C8.02181 76.1523 8.57629 75.5049 9.78301 75.8327C10.8185 76.6932 10.3456 77.6193 9.99495 78.6273C7.54891 85.5359 13.0444 92.7068 20.089 91.8709C25.1441 91.8054 29.2698 87.3799 29.2861 82.0366C29.3298 79.4441 28.3479 76.9401 26.5562 75.0747C24.7645 73.2093 22.3094 72.1349 19.7302 72.0875C17.8186 71.8748 15.8935 72.3448 14.2919 73.4151C13.4765 73.9396 12.6612 74.1199 11.8458 73.4151C11.3484 72.2596 11.911 71.5793 12.8732 71.0548C14.8922 69.8368 17.2112 69.214 19.5656 69.2575C21.9199 69.3009 24.2147 70.009 26.1878 71.3007C26.742 71.7676 27.4246 72.0535 28.1446 72.1202C37.2602 72.0629 46.3839 72.0547 55.4995 72.0383C56.2832 72.0121 57.0677 72.0395 57.8477 72.1202C59.5518 72.4235 59.8208 71.6367 59.7801 70.1124C59.6822 66.0147 59.7801 66.0147 55.4914 66.3753C53.7302 66.3753 51.9691 66.3754 50.2079 66.2852C48.4468 66.1951 47.4194 65.3182 47.4031 63.4414C47.3651 58.7373 47.3651 54.0332 47.4031 49.3291C47.4031 47.4934 48.3815 46.5345 50.2242 46.4526C52.0669 46.3706 53.7465 46.387 55.4995 46.3624C56.3148 46.3624 57.1955 46.3624 58.0434 46.4444C59.1442 46.5345 59.8127 46.4444 59.8046 44.9692C59.7964 43.4941 59.136 43.3876 58.0353 43.4859C57.2199 43.5597 56.3394 43.5433 55.4914 43.5679C53.7302 43.5679 51.9691 43.5678 50.2161 43.4859C48.4631 43.4039 47.4194 42.5107 47.4031 40.6421C47.3651 35.938 47.3651 31.2339 47.4031 26.5298C47.4031 24.6285 48.4304 23.7024 50.4036 23.6533C52.0995 23.6041 53.8036 23.6041 55.4995 23.5795C56.4616 23.5795 57.4401 23.5795 58.394 23.6697C59.5763 23.8008 59.7883 23.2763 59.772 22.2109C59.7067 19.236 59.772 16.2611 59.772 13.2862C59.772 9.14762 59.7719 9.14762 55.524 9.36889C47.2645 9.36889 39.005 9.28694 30.7456 9.36889C29.017 9.36889 27.6065 9.00829 26.6117 7.5987C24.2554 4.23044 21.1163 3.18964 17.0641 3.56662C13.1843 3.80431 9.29428 3.82073 5.4127 3.61579C4.09999 3.61579 3.63528 3.86165 3.6679 5.29583C3.77389 9.63114 3.6679 13.9664 3.71682 18.3018C3.71682 19.4327 3.43142 20.2113 2.20839 20.3834C1.80106 20.2499 1.45508 19.9736 1.23355 19.605C1.01202 19.2364 0.929725 18.8 1.00169 18.3755C1.00169 13.5485 1.00169 8.71326 1.00169 3.88624C1.00169 1.82922 1.98827 0.894953 4.06741 0.886757C13.9168 0.886757 23.7744 0.886757 33.6319 0.886757C34.1507 0.847702 34.6709 0.942364 35.1431 1.16178C35.6154 1.3812 36.0242 1.71811 36.3307 2.14064C39.0703 6.18091 42.8535 7.13158 47.5173 6.68084C51.1374 6.32844 54.8554 6.60708 58.4674 6.60708C61.7288 6.60708 62.4544 7.30369 62.4544 10.5326C62.4544 14.3844 62.5115 18.2362 62.4544 22.088C62.4544 23.3419 62.699 23.727 64.0281 23.727C70.1676 23.6533 76.3153 23.727 82.4549 23.727C85.0803 23.727 85.9365 24.5957 85.9446 27.2428C85.9446 31.5863 85.9446 35.9298 85.9446 40.2733C85.9446 42.7319 85.0722 43.5514 82.6832 43.5514C76.6007 43.5514 70.5182 43.5514 64.4357 43.5514C63.4492 43.5514 62.487 43.2155 62.4463 44.9692C62.4463 46.8706 63.4899 46.4772 64.5091 46.4772H82.3979C85.1293 46.4772 85.9609 47.3377 85.9772 50.0995C85.9772 51.255 85.9772 52.4188 85.9772 53.5825C85.9772 54.4758 85.7163 55.1396 84.7623 55.3363C83.2213 55.197 83.2784 54.0742 83.2784 52.9433C83.2784 49.0669 83.2784 49.0669 79.2914 49.3701C69.923 49.3701 60.5384 49.3291 51.1945 49.2718C50.2487 49.2718 50.1101 49.6897 50.1182 50.4929C50.1182 54.4676 50.1182 58.4423 50.1182 62.417C50.1182 63.4005 50.4362 63.6545 51.3738 63.6463C60.677 63.5971 69.9883 63.589 79.2914 63.5644C79.5931 63.5644 79.8947 63.6299 80.1964 63.6381C83.2214 63.6873 83.2621 63.6791 83.2784 60.6468C83.2784 59.5323 83.5394 58.7291 84.7461 58.5243C85.7163 58.8275 85.9609 59.5241 85.9935 60.4993C86.1974 66.0065 85.8957 66.3344 80.4573 66.3344C75.019 66.3344 69.5072 66.3344 64.0362 66.3344C62.8866 66.3344 62.4789 66.572 62.487 67.8341C62.487 72.1612 62.4871 72.1612 66.8084 72.1612C72.0348 72.1612 77.2693 72.1612 82.4957 72.1612C85.1048 72.1612 85.969 73.0463 85.9772 75.6852C85.9772 79.9686 85.9772 84.2493 85.9772 88.5272C85.9772 91.2071 85.1619 92.0102 82.4875 92.0102C64.7293 92.0102 46.9683 92.0102 29.2045 92.0102C28.1231 91.9922 27.062 92.3068 26.1633 92.9117C23.6113 94.561 20.5497 95.2209 17.5493 94.7685C14.5489 94.3162 11.8146 92.7824 9.85636 90.4531C9.55692 90.009 9.14323 89.6547 8.65936 89.4282C8.1755 89.2016 7.63959 89.1111 7.10864 89.1665C6.07405 89.2279 5.03676 89.2279 4.00217 89.1665C2.02087 89.0763 1.12399 88.1994 1.09137 86.1998C1.0506 83.6346 1.09137 81.0695 1.09137 78.4962C1.09137 61.0129 1.09137 43.5296 1.09137 26.0463C1.00168 24.858 0.830448 23.7352 2.20023 23.2107ZM79.2587 26.4888C69.8877 26.4888 60.5221 26.4588 51.1619 26.3987C50.4199 26.3987 50.0693 26.5872 50.0775 27.4231C50.0775 31.5208 50.0775 35.6184 50.0775 39.7161C50.0775 40.5356 50.3628 40.7733 51.1456 40.7733C60.5058 40.735 69.8687 40.7049 79.2343 40.6831C80.0184 40.6773 80.8022 40.7129 81.5825 40.7896C82.9849 40.9863 83.3273 40.4127 83.2784 39.0686C83.1806 36.0855 83.2784 33.1024 83.2784 30.1276C83.2458 26.1938 83.2458 26.1938 79.2587 26.5135V26.4888ZM79.2587 74.9476C78.8918 74.9476 78.5331 74.8657 78.1662 74.8657H31.5365C31.1288 74.8657 30.7211 74.923 30.0362 74.964C32.7758 79.6271 32.6535 84.2247 30.2564 88.8059L30.0607 89.0599L30.3379 89.1419C41.5897 89.1419 52.8415 89.1637 64.0933 89.2074C69.1403 89.2074 74.1873 89.1665 79.2343 89.1419C80.0182 89.1334 80.802 89.1662 81.5825 89.2402C82.9849 89.4451 83.3273 88.8714 83.2784 87.5192C83.1806 84.5443 83.2784 81.5612 83.2784 78.5781C83.2458 74.628 83.2458 74.628 79.2587 74.9722V74.9476ZM36.6161 6.59069C34.17 2.01771 30.2808 4.06654 26.8319 3.54204C29.229 8.05764 33.1182 6.13175 36.6161 6.59069Z" fill="#040506"/>
<path d="M79.2508 49.3046C83.2216 49.0014 83.2379 49.0013 83.2379 52.8777C83.2379 54.0087 83.1808 55.1314 84.7218 55.2708V58.4587C83.5151 58.6636 83.2624 59.4667 83.2542 60.5813C83.2542 63.6135 83.1971 63.6217 80.1722 63.5726C79.8705 63.5726 79.5688 63.5234 79.2671 63.4988C79.2508 58.7729 79.2454 54.0415 79.2508 49.3046Z" fill="#7EB7E4"/>
<path d="M25.5112 66.2689C20.4642 66.2689 15.4172 66.2689 10.3702 66.2689C8.03833 66.2689 7.1496 65.4084 7.10883 63.081C7.10883 60.8928 6.82345 58.6637 7.71218 56.5657C8.34185 55.028 9.44105 53.7309 10.8513 52.8614C11.2101 52.6402 11.8542 52.5746 11.5443 51.8288C10.2968 48.7638 11.0959 45.543 10.9002 42.4042C10.7861 40.5357 11.0959 38.659 10.2316 36.8478C10.0121 36.3685 9.8984 35.8471 9.8984 35.3194C9.8984 34.7917 10.0121 34.2703 10.2316 33.791C11.0959 32.0372 10.8513 30.226 10.8676 28.4149C10.941 21.957 15.3928 17.2857 21.8014 17.1463C24.2475 17.0972 26.8566 16.6301 29.1395 17.7774C30.5723 18.5088 32.0894 19.0593 33.6565 19.4165C35.4786 19.8399 37.1068 20.8654 38.2805 22.3289C39.4541 23.7924 40.1055 25.6092 40.1304 27.4888C40.2119 29.7179 39.9347 31.947 40.7908 34.1516C40.9986 34.7337 41.0771 35.3545 41.0208 35.9704C40.9644 36.5863 40.7746 37.1823 40.4647 37.7165C40.1511 38.4463 40.0412 39.248 40.1467 40.0358C40.1467 43.1582 40.1957 46.2724 40.1467 49.3866C40.057 52.1402 40.0163 52.2386 41.8671 54.3038C43.3087 55.9865 44.0401 58.1682 43.9055 60.3847C43.9055 66.2853 43.9055 66.2853 38.0676 66.2853L25.5112 66.2689ZM28.7726 30.726C25.7803 31.3898 22.7391 31.0046 19.7223 31.021C18.4748 31.021 17.9856 31.4635 18.0263 32.742C18.0997 34.8646 18.0263 37.0035 18.0263 39.1261C18.1894 43.4778 21.141 46.1413 25.4949 45.9364C28.846 46.0757 31.6019 44.5432 32.4091 41.5355C33.3794 37.9214 33.0043 34.1598 32.6129 30.4965C32.4988 29.3819 31.7976 28.3493 30.4522 29.7343C29.9539 30.1391 29.4025 30.4728 28.8134 30.726H28.7726ZM25.5112 63.5727C28.0633 63.5727 30.6153 63.5235 33.1755 63.5727C34.2355 63.5727 34.529 63.2203 34.5045 62.2041C34.4474 60.1307 34.5045 58.049 34.5045 55.9674C34.5045 53.6236 32.621 52.5582 30.5338 53.681C29.8197 54.1434 29.0304 54.4763 28.2019 54.6644C26.9136 54.8283 26.8647 55.5577 26.8566 56.5657C26.8566 57.7049 27.3131 59.4095 25.5438 59.4504C23.5788 59.4996 24.223 57.6967 24.0925 56.5247C24.011 55.8609 24.4105 54.9922 23.2772 54.8037C22.0946 54.5301 20.9669 54.0562 19.9424 53.4023C19.5829 53.2571 19.1949 53.1975 18.8087 53.228C18.4225 53.2586 18.0485 53.3786 17.7161 53.5786C17.3837 53.7786 17.1018 54.0532 16.8926 54.3809C16.6833 54.7086 16.5523 55.0805 16.5098 55.4675C16.5098 57.6639 16.5506 59.8684 16.5098 62.0647C16.5098 63.1137 16.6729 63.6218 17.8878 63.5727C20.4724 63.5071 23.0244 63.5727 25.5846 63.5727H25.5112ZM22.5678 28.3329C23.905 28.3329 25.2503 28.4067 26.5793 28.3329C27.6519 28.2708 28.6612 27.8026 29.404 27.0225C30.1468 26.2425 30.568 25.2085 30.5827 24.1288C30.5763 23.0179 30.1344 21.9544 29.3529 21.1689C28.5714 20.3834 27.5133 19.9392 26.4081 19.9327C25.0709 19.8836 23.7338 19.9327 22.4048 19.9327C16.7952 19.9327 13.387 23.5059 13.5256 29.1934C13.5256 29.7261 13.1995 30.5129 14.1453 30.6522C14.4627 30.7541 14.8051 30.7457 15.1171 30.6282C15.4292 30.5108 15.6929 30.2912 15.8657 30.0048C16.2455 29.4097 16.7889 28.9381 17.43 28.6472C18.0711 28.3563 18.7824 28.2585 19.4776 28.3657C20.5784 28.3821 21.6139 28.3411 22.6412 28.3411L22.5678 28.3329ZM37.4887 45.1415V41.2569C37.4887 40.6177 37.4887 40.0358 36.5837 40.0194C35.6786 40.003 35.5074 40.4374 35.4096 41.1176C35.0954 42.735 34.3644 44.2412 33.2896 45.4857C31.5203 47.7804 32.352 50.3291 35.0101 51.3945C36.2983 51.9108 36.7957 51.4355 37.1381 50.3537C37.7741 48.5753 37.4968 46.7314 37.562 45.1497L37.4887 45.1415ZM13.5175 45.1415C13.6479 46.633 13.2158 48.4934 13.8436 50.2799C14.0719 50.9274 14.235 51.6977 15.2949 51.5584C17.8632 51.2388 19.4614 48.0672 17.9285 45.9282C16.7011 44.4104 15.8289 42.6347 15.3765 40.7324C15.2542 40.085 14.8628 40.003 14.3246 40.0112C13.7865 40.0194 13.5093 40.3964 13.5093 40.9619C13.599 42.2485 13.5909 43.5352 13.5909 45.1497L13.5175 45.1415ZM13.7947 59.2292C13.7947 58.1966 13.7947 57.1558 13.7947 56.1232C13.7947 55.6806 14.0882 55.0742 13.5256 54.8119C12.963 54.5497 12.5961 54.9922 12.1966 55.2381C9.75055 56.787 9.81578 59.2128 9.75055 61.7206C9.75055 63.2613 10.1746 63.5809 11.6585 63.63C13.4196 63.6792 14.1045 63.2039 13.811 61.4255C13.7733 60.6957 13.7923 59.9642 13.868 59.2374L13.7947 59.2292ZM37.2115 59.0161C37.2115 60.1061 37.2115 61.2042 37.2115 62.2942C37.2115 62.7777 36.9669 63.5645 37.8393 63.5071C38.9237 63.4334 40.3669 64.13 41.0354 63.0728C42.2177 61.2124 40.7664 56.5739 38.834 55.3118C38.4426 55.0578 38.0187 54.6234 37.5295 54.8201C36.8935 55.0906 37.2441 55.7708 37.2115 56.2625C37.2441 57.1886 37.2849 58.1064 37.2849 59.0243L37.2115 59.0161ZM29.7021 48.1492C27.5028 48.8563 25.1625 48.9999 22.8939 48.5671C21.1002 48.2311 20.8311 48.5261 21.0594 50.3045C21.141 50.9847 21.5731 51.2142 22.0378 51.4764C23.5996 52.3319 25.4233 52.5687 27.1501 52.1403C29.7837 51.5994 30.1669 50.9519 29.7755 48.1573L29.7021 48.1492ZM33.2163 24.3418C33.3304 25.1613 32.7678 26.0464 33.3223 26.6693C34.2988 27.6613 35.0329 28.8676 35.4666 30.1933C35.6379 30.7915 36.282 30.6112 36.7223 30.6112C37.1626 30.6112 37.4642 30.2998 37.4805 29.7917C37.5621 27.5134 37.4805 25.2761 35.6542 23.5633C34.9937 22.9486 34.2762 22.0308 33.4038 22.3586C32.8657 22.5962 33.469 23.6862 33.2896 24.35L33.2163 24.3418ZM38.2959 35.2088C38.2959 34.2253 37.9045 33.4632 36.7141 33.4878C34.8714 33.4878 36.0048 34.9219 35.8254 35.6595C35.6949 36.1676 35.2873 37.2166 36.6408 37.1756C37.9942 37.1347 38.2877 36.4135 38.2959 35.2088ZM15.4009 35.3645C14.9035 34.84 16.2163 33.4304 14.398 33.4714C13.1261 33.4714 12.7673 34.2909 12.7673 35.3891C12.7673 36.4872 13.175 37.0937 14.3328 37.1756C15.9716 37.2986 15.0911 36.0693 15.4172 35.3809L15.4009 35.3645Z" fill="#050404"/>
<path d="M11.8621 73.3906C12.6775 74.1282 13.4358 73.9479 14.3082 73.3906C15.9098 72.3202 17.8349 71.8503 19.7465 72.0629C19.9341 72.2105 20.1379 72.3416 20.3173 72.4973C22.6329 74.5789 24.8914 76.7097 24.8261 80.2009C24.6223 80.0697 24.4348 79.8567 24.2146 79.8239C22.5839 79.5698 21.1734 79.1929 20.4804 77.2915C20.0401 76.1032 18.5969 76.2999 18.0343 77.6521C17.8446 78.218 17.4894 78.7132 17.0151 79.0729C16.5409 79.4326 15.9697 79.6401 15.3763 79.6682C13.6478 79.9058 13.2401 81.1024 14.5039 82.2825C14.981 82.6401 15.3334 83.1403 15.5106 83.7114C15.6878 84.2826 15.6808 84.8954 15.4905 85.4623C15.1072 86.9292 16.2079 87.9208 17.4309 87.1914C18.0193 86.7947 18.7119 86.5829 19.4204 86.5829C20.1289 86.5829 20.8214 86.7947 21.4098 87.1914C22.5106 87.8143 23.6194 86.9784 23.2933 85.913C22.6573 83.8478 23.7499 82.7414 24.924 81.5285C25.7393 83.7003 24.7202 85.5606 23.8722 87.4291C23.0242 89.2976 21.4262 90.4368 20.1053 91.8054C13.0607 92.6249 7.58155 85.4704 10.0113 78.5618C10.3619 77.5538 10.8266 76.6277 9.79929 75.7672L11.8621 73.3906Z" fill="#99FFA7"/>
<path d="M55.5159 9.34435C59.7639 9.12308 59.7639 9.12308 59.7639 13.2617C59.7639 16.2366 59.7639 19.2115 59.7639 22.1864C59.7639 23.2517 59.5682 23.7763 58.3859 23.6451C57.432 23.5304 56.4536 23.5796 55.4915 23.555L55.5159 9.34435Z" fill="#CFE3F3"/>
<path d="M55.5078 66.3509C59.7721 66.0231 59.6987 66.0231 59.7965 70.0879C59.8373 71.6123 59.5683 72.399 57.8642 72.0958C57.0842 72.015 56.2997 71.9876 55.516 72.0138C55.516 70.1289 55.5078 68.2358 55.5078 66.3509Z" fill="#CFE3F3"/>
<path d="M55.5078 43.5433C56.3232 43.5433 57.2037 43.5433 58.0517 43.4614C59.1524 43.363 59.8129 43.4614 59.821 44.9447C59.8292 46.4281 59.1606 46.51 58.0599 46.4199C57.2445 46.3543 56.3639 46.3625 55.516 46.3379C55.516 45.4036 55.5078 44.4776 55.5078 43.5433Z" fill="#CFE3F3"/>
<path d="M15.727 7.9348C15.7274 8.11627 15.6907 8.29588 15.6193 8.46254C15.5479 8.6292 15.4432 8.77937 15.3118 8.90379C15.1804 9.02821 15.0249 9.12422 14.8552 9.1859C14.6854 9.24759 14.5048 9.27364 14.3246 9.26244C14.1419 9.27297 13.9593 9.24245 13.7898 9.1731C13.6204 9.10375 13.4684 8.9973 13.345 8.86151C13.2217 8.72572 13.1299 8.56399 13.0765 8.3881C13.0231 8.2122 13.0094 8.02655 13.0364 7.84465C13.0267 7.67496 13.0531 7.50514 13.1138 7.3465C13.1746 7.18787 13.2682 7.04406 13.3885 6.92465C13.5089 6.80524 13.6531 6.71296 13.8117 6.65398C13.9703 6.59499 14.1396 6.57066 14.3083 6.58258C14.4928 6.56485 14.6788 6.58705 14.854 6.6477C15.0292 6.70835 15.1894 6.80605 15.3238 6.93419C15.4583 7.06233 15.5638 7.21794 15.6334 7.39055C15.7029 7.56315 15.7349 7.74874 15.727 7.9348Z" fill="#0A0D10"/>
<path d="M8.56004 9.31149C7.57347 9.15578 7.11687 8.65587 7.17394 7.80356C7.17087 7.63385 7.20352 7.46541 7.26974 7.30926C7.33596 7.15312 7.43424 7.0128 7.55818 6.89751C7.68212 6.78222 7.82894 6.69455 7.98894 6.64026C8.14894 6.58596 8.31854 6.56628 8.48664 6.58247C8.66985 6.56468 8.85469 6.58786 9.02793 6.65035C9.20117 6.71284 9.35851 6.8131 9.48866 6.94391C9.61881 7.07473 9.71855 7.23287 9.78073 7.407C9.8429 7.58113 9.86595 7.76693 9.84826 7.95108C9.84284 8.29905 9.70731 8.63221 9.4686 8.88429C9.22989 9.13637 8.90555 9.28888 8.56004 9.31149Z" fill="#0A0D10"/>
<path d="M21.5893 7.88573C21.467 8.75443 21.0267 9.28712 20.1706 9.26253C19.9875 9.26998 19.8051 9.23626 19.6367 9.16384C19.4682 9.09142 19.3179 8.98214 19.1968 8.84394C19.0758 8.70574 18.9869 8.54211 18.9367 8.365C18.8865 8.18788 18.8763 8.00175 18.9068 7.82016C18.8991 7.65172 18.9274 7.48357 18.9898 7.32705C19.0522 7.17053 19.1473 7.02927 19.2686 6.91279C19.3899 6.7963 19.5346 6.70729 19.693 6.65176C19.8514 6.59623 20.0198 6.57547 20.1869 6.59087C20.3651 6.57617 20.5445 6.59871 20.7137 6.65706C20.8829 6.71541 21.0382 6.80831 21.1699 6.92993C21.3016 7.05155 21.4069 7.19925 21.4791 7.36374C21.5512 7.52823 21.5888 7.70595 21.5893 7.88573Z" fill="#0A0D10"/>
<path d="M30.2565 88.8223C32.6537 84.2411 32.7759 79.6435 30.0364 74.9804C30.7213 74.9804 31.129 74.8821 31.5366 74.8821H78.199C78.5659 74.8821 78.9247 74.9313 79.2916 74.964V89.1501C74.2446 89.1501 69.1976 89.2238 64.1505 89.2156C52.8987 89.2156 41.6469 89.1938 30.3951 89.1501C30.3877 89.0281 30.3388 88.9123 30.2565 88.8223ZM55.8829 86.2981H72.4915C72.9746 86.3351 73.4598 86.3351 73.9429 86.2981C74.289 86.2713 74.6122 86.1142 74.8481 85.8582C75.0839 85.6022 75.2149 85.2661 75.2149 84.9172C75.2149 84.5683 75.0839 84.2323 74.8481 83.9763C74.6122 83.7202 74.289 83.5631 73.9429 83.5363C73.5195 83.5034 73.0942 83.5034 72.6709 83.5363H39.103C38.6794 83.5117 38.2547 83.5117 37.8311 83.5363C37.0158 83.6265 36.4532 84.0362 36.4613 84.9377C36.4695 85.8392 37.0402 86.2326 37.8474 86.3227C38.3336 86.3473 38.8207 86.3473 39.3069 86.3227L55.8829 86.2981ZM57.5136 80.5614H76.6743C77.5793 80.5614 78.4517 80.504 78.5577 79.3485C78.6556 78.3487 78.0767 77.8734 77.1309 77.8734H37.9045C37.0892 77.8734 36.4776 78.2504 36.4695 79.1682C36.4613 80.0861 37.0647 80.5696 38.0023 80.5614H57.5299H57.5136Z" fill="#9ACBF8"/>
<path d="M79.2344 40.6997C69.8742 40.6997 60.5113 40.7297 51.1457 40.7898C50.3303 40.7898 50.0694 40.5358 50.0776 39.7326C50.0776 35.635 50.0776 31.5373 50.0776 27.4397C50.0776 26.6201 50.42 26.4071 51.162 26.4153C60.5331 26.459 69.8987 26.489 79.2589 26.5054L79.2344 40.6997ZM66.5802 32.0782H76.4296C77.4243 32.0782 78.5414 32.1602 78.574 30.7588C78.6066 29.3574 77.4977 29.3738 76.503 29.3738H56.8042C55.8013 29.3738 54.7006 29.3738 54.7577 30.7752C54.8147 32.1766 55.9318 32.0782 56.9184 32.0782H66.5802ZM65.1044 35.0121H56.527C55.5812 35.0121 54.7821 35.258 54.7413 36.3726C54.7006 37.4871 55.4915 37.8313 56.4373 37.8313C62.0958 37.8313 67.7516 37.8313 73.4047 37.8313C74.3423 37.8313 75.1903 37.5445 75.1984 36.4545C75.2066 35.3645 74.3423 34.9957 73.315 34.9957C70.5754 35.0203 67.8358 35.0121 65.1044 35.0121Z" fill="#9ACBF8"/>
<path d="M79.2508 49.3047C79.2508 54.0361 79.2508 58.7675 79.2508 63.4989C69.9477 63.4989 60.6364 63.4989 51.3333 63.5808C50.3957 63.5808 50.0614 63.335 50.0777 62.3516C50.1266 58.3768 50.0777 54.4021 50.0777 50.4274C50.0777 49.6079 50.2082 49.2063 51.154 49.2063C60.5223 49.2637 69.8825 49.2801 79.2508 49.3047ZM66.6537 54.8775C69.9967 54.8775 73.3396 54.8775 76.6825 54.8775C77.6691 54.8775 78.5985 54.7791 78.5822 53.4924C78.5822 52.3451 77.7669 52.173 76.7967 52.173H56.5597C55.6302 52.173 54.7823 52.3123 54.7496 53.4679C54.7496 54.7463 55.6221 54.8775 56.6249 54.8775C59.9679 54.8775 63.3108 54.8775 66.6537 54.8775ZM64.9252 60.6142C67.6566 60.6142 70.3962 60.6142 73.1357 60.6142C74.1957 60.6142 75.2149 60.4748 75.1986 59.1472C75.1986 57.9507 74.2039 57.7704 73.2255 57.7704H56.7962C55.7607 57.7704 54.7089 57.8687 54.7496 59.2374C54.7904 60.606 55.883 60.606 56.894 60.606L64.9252 60.6142Z" fill="#9ACBF8"/>
<path d="M20.089 91.8709C21.4506 90.5023 23.0242 89.3058 23.8559 87.4946C24.6875 85.6835 25.6986 83.7658 24.9077 81.594L24.8099 80.2336C24.8751 76.7424 22.6166 74.6117 20.301 72.5301C20.1216 72.3743 19.9178 72.2432 19.7302 72.0957C22.3037 72.1453 24.7529 73.2172 26.5422 75.0771C28.3314 76.9369 29.3151 79.4333 29.278 82.0202C29.278 87.3799 25.1441 91.8054 20.089 91.8709Z" fill="#00C91A"/>
<path d="M79.2344 40.6995V26.5135C83.2214 26.1693 83.2214 26.1693 83.2214 30.144C83.2214 33.1189 83.1562 36.102 83.2214 39.0851C83.2703 40.4291 82.9279 41.0027 81.5255 40.8061C80.7641 40.7313 79.9994 40.6957 79.2344 40.6995Z" fill="#7EB7E4"/>
<path d="M79.2344 89.1584V74.9723C83.2214 74.6281 83.2214 74.6281 83.2214 78.5946C83.2214 81.5777 83.1562 84.5608 83.2214 87.5357C83.2703 88.8879 82.9279 89.4616 81.5255 89.2567C80.764 89.1847 79.9993 89.1519 79.2344 89.1584Z" fill="#7EB7E4"/>
<path d="M36.6161 6.59068C33.1427 6.13175 29.278 8.05764 26.8809 3.54203C30.2809 4.06653 34.1701 2.01771 36.6161 6.59068Z" fill="#CFE3F3"/>
<path d="M30.2565 88.8223C30.3201 88.922 30.3487 89.0403 30.338 89.1583L30.0608 89.0763L30.2565 88.8223Z" fill="#7EB7E4"/>
<path d="M25.5845 63.5726C23.0243 63.5726 20.4723 63.5071 17.9203 63.5726C16.7054 63.6218 16.5097 63.1137 16.5423 62.0647C16.5994 59.8684 16.5423 57.6638 16.5423 55.4675C16.5848 55.0805 16.7158 54.7085 16.9251 54.3808C17.1344 54.0532 17.4162 53.7786 17.7487 53.5786C18.0811 53.3786 18.455 53.2586 18.8412 53.228C19.2274 53.1974 19.6155 53.2571 19.9749 53.4023C20.9994 54.0562 22.1271 54.5301 23.3097 54.8037C24.4512 54.9922 24.0517 55.8609 24.125 56.5247C24.2555 57.6966 23.6114 59.4996 25.5764 59.4504C27.3457 59.4094 26.8809 57.7048 26.8891 56.5657C26.8891 55.5577 26.9461 54.8283 28.2344 54.6644C29.0629 54.4763 29.8523 54.1434 30.5663 53.6809C32.6536 52.5582 34.5289 53.6236 34.537 55.9674C34.537 58.049 34.4963 60.1306 34.537 62.204C34.537 63.2203 34.268 63.5972 33.208 63.5726C30.6886 63.5235 28.1365 63.5726 25.5845 63.5726Z" fill="#F6BC42"/>
<path d="M25.5764 45.9363C21.2224 46.1412 18.2382 43.4777 18.1078 39.126C18.0262 37.0034 18.1078 34.8644 18.1078 32.7419C18.1078 31.4634 18.5562 31.0291 19.8037 31.0209C22.8205 31.0209 25.8617 31.3896 28.854 30.7258C28.854 32.7419 28.7562 34.7579 28.9356 36.7576C29.2047 40.3717 28.4627 43.5187 25.5764 45.9363Z" fill="#F9E6DE"/>
<path d="M22.641 28.3412C21.6137 28.3412 20.5782 28.3821 19.5509 28.3412C18.8556 28.234 18.1443 28.3318 17.5032 28.6227C16.8621 28.9136 16.3188 29.3852 15.9389 29.9802C15.7661 30.2666 15.5024 30.4862 15.1903 30.6037C14.8783 30.7211 14.536 30.7296 14.2185 30.6277C13.2727 30.4883 13.6152 29.7016 13.5989 29.1689C13.4603 23.4814 16.8602 19.9328 22.478 19.9082C23.807 19.9082 25.1442 19.9082 26.4813 19.9082C27.5865 19.9147 28.6446 20.3588 29.4261 21.1443C30.2076 21.9298 30.6495 22.9934 30.6559 24.1042C30.6412 25.1839 30.22 26.2179 29.4772 26.998C28.7344 27.7781 27.7251 28.2463 26.6526 28.3084C25.3236 28.4149 23.9782 28.3412 22.641 28.3412Z" fill="white"/>
<path d="M25.5764 45.9363C28.4301 43.5187 29.2047 40.3717 28.8949 36.7576C28.7155 34.758 28.8296 32.7419 28.8133 30.7259C29.4309 30.4795 30.0102 30.1456 30.5337 29.7343C31.879 28.3492 32.5802 29.3818 32.6944 30.4964C33.0858 34.1761 33.4608 37.9213 32.4905 41.5355C31.7241 44.5431 28.9275 46.0757 25.5764 45.9363Z" fill="#FBD7C9"/>
<path d="M37.562 45.1495C37.4968 46.7312 37.774 48.5751 37.2114 50.3617C36.869 51.4435 36.3961 51.9188 35.0834 51.4025C32.4253 50.3371 31.5937 47.7884 33.363 45.4937C34.4377 44.2492 35.1687 42.743 35.4829 41.1256C35.5807 40.4454 35.8661 40.0193 36.657 40.0275C37.4479 40.0357 37.5702 40.6257 37.562 41.265V45.1495Z" fill="#58646D"/>
<path d="M13.5907 45.1496C13.5907 43.5105 13.5907 42.2484 13.5907 40.97C13.5907 40.4045 13.7538 40.0275 14.4061 40.0193C15.0583 40.0111 15.3355 40.0931 15.4578 40.7405C15.9103 42.6428 16.7825 44.4186 18.0099 45.9363C19.5427 48.0753 17.9447 51.2469 15.3763 51.5665C14.3164 51.7058 14.1533 50.9354 13.925 50.288C13.289 48.5014 13.7212 46.6821 13.5907 45.1496Z" fill="white"/>
<path d="M13.8679 59.2374C13.8108 59.9684 13.8108 60.7028 13.8679 61.4337C14.1533 63.2121 13.4766 63.6875 11.7155 63.6383C10.2315 63.5891 9.77491 63.2695 9.80752 61.7288C9.85644 59.221 9.80752 56.8116 12.2536 55.2463C12.6531 55.0004 13.0689 54.5907 13.5826 54.8201C14.0963 55.0496 13.8272 55.6888 13.8517 56.1314C13.9006 57.164 13.8679 58.2048 13.8679 59.2374Z" fill="#F46E21"/>
<path d="M37.2848 59.0243C37.2848 58.1064 37.244 57.1885 37.2848 56.2789C37.2848 55.7871 36.9668 55.1069 37.6028 54.8365C38.0676 54.6398 38.516 55.0741 38.9073 55.3282C40.8397 56.5903 42.291 61.2288 41.1088 63.0891C40.4402 64.1463 38.9971 63.4497 37.9126 63.5235C37.0402 63.5809 37.3011 62.7941 37.2848 62.3106C37.2604 61.2124 37.2848 60.1143 37.2848 59.0243Z" fill="#F46E21"/>
<path d="M29.7755 48.1572C30.1668 50.9518 29.7755 51.6157 27.2234 52.1484C25.4967 52.5768 23.6729 52.34 22.1112 51.4845C21.6465 51.2223 21.2143 50.9928 21.1328 50.3126C20.9045 48.5342 21.1328 48.2392 22.9673 48.5752C25.2359 49.008 27.5761 48.8644 29.7755 48.1572Z" fill="#FBD7C9"/>
<path d="M33.2896 24.35C33.469 23.6862 32.8657 22.5962 33.4772 22.3749C34.3496 22.0471 35.1078 22.965 35.7275 23.5796C37.562 25.2924 37.6355 27.5297 37.5539 29.808C37.5539 30.308 37.3256 30.6276 36.7956 30.6276C36.2656 30.6276 35.7112 30.8079 35.54 30.2096C35.1062 28.8839 34.3721 27.6776 33.3956 26.6856C32.8412 26.0546 33.4038 25.1531 33.2896 24.35Z" fill="#58646D"/>
<path d="M38.2958 35.2086C38.2958 36.3969 37.9208 37.1427 36.6651 37.1755C35.4095 37.2083 35.7275 36.1675 35.8498 35.6594C36.0292 34.9218 34.8959 33.5122 36.7385 33.4876C37.9045 33.4794 38.2469 34.2416 38.2958 35.2086Z" fill="#FBD7C9"/>
<path d="M15.4173 35.3808C15.1074 36.0692 15.988 37.2985 14.3818 37.192C13.224 37.11 12.8245 36.479 12.8163 35.4054C12.8082 34.3318 13.1424 33.5205 14.447 33.4877C16.1837 33.4467 14.9036 34.8563 15.4173 35.3808Z" fill="#FBD7C9"/>
<path d="M24.8099 80.2336L24.9077 81.594C23.7255 82.807 22.6329 83.9133 23.277 85.9785C23.6032 87.0439 22.4617 87.8798 21.3936 87.257C20.8052 86.8603 20.1127 86.6484 19.4041 86.6484C18.6956 86.6484 18.0031 86.8603 17.4147 87.257C16.1917 87.9618 15.0909 86.9947 15.4741 85.5278C15.6645 84.9609 15.6715 84.3481 15.4943 83.7769C15.3171 83.2058 14.9647 82.7056 14.4876 82.348C13.2238 81.1679 13.6315 79.9714 15.36 79.7337C15.9534 79.7056 16.5247 79.4981 16.9989 79.1384C17.4731 78.7787 17.8283 78.2836 18.018 77.7177C18.5888 76.3654 20.0319 76.1688 20.4641 77.3571C21.1571 79.2584 22.5595 79.6354 24.1984 79.8894C24.3859 79.8894 24.6061 80.1025 24.8099 80.2336ZM20.4152 82.3234C20.3611 82.0787 20.2276 81.8589 20.0357 81.6987C19.8439 81.5385 19.6045 81.4469 19.3552 81.4383C18.9312 81.4383 18.2871 81.8481 18.3523 82.2579C18.4175 82.6676 18.4013 83.4462 19.3634 83.438C20.3255 83.4298 20.1053 82.8315 20.4152 82.3234Z" fill="#050404"/>
<path d="M55.8828 86.2981H39.3067C38.8206 86.3227 38.3335 86.3227 37.8473 86.2981C37.0319 86.208 36.4612 85.8146 36.4612 84.9131C36.4612 84.0116 37.0075 83.6019 37.831 83.5117C38.2546 83.4871 38.6793 83.4871 39.1029 83.5117H72.63C73.0533 83.4788 73.4786 83.4788 73.9019 83.5117C74.248 83.5385 74.5713 83.6956 74.8072 83.9517C75.043 84.2077 75.174 84.5437 75.174 84.8926C75.174 85.2415 75.043 85.5776 74.8072 85.8336C74.5713 86.0896 74.248 86.2467 73.9019 86.2735C73.4189 86.3105 72.9337 86.3105 72.4506 86.2735L55.8828 86.2981Z" fill="#0A0D10"/>
<path d="M57.5298 80.5286H38.0022C37.0645 80.5286 36.4612 80.1353 36.4693 79.1354C36.4775 78.1356 37.0645 77.8406 37.9043 77.8406H77.147C78.0928 77.8406 78.6717 78.3159 78.5739 79.3157C78.4679 80.4713 77.5955 80.5286 76.6904 80.5286H57.5298Z" fill="#050404"/>
<path d="M66.5802 32.0781H56.9184C55.9318 32.0781 54.8066 32.1846 54.7577 30.775C54.7088 29.3655 55.8013 29.3737 56.8042 29.3737H76.503C77.4977 29.3737 78.6148 29.3327 78.574 30.7587C78.5332 32.1846 77.4244 32.0781 76.4296 32.0781H66.5802Z" fill="#050404"/>
<path d="M65.1043 35.012C67.8358 35.012 70.5753 35.012 73.3149 35.012C74.3422 35.012 75.2147 35.2742 75.1984 36.4707C75.182 37.6672 74.3422 37.8475 73.4046 37.8475C67.7569 37.8475 62.1011 37.8475 56.4372 37.8475C55.4914 37.8475 54.7005 37.5115 54.7413 36.3888C54.782 35.266 55.5566 35.0201 56.5269 35.0283L65.1043 35.012Z" fill="#0A0D10"/>
<path d="M66.6537 54.8775C63.3108 54.8775 59.9678 54.8775 56.6249 54.8775C55.622 54.8775 54.717 54.7464 54.7496 53.4679C54.7496 52.3124 55.6302 52.1731 56.5597 52.1731H76.7967C77.7343 52.1731 78.5741 52.3452 78.5822 53.4925C78.5822 54.7792 77.6691 54.8775 76.6825 54.8775C73.307 54.8775 69.9967 54.8775 66.6537 54.8775Z" fill="#050404"/>
<path d="M64.925 60.6141H56.8938C55.8828 60.6141 54.7902 60.6141 54.7494 59.2455C54.7087 57.8769 55.7605 57.7786 56.796 57.7786H73.2252C74.2037 57.7786 75.1821 57.9589 75.1984 59.1554C75.1984 60.483 74.1955 60.6305 73.1355 60.6223C70.396 60.6141 67.6564 60.6141 64.925 60.6141Z" fill="#0A0D10"/>
<path d="M20.4153 82.3236C20.1055 82.8317 20.2115 83.4381 19.3636 83.4381C18.5156 83.4381 18.4177 82.6924 18.3525 82.258C18.2873 81.8237 18.9314 81.4385 19.3554 81.4385C19.6047 81.447 19.8441 81.5386 20.0359 81.6989C20.2278 81.8591 20.3613 82.0788 20.4153 82.3236Z" fill="#F6BC42"/>
</g>
<defs>
<clipPath id="clip0_805_1856">
<rect width="85" height="94" fill="white" transform="translate(0.993652 0.821289)"/>
</clipPath>
</defs>
</svg>
