<svg width="345" height="346" viewBox="0 0 345 346" fill="none" xmlns="http://www.w3.org/2000/svg">
<path d="M101.271 27.4993H40.3765V128.598H101.271V27.4993Z" fill="#E0E0E0"/>
<path d="M99.2486 27.4993H38.3538V128.598H99.2486V27.4993Z" fill="#EBEBEB"/>
<path d="M96.6618 29.5486H40.9475V126.542H96.6618V29.5486Z" fill="#FAFAFA"/>
<path d="M85.8119 42.1548H51.5564V113.942H85.8119V42.1548Z" fill="#EBEBEB"/>
<path d="M51.5565 88.5366C51.4739 81.8298 57.4871 75.2817 64.1056 74.3502C67.2635 73.9017 70.621 74.5296 73.5725 73.3152C78.8357 71.1486 80.5144 64.1313 85.812 62.0544L86.0528 113.942H51.5565V88.5366Z" fill="#E0E0E0"/>
<path d="M325.518 31.2874H267.114V92.3455H325.518V31.2874Z" fill="#E0E0E0"/>
<path d="M321.562 31.2874H263.158V92.3455H321.562V31.2874Z" fill="#FAFAFA"/>
<path d="M321.576 92.3592H263.137V31.2666H321.576V92.3592ZM263.172 92.3247H321.542V31.3011H263.172V92.3247Z" fill="#E0E0E0"/>
<path d="M313.712 39.4915H271.008V84.1345H313.712V39.4915Z" fill="#FAFAFA"/>
<path d="M271.008 84.4312C270.708 84.8815 270.354 85.2939 269.955 85.6594C269.267 86.3839 268.311 87.3568 267.238 88.4194C266.164 89.482 265.174 90.4272 264.451 91.0965C264.082 91.4908 263.666 91.8384 263.213 92.1315C263.515 91.6828 263.869 91.2707 264.266 90.9034C264.954 90.2134 265.903 89.206 266.983 88.1434C268.063 87.0808 269.047 86.1286 269.776 85.4593C270.145 85.0688 270.558 84.7236 271.008 84.4312Z" fill="#E0E0E0"/>
<path d="M313.712 84.3208C314.158 84.6263 314.568 84.9803 314.937 85.3765C315.625 86.0665 316.629 87.0256 317.689 88.1365C318.748 89.2474 319.684 90.2065 320.358 90.9379C320.749 91.3055 321.094 91.7204 321.383 92.173C320.938 91.8723 320.529 91.5203 320.165 91.1242C319.443 90.4342 318.466 89.4751 317.413 88.3642C316.361 87.2533 315.404 86.2942 314.737 85.5628C314.345 85.193 314.001 84.7758 313.712 84.3208Z" fill="#E0E0E0"/>
<path d="M313.595 39.6156C313.895 39.1653 314.249 38.7529 314.648 38.3874C315.336 37.6974 316.285 36.6831 317.358 35.6274C318.432 34.5717 319.422 33.6195 320.152 32.9433C320.523 32.5578 320.936 32.2152 321.383 31.9221C321.083 32.3687 320.732 32.7786 320.337 33.1434C319.649 33.8679 318.693 34.8477 317.585 35.9034C316.478 36.9591 315.521 37.9182 314.792 38.5875C314.43 38.9707 314.028 39.3153 313.595 39.6156Z" fill="#E0E0E0"/>
<path d="M270.884 39.7192C270.435 39.418 270.024 39.0635 269.659 38.6635C268.937 37.9735 267.967 37.0213 266.907 35.9449C265.848 34.8685 264.905 33.8749 264.238 33.1435C263.848 32.7728 263.502 32.3584 263.206 31.9084C263.655 32.2077 264.066 32.5598 264.431 32.9572C265.119 33.6472 266.123 34.6063 267.183 35.7172C268.242 36.8281 269.192 37.7872 269.859 38.5186C270.246 38.8775 270.59 39.2805 270.884 39.7192Z" fill="#E0E0E0"/>
<path d="M313.595 84.1345C313.589 84.0633 313.589 83.9918 313.595 83.9206C313.595 83.7688 313.595 83.5618 313.595 83.2927C313.595 82.7338 313.595 81.9127 313.595 80.8846C313.595 78.7732 313.595 75.6958 313.554 71.7904C313.554 63.9658 313.506 52.8292 313.471 39.4915L313.636 39.6571H271.056L271.242 39.4639C271.242 55.8514 271.242 71.2039 271.242 84.1069L271.077 83.9482L301.913 84.031L310.568 84.0724H312.866H313.664C313.6 84.0786 313.535 84.0786 313.471 84.0724H312.852H310.589L301.968 84.1138L271.008 84.1966H270.843V84.031C270.843 71.1073 270.843 55.7755 270.843 39.388V39.3052H271.042H313.623H313.788V39.5122C313.746 52.8982 313.719 64.0693 313.698 71.9422C313.698 75.8338 313.698 78.8974 313.657 81.0019C313.657 82.0369 313.657 82.8304 313.657 83.3824C313.657 83.6377 313.657 83.8378 313.657 83.9827C313.657 84.1276 313.595 84.1414 313.595 84.1345Z" fill="#E0E0E0"/>
<path d="M299.484 54.6714H285.236V68.9613H299.484V54.6714Z" fill="#EBEBEB"/>
<path d="M237.31 317.41C236.099 316.368 233.388 313.063 235.48 309.212C236.243 307.832 237.874 307.101 239.339 306.452C240.805 305.804 242.36 305.293 243.577 304.251C245.875 302.292 246.508 299.042 248.036 296.427C249.783 293.425 253.051 291.176 256.505 291.335C260.454 291.514 263.749 294.75 265.242 298.442C266.735 302.133 266.79 306.232 266.825 310.22C266.825 312.421 266.742 314.905 265.125 316.395C263.639 317.775 261.403 317.775 259.381 317.72L237.784 317.03" fill="#F5F5F5"/>
<path d="M278.624 257.849H221.823L232.053 319.031C232.264 320.307 232.832 321.497 233.691 322.462C234.549 323.427 235.664 324.127 236.904 324.482L237.103 324.537C237.268 324.579 237.433 324.634 237.605 324.668C237.987 324.744 238.373 324.787 238.761 324.8V324.862L239.037 324.813H264.355C264.817 324.812 265.278 324.766 265.731 324.675C267.209 324.446 268.571 323.736 269.609 322.655C270.646 321.575 271.302 320.183 271.476 318.693L276.409 276.534L276.629 274.857L278.576 258.166L278.624 257.849ZM267.905 296.882H262.078L262.669 279.128H269.419L267.905 296.882ZM269.969 279.128H275.556L273.492 296.882H268.476L269.969 279.128ZM253.319 316.568L252.996 301.133H261.397L260.881 316.561L253.319 316.568ZM244.258 301.133H252.411L252.769 316.561H245.428L244.258 301.133ZM244.891 316.561H238.053C237.399 312.421 236.553 306.984 235.638 301.133H243.694L244.891 316.561ZM243.928 296.882L242.552 279.128H251.909L252.308 296.882H243.928ZM252.872 296.882L252.466 279.128H262.098L261.513 296.882H252.872ZM252.37 274.864L251.992 258.422H262.779L262.236 274.864H252.37ZM251.806 274.864H242.222L240.949 258.422H251.434L251.806 274.864ZM241.651 274.864H231.51C231.152 272.594 230.822 270.448 230.505 268.509C229.446 261.865 229.047 259.36 228.827 258.422H240.385L241.651 274.864ZM241.981 279.128L243.364 296.882H234.97C234.688 295.081 234.406 293.26 234.117 291.438C233.464 287.243 232.803 283.055 232.184 279.128H241.981ZM234.42 296.882H228.916L225.944 279.128H231.606C232.48 284.607 233.436 290.714 234.42 296.882ZM235.108 301.139C235.947 306.48 236.766 311.745 237.523 316.568H232.253L229.604 301.133L235.108 301.139ZM261.465 316.568L261.981 301.139H267.589L266.274 316.568H261.465ZM262.841 274.864L263.385 258.422H271.221L269.845 274.864H262.841ZM228.324 258.422C228.551 259.608 229.583 266.081 230.973 274.864H225.27L222.518 258.422H228.324ZM271.221 316.568H266.832L268.132 301.133H273.01L271.221 316.568ZM276.099 274.864H270.382L271.758 258.422H277.998L276.099 274.864Z" fill="#E0E0E0"/>
<path d="M310.953 325.455C310.953 325.559 244.953 325.634 163.556 325.634C82.1586 325.634 16.145 325.559 16.145 325.455C16.145 325.352 82.1311 325.276 163.556 325.276C244.981 325.276 310.953 325.358 310.953 325.455Z" fill="#263238"/>
<path d="M232.019 250.707L153.924 250.652C149.414 250.649 145.09 248.849 141.902 245.649C138.714 242.45 136.924 238.112 136.924 233.589V37.2421C136.925 34.9984 137.368 32.777 138.227 30.7052C139.086 28.6334 140.344 26.7517 141.929 25.1681C143.514 23.5844 145.394 22.3297 147.463 21.4759C149.532 20.6221 151.749 20.1859 153.986 20.1922L232.081 20.2405C236.591 20.2442 240.915 22.0436 244.103 25.2432C247.291 28.4429 249.081 32.781 249.081 37.3042L249.04 233.644C249.041 235.885 248.601 238.105 247.746 240.176C246.891 242.247 245.637 244.129 244.056 245.714C242.475 247.299 240.599 248.556 238.533 249.412C236.468 250.269 234.254 250.709 232.019 250.707Z" fill="#455A64"/>
<path d="M231.998 27.1889H216.862C216.369 27.1996 215.883 27.3077 215.431 27.5071C214.979 27.7064 214.571 27.993 214.23 28.3506C213.889 28.7081 213.621 29.1296 213.442 29.5909C213.264 30.0522 213.177 30.5443 213.188 31.0391V33.7991C213.199 34.2938 213.113 34.7859 212.934 35.2472C212.756 35.7085 212.488 36.13 212.147 36.4875C211.806 36.8451 211.397 37.1317 210.946 37.331C210.494 37.5304 210.008 37.6385 209.514 37.6493H179.999C179.002 37.6257 178.055 37.2063 177.366 36.4831C176.678 35.7599 176.303 34.7921 176.325 33.7922V31.0322C176.347 30.0323 175.973 29.0644 175.284 28.3412C174.595 27.618 173.648 27.1986 172.651 27.1751H154.075C152.51 27.1732 150.96 27.4808 149.514 28.0803C148.067 28.6797 146.753 29.5592 145.645 30.6685C144.538 31.7777 143.66 33.095 143.06 34.545C142.461 35.995 142.152 37.5493 142.152 39.119L142.118 230.766C142.118 233.934 143.371 236.971 145.603 239.212C147.835 241.453 150.862 242.714 154.02 242.717L231.957 242.759C233.522 242.76 235.072 242.453 236.519 241.853C237.965 241.254 239.28 240.375 240.387 239.265C241.494 238.156 242.373 236.839 242.972 235.389C243.572 233.939 243.88 232.384 243.88 230.815V39.1673C243.887 35.9989 242.64 32.9573 240.412 30.7111C238.184 28.4649 235.157 27.198 231.998 27.1889Z" fill="#FAFAFA"/>
<path d="M218.458 33.4058H217.592V34.6202H218.458V33.4058Z" fill="#263238"/>
<path d="M219.869 32.8674H219.002V34.6269H219.869V32.8674Z" fill="#263238"/>
<path d="M221.272 32.4604H220.406V34.627H221.272V32.4604Z" fill="#263238"/>
<path d="M222.683 31.6738H221.816V34.627H222.683V31.6738Z" fill="#263238"/>
<path d="M235.459 34.6822H231.118C231.035 34.6822 230.956 34.6497 230.896 34.5917C230.837 34.5336 230.803 34.4547 230.801 34.3717V32.2051C230.801 32.1228 230.834 32.0438 230.892 31.9855C230.95 31.9273 231.029 31.8946 231.111 31.8946H235.459C235.477 31.8877 235.496 31.8877 235.514 31.8946C235.52 31.9149 235.52 31.9364 235.514 31.9567V32.6467H235.982C236.004 32.6467 236.025 32.6554 236.04 32.671C236.056 32.6865 236.064 32.7075 236.064 32.7295V33.7714C236.063 33.7921 236.053 33.8115 236.038 33.8255C236.023 33.8396 236.003 33.8474 235.982 33.8473H235.514V34.5373C235.533 34.5446 235.549 34.5593 235.557 34.578C235.565 34.5968 235.566 34.6181 235.559 34.6374C235.551 34.6566 235.537 34.6721 235.518 34.6805C235.499 34.6889 235.478 34.6895 235.459 34.6822ZM235.376 32.0533H231.111C231.091 32.0533 231.071 32.0572 231.053 32.0649C231.035 32.0725 231.018 32.0837 231.004 32.0978C230.99 32.1119 230.979 32.1286 230.971 32.147C230.963 32.1654 230.96 32.1852 230.96 32.2051V34.3717C230.959 34.3922 230.964 34.4125 230.972 34.4314C230.98 34.4503 230.991 34.4674 231.006 34.4816C231.021 34.4957 231.039 34.5068 231.058 34.514C231.077 34.5212 231.097 34.5244 231.118 34.5235H235.376V33.8335C235.376 33.8115 235.385 33.7905 235.401 33.775C235.416 33.7594 235.437 33.7507 235.459 33.7507H235.92V32.8468H235.459C235.449 32.8478 235.438 32.8465 235.428 32.8431C235.418 32.8398 235.409 32.8343 235.401 32.8272C235.393 32.82 235.387 32.8113 235.383 32.8016C235.379 32.7919 235.376 32.7815 235.376 32.7709V32.0533Z" fill="#263238"/>
<path d="M231.317 34.1716V32.4121H235.025V33.2056V33.3781V34.1716H231.317Z" fill="#263238"/>
<path d="M226.852 34.5166C226.85 34.433 226.816 34.3533 226.757 34.2941C226.698 34.235 226.619 34.201 226.536 34.1992C226.452 34.1992 226.371 34.2327 226.312 34.2922C226.252 34.3517 226.219 34.4324 226.219 34.5166C226.218 34.5586 226.226 34.6003 226.241 34.6392C226.257 34.6781 226.28 34.7135 226.31 34.7432C226.339 34.7728 226.375 34.7962 226.413 34.8118C226.452 34.8274 226.494 34.835 226.536 34.834C226.62 34.834 226.7 34.8006 226.759 34.7411C226.819 34.6815 226.852 34.6008 226.852 34.5166Z" fill="#263238"/>
<path d="M225.421 33.7506L225.827 34.1577C225.916 34.0651 226.023 33.9914 226.141 33.9411C226.26 33.8907 226.387 33.8648 226.515 33.8648C226.643 33.8648 226.771 33.8907 226.889 33.9411C227.007 33.9914 227.114 34.0651 227.203 34.1577L227.609 33.7506C227.465 33.6059 227.293 33.4917 227.104 33.4146C226.915 33.3376 226.712 33.2994 226.508 33.3021C226.101 33.3025 225.711 33.4636 225.421 33.7506Z" fill="#263238"/>
<path d="M226.508 32.3913C225.866 32.3836 225.248 32.6318 224.788 33.0813L225.187 33.4884C225.538 33.1399 226.011 32.9444 226.505 32.9444C226.998 32.9444 227.472 33.1399 227.822 33.4884L228.228 33.0813C227.768 32.6331 227.15 32.3851 226.508 32.3913Z" fill="#263238"/>
<path d="M224.1 32.4467L224.506 32.8538C225.03 32.3288 225.74 32.0338 226.481 32.0338C227.221 32.0338 227.931 32.3288 228.455 32.8538L228.861 32.4467C228.229 31.8146 227.373 31.4597 226.481 31.4597C225.588 31.4597 224.732 31.8146 224.1 32.4467Z" fill="#263238"/>
<path d="M198.217 51.0352H192.975C192.614 51.0352 192.321 51.3286 192.321 51.6907V55.258C192.321 55.62 192.614 55.9135 192.975 55.9135H198.217C198.578 55.9135 198.871 55.62 198.871 55.258V51.6907C198.871 51.3286 198.578 51.0352 198.217 51.0352Z" fill="#263238"/>
<path d="M193.766 51.3525H193.078V50.5521C193.06 50.2099 193.112 49.8675 193.23 49.5459C193.349 49.2244 193.531 48.9303 193.766 48.6817C194.002 48.4331 194.285 48.2351 194.599 48.0998C194.913 47.9645 195.251 47.8948 195.593 47.8948C195.935 47.8948 196.273 47.9645 196.587 48.0998C196.901 48.2351 197.184 48.4331 197.419 48.6817C197.655 48.9303 197.837 49.2244 197.955 49.5459C198.073 49.8675 198.125 50.2099 198.107 50.5521V51.0765H197.419V50.5521C197.435 50.3021 197.399 50.0516 197.314 49.816C197.229 49.5804 197.097 49.3647 196.926 49.1822C196.755 48.9998 196.548 48.8543 196.319 48.7549C196.09 48.6555 195.843 48.6043 195.593 48.6043C195.343 48.6043 195.096 48.6555 194.867 48.7549C194.637 48.8543 194.431 48.9998 194.26 49.1822C194.089 49.3647 193.956 49.5804 193.872 49.816C193.787 50.0516 193.751 50.3021 193.766 50.5521V51.3525Z" fill="#263238"/>
<path d="M142.916 171.916C142.983 165.713 144.685 159.637 147.848 154.305C151.011 148.974 155.524 144.575 160.928 141.556C168.496 137.416 177.316 136.34 185.73 134.401C194.145 132.462 202.868 129.261 208.07 122.354C215.101 113.018 213.759 99.7493 218.837 89.2337C221.197 84.4859 224.779 80.4562 229.212 77.5608C233.645 74.6654 238.768 73.0092 244.052 72.7634V233.195C244.052 235.781 243.028 238.261 241.205 240.089C239.382 241.918 236.909 242.945 234.331 242.945H152.651C151.374 242.946 150.108 242.694 148.928 242.205C147.747 241.715 146.674 240.998 145.77 240.092C144.866 239.187 144.149 238.112 143.659 236.928C143.169 235.745 142.917 234.477 142.916 233.195V171.916Z" fill="#EBEBEB"/>
<path d="M160.116 88.3572C160.116 82.4094 163.226 78.8628 167.539 78.8628C171.853 78.8628 174.984 82.4094 174.984 88.3572C174.984 94.305 171.846 97.8585 167.539 97.8585C163.233 97.8585 160.116 94.305 160.116 88.3572ZM173.016 88.3572C173.016 83.3685 170.78 80.6223 167.512 80.6223C164.244 80.6223 162.008 83.3823 162.008 88.3572C162.008 93.3321 164.244 96.099 167.512 96.099C170.78 96.099 173.03 93.3321 173.03 88.3572H173.016Z" fill="#263238"/>
<path d="M191.172 88.1986C191.172 94.5466 187.732 97.8586 182.662 97.8586C181.125 97.9243 179.6 97.5739 178.245 96.8443L179.015 95.2987C180.112 95.9342 181.369 96.2385 182.634 96.175C186.652 96.175 189.232 93.5875 189.232 88.516C189.232 88.0951 189.232 87.5569 189.15 86.998C188.221 89.068 186.04 90.1996 183.46 90.1996C179.758 90.1996 177.178 88.0123 177.178 84.5968C177.178 81.1813 179.93 78.8629 183.536 78.8629C188.482 78.8422 191.172 82.2922 191.172 88.1986ZM188.537 84.4933C188.537 82.4233 186.838 80.4913 183.618 80.4913C180.928 80.4913 179.07 82.0645 179.07 84.5416C179.07 87.0187 180.88 88.5712 183.749 88.5712C186.618 88.5712 188.537 86.8117 188.537 84.4933Z" fill="#263238"/>
<path d="M193.966 84.997C193.957 84.8077 193.988 84.6186 194.055 84.4416C194.123 84.2646 194.226 84.1034 194.358 83.9681C194.49 83.8328 194.649 83.7263 194.824 83.6552C194.999 83.5841 195.187 83.55 195.376 83.5549C195.565 83.554 195.752 83.5907 195.926 83.6629C196.101 83.7352 196.259 83.8415 196.393 83.9757C196.526 84.1098 196.631 84.2692 196.702 84.4446C196.773 84.6199 196.809 84.8077 196.807 84.997C196.811 85.382 196.662 85.7527 196.394 86.0281C196.126 86.3036 195.76 86.4613 195.376 86.4667C195.187 86.464 195 86.4238 194.827 86.3483C194.653 86.2728 194.496 86.1636 194.365 86.0269C194.234 85.8902 194.131 85.7288 194.063 85.5521C193.994 85.3753 193.961 85.1866 193.966 84.997ZM193.966 96.3613C193.957 96.172 193.988 95.9829 194.055 95.8059C194.123 95.6289 194.226 95.4677 194.358 95.3324C194.49 95.1971 194.649 95.0906 194.824 95.0195C194.999 94.9484 195.187 94.9143 195.376 94.9192C195.565 94.9183 195.752 94.955 195.926 95.0272C196.101 95.0995 196.259 95.2058 196.393 95.34C196.526 95.4741 196.631 95.6335 196.702 95.8089C196.773 95.9842 196.809 96.172 196.807 96.3613C196.811 96.7463 196.662 97.117 196.394 97.3924C196.126 97.6679 195.76 97.8256 195.376 97.831C195.187 97.8283 195 97.7881 194.827 97.7126C194.653 97.6371 194.496 97.5279 194.365 97.3912C194.234 97.2545 194.131 97.0931 194.063 96.9164C193.994 96.7396 193.961 96.5509 193.966 96.3613Z" fill="#263238"/>
<path d="M212.294 95.9887V97.6999H199.222V96.3199L206.962 88.7299C209.067 86.6599 209.466 85.3972 209.466 84.1138C209.466 81.9541 207.946 80.6224 205.104 80.6224C204.156 80.5627 203.207 80.7178 202.327 81.0761C201.447 81.4345 200.658 81.9869 200.02 82.6924L198.644 81.5125C200.082 79.8082 202.394 78.8491 205.242 78.8491C209.019 78.8491 211.434 80.7673 211.434 83.8861C211.434 85.6801 210.877 87.2809 208.372 89.7304L202.043 95.9404L212.294 95.9887Z" fill="#263238"/>
<path d="M214.578 88.3572C214.578 82.4094 217.688 78.8628 222.002 78.8628C226.315 78.8628 229.446 82.4094 229.446 88.3572C229.446 94.305 226.309 97.8585 222.002 97.8585C217.695 97.8585 214.578 94.305 214.578 88.3572ZM227.478 88.3572C227.478 83.3685 225.242 80.6223 221.974 80.6223C218.706 80.6223 216.47 83.3823 216.47 88.3572C216.47 93.3321 218.754 96.0921 222.036 96.0921C225.318 96.0921 227.478 93.3321 227.478 88.3572Z" fill="#263238"/>
<path d="M174.366 64.6426C175.926 57.3626 171.306 50.1926 164.048 48.6279C156.789 47.0632 149.639 51.6964 148.079 58.9764C146.519 66.2564 151.139 73.4264 158.398 74.9911C165.657 76.5557 172.806 71.9226 174.366 64.6426Z" fill="#E0E0E0"/>
<path d="M88.3232 169.066C87.3531 168.376 86.156 168.087 85.0758 167.576C83.9957 167.065 82.9499 166.196 82.8467 164.982C82.7022 163.215 84.6424 161.883 84.7594 160.152C84.9176 157.661 81.5602 156.301 81.0717 153.859C80.6658 151.83 82.3789 149.919 82.3101 147.849C82.2413 145.779 80.4525 144.24 79.6406 142.329C77.7418 137.927 81.2368 132.248 78.588 128.253C77.7847 127.248 76.8861 126.324 75.9048 125.493C74.9966 124.582 74.2054 123.423 74.3155 122.105L69.3482 119.842C67.6832 117.289 63.9061 117.192 61.0922 118.282C58.2782 119.373 55.7602 121.325 52.8362 122.057C51.4051 122.409 51.6115 120.283 50.1667 120.58C48.261 120.966 45.9286 123.195 45.3507 125.044C44.7728 127.025 44.3669 129.219 43.6651 131.165C42.8877 133.311 40.5966 134.808 40.3765 137.085C40.1288 139.734 42.8602 141.915 42.867 144.564C42.867 147.428 39.716 149.995 40.7205 152.679C41.2984 154.211 43.0597 155.032 43.6789 156.55C44.5251 158.62 42.8395 160.952 42.9909 163.208C43.1422 165.465 45.0136 167.121 46.7818 168.473C53.5145 173.743 61.0478 177.895 69.0936 180.769C72.5818 181.969 76.2557 182.887 79.9296 182.556C83.6035 182.225 87.2981 180.486 89.2245 177.298C90.8 174.711 90.7862 170.84 88.3232 169.066Z" fill="#263238"/>
<path d="M74.1159 120.856C73.6643 119.045 72.7397 117.386 71.4373 116.052C70.1349 114.717 68.5017 113.754 66.7055 113.263C64.9092 112.771 63.0148 112.768 61.2169 113.253C59.419 113.739 57.7825 114.696 56.4756 116.026C55.4161 117.103 54.5767 118.42 53.3246 119.262C51.9073 120.221 51.7009 119.952 50.1185 120.566C48.5361 121.18 45.6259 125.617 45.674 127.328L44.8828 134.822C44.9447 136.574 47.1945 137.582 48.8457 136.988C50.4969 136.395 51.5977 134.863 52.4783 133.345C53.359 131.827 54.1639 130.185 55.6087 129.212C57.9823 127.535 61.2022 128.115 64.0436 128.695C66.885 129.274 70.1806 129.695 72.4028 127.818C74.3155 126.169 74.7282 123.292 74.1159 120.856Z" fill="#263238"/>
<path d="M75.6846 131.551C75.3612 126.673 72.1276 120.698 67.2841 121.201L52.1481 125.072C51.4392 125.15 50.785 125.491 50.315 126.029C49.8449 126.567 49.5931 127.262 49.6094 127.977L51.3087 164.547H51.1987C51.1987 164.547 57.3907 177.623 67.3529 174.469C69.3343 173.841 67.5318 168.908 67.9308 166.672H68.0271C68.0271 166.41 68.0271 166.162 68.0271 165.906C68.223 164.239 68.2437 162.555 68.0891 160.883C68.0891 157.93 68.0891 156.743 68.0891 156.743C68.0891 156.743 74.2811 155.694 75.5676 147.566C76.2487 143.599 76.0355 136.968 75.6846 131.551Z" fill="#FFBE9D"/>
<path d="M74.4325 137.816C74.4363 138.089 74.3332 138.352 74.1453 138.55C73.9575 138.747 73.7 138.863 73.428 138.872C73.2959 138.882 73.163 138.866 73.0371 138.824C72.9113 138.782 72.795 138.716 72.6951 138.629C72.5951 138.541 72.5136 138.435 72.4551 138.315C72.3967 138.196 72.3626 138.066 72.3548 137.934C72.3528 137.661 72.4565 137.399 72.6439 137.202C72.8314 137.005 73.0879 136.889 73.3592 136.878C73.4916 136.867 73.6249 136.882 73.7511 136.923C73.8774 136.965 73.9941 137.031 74.0942 137.119C74.1943 137.206 74.2759 137.313 74.334 137.433C74.3921 137.553 74.4256 137.683 74.4325 137.816Z" fill="#263238"/>
<path d="M74.2537 135.001C74.1299 135.139 73.3387 134.56 72.1897 134.56C71.0407 134.56 70.2564 135.132 70.1257 134.994C69.995 134.856 70.1945 134.684 70.5523 134.428C71.0365 134.09 71.6131 133.909 72.2035 133.911C72.7841 133.91 73.35 134.094 73.8203 134.435C74.1987 134.732 74.3225 134.939 74.2537 135.001Z" fill="#263238"/>
<path d="M63.8578 138.182C63.8616 138.453 63.7592 138.715 63.5727 138.911C63.3861 139.107 63.1303 139.222 62.8602 139.231C62.7279 139.242 62.5946 139.227 62.4684 139.185C62.3421 139.144 62.2254 139.077 62.1253 138.99C62.0252 138.902 61.9436 138.795 61.8855 138.675C61.8274 138.556 61.7939 138.425 61.787 138.292C61.7832 138.021 61.8856 137.76 62.0721 137.564C62.2587 137.367 62.5145 137.253 62.7846 137.244C62.9169 137.232 63.0502 137.248 63.1764 137.289C63.3027 137.331 63.4194 137.397 63.5195 137.485C63.6196 137.572 63.7012 137.679 63.7593 137.799C63.8174 137.919 63.8509 138.049 63.8578 138.182Z" fill="#263238"/>
<path d="M63.2593 135.236C63.1355 135.374 62.3443 134.787 61.1953 134.794C60.0464 134.801 59.262 135.367 59.1313 135.229C59.0006 135.091 59.2001 134.918 59.5579 134.656C60.0439 134.322 60.6198 134.144 61.2091 134.146C61.7889 134.143 62.3548 134.324 62.8259 134.663C63.2043 134.932 63.3212 135.174 63.2593 135.236Z" fill="#263238"/>
<path d="M67.3393 143.55C67.9277 143.359 68.5382 143.246 69.1556 143.212C69.4377 143.212 69.7129 143.129 69.7611 142.929C69.7808 142.633 69.7139 142.338 69.5684 142.08C69.2932 141.39 69.0112 140.666 68.7153 139.9C67.5388 136.802 66.6513 134.249 66.8096 134.201C66.9678 134.152 67.9929 136.629 69.1694 139.721C69.4515 140.487 69.7267 141.218 69.9812 141.915C70.1622 142.26 70.2158 142.658 70.1326 143.04C70.0913 143.141 70.0277 143.231 69.9467 143.304C69.8657 143.377 69.7693 143.43 69.6648 143.46C69.5071 143.5 69.3457 143.524 69.1832 143.529C68.5717 143.612 67.9525 143.619 67.3393 143.55Z" fill="#263238"/>
<path d="M68.1443 156.812C64.3275 156.879 60.567 155.883 57.2808 153.935C57.2808 153.935 59.9227 159.51 68.0342 158.765L68.1443 156.812Z" fill="#EB996E"/>
<path d="M66.8715 146.255C66.6589 145.985 66.381 145.774 66.0643 145.643C65.7476 145.511 65.4025 145.463 65.062 145.503C64.8154 145.526 64.5761 145.599 64.3585 145.718C64.1409 145.836 63.9496 145.998 63.7961 146.193C63.6456 146.38 63.5562 146.608 63.5402 146.848C63.5242 147.088 63.5823 147.326 63.7067 147.531C63.8893 147.73 64.1263 147.871 64.388 147.936C64.6498 148.001 64.9248 147.988 65.179 147.897C65.7057 147.71 66.1898 147.419 66.6031 147.042C66.7291 146.95 66.8365 146.835 66.9196 146.703C66.9613 146.643 66.9836 146.57 66.9836 146.496C66.9836 146.423 66.9613 146.35 66.9196 146.289" fill="#EB996E"/>
<path d="M64.0506 144.33C64.2295 144.33 64.2364 145.537 65.2753 146.4C66.3141 147.262 67.6076 147.124 67.6213 147.297C67.6351 147.469 67.3324 147.532 66.7889 147.545C66.0748 147.553 65.3809 147.309 64.8281 146.855C64.3007 146.422 63.9605 145.802 63.8786 145.123C63.8305 144.627 63.9681 144.323 64.0506 144.33Z" fill="#263238"/>
<path d="M63.7959 133.269C63.6858 133.58 62.5644 133.435 61.2572 133.594C59.95 133.752 58.8836 134.118 58.7047 133.849C58.629 133.718 58.8148 133.428 59.2414 133.159C59.8055 132.781 60.452 132.544 61.1265 132.469C61.7984 132.39 62.4796 132.47 63.1148 132.703C63.562 132.89 63.7959 133.124 63.7959 133.269Z" fill="#263238"/>
<path d="M73.834 131.758C73.6414 132.013 72.8708 131.758 71.942 131.758C71.0132 131.758 70.2358 131.938 70.05 131.668C69.9743 131.537 70.0982 131.282 70.4353 131.041C70.8963 130.751 71.4325 130.605 71.9762 130.621C72.5199 130.637 73.0467 130.814 73.49 131.13C73.8134 131.372 73.9234 131.634 73.834 131.758Z" fill="#263238"/>
<path d="M67.0159 119.145L66.3279 118.262C61.646 118.802 57.0588 119.976 52.6918 121.753C50.9442 122.443 49.183 123.313 47.9858 124.775C46.3484 126.783 46.087 129.557 45.9218 132.145C45.2338 142.012 44.6215 152.155 47.7175 161.559C48.4606 160.359 49.9191 159.82 51.302 159.551C52.6849 159.282 54.1366 159.193 55.43 158.551C56.1097 158.181 56.7053 157.674 57.179 157.061C57.6528 156.448 57.9943 155.743 58.182 154.99C58.5491 153.469 58.3713 151.867 57.6798 150.464C56.9298 148.898 55.6158 147.387 55.9185 145.682C56.2212 143.978 58.299 142.881 58.7806 141.128C59.613 138.099 55.3406 135.381 56.2281 132.358C56.4229 131.814 56.7266 131.315 57.1206 130.893C57.5145 130.47 57.9905 130.133 58.5191 129.902C59.5511 129.385 60.6863 129.095 61.7321 128.605C63.4691 127.756 64.906 126.395 65.8503 124.704C66.7947 123.014 67.2014 121.074 67.0159 119.145Z" fill="#263238"/>
<path d="M107.938 181.121L98.4575 195.914C98.8241 196.454 99.323 196.89 99.9062 197.18C100.489 197.47 101.137 197.604 101.787 197.57C104.072 197.474 107.209 191.761 107.58 190.608C107.952 189.456 107.45 188.338 107.787 187.565C108.124 186.793 107.993 184.681 107.993 184.681C107.945 184.805 110.043 181.99 107.938 181.121Z" fill="#FFBE9D"/>
<path d="M95.8362 195.907L100.776 176.318C100.851 176.03 100.983 175.759 101.164 175.522C101.345 175.285 101.571 175.087 101.829 174.938L109.005 170.833C109.216 170.714 109.464 170.677 109.701 170.729C109.939 170.781 110.148 170.919 110.291 171.116C110.375 171.233 110.433 171.367 110.461 171.509C110.488 171.651 110.484 171.797 110.449 171.937L105.221 192.554L95.8362 195.907Z" fill="#263238"/>
<path d="M93.3457 211.087L104.815 189.842L100.494 184.233L84.3535 196.515L88.5847 208.189L93.3457 211.087Z" fill="#F46E21"/>
<path d="M104.952 194.451C105.052 194.167 105.126 193.873 105.172 193.575C105.248 192.748 105.167 191.915 104.931 191.119V191.07V191.022C105.032 190.861 105.097 190.681 105.122 190.493C105.147 190.305 105.131 190.113 105.076 189.932C104.918 189.523 104.636 189.173 104.271 188.931L104.147 188.849L104.23 188.718L105.53 186.772C105.65 186.616 105.752 186.447 105.833 186.268C105.885 186.099 105.87 185.916 105.791 185.757C105.606 185.391 105.332 185.078 104.993 184.847L104.828 184.729L104.959 184.578C105.31 184.177 105.702 183.777 106.094 183.37C106.765 182.677 107.397 181.947 107.986 181.183C108.252 180.832 108.483 180.455 108.674 180.058C108.764 179.881 108.822 179.689 108.846 179.492C108.846 179.313 108.777 179.216 108.674 179.196H108.633C108.412 179.173 108.189 179.209 107.986 179.299C107.752 179.386 107.522 179.485 107.298 179.596C106.878 179.823 106.486 180.058 106.129 180.286C105.441 180.755 104.787 181.197 104.285 181.562L103.108 182.418C102.977 182.534 102.832 182.631 102.675 182.708C102.782 182.57 102.907 182.447 103.046 182.342C103.301 182.114 103.679 181.797 104.168 181.404C104.656 181.01 105.262 180.555 105.977 180.065C106.342 179.817 106.727 179.568 107.161 179.327C107.383 179.204 107.612 179.095 107.849 179.002C108.115 178.871 108.417 178.83 108.709 178.885H108.667C108.815 178.906 108.948 178.984 109.039 179.103C109.129 179.222 109.168 179.372 109.149 179.52C109.127 179.76 109.061 179.993 108.956 180.21C108.756 180.632 108.511 181.032 108.227 181.404C107.636 182.186 106.997 182.93 106.314 183.632C105.922 184.039 105.53 184.44 105.179 184.833V184.564C105.575 184.836 105.893 185.207 106.101 185.64C106.207 185.877 106.222 186.145 106.142 186.392C106.053 186.597 105.937 186.79 105.798 186.965C105.33 187.655 104.883 188.304 104.464 188.911V188.69C104.878 188.976 105.191 189.387 105.358 189.863C105.422 190.081 105.438 190.31 105.406 190.535C105.374 190.76 105.294 190.976 105.172 191.167V191.07C105.392 191.898 105.437 192.763 105.303 193.61C105.263 193.837 105.191 194.058 105.09 194.265C105.007 194.389 104.966 194.458 104.952 194.451Z" fill="#EB996E"/>
<path d="M110.291 171.109C110.112 171.271 109.913 171.41 109.699 171.523C109.307 171.771 108.736 172.123 108.021 172.551L105.509 174.062L104.023 174.925C103.483 175.186 102.978 175.518 102.524 175.911C102.129 176.346 101.866 176.884 101.767 177.464C101.615 178.043 101.471 178.595 101.333 179.134L100.583 181.956C100.363 182.756 100.177 183.405 100.04 183.846C99.9897 184.086 99.9088 184.318 99.7991 184.536C99.8034 184.302 99.8405 184.07 99.9092 183.846C99.9986 183.391 100.15 182.735 100.336 181.928C100.521 181.121 100.762 180.134 101.024 179.085C101.152 178.547 101.29 177.988 101.437 177.409C101.548 176.766 101.839 176.167 102.276 175.684C102.759 175.275 103.29 174.927 103.858 174.649L105.358 173.807L107.904 172.427C108.633 172.027 109.225 171.737 109.637 171.502C109.836 171.341 110.056 171.208 110.291 171.109Z" fill="#455A64"/>
<path d="M105.537 177.802C105.358 178.23 105.337 178.63 105.489 178.692C105.64 178.754 105.908 178.464 106.087 178.036C106.266 177.609 106.287 177.215 106.136 177.146C105.984 177.077 105.716 177.381 105.537 177.802Z" fill="white"/>
<path d="M69.8159 165.927C72.2823 166.818 74.5495 168.187 76.4879 169.957C78.4263 171.727 79.9979 173.863 81.1129 176.242L96.5103 209.1L109.775 214.496L98.079 217.87L87.6902 210.218L69.8159 165.927Z" fill="#F46E21"/>
<path d="M98.0927 217.87L92.5062 222.19L64.6284 193.43L48.6943 164.561L50.5382 159.193L62.8603 164.34L67.2703 170.881L68.2542 162.601L69.0454 163.712L70.3319 167.21C70.3319 167.21 82.427 177.305 85.0414 185.302C87.1879 192.002 86.5343 205.802 87.8759 209.528L98.0927 217.87Z" fill="#FAFAFA"/>
<path d="M45.7085 164.188C45.5228 164.747 33.7924 169.474 33.2351 173.593C32.6778 177.712 41.6631 209.563 41.6631 209.563L55.9116 222.19H92.5063L80.8997 200.392C78.3979 195.692 75.2326 191.379 71.5017 187.586C68.0616 184.095 63.9337 179.775 61.7733 177.202C59.4548 174.407 49.6233 161.332 49.6233 161.332L45.7085 164.188Z" fill="#F46E21"/>
<path d="M53.0496 165.492C53.7607 165.748 54.4508 166.06 55.1136 166.424C56.3726 167.045 58.0995 167.914 59.9984 168.901L62.1587 170.032L61.911 170.198C61.8284 168.91 61.9046 167.617 62.138 166.348C62.2032 165.845 62.3399 165.355 62.544 164.892C62.5046 165.392 62.4403 165.889 62.3513 166.382C62.1902 167.638 62.1557 168.907 62.2481 170.17V170.474L61.9798 170.336L59.847 169.232C57.9481 168.245 56.2419 167.334 55.031 166.658C54.3418 166.321 53.6794 165.931 53.0496 165.492Z" fill="#263238"/>
<path d="M81.2575 194.541C81.0383 194.247 80.8428 193.935 80.6727 193.61L79.1798 191.009C77.9276 188.807 76.1801 185.778 74.2124 182.459C72.2447 179.141 70.4078 176.167 69.0799 174.014L67.5044 171.461C67.2995 171.156 67.12 170.836 66.9678 170.502C67.2248 170.773 67.4552 171.069 67.6558 171.385C68.0617 171.965 68.6327 172.813 69.3276 173.876C70.7036 175.994 72.575 178.954 74.5564 182.28C76.5379 185.606 78.2372 188.656 79.4343 190.884C80.0398 192.002 80.5145 192.906 80.8103 193.541C80.9863 193.862 81.1359 194.196 81.2575 194.541Z" fill="#263238"/>
<g opacity="0.3">
<path d="M75.6227 216.745C77.7486 217.104 79.9296 217.435 82.0486 217.063C84.1676 216.69 86.2385 215.317 86.9059 213.261C87.0111 212.59 87.2832 211.956 87.6971 211.419C88.5158 210.66 89.823 211.129 90.9307 211.025C91.5472 210.931 92.1337 210.695 92.6445 210.336C93.1552 209.977 93.5764 209.504 93.8753 208.955C94.4661 207.856 94.8817 206.671 95.1068 205.443C95.2855 204.851 95.36 204.232 95.327 203.615C95.3056 203.307 95.2074 203.01 95.0415 202.751C94.8756 202.492 94.6472 202.279 94.3776 202.131C93.5382 201.752 92.5888 202.304 91.8457 202.821C85.812 207.182 80.308 212.247 74.804 217.284" fill="black"/>
</g>
<path d="M89.2933 192.43C89.2933 192.43 91.3917 187.6 92.5063 186.91C93.6208 186.22 99.1868 182.984 99.1868 182.984L98.4988 185.64L103.941 181.852C104.629 181.404 108.489 177.864 109.177 179.244C109.679 180.238 106.507 182.86 106.081 183.446C105.021 184.902 105.393 184.771 105.393 184.771C105.393 184.771 106.541 185.461 105.964 186.496C105.491 187.29 104.972 188.055 104.409 188.787C104.409 188.787 105.922 189.325 105.042 191.298C105.296 192.118 105.348 192.987 105.193 193.831C104.945 195.307 102.29 198.102 102.29 198.102L89.0112 204.422L83.6724 195.342L89.2933 192.43Z" fill="#FFBE9D"/>
<path d="M58.464 183.35L66.9539 201.524L85.812 193.327C85.812 193.327 93.6208 197.895 92.5407 202.89L75.5471 216.842C73.9588 218.151 72.122 219.122 70.1482 219.697C68.1743 220.273 66.1045 220.44 64.0644 220.189C61.8754 219.92 59.7709 219.177 57.8973 218.01C56.0237 216.844 54.4258 215.282 53.2146 213.434L40.9407 194.721L34.0607 183.467C32.9585 181.714 32.3979 179.674 32.4493 177.603C32.5007 175.532 33.1619 173.522 34.3496 171.827C34.9982 170.912 35.8214 170.136 36.7714 169.543C39.8468 167.673 48.9559 166.859 58.464 183.35Z" fill="#F46E21"/>
<path d="M100.212 184.412C99.3642 185.145 98.4417 185.785 97.4598 186.323C96.5351 186.962 95.5485 187.505 94.5151 187.945C95.3693 187.221 96.2909 186.581 97.2671 186.034C98.1941 185.399 99.1803 184.856 100.212 184.412Z" fill="#EB996E"/>
<path d="M105.516 184.233C104.781 185.203 103.954 186.099 103.046 186.91C102.219 187.801 101.314 188.616 100.343 189.346C101.082 188.379 101.909 187.483 102.812 186.668C103.639 185.777 104.544 184.962 105.516 184.233Z" fill="#EB996E"/>
<path d="M104.808 188.331C104.516 188.933 104.125 189.481 103.652 189.953C102.964 190.788 102.276 191.423 102.235 191.333C102.529 190.729 102.922 190.179 103.397 189.704C103.788 189.171 104.265 188.707 104.808 188.331Z" fill="#EB996E"/>
<path d="M105.076 191.091C105.152 191.153 104.856 191.595 104.484 192.133C104.113 192.671 103.796 193.099 103.707 193.051C103.618 193.002 103.824 192.492 104.209 191.94C104.595 191.388 104.987 191.029 105.076 191.091Z" fill="#EB996E"/>
<path d="M72.6575 218.664C72.6575 218.664 72.6575 218.629 72.74 218.581L73.0084 218.353L74.0748 217.491L78.1477 214.261L92.692 202.849L92.6301 202.966C92.6376 202.02 92.4575 201.082 92.1004 200.206C91.6926 199.289 91.1676 198.428 90.5386 197.646C89.1637 196.017 87.5378 194.62 85.7226 193.506H85.8808L76.1319 197.757L67.0228 201.662L66.8714 201.724L66.7957 201.579C64.2983 196.646 61.9797 192.009 59.6543 187.979C58.4916 185.958 57.3426 184.088 56.2556 182.342C55.1685 180.596 54.1916 178.982 53.1664 177.588C51.6578 175.342 49.6516 173.476 47.3047 172.137C46.8988 171.895 46.5204 171.709 46.1901 171.55C45.8599 171.392 45.5916 171.261 45.3576 171.164L44.8485 170.936C44.7883 170.915 44.7307 170.887 44.6765 170.854C46.7177 171.555 48.6051 172.645 50.2356 174.062C51.4047 175.086 52.4507 176.244 53.3522 177.512C54.3842 178.892 55.4162 180.52 56.4826 182.259C57.549 183.998 58.7461 185.861 59.9226 187.883C62.2893 191.912 64.6079 196.549 67.1191 201.476L66.892 201.393L75.9668 197.432L85.7157 193.189L85.7983 193.154L85.874 193.203C87.7226 194.343 89.3765 195.773 90.7725 197.439C91.4155 198.249 91.9541 199.137 92.3755 200.082C92.7437 201.013 92.9283 202.006 92.9191 203.008V203.077L92.8572 203.125L78.244 214.406L74.116 217.567L73.0221 218.395L72.7332 218.602L72.6575 218.664Z" fill="#263238"/>
<path d="M65.8119 207.237C65.7087 207.196 66.2316 205.899 66.4999 204.222C66.7682 202.545 66.7751 201.145 66.8852 201.138C67.1189 202.173 67.1189 203.248 66.8852 204.284C66.7544 205.337 66.3875 206.347 65.8119 207.237Z" fill="#263238"/>
<path d="M169.377 260.623L179.236 273.008C179.236 273.008 195.101 267.122 197.124 269.234L173.876 289.292L157.729 270.662L169.377 260.623Z" fill="#F46E21"/>
<g opacity="0.6">
<path d="M171.179 278.197C171.014 278.457 170.95 278.77 171.001 279.074C171.052 279.379 171.213 279.654 171.454 279.846C171.708 280.022 172.019 280.093 172.324 280.046C172.628 279.998 172.903 279.835 173.092 279.591C173.266 279.312 173.331 278.98 173.275 278.656C173.219 278.333 173.046 278.041 172.789 277.838C172.505 277.684 172.172 277.646 171.86 277.732C171.549 277.818 171.283 278.022 171.117 278.3" fill="white"/>
</g>
<g opacity="0.6">
<path d="M173.876 289.292L172.321 287.346L195.204 268.84C195.204 268.84 196.628 268.399 197.137 269.234L173.876 289.292Z" fill="white"/>
</g>
<path d="M179.511 272.566C179.607 272.684 179.084 273.256 178.823 274.071C178.561 274.885 178.692 275.658 178.548 275.699C178.403 275.74 178.011 274.94 178.327 273.919C178.644 272.898 179.449 272.442 179.511 272.566Z" fill="#263238"/>
<path d="M182.82 271.476C182.937 271.566 182.613 272.166 182.641 273.001C182.669 273.836 182.992 274.416 182.875 274.512C182.758 274.609 182.132 274.022 182.118 273.008C182.104 271.994 182.724 271.352 182.82 271.476Z" fill="#263238"/>
<path d="M186.714 273.215C186.632 273.326 185.985 272.891 185.737 272.021C185.49 271.152 185.82 270.441 185.944 270.49C186.067 270.538 186.033 271.18 186.239 271.87C186.446 272.56 186.817 273.105 186.714 273.215Z" fill="#263238"/>
<path d="M176.951 269.972C176.993 270.117 176.339 270.414 175.734 271.007C175.128 271.6 174.805 272.235 174.66 272.194C174.516 272.152 174.66 271.324 175.348 270.634C176.036 269.944 176.931 269.855 176.951 269.972Z" fill="#263238"/>
<g opacity="0.3">
<path d="M171.331 263.079L173.085 265.287L161.568 275.03L159.903 273.111L171.331 263.079Z" fill="black"/>
</g>
<path d="M174.915 267.536C174.963 267.578 174.571 268.033 173.745 268.53C173.264 268.822 172.749 269.054 172.211 269.22C171.89 269.314 171.564 269.387 171.234 269.441C171.04 269.47 170.843 269.47 170.649 269.441C170.507 269.418 170.375 269.351 170.273 269.25C170.171 269.148 170.102 269.017 170.078 268.875C170.066 268.746 170.085 268.617 170.133 268.497C170.181 268.377 170.256 268.27 170.353 268.185C170.497 268.052 170.662 267.945 170.842 267.868C171.651 267.455 172.549 267.251 173.456 267.274C173.981 267.236 174.505 267.361 174.956 267.633C174.956 267.716 174.364 267.585 173.463 267.633C172.939 267.673 172.421 267.778 171.922 267.943C171.63 268.044 171.347 268.169 171.076 268.316C170.773 268.461 170.56 268.64 170.594 268.806C170.594 268.868 170.594 268.882 170.732 268.909C170.876 268.929 171.021 268.929 171.165 268.909C171.473 268.868 171.778 268.81 172.08 268.737C172.593 268.603 173.093 268.423 173.573 268.199C174.003 267.944 174.452 267.723 174.915 267.536Z" fill="#263238"/>
<path d="M174.908 267.826C174.908 267.874 174.31 267.66 173.635 266.957C173.009 266.293 172.578 265.47 172.39 264.576C172.321 264.368 172.307 264.145 172.349 263.93C172.391 263.715 172.488 263.514 172.631 263.348C172.735 263.258 172.863 263.202 172.999 263.186C173.135 263.17 173.273 263.195 173.394 263.258C173.572 263.342 173.736 263.452 173.883 263.583C174.234 263.886 174.521 264.256 174.727 264.672C174.934 265.088 175.056 265.541 175.087 266.004C175.156 266.998 174.798 267.543 174.75 267.516C174.782 267.026 174.782 266.535 174.75 266.046C174.667 265.537 174.472 265.054 174.179 264.631C174.013 264.384 173.811 264.163 173.58 263.976C173.333 263.762 173.071 263.638 172.995 263.741C172.931 263.852 172.89 263.975 172.877 264.102C172.864 264.229 172.879 264.358 172.92 264.48C172.973 264.78 173.059 265.074 173.174 265.356C173.364 265.851 173.623 266.315 173.945 266.736C174.468 267.433 174.956 267.75 174.908 267.826Z" fill="#263238"/>
<path d="M158.664 298.807L158.052 315.008C158.052 315.008 174.268 321.073 174.447 324.082L143.074 324.02L142.999 298.731L158.664 298.807Z" fill="#F46E21"/>
<g opacity="0.6">
<path d="M148.351 313.628C148.05 313.72 147.792 313.92 147.629 314.19C147.465 314.46 147.406 314.781 147.464 315.091C147.546 315.396 147.742 315.659 148.01 315.825C148.278 315.992 148.599 316.05 148.908 315.988C149.225 315.885 149.494 315.67 149.665 315.383C149.836 315.097 149.897 314.757 149.837 314.429C149.721 314.119 149.49 313.867 149.192 313.725C148.895 313.582 148.554 313.56 148.241 313.663" fill="white"/>
</g>
<g opacity="0.6">
<path d="M143.074 324.02L143.171 321.467L173.188 322.481C173.188 322.481 174.564 323.095 174.426 324.082L143.074 324.02Z" fill="white"/>
</g>
<path d="M158.561 314.822C158.561 314.974 157.791 315.043 157.034 315.512C156.277 315.981 155.878 316.644 155.733 316.582C155.589 316.52 155.823 315.636 156.752 315.057C157.681 314.477 158.596 314.712 158.561 314.822Z" fill="#263238"/>
<path d="M161.85 316.202C161.85 316.347 161.217 316.609 160.694 317.258C160.171 317.906 160.006 318.596 159.868 318.589C159.731 318.583 159.621 317.713 160.288 316.92C160.955 316.126 161.843 316.078 161.85 316.202Z" fill="#263238"/>
<path d="M163.707 320.176C163.57 320.176 163.356 319.438 163.755 318.596C164.154 317.754 164.863 317.423 164.932 317.554C165.001 317.685 164.547 318.127 164.244 318.824C163.941 319.521 163.859 320.163 163.707 320.176Z" fill="#263238"/>
<path d="M158.293 311.144C158.224 311.282 157.522 311.068 156.655 311.144C155.788 311.22 155.114 311.476 155.038 311.344C154.963 311.213 155.61 310.654 156.628 310.613C157.646 310.572 158.368 311.02 158.293 311.144Z" fill="#263238"/>
<g opacity="0.3">
<path d="M158.54 302.016L158.437 304.9L143.019 304.734L143.005 302.126L158.54 302.016Z" fill="black"/>
</g>
<path d="M158.355 307.867C157.842 308.013 157.299 308.013 156.786 307.867C155.882 307.701 155.018 307.364 154.24 306.873C154.062 306.777 153.902 306.651 153.766 306.501C153.669 306.39 153.611 306.251 153.598 306.105C153.586 305.958 153.62 305.812 153.697 305.686C153.776 305.578 153.88 305.49 153.999 305.429C154.119 305.368 154.251 305.335 154.385 305.334C154.583 305.334 154.78 305.362 154.97 305.417C155.875 305.639 156.71 306.085 157.398 306.714C158.121 307.404 158.368 307.963 158.313 307.991C158.258 308.019 157.894 307.563 157.157 307.004C156.733 306.684 156.271 306.418 155.781 306.211C155.49 306.09 155.188 305.995 154.88 305.928C154.55 305.838 154.268 305.838 154.192 305.983C154.117 306.128 154.158 306.066 154.227 306.162C154.33 306.269 154.448 306.359 154.577 306.432C154.841 306.609 155.117 306.768 155.403 306.908C155.89 307.152 156.399 307.348 156.924 307.494C157.408 307.588 157.886 307.712 158.355 307.867Z" fill="#263238"/>
<path d="M158.155 308.088C157.856 307.64 157.711 307.107 157.742 306.57C157.704 305.635 157.918 304.708 158.362 303.885C158.447 303.678 158.585 303.496 158.76 303.357C158.936 303.218 159.145 303.127 159.366 303.092C159.511 303.089 159.654 303.13 159.777 303.208C159.899 303.287 159.996 303.4 160.054 303.534C160.134 303.719 160.189 303.914 160.219 304.113C160.287 304.584 160.261 305.064 160.143 305.524C160.025 305.985 159.817 306.418 159.531 306.797C158.912 307.611 158.272 307.798 158.258 307.743C158.245 307.687 158.747 307.37 159.215 306.59C159.488 306.138 159.659 305.632 159.717 305.107C159.758 304.805 159.758 304.498 159.717 304.196C159.669 303.865 159.545 303.596 159.421 303.63C159.297 303.665 158.994 303.879 158.864 304.141C158.71 304.414 158.581 304.7 158.478 304.996C158.299 305.503 158.195 306.033 158.169 306.57C158.052 307.494 158.238 308.067 158.155 308.088Z" fill="#263238"/>
<path d="M142.758 222.189L173.8 263.562L159.277 276.072L144.333 256.469L142.758 222.189Z" fill="#263238"/>
<path d="M77.0264 224.17C77.0264 224.17 126.975 208.907 131.55 209.1C136.126 209.293 144.808 225.86 144.808 225.86L130.787 225.35C127.188 234.202 120.542 243.29 113.057 252.494L84.388 251.156L77.0264 224.17Z" fill="#263238"/>
<path d="M117.852 212.109C117.852 212.205 112.747 213.82 106.39 215.717C100.033 217.615 94.8523 219.071 94.8248 218.974C94.7973 218.878 99.9229 217.263 106.287 215.372C112.651 213.482 117.825 212.012 117.852 212.109Z" fill="#263238"/>
<path d="M129.459 225.081H143.48C146.893 225.083 150.221 226.146 153.006 228.123C155.792 230.1 157.898 232.894 159.036 236.121C160.129 239.232 160.61 242.527 160.453 245.822L159.359 303.092H140.487L140.143 284.807L137.756 250.052L121.416 250.742L112.156 250.162L129.459 225.081Z" fill="#263238"/>
<path d="M129.878 224.798C129.816 225.206 129.726 225.609 129.61 226.005C129.34 227.099 129.01 228.178 128.619 229.235C128.049 230.803 127.359 232.326 126.555 233.789C125.554 235.583 124.404 237.288 123.115 238.888C120.738 241.732 118.193 244.43 115.492 246.968L113.071 249.307C112.786 249.605 112.478 249.88 112.149 250.128C112.401 249.802 112.674 249.493 112.967 249.203C113.511 248.624 114.343 247.823 115.313 246.788C117.955 244.207 120.465 241.495 122.833 238.66C125.144 235.783 127.013 232.576 128.379 229.145C128.874 227.82 129.252 226.73 129.473 225.971C129.576 225.57 129.712 225.177 129.878 224.798Z" fill="#455A64"/>
<path d="M147.044 225.467C146.192 225.469 145.34 225.428 144.491 225.343C142.923 225.253 140.749 225.191 138.354 225.239C135.96 225.288 133.786 225.432 132.211 225.536C131.366 225.634 130.515 225.677 129.665 225.667C129.887 225.589 130.118 225.541 130.353 225.522C130.786 225.453 131.419 225.37 132.204 225.281C133.772 225.115 135.946 224.929 138.396 224.88C140.462 224.831 142.53 224.903 144.588 225.094C145.372 225.163 146.005 225.253 146.445 225.322C146.65 225.348 146.85 225.397 147.044 225.467Z" fill="#455A64"/>
<path d="M140.405 292.604C140.372 292.447 140.354 292.288 140.35 292.128C140.35 291.776 140.308 291.328 140.274 290.748C140.219 289.513 140.143 287.802 140.054 285.711C139.868 281.461 139.613 275.589 139.208 269.11C138.802 262.63 138.32 256.765 137.969 252.55C137.797 250.48 137.66 248.755 137.563 247.526C137.522 246.961 137.494 246.505 137.467 246.146C137.447 245.986 137.447 245.824 137.467 245.663C137.503 245.82 137.528 245.979 137.543 246.139L137.708 247.519C137.838 248.741 138.01 250.445 138.231 252.529C138.643 256.765 139.159 262.63 139.572 269.089C139.985 275.547 140.191 281.454 140.315 285.711C140.357 287.781 140.398 289.513 140.425 290.748C140.425 291.314 140.425 291.769 140.425 292.128C140.436 292.287 140.429 292.447 140.405 292.604Z" fill="#263238"/>
<path d="M160.481 243.642C160.584 243.642 160.515 256.752 160.336 272.918C160.157 289.085 159.923 302.195 159.827 302.195C159.731 302.195 159.793 289.085 159.978 272.911C160.164 256.738 160.384 243.642 160.481 243.642Z" fill="#455A64"/>
<path d="M145.083 241.503C143.698 242.046 142.351 242.682 141.052 243.407C139.819 244.247 138.645 245.169 137.536 246.167C137.748 245.774 138.027 245.421 138.361 245.125C139.868 243.584 141.73 242.439 143.783 241.792C144.197 241.622 144.636 241.524 145.083 241.503Z" fill="#263238"/>
<g opacity="0.3">
<path d="M112.156 250.135C115.967 250.825 120.143 249.672 123.404 247.63C126.661 245.588 129.022 242.382 130.009 238.66C130.429 237.011 130.553 235.3 130.972 233.65C131.303 231.957 132.204 230.43 133.525 229.324C135.121 228.13 139.029 227.371 140.226 225.771C140.226 225.536 135.561 226.074 134 226.164C132.293 226.254 129.438 226.688 129.5 226.488C129.048 228.146 128.497 229.775 127.849 231.367C124.45 237.225 116.985 245.857 112.156 250.162" fill="black"/>
</g>
<path d="M34.322 290.631L39.6334 325.455H44.8966L42.3028 290.769L34.322 290.631Z" fill="#263238"/>
<path d="M127.746 290.769V325.455H133.305L135.376 290.631L127.746 290.769Z" fill="#263238"/>
<path d="M33.3795 183.032C33.3795 183.032 25.9422 183.329 23.665 186.482C19.6539 192.002 21.9106 196.777 21.6835 198.405C21.4565 200.034 34.3221 290.631 34.3221 290.631H39.6197L135.348 291.521L139.971 280.322L137.756 250.024L112.156 250.134C112.156 250.134 101.67 219.954 92.5062 217.939C86.3142 216.559 71.7218 217.056 62.9222 217.511C60.7725 217.623 58.6312 217.165 56.7144 216.182C54.7975 215.2 53.1727 213.728 52.0037 211.915L33.3795 183.032Z" fill="#455A64"/>
<path d="M118.251 287.07C118.251 287.07 117.722 287.139 116.703 287.188C115.685 287.236 114.185 287.27 112.245 287.284C108.358 287.339 102.723 287.353 95.733 287.346C81.691 287.346 62.1174 287.229 40.005 287.036H39.8606V286.898C39.4615 285 39.0556 283.048 38.6428 281.067C38.23 279.087 37.8378 277.058 37.4319 275.023C32.6159 250.445 29.8089 227.923 28.2953 211.591C27.5316 203.428 27.0775 196.804 26.7886 192.223C26.6647 189.946 26.5615 188.173 26.4996 186.951C26.4996 186.358 26.4514 185.902 26.4308 185.571C26.4102 185.24 26.4308 185.102 26.4308 185.102C26.4308 185.102 26.4308 185.261 26.479 185.571C26.5271 185.882 26.534 186.351 26.5753 186.951C26.6578 188.166 26.7817 189.939 26.933 192.216C27.2633 196.791 27.7586 203.408 28.5498 211.57C30.0841 227.882 32.9118 250.383 37.714 274.947C38.1176 276.985 38.5213 278.997 38.9249 280.984C39.3285 282.972 39.7344 284.915 40.1426 286.815L39.9706 286.677L95.6986 287.112L112.211 287.153H116.669C117.178 287.153 117.556 287.112 117.818 287.112L118.251 287.07Z" fill="#263238"/>
<path d="M117.24 291.362C117.235 291.216 117.249 291.07 117.281 290.927C117.329 290.61 117.384 290.203 117.46 289.706C117.536 289.209 117.653 288.526 117.735 287.767C117.818 287.008 117.955 286.153 118.017 285.194C118.079 284.234 118.203 283.199 118.244 282.068C118.286 280.936 118.32 279.743 118.341 278.473C118.327 275.725 118.166 272.979 117.859 270.248C117.527 267.52 117.054 264.812 116.442 262.134C115.864 259.664 115.245 257.469 114.646 255.641C114.378 254.723 114.068 253.916 113.82 253.191C113.573 252.467 113.346 251.853 113.132 251.356L112.706 250.197C112.647 250.065 112.605 249.926 112.582 249.783C112.659 249.905 112.723 250.034 112.775 250.169L113.263 251.301C113.476 251.798 113.731 252.405 113.951 253.122C114.171 253.84 114.543 254.647 114.832 255.565C115.458 257.38 116.111 259.581 116.71 262.058C117.342 264.746 117.826 267.466 118.162 270.207C118.468 272.956 118.62 275.72 118.616 278.487C118.616 279.763 118.575 280.971 118.485 282.102C118.396 283.234 118.32 284.283 118.217 285.235C118.114 286.187 117.983 287.057 117.873 287.809C117.763 288.561 117.653 289.189 117.543 289.741C117.432 290.293 117.357 290.638 117.295 290.955C117.29 291.092 117.272 291.229 117.24 291.362Z" fill="#263238"/>
<path d="M47.0708 226.412C47.1884 226.292 47.3174 226.183 47.4561 226.088C47.7519 225.86 48.1441 225.57 48.6119 225.198L49.4582 224.57C49.7746 224.356 50.1462 224.149 50.5246 223.914C51.3792 223.361 52.2686 222.863 53.1871 222.424L54.7833 221.672C55.3337 221.396 55.946 221.196 56.5583 220.941C57.1706 220.685 57.8105 220.423 58.4847 220.209L60.5487 219.519C63.6661 218.599 66.8528 217.934 70.0775 217.532C73.291 217.107 76.5303 216.908 79.7714 216.939C81.2644 216.939 82.6817 217.035 84.0095 217.083C85.3374 217.132 86.562 217.29 87.6834 217.449C89.4519 217.678 91.2066 218.002 92.9398 218.422L94.3158 218.808C94.4802 218.849 94.6412 218.902 94.7974 218.967C94.6274 218.954 94.4592 218.924 94.2951 218.877L92.8778 218.553C91.6532 218.298 89.8575 217.96 87.6215 217.704C86.507 217.56 85.2754 217.491 83.9614 217.38C82.6473 217.27 81.2094 217.235 79.737 217.27C76.5164 217.262 73.2987 217.467 70.105 217.884C66.9062 218.286 63.7433 218.936 60.645 219.83L58.581 220.471C57.893 220.678 57.2807 220.954 56.6615 221.161C56.0423 221.368 55.4369 221.603 54.8865 221.851C54.3361 222.1 53.7994 222.362 53.2903 222.603C52.3734 223.029 51.4821 223.509 50.6209 224.039C50.2356 224.259 49.871 224.46 49.5407 224.66L48.6876 225.267L47.4974 226.095C47.365 226.213 47.2222 226.32 47.0708 226.412Z" fill="#263238"/>
<path d="M103.982 231.332C103.982 231.332 103.982 231.408 103.913 231.56C103.844 231.712 103.796 231.925 103.679 232.215C103.323 233.033 102.848 233.793 102.269 234.472C101.334 235.536 100.212 236.42 98.9597 237.08C98.1761 237.482 97.3616 237.822 96.5241 238.094C95.5757 238.377 94.6041 238.576 93.6208 238.687C91.3664 238.881 89.0961 238.751 86.8784 238.301C84.4773 237.873 81.9798 237.176 79.3104 236.542C76.5662 235.814 73.7413 235.439 70.903 235.424C69.4103 235.445 67.928 235.678 66.4998 236.114C65.031 236.568 63.6493 237.268 62.4131 238.184C60.0068 240.056 57.9798 242.372 56.4413 245.008C54.8657 247.513 53.6205 250.1 52.3133 252.494C51.1035 254.784 49.6601 256.941 48.0064 258.932C46.5603 260.69 44.7565 262.118 42.7157 263.12C41.0212 263.94 39.1743 264.393 37.2942 264.452C35.8795 264.486 34.4733 264.223 33.1662 263.679C32.6851 263.478 32.2243 263.231 31.7902 262.941C31.4325 262.672 31.1022 262.437 30.9096 262.251L30.4349 261.747C30.3248 261.63 30.2766 261.568 30.2766 261.568C30.2766 261.568 30.3454 261.616 30.4555 261.72L30.9577 262.196C31.1848 262.389 31.4944 262.61 31.8453 262.886C32.2822 263.157 32.7428 263.388 33.2213 263.576C34.5147 264.084 35.899 264.319 37.2873 264.266C39.1309 264.199 40.941 263.752 42.6056 262.955C44.6043 261.957 46.3699 260.546 47.7862 258.815C49.4153 256.823 50.8355 254.668 52.0243 252.384C53.3384 249.997 54.5837 247.402 56.1523 244.87C57.7147 242.203 59.7722 239.86 62.2136 237.97C63.4809 237.034 64.8945 236.316 66.3966 235.845C67.8596 235.406 69.3762 235.174 70.903 235.155C73.7723 235.173 76.6275 235.558 79.3998 236.3C82.0486 236.949 84.5392 237.68 86.9128 238.094C89.1072 238.543 91.3531 238.685 93.5864 238.515C94.5527 238.414 95.5082 238.227 96.4416 237.956C97.2712 237.697 98.0788 237.372 98.8565 236.983C100.096 236.347 101.212 235.494 102.152 234.465C102.943 233.538 103.563 232.477 103.982 231.332Z" fill="white"/>
<path d="M138.974 275.492L138.671 275.568L137.783 275.747C137.316 275.863 136.856 276.008 136.407 276.182C136.113 276.288 135.826 276.412 135.547 276.555C135.221 276.697 134.904 276.861 134.598 277.044C133.007 277.963 131.527 279.063 130.188 280.322C128.592 281.771 126.886 283.544 124.794 285.29C123.706 286.22 122.521 287.027 121.258 287.698C120.583 288.056 119.881 288.36 119.159 288.609L118.024 288.919C117.636 289.007 117.243 289.074 116.848 289.119C115.192 289.321 113.514 289.237 111.887 288.871C110.17 288.468 108.51 287.849 106.947 287.029C103.63 285.236 100.561 283.017 97.8175 280.425C94.9279 277.797 91.9764 275.016 88.5364 272.739C86.8512 271.604 85.0266 270.692 83.1081 270.027C81.2455 269.392 79.2796 269.119 77.3151 269.22C75.4197 269.351 73.5594 269.799 71.8111 270.545C70.1288 271.262 68.5068 272.113 66.9607 273.091C63.9197 274.974 61.154 276.989 58.3401 278.528C51.8962 282.005 44.5365 283.393 37.2735 282.502C35.709 282.323 34.1624 282.011 32.6501 281.571C32.7543 281.58 32.8577 281.597 32.9597 281.619L33.8473 281.812C34.6247 281.978 35.7874 282.192 37.2873 282.364C41.5412 282.836 45.845 282.539 49.9946 281.488C52.853 280.759 55.6084 279.672 58.1956 278.252C60.9476 276.713 63.7409 274.698 66.7887 272.794C68.3474 271.803 69.9833 270.94 71.6804 270.213C73.4622 269.444 75.3596 268.977 77.2945 268.833C79.3032 268.726 81.3138 269.005 83.2181 269.655C85.1664 270.326 87.0172 271.255 88.7221 272.415C92.2034 274.712 95.1618 277.507 98.0445 280.136C100.763 282.71 103.804 284.919 107.092 286.704C108.626 287.543 110.26 288.18 111.956 288.602C113.546 288.969 115.187 289.058 116.806 288.864C117.195 288.821 117.581 288.757 117.962 288.671L119.077 288.381C119.786 288.136 120.476 287.838 121.141 287.491C122.392 286.838 123.567 286.047 124.643 285.131C126.707 283.413 128.454 281.681 130.064 280.218C131.414 278.948 132.908 277.841 134.515 276.92C134.827 276.739 135.152 276.58 135.486 276.444C135.767 276.3 136.059 276.177 136.359 276.078C136.826 275.917 137.302 275.781 137.783 275.671L138.678 275.526L138.974 275.492Z" fill="white"/>
<path d="M43.2247 200.089C43.2019 200.386 43.1394 200.678 43.039 200.958C42.8097 201.74 42.5008 202.496 42.1171 203.215C40.867 205.621 38.9113 207.585 36.5137 208.842C34.116 210.1 31.3917 210.589 28.7079 210.246C27.9027 210.152 27.1095 209.974 26.3412 209.714C26.0524 209.635 25.7749 209.519 25.5156 209.369C26.5727 209.655 27.6487 209.865 28.7355 209.997C31.364 210.267 34.0137 209.758 36.3559 208.531C38.6981 207.304 40.6296 205.415 41.9107 203.097C42.4163 202.126 42.8553 201.12 43.2247 200.089Z" fill="white"/>
<path d="M258.534 109.423H128.461C125.824 109.423 123.686 111.567 123.686 114.211V149.526C123.686 152.17 125.824 154.314 128.461 154.314H258.534C261.171 154.314 263.309 152.17 263.309 149.526V114.211C263.309 111.567 261.171 109.423 258.534 109.423Z" fill="white"/>
<path d="M258.5 154.314C258.809 154.294 259.117 154.257 259.422 154.204C260.316 154.022 261.138 153.583 261.789 152.941C262.272 152.479 262.648 151.916 262.889 151.292C263.17 150.534 263.285 149.725 263.227 148.918C263.227 147.159 263.227 145.123 263.227 142.84C263.227 138.258 263.227 132.662 263.227 126.169C263.227 122.919 263.227 119.442 263.227 115.757C263.286 114.834 263.231 113.907 263.061 112.997C262.818 112.071 262.295 111.243 261.565 110.626C260.835 110.008 259.933 109.632 258.982 109.547C258.011 109.506 256.986 109.547 255.968 109.547L128.468 109.602C127.717 109.603 126.978 109.788 126.315 110.14C125.654 110.492 125.087 110.999 124.663 111.617C124.247 112.236 123.983 112.946 123.893 113.687C123.831 114.418 123.893 115.219 123.893 115.978V125.162C123.893 131.243 123.893 137.223 123.893 143.102V147.497C123.893 148.228 123.893 148.96 123.893 149.677C123.921 150.376 124.105 151.06 124.429 151.678C124.755 152.289 125.212 152.819 125.768 153.23C126.324 153.64 126.964 153.921 127.642 154.052C128.328 154.128 129.017 154.154 129.706 154.128H148.42L205.723 154.169L244.355 154.225L254.86 154.259H257.612H258.541C258.541 154.259 258.232 154.259 257.612 154.259H254.86H244.355L205.723 154.314L148.42 154.356H129.734C129.015 154.386 128.295 154.358 127.58 154.273C126.47 154.073 125.462 153.498 124.723 152.643C123.984 151.788 123.56 150.705 123.521 149.574C123.521 148.836 123.521 148.118 123.521 147.387V115.854C123.521 115.074 123.521 114.336 123.556 113.521C123.645 112.718 123.93 111.949 124.384 111.281C124.839 110.614 125.45 110.068 126.163 109.692C126.877 109.312 127.673 109.113 128.482 109.112L255.947 109.168C256.973 109.168 257.97 109.168 258.982 109.168C259.98 109.259 260.926 109.655 261.692 110.303C262.459 110.951 263.009 111.819 263.268 112.79C263.391 113.256 263.446 113.737 263.433 114.218V115.598C263.433 119.283 263.433 122.761 263.433 126.01C263.433 132.503 263.433 138.099 263.433 142.681C263.433 144.965 263.433 147 263.433 148.76C263.49 149.579 263.368 150.401 263.075 151.168C262.772 151.91 262.289 152.565 261.671 153.073C261.052 153.582 260.317 153.927 259.532 154.08C259.305 154.121 259.075 154.146 258.844 154.156L258.5 154.314Z" fill="#263238"/>
<path d="M253.251 118.634C253.205 118.635 253.16 118.618 253.127 118.586C253.095 118.553 253.077 118.508 253.077 118.462C253.077 118.416 253.095 118.371 253.127 118.338L256.567 115.033C256.6 115.001 256.644 114.983 256.691 114.983C256.737 114.983 256.781 115.001 256.814 115.033C256.846 115.065 256.864 115.108 256.864 115.153C256.864 115.199 256.846 115.242 256.814 115.274L253.374 118.579C253.359 118.597 253.34 118.611 253.318 118.62C253.297 118.63 253.274 118.635 253.251 118.634Z" fill="#263238"/>
<path d="M256.677 118.648C256.655 118.649 256.633 118.645 256.613 118.637C256.593 118.628 256.575 118.616 256.56 118.6L253.154 115.267C253.138 115.252 253.125 115.233 253.116 115.212C253.107 115.191 253.102 115.169 253.102 115.146C253.102 115.124 253.107 115.101 253.116 115.081C253.125 115.06 253.138 115.041 253.154 115.026C253.186 114.994 253.23 114.976 253.275 114.976C253.32 114.976 253.363 114.994 253.395 115.026L256.835 118.365C256.866 118.397 256.884 118.441 256.884 118.486C256.884 118.531 256.866 118.574 256.835 118.607C256.814 118.627 256.789 118.641 256.761 118.648C256.734 118.656 256.704 118.656 256.677 118.648Z" fill="#263238"/>
<path d="M153.773 140.59L152.397 138.596C151.55 137.395 151.096 135.961 151.096 134.491V130.006C151.096 128.258 150.472 126.568 149.336 125.242C148.199 123.917 146.627 123.044 144.904 122.781V120.642C144.904 120.381 144.801 120.13 144.616 119.945C144.432 119.759 144.181 119.656 143.92 119.656C143.792 119.656 143.664 119.681 143.545 119.731C143.426 119.78 143.318 119.853 143.227 119.945C143.136 120.037 143.065 120.145 143.016 120.265C142.967 120.385 142.943 120.513 142.943 120.642V122.712C141.17 122.923 139.534 123.779 138.348 125.118C137.161 126.457 136.505 128.186 136.504 129.978V134.622C136.502 136.218 135.967 137.768 134.983 139.024L133.779 140.563L153.773 140.59Z" fill="#F46E21"/>
<path d="M142.716 143.847C143.261 144.068 143.856 144.132 144.434 144.032C145.013 143.932 145.552 143.672 145.991 143.281C146.368 142.934 146.652 142.497 146.817 142.012L140.99 141.97C141.132 142.386 141.359 142.768 141.656 143.091C141.953 143.414 142.314 143.672 142.716 143.847Z" fill="#F46E21"/>
<path d="M232.356 124.589C232.356 124.686 216.718 124.768 197.426 124.768C178.135 124.768 162.496 124.686 162.496 124.589C162.496 124.492 178.135 124.41 197.426 124.41C216.718 124.41 232.356 124.492 232.356 124.589Z" fill="#263238"/>
<path d="M248.786 133.069C248.786 133.166 229.46 133.248 205.627 133.248C181.795 133.248 162.462 133.166 162.462 133.069C162.462 132.972 181.781 132.89 205.627 132.89C229.473 132.89 248.786 132.966 248.786 133.069Z" fill="#E0E0E0"/>
<path d="M248.786 138.182C248.786 138.279 229.46 138.361 205.627 138.361C181.795 138.361 162.462 138.279 162.462 138.182C162.462 138.085 181.781 138.003 205.627 138.003C229.473 138.003 248.786 138.044 248.786 138.182Z" fill="#E0E0E0"/>
<path d="M236.195 161.325H149.817C147.18 161.325 145.042 163.469 145.042 166.113V187.379C145.042 190.024 147.18 192.168 149.817 192.168H236.195C238.832 192.168 240.97 190.024 240.97 187.379V166.113C240.97 163.469 238.832 161.325 236.195 161.325Z" fill="#FAFAFA"/>
<path d="M236.195 192.168C236.195 192.168 236.408 192.168 236.821 192.099C237.434 192.018 238.023 191.814 238.555 191.498C239.263 191.084 239.851 190.492 240.262 189.78C240.674 189.069 240.894 188.263 240.901 187.441V185.24C240.901 182.121 240.901 178.34 240.867 173.903C240.867 171.695 240.867 169.329 240.867 166.824C240.899 166.199 240.848 165.572 240.715 164.961C240.56 164.341 240.276 163.76 239.883 163.257C239.48 162.732 238.969 162.3 238.385 161.99C237.801 161.681 237.157 161.501 236.498 161.463L149.81 161.504C148.791 161.503 147.8 161.841 146.993 162.465C146.186 163.09 145.609 163.965 145.351 164.954C145.231 165.448 145.182 165.957 145.207 166.465V168.031C145.207 169.073 145.207 170.101 145.207 171.143V186.323C145.207 186.82 145.207 187.324 145.207 187.793C145.258 188.267 145.376 188.732 145.558 189.173C145.933 190.041 146.562 190.773 147.362 191.274C148.162 191.774 149.095 192.019 150.037 191.974H161.299L200.261 192.009L226.535 192.071L233.677 192.105H235.535H236.167C236.167 192.105 235.947 192.105 235.535 192.105H233.677H226.535L200.261 192.161L161.299 192.202H150.064C149.052 192.249 148.05 191.986 147.19 191.449C146.33 190.912 145.653 190.125 145.248 189.194C145.057 188.721 144.932 188.224 144.877 187.717C144.835 187.193 144.877 186.71 144.877 186.213V166.472C144.851 165.933 144.905 165.394 145.035 164.871C145.309 163.8 145.932 162.851 146.804 162.175C147.676 161.499 148.749 161.134 149.851 161.138L236.539 161.2C237.573 161.267 238.559 161.661 239.355 162.325C240.152 162.99 240.717 163.891 240.97 164.899C241.108 165.528 241.159 166.174 241.121 166.817C241.121 169.322 241.121 171.688 241.121 173.896C241.121 178.312 241.121 182.114 241.121 185.233C241.121 186.006 241.121 186.744 241.121 187.434C241.113 188.089 240.97 188.735 240.701 189.332C240.279 190.266 239.574 191.044 238.686 191.553C238.144 191.865 237.545 192.062 236.924 192.133C236.683 192.165 236.439 192.176 236.195 192.168Z" fill="#263238"/>
<path d="M234.062 167.707C234.039 167.707 234.016 167.702 233.995 167.692C233.973 167.683 233.954 167.669 233.938 167.652C233.922 167.636 233.909 167.618 233.9 167.597C233.891 167.576 233.886 167.554 233.886 167.531C233.886 167.508 233.891 167.486 233.9 167.465C233.909 167.444 233.922 167.426 233.938 167.41L236.298 165.14C236.314 165.123 236.333 165.11 236.355 165.101C236.376 165.092 236.399 165.087 236.422 165.087C236.445 165.087 236.468 165.092 236.489 165.101C236.511 165.11 236.53 165.123 236.546 165.14C236.577 165.172 236.595 165.216 236.595 165.261C236.595 165.306 236.577 165.349 236.546 165.382L234.179 167.652C234.165 167.669 234.147 167.682 234.127 167.692C234.106 167.701 234.084 167.707 234.062 167.707Z" fill="#263238"/>
<path d="M236.415 167.714C236.369 167.714 236.325 167.697 236.291 167.666L233.952 165.375C233.927 165.342 233.915 165.301 233.918 165.259C233.921 165.218 233.939 165.179 233.968 165.149C233.997 165.12 234.036 165.102 234.078 165.099C234.119 165.096 234.16 165.108 234.193 165.133L236.532 167.424C236.564 167.456 236.581 167.5 236.581 167.545C236.581 167.59 236.564 167.633 236.532 167.666C236.5 167.696 236.459 167.713 236.415 167.714Z" fill="#263238"/>
<path d="M165.709 182.735L164.746 181.355C164.167 180.529 163.855 179.544 163.852 178.533V175.442C163.851 174.243 163.423 173.084 162.644 172.174C161.866 171.264 160.788 170.664 159.607 170.481V169.011C159.607 168.828 159.534 168.653 159.405 168.523C159.276 168.394 159.101 168.321 158.919 168.321C158.736 168.321 158.561 168.394 158.432 168.523C158.303 168.653 158.231 168.828 158.231 169.011V170.46C157.012 170.604 155.888 171.191 155.073 172.111C154.257 173.031 153.807 174.218 153.807 175.449V178.637C153.808 179.732 153.442 180.797 152.768 181.659L151.936 182.722L165.709 182.735Z" fill="#455A64"/>
<path d="M158.114 184.978C158.488 185.128 158.896 185.172 159.293 185.103C159.69 185.035 160.061 184.858 160.364 184.591C160.623 184.352 160.817 184.051 160.928 183.715H156.924C157.026 183.996 157.185 184.252 157.389 184.469C157.594 184.686 157.84 184.859 158.114 184.978Z" fill="#455A64"/>
<path d="M219.683 171.744C219.683 171.84 208.936 171.923 195.679 171.923C182.421 171.923 171.681 171.84 171.681 171.744C171.681 171.647 182.428 171.564 195.679 171.564C208.929 171.564 219.683 171.64 219.683 171.744Z" fill="#263238"/>
<path d="M230.98 177.567C230.98 177.671 217.702 177.746 201.327 177.746C184.953 177.746 171.667 177.671 171.667 177.567C171.667 177.464 184.939 177.388 201.327 177.388C217.715 177.388 230.98 177.47 230.98 177.567Z" fill="#E0E0E0"/>
<path d="M230.98 181.059C230.98 181.155 217.702 181.238 201.327 181.238C184.953 181.238 171.667 181.155 171.667 181.059C171.667 180.962 184.939 180.879 201.327 180.879C217.715 180.879 230.98 180.962 230.98 181.059Z" fill="#E0E0E0"/>
<path d="M235.83 196.963H150.174C147.537 196.963 145.4 199.107 145.4 201.752V222.783C145.4 225.428 147.537 227.572 150.174 227.572H235.83C238.467 227.572 240.605 225.428 240.605 222.783V201.752C240.605 199.107 238.467 196.963 235.83 196.963Z" fill="#FAFAFA"/>
<path d="M235.83 227.578C235.83 227.578 236.044 227.578 236.45 227.516C237.057 227.433 237.642 227.229 238.17 226.916C239.035 226.417 239.721 225.656 240.13 224.743C240.384 224.163 240.522 223.54 240.536 222.907V220.727C240.536 217.636 240.536 213.861 240.536 209.48C240.536 207.285 240.536 204.939 240.536 202.455C240.572 201.835 240.521 201.213 240.385 200.606C240.233 199.992 239.954 199.416 239.566 198.916C239.168 198.393 238.663 197.961 238.086 197.649C237.508 197.337 236.87 197.153 236.216 197.108L150.216 197.143C149.2 197.149 148.215 197.49 147.412 198.114C146.609 198.737 146.032 199.608 145.771 200.593C145.646 201.081 145.593 201.586 145.613 202.09V206.727C145.613 210.834 145.613 214.873 145.613 218.843V221.803C145.613 222.293 145.613 222.797 145.613 223.259C145.66 223.733 145.776 224.198 145.957 224.639C146.326 225.501 146.947 226.231 147.738 226.732C148.529 227.234 149.453 227.483 150.388 227.447H161.561L200.22 227.482L226.288 227.544L233.374 227.578H235.218H235.844C235.844 227.578 235.631 227.578 235.218 227.578H233.374L226.288 227.613L200.22 227.668L161.561 227.71H150.374C149.371 227.743 148.382 227.473 147.534 226.936C146.686 226.398 146.019 225.617 145.62 224.694C145.428 224.224 145.303 223.729 145.248 223.225C145.248 222.714 145.248 222.231 145.248 221.734C145.248 220.754 145.248 219.768 145.248 218.774V202.062C145.227 201.528 145.285 200.993 145.42 200.475C145.706 199.414 146.333 198.478 147.204 197.81C148.075 197.143 149.141 196.782 150.236 196.784L236.236 196.86C236.925 196.908 237.596 197.104 238.204 197.434C238.811 197.763 239.341 198.219 239.759 198.771C240.161 199.301 240.453 199.906 240.619 200.551C240.75 201.177 240.801 201.817 240.77 202.455C240.77 204.939 240.77 207.285 240.77 209.48C240.77 213.861 240.77 217.636 240.736 220.727C240.736 221.493 240.736 222.224 240.736 222.907C240.712 223.74 240.475 224.552 240.045 225.266C239.616 225.979 239.01 226.569 238.287 226.978C237.747 227.288 237.15 227.483 236.532 227.551C236.299 227.579 236.065 227.588 235.83 227.578Z" fill="#263238"/>
<path d="M233.732 203.304C233.709 203.304 233.686 203.299 233.664 203.289C233.643 203.28 233.624 203.266 233.608 203.249C233.592 203.233 233.578 203.215 233.57 203.194C233.561 203.173 233.556 203.151 233.556 203.128C233.556 203.106 233.561 203.083 233.57 203.062C233.578 203.042 233.592 203.023 233.608 203.007L235.954 200.751C235.987 200.719 236.032 200.701 236.078 200.701C236.124 200.701 236.168 200.719 236.202 200.751C236.233 200.783 236.251 200.827 236.251 200.872C236.251 200.917 236.233 200.96 236.202 200.993L233.856 203.249C233.84 203.267 233.821 203.281 233.8 203.29C233.779 203.3 233.755 203.305 233.732 203.304Z" fill="#263238"/>
<path d="M236.085 203.311C236.039 203.312 235.995 203.294 235.961 203.263L233.642 200.972C233.61 200.94 233.591 200.896 233.59 200.85C233.589 200.804 233.607 200.76 233.639 200.727C233.671 200.694 233.715 200.675 233.76 200.675C233.806 200.674 233.85 200.692 233.883 200.724L236.202 203.001C236.233 203.033 236.251 203.076 236.251 203.121C236.251 203.166 236.233 203.21 236.202 203.242C236.173 203.28 236.131 203.304 236.085 203.311Z" fill="#263238"/>
<path d="M165.916 218.222L164.932 216.842C164.353 216.023 164.043 215.044 164.044 214.041V210.991C164.044 209.799 163.618 208.647 162.845 207.742C162.071 206.838 161.001 206.24 159.827 206.057V204.601C159.827 204.418 159.754 204.243 159.625 204.113C159.496 203.984 159.321 203.911 159.139 203.911C158.956 203.911 158.781 203.984 158.652 204.113C158.523 204.243 158.451 204.418 158.451 204.601V206.037C157.243 206.182 156.129 206.766 155.322 207.679C154.514 208.592 154.068 209.77 154.068 210.991V214.158C154.068 215.246 153.705 216.303 153.036 217.159L152.273 218.222H165.916Z" fill="#E0E0E0"/>
<path d="M158.375 220.444C158.747 220.592 159.153 220.635 159.547 220.566C159.942 220.498 160.31 220.322 160.611 220.057C160.867 219.82 161.059 219.52 161.168 219.188H157.199C157.299 219.467 157.455 219.722 157.657 219.938C157.859 220.154 158.104 220.326 158.375 220.444Z" fill="#E0E0E0"/>
<path d="M219.476 207.306C219.476 207.41 208.812 207.486 195.658 207.486C182.503 207.486 171.839 207.41 171.839 207.306C171.839 207.203 182.503 207.127 195.658 207.127C208.812 207.127 219.476 207.182 219.476 207.306Z" fill="#263238"/>
<path d="M230.705 213.088C230.705 213.192 217.523 213.268 201.272 213.268C185.021 213.268 171.839 213.192 171.839 213.088C171.839 212.985 185.015 212.909 201.272 212.909C217.529 212.909 230.705 212.992 230.705 213.088Z" fill="#E0E0E0"/>
<path d="M230.705 216.552C230.705 216.649 217.523 216.732 201.272 216.732C185.021 216.732 171.839 216.649 171.839 216.552C171.839 216.456 185.015 216.373 201.272 216.373C217.529 216.373 230.705 216.456 230.705 216.552Z" fill="#E0E0E0"/>
<path d="M306.288 188.366C299.168 192.071 293.705 198.44 289.776 205.45C285.848 212.461 283.316 220.168 280.832 227.806L278.617 267.212C286.907 253.067 293.56 236.445 295.356 220.147L289.852 219.65C293.553 219.085 296.656 216.4 298.631 213.213C300.605 210.025 301.624 206.354 302.614 202.738L295.872 203.732C301.184 200.143 304.914 194.64 306.288 188.366Z" fill="#455A64"/>
<path d="M306.288 188.366C299.168 192.071 293.705 198.44 289.776 205.45C285.848 212.461 283.316 220.168 280.832 227.806L278.617 267.212C286.907 253.067 293.56 236.445 295.356 220.147L289.852 219.65C293.553 219.085 296.656 216.4 298.631 213.213C300.605 210.025 301.624 206.354 302.614 202.738L295.872 203.732C301.184 200.143 304.914 194.64 306.288 188.366Z" fill="#F46E21"/>
<g opacity="0.3">
<path d="M306.288 188.366C299.168 192.071 293.705 198.44 289.776 205.45C285.848 212.461 283.316 220.168 280.832 227.806L278.617 267.212C286.907 253.067 293.56 236.445 295.356 220.147L289.852 219.65C293.553 219.085 296.656 216.4 298.631 213.213C300.605 210.025 301.624 206.354 302.614 202.738L295.872 203.732C301.184 200.143 304.914 194.64 306.288 188.366Z" fill="black"/>
</g>
<path d="M277.392 276.451C277.392 276.451 259.401 254.861 259.608 234.244H266.88C266.88 234.244 258.982 229.041 259.608 226.123C260.234 223.204 260.44 212.171 260.44 212.171L267.086 213.841C267.086 213.841 262.105 211.343 261.479 207.382C260.853 203.422 262.931 185.102 262.931 185.102C262.931 185.102 271.028 193.644 273.519 202.387C276.01 211.129 282.552 221.334 280.633 247.989C278.713 274.643 277.392 276.451 277.392 276.451Z" fill="#F46E21"/>
<path d="M286.508 278.487C286.508 278.487 305.999 265.466 310.327 248.851L304.486 247.257C304.486 247.257 311.971 244.801 312.102 242.324C312.233 239.847 314.476 230.925 314.476 230.925L308.772 230.808C308.772 230.808 313.32 229.89 314.689 226.847C316.058 223.804 318.356 208.617 318.356 208.617C318.356 208.617 309.983 213.703 306.075 220.189C302.167 226.675 294.682 233.436 290.409 255.289C286.137 277.141 286.508 278.487 286.508 278.487Z" fill="#F46E21"/>
<path d="M267.843 203.932C267.876 204.002 267.899 204.076 267.912 204.153C267.953 204.325 268.008 204.546 268.07 204.843C268.208 205.45 268.4 206.313 268.648 207.403C268.896 208.493 269.192 209.88 269.508 211.467C269.824 213.054 270.196 214.862 270.568 216.863C271.338 220.865 272.157 225.653 272.989 230.98C273.822 236.307 274.613 242.179 275.335 248.361C276.058 254.544 276.588 260.45 277.007 265.825C277.427 271.2 277.695 276.051 277.86 280.122C277.957 282.157 278.005 284 278.053 285.642C278.101 287.284 278.135 288.657 278.142 289.782C278.149 290.907 278.142 291.783 278.142 292.404V293.094C278.149 293.172 278.149 293.25 278.142 293.329C278.13 293.251 278.13 293.172 278.142 293.094C278.142 292.921 278.142 292.701 278.142 292.404C278.142 291.776 278.087 290.9 278.046 289.775C278.005 288.65 277.964 287.243 277.895 285.635C277.826 284.027 277.757 282.185 277.64 280.115C277.448 276.044 277.124 271.2 276.711 265.832C276.299 260.464 275.714 254.564 275.005 248.382C274.296 242.2 273.492 236.341 272.693 231.015C271.895 225.688 271.09 220.899 270.354 216.89C270.003 214.889 269.666 213.075 269.35 211.488C269.033 209.901 268.786 208.528 268.559 207.41C268.332 206.292 268.173 205.45 268.049 204.836C268.001 204.56 267.96 204.339 267.932 204.146C267.896 204.078 267.866 204.006 267.843 203.932Z" fill="#263238"/>
<path d="M274.895 289.672C274.895 289.672 258.431 270.945 253.326 259.622L257.179 257.973C254.386 258.435 251.517 257.228 249.35 255.399C247.182 253.571 245.586 251.163 244.024 248.789L249.109 247.927C244.439 246.587 240.463 243.496 238.004 239.295C244.004 240.288 249.432 243.593 253.904 247.72C257.452 251.144 260.677 254.89 263.536 258.911C264.972 260.845 266.223 262.91 267.272 265.08C270.038 270.814 274.902 282.792 274.895 289.672Z" fill="#F46E21"/>
<path d="M310.588 219.519C310.571 219.586 310.546 219.651 310.513 219.712L310.265 220.257C310.024 220.754 309.687 221.451 309.267 222.327C308.387 224.128 307.135 226.743 305.628 229.993C302.601 236.486 298.617 245.546 294.682 255.744C290.746 265.942 287.623 275.34 285.504 282.185C284.444 285.635 283.612 288.395 283.055 290.313C282.779 291.252 282.559 291.99 282.401 292.521L282.215 293.094C282.2 293.161 282.177 293.225 282.146 293.287C282.15 293.219 282.162 293.152 282.181 293.087C282.215 292.935 282.263 292.742 282.325 292.5C282.463 291.962 282.662 291.217 282.91 290.272C283.426 288.333 284.217 285.538 285.242 282.109C287.306 275.209 290.389 265.818 294.317 255.606C298.246 245.394 302.291 236.341 305.38 229.876C306.921 226.64 308.208 224.039 309.13 222.286C309.584 221.417 309.935 220.727 310.196 220.216L310.478 219.685C310.547 219.602 310.582 219.512 310.588 219.519Z" fill="#263238"/>
<path d="M276.291 297.703C276.248 297.593 276.22 297.477 276.209 297.358C276.161 297.082 276.106 296.758 276.044 296.365C275.913 295.502 275.7 294.253 275.397 292.721C275.094 291.19 274.675 289.382 274.131 287.388C273.588 285.394 272.893 283.248 272.067 281.012C271.242 278.777 270.306 276.707 269.418 274.85C268.531 272.994 267.636 271.359 266.852 270.02C266.068 268.682 265.414 267.592 264.939 266.853L264.41 265.998C264.339 265.903 264.283 265.799 264.245 265.687C264.245 265.687 264.334 265.77 264.472 265.956L265.063 266.771C265.579 267.461 266.274 268.544 267.086 269.876C267.898 271.207 268.806 272.849 269.735 274.706C270.664 276.562 271.579 278.652 272.425 280.916C273.271 283.179 273.939 285.338 274.489 287.339C275.039 289.34 275.411 291.169 275.679 292.715C275.948 294.26 276.126 295.516 276.202 296.385C276.243 296.786 276.271 297.117 276.298 297.393C276.311 297.496 276.309 297.601 276.291 297.703Z" fill="#263238"/>
<path d="M298.019 293.294H261.988V300.663H298.019V293.294Z" fill="#455A64"/>
<path d="M265.421 300.663L269.315 325.455H291.084L294.716 300.663H265.421Z" fill="#455A64"/>
<path d="M295.803 300.663C295.803 300.774 288.985 300.856 280.585 300.856C272.184 300.856 265.359 300.774 265.359 300.663C265.359 300.553 272.177 300.47 280.585 300.47C288.992 300.47 295.803 300.56 295.803 300.663Z" fill="#263238"/>
<path d="M84.1748 117.544L84.9247 108.629C80.6018 105.748 77.5101 101.349 76.2571 96.2968C75.0042 91.245 75.6808 85.9059 78.1539 81.329C80.6269 76.752 84.7176 73.2684 89.6217 71.5628C94.5259 69.8572 99.8888 70.0531 104.656 72.1118C109.424 74.1706 113.251 77.9434 115.386 82.6886C117.52 87.4337 117.808 92.8081 116.192 97.7551C114.576 102.702 111.173 106.864 106.653 109.423C102.133 111.982 96.8214 112.752 91.7634 111.583L84.1748 117.544Z" fill="white"/>
<path d="M84.1747 117.544L91.8183 111.638L91.894 111.576L91.8046 111.534L91.7564 111.652C93.3804 112.029 95.043 112.214 96.71 112.204C98.6948 112.179 100.666 111.873 102.565 111.293C103.617 110.975 104.639 110.564 105.62 110.065C106.115 109.795 106.638 109.54 107.14 109.257L108.626 108.277C112.927 105.14 115.878 100.481 116.882 95.2434C117.479 92.3326 117.441 89.3269 116.772 86.4321C116.019 83.4015 114.61 80.5744 112.644 78.1521C110.61 75.602 107.999 73.5749 105.028 72.2388L103.865 71.7489C103.48 71.5764 103.067 71.4798 102.675 71.3487C102.283 71.2176 101.884 71.0727 101.478 70.9968L100.26 70.7346C99.8572 70.6412 99.4478 70.5789 99.0355 70.5483L97.8108 70.4034H96.5862C96.1806 70.3792 95.774 70.3792 95.3684 70.4034C92.1962 70.5838 89.1047 71.4751 86.3212 73.0116C83.6834 74.4557 81.3954 76.4653 79.6201 78.8973C76.4424 83.2751 75.0564 88.7068 75.7467 94.0773C76.0814 96.3429 76.7588 98.544 77.7556 100.605C78.6363 102.385 79.7695 104.028 81.1199 105.483C82.2436 106.694 83.5069 107.766 84.8833 108.678V108.622C84.443 114.322 84.1953 117.109 84.1953 117.544C84.2366 117.109 84.4911 114.329 85.0071 108.636V108.602C83.6474 107.685 82.3984 106.613 81.2851 105.407C79.954 103.952 78.8373 102.314 77.9689 100.543C76.991 98.4972 76.3276 96.315 76.0012 94.0704C75.3302 88.7528 76.711 83.3791 79.8609 79.0491C81.6226 76.6504 83.8863 74.6674 86.4932 73.2393C89.246 71.7246 92.3022 70.8476 95.4372 70.6725C95.8382 70.6483 96.2403 70.6483 96.6412 70.6725H97.8521L99.063 70.8174C99.4684 70.8491 99.8709 70.9113 100.267 71.0037L101.471 71.259C101.877 71.3349 102.255 71.4936 102.654 71.604C103.053 71.7144 103.452 71.8317 103.831 72.0042L104.973 72.4872C107.908 73.8064 110.488 75.8074 112.5 78.3246C114.433 80.7277 115.815 83.5289 116.545 86.5287C117.224 89.3733 117.287 92.3307 116.731 95.202C115.723 100.392 112.787 105.005 108.516 108.105L107.051 109.078C106.548 109.368 106.032 109.616 105.544 109.885C104.572 110.381 103.559 110.792 102.517 111.113C100.637 111.697 98.6842 112.009 96.7169 112.038C95.0604 112.059 93.407 111.885 91.7908 111.52L91.7495 111.638V111.527C86.9267 115.364 84.5324 117.261 84.1747 117.544Z" fill="#263238"/>
<path d="M93.4901 80.6912L94.1299 92.8076C94.1573 93.2856 94.3575 93.7372 94.6932 94.0776C95.0289 94.4181 95.4768 94.624 95.9531 94.6568C96.4508 94.6887 96.9418 94.5285 97.3255 94.2091C97.7092 93.8897 97.9567 93.4352 98.0171 92.9387L99.4825 80.7809C99.5078 80.564 99.487 80.3441 99.4214 80.1359C99.3557 79.9276 99.2469 79.7357 99.1019 79.5727C98.9569 79.4097 98.7792 79.2793 98.5803 79.1903C98.3815 79.1012 98.1661 79.0554 97.9483 79.0559H95.0037C94.7953 79.0573 94.5893 79.1015 94.3986 79.1857C94.2079 79.2699 94.0363 79.3924 93.8945 79.5455C93.7527 79.6987 93.6437 79.8794 93.5742 80.0764C93.5046 80.2735 93.476 80.4827 93.4901 80.6912Z" fill="#F46E21"/>
<path d="M99.1112 100.75C98.9276 101.304 98.5842 101.791 98.1244 102.15C97.6646 102.509 97.1091 102.722 96.5281 102.764C95.9471 102.806 95.3668 102.674 94.8605 102.386C94.3543 102.097 93.9448 101.664 93.6839 101.141C93.423 100.619 93.3225 100.031 93.395 99.4512C93.4674 98.8716 93.7097 98.3265 94.0911 97.885C94.4725 97.4435 94.9759 97.1253 95.5376 96.9707C96.0993 96.8162 96.6941 96.8321 97.2468 97.0166C97.9874 97.2639 98.5999 97.796 98.9495 98.496C99.2991 99.196 99.3573 100.007 99.1112 100.75Z" fill="#F46E21"/>
</svg>
