<svg width="335" height="337" viewBox="0 0 335 337" fill="none" xmlns="http://www.w3.org/2000/svg">
<path d="M275.511 164.856C215.465 130.086 118.436 130.086 58.7791 164.856C-0.877731 199.625 -0.562831 255.999 59.4491 290.768C119.461 325.538 216.531 325.544 276.187 290.768C335.844 255.992 335.563 199.625 275.511 164.856Z" fill="#F5F5F5"/>
<path d="M62.7186 226.189L112.848 197.179L173.744 232.425C174.107 232.636 174.409 232.939 174.618 233.303C174.828 233.668 174.938 234.081 174.938 234.502C174.938 234.923 174.828 235.336 174.618 235.7C174.409 236.065 174.107 236.368 173.744 236.578L157.296 246.094C167.426 244.878 178.361 246.551 186.193 251.114C198.568 258.324 198.501 270.017 186.052 277.234C173.604 284.452 153.47 284.445 141.095 277.234C133.256 272.665 130.415 266.301 132.553 260.434L129.558 262.161C127.744 263.211 125.686 263.764 123.591 263.764C121.497 263.764 119.439 263.211 117.625 262.161L62.7186 230.342C62.3555 230.131 62.0541 229.829 61.8445 229.464C61.635 229.1 61.5247 228.686 61.5247 228.266C61.5247 227.845 61.635 227.432 61.8445 227.067C62.0541 226.703 62.3555 226.4 62.7186 226.189Z" fill="#E6E6E6"/>
<path d="M61.191 278.713L94.624 259.352C94.8494 259.222 95.0367 259.035 95.1669 258.809C95.2971 258.583 95.3656 258.326 95.3656 258.065C95.3656 257.804 95.2971 257.548 95.1669 257.322C95.0367 257.096 94.8494 256.909 94.624 256.779L65.144 239.602C64.9193 239.471 64.6638 239.401 64.4036 239.401C64.1434 239.401 63.8879 239.471 63.6633 239.602L29.4799 259.393C29.2545 259.523 29.0672 259.71 28.937 259.936C28.8068 260.162 28.7383 260.419 28.7383 260.679C28.7383 260.94 28.8068 261.197 28.937 261.423C29.0672 261.649 29.2545 261.836 29.4799 261.966L58.2028 278.706C58.6558 278.972 59.171 279.113 59.696 279.114C60.2209 279.115 60.7368 278.977 61.191 278.713Z" fill="#E6E6E6"/>
<path d="M297.674 250.166C299.269 251.093 299.276 252.592 297.674 253.526L291.155 257.296C290.262 257.753 289.274 257.992 288.271 257.992C287.268 257.992 286.28 257.753 285.386 257.296L213.857 215.84C212.256 214.92 212.249 213.414 213.857 212.48L220.376 208.704C221.27 208.246 222.258 208.008 223.261 208.008C224.263 208.008 225.252 208.246 226.145 208.704L297.674 250.166Z" fill="#E6E6E6"/>
<path d="M277.601 256.093C279.202 257.02 279.209 258.519 277.601 259.453L271.082 263.23C270.189 263.687 269.2 263.925 268.198 263.925C267.195 263.925 266.206 263.687 265.313 263.23L204.209 227.829C202.615 226.908 202.601 225.403 204.209 224.469L210.728 220.692C211.622 220.235 212.61 219.997 213.613 219.997C214.615 219.997 215.604 220.235 216.497 220.692L277.601 256.093Z" fill="#E6E6E6"/>
<path d="M70.2495 65.9106L70.2964 83.8059L72.4605 85.0693L72.4002 64.6606L70.2495 65.9106Z" fill="#F0F0F0"/>
<path d="M46.9536 97.3265L46.9603 99.8331L72.4605 85.0693L70.2964 83.8059L46.9536 97.3265Z" fill="#F5F5F5"/>
<path d="M75.04 60.1448L44.2803 77.9393L44.354 104.342L75.0802 86.5477L75.04 60.1448ZM46.9603 99.8331V97.3265L46.9 79.4312L70.2495 65.9105L72.4002 64.6942L72.4605 85.1029L46.9603 99.8331Z" fill="#E0E0E0"/>
<path d="M75.0065 60.1447L72.8424 58.8813L42.1162 76.6759L44.2803 77.9325L75.0065 60.1447Z" fill="#F5F5F5"/>
<path d="M42.1162 76.676L42.1899 103.099L44.354 104.362L44.2803 77.9327L42.1162 76.676Z" fill="#F0F0F0"/>
<path d="M70.2295 106.076L70.2831 123.971L72.4472 125.228L72.3869 104.826L70.2295 106.076Z" fill="#F0F0F0"/>
<path d="M46.9402 137.485L46.9469 139.998L72.4471 125.228L70.283 123.971L46.9402 137.485Z" fill="#F5F5F5"/>
<path d="M74.993 100.31L44.2668 118.098L44.3405 144.521L75.0399 126.726L74.993 100.31ZM46.9468 139.998V137.485L46.8999 119.59L70.2427 106.076L72.4001 104.826L72.4604 125.228L46.9468 139.998Z" fill="#E0E0E0"/>
<path d="M74.9931 100.304L72.829 99.0469L42.1028 116.835L44.2669 118.098L74.9931 100.304Z" fill="#F5F5F5"/>
<path d="M42.1028 116.835L42.1765 143.258L44.3406 144.521L44.2669 118.098L42.1028 116.835Z" fill="#F0F0F0"/>
<path d="M62.8325 72.7043L69.1975 77.7376L69.2109 82.6432L48.0322 94.9072L48.0188 89.9949L52.0589 81.9578L55.6836 84.7802L54.3972 88.7719L56.2598 85.2237L62.8325 72.7043Z" fill="#E0E0E0"/>
<path d="M55.8713 75.184C56.8696 74.6061 57.6803 75.0698 57.687 76.2189C57.653 76.8452 57.472 77.4547 57.1589 77.9977C56.8457 78.5407 56.4091 79.0019 55.8847 79.3437C54.8864 79.9216 54.0757 79.4579 54.0757 78.3088C54.1084 77.6829 54.2881 77.0736 54.6001 76.5306C54.9122 75.9876 55.3477 75.5262 55.8713 75.184Z" fill="#E0E0E0"/>
<path d="M62.8124 112.87L69.1774 117.896L69.1975 122.809L48.0188 135.073L48.0054 130.16L52.0388 122.117L55.6635 124.939L54.3838 128.931L56.2397 125.389L62.8124 112.87Z" fill="#E0E0E0"/>
<path d="M55.8579 115.343C56.8562 114.765 57.6669 115.228 57.6669 116.378C57.6357 117.004 57.4567 117.614 57.1445 118.157C56.8323 118.7 56.3959 119.161 55.8713 119.502C54.873 120.08 54.0623 119.617 54.0623 118.467C54.0934 117.841 54.2724 117.231 54.5846 116.688C54.8968 116.145 55.3332 115.684 55.8579 115.343Z" fill="#E0E0E0"/>
<path d="M298.766 88.1336C298.191 86.9434 297.271 85.9551 296.127 85.2977L227.344 46.0529C227.027 45.9311 226.692 45.8629 226.353 45.8513C222.815 45.7841 219.258 49.124 218.755 50.8846C218.641 51.1071 218.581 51.3535 218.581 51.6037V200.754C218.58 201.919 218.888 203.063 219.472 204.07C220.055 205.077 220.895 205.91 221.904 206.486L290.686 245.798C290.771 245.84 290.858 245.876 290.948 245.906C295.055 247.653 299.423 244.024 299.423 240.221V91.0366C299.428 90.0314 299.203 89.0383 298.766 88.1336Z" fill="#263238"/>
<path d="M218.762 50.8917C219.265 49.1311 222.822 45.7912 226.36 45.8584C226.699 45.87 227.034 45.9381 227.351 46.06L296.14 85.2981C297.146 85.8804 297.984 86.715 298.571 87.7199C299.158 88.7248 299.475 89.8655 299.49 91.0303V240.214C299.49 244.018 295.122 247.647 291.015 245.899C290.926 245.869 290.838 245.833 290.754 245.792L221.904 206.487C220.896 205.91 220.058 205.076 219.476 204.069C218.893 203.062 218.587 201.918 218.588 200.754V51.6107C218.588 51.3606 218.648 51.1142 218.762 50.8917Z" fill="#455A64"/>
<path d="M289.855 106.802C289.854 106.219 289.699 105.648 289.408 105.144C289.116 104.64 288.697 104.222 288.194 103.932L224.329 67.4965C224.08 67.3543 223.797 67.2802 223.51 67.2818C223.223 67.2833 222.941 67.3603 222.693 67.5052C222.445 67.65 222.239 67.8576 222.096 68.1073C221.953 68.357 221.877 68.6399 221.877 68.9279V189.249C221.878 189.831 222.032 190.402 222.324 190.905C222.616 191.408 223.035 191.824 223.539 192.112L287.43 228.615C287.681 228.757 287.964 228.831 288.252 228.829C288.54 228.827 288.822 228.749 289.071 228.604C289.32 228.459 289.526 228.25 289.67 228C289.813 227.75 289.889 227.466 289.889 227.177L289.855 106.802Z" fill="#F46E21"/>
<path opacity="0.2" d="M289.855 106.802C289.854 106.219 289.699 105.648 289.408 105.144C289.116 104.64 288.697 104.222 288.194 103.932L224.329 67.4965C224.08 67.3543 223.797 67.2802 223.51 67.2818C223.223 67.2833 222.941 67.3603 222.693 67.5052C222.445 67.65 222.239 67.8576 222.096 68.1073C221.953 68.357 221.877 68.6399 221.877 68.9279V189.249C221.878 189.831 222.032 190.402 222.324 190.905C222.616 191.408 223.035 191.824 223.539 192.112L287.43 228.615C287.681 228.757 287.964 228.831 288.252 228.829C288.54 228.827 288.822 228.749 289.071 228.604C289.32 228.459 289.526 228.25 289.67 228C289.813 227.75 289.889 227.466 289.889 227.177L289.855 106.802Z" fill="black"/>
<path opacity="0.3" d="M299.45 91.0298V240.214C299.45 244.017 295.081 247.646 290.974 245.899C291.221 245.988 291.486 246.017 291.746 245.982C292.007 245.947 292.255 245.851 292.47 245.7C292.685 245.549 292.862 245.349 292.984 245.116C293.106 244.882 293.17 244.623 293.172 244.36V95.1761C293.167 93.8785 292.78 92.6113 292.06 91.5338L298.793 88.1738C299.223 89.0643 299.448 90.0404 299.45 91.0298Z" fill="black"/>
<path opacity="0.1" d="M226.353 45.8782C226.692 45.8897 227.027 45.9579 227.344 46.0798L296.14 85.2977C297.284 85.955 298.204 86.9434 298.78 88.1335L292.046 91.4935C291.482 90.6318 290.725 89.9139 289.835 89.3969L221.046 50.1722C220.851 50.0617 220.635 49.9926 220.412 49.969C220.189 49.9455 219.963 49.9682 219.749 50.0356C219.535 50.1029 219.337 50.2136 219.167 50.3608C218.997 50.508 218.859 50.6885 218.762 50.8913C219.258 49.1239 222.815 45.7841 226.353 45.8782Z" fill="white"/>
<path d="M247.391 74.8146C246.908 74.5324 246.506 74.7474 246.506 75.3052C246.522 75.6117 246.61 75.9102 246.763 76.1763C246.915 76.4425 247.128 76.669 247.384 76.8373L260.878 84.646C261.36 84.9282 261.749 84.693 261.749 84.1352C261.734 83.8335 261.648 83.5396 261.498 83.2779C261.348 83.0161 261.137 82.794 260.885 82.63L247.391 74.8146Z" fill="#263238"/>
<path d="M264.348 84.6326C263.866 84.3571 263.471 84.5788 263.471 85.1366C263.488 85.4402 263.576 85.7356 263.727 85.9992C263.878 86.2629 264.089 86.4875 264.342 86.6553C264.824 86.9375 265.226 86.7023 265.226 86.1513C265.208 85.8469 265.12 85.551 264.967 85.2872C264.815 85.0234 264.603 84.7992 264.348 84.6326Z" fill="#263238"/>
<path d="M255.712 73.6788C254.748 73.1211 253.964 73.5646 253.964 74.6734C253.994 75.282 254.166 75.8749 254.468 76.4039C254.769 76.9328 255.191 77.3829 255.699 77.7176C256.664 78.2753 257.461 77.8184 257.468 76.7028C257.432 76.0961 257.254 75.5062 256.949 74.9809C256.645 74.4556 256.221 74.0096 255.712 73.6788Z" fill="#263238"/>
<path d="M255.706 214.147C253.743 213.011 252.155 213.912 252.148 216.163C252.21 217.4 252.562 218.606 253.176 219.681C253.789 220.756 254.647 221.671 255.679 222.352C257.649 223.488 259.277 222.561 259.283 220.289C259.209 219.056 258.847 217.857 258.225 216.79C257.604 215.723 256.741 214.818 255.706 214.147Z" fill="#263238"/>
<path d="M279.39 112.232C279.307 111.559 279.113 110.904 278.814 110.296C278.683 110.03 278.533 109.774 278.365 109.53C277.86 108.785 277.193 108.165 276.415 107.716L213.985 72.0997L213.891 72.0594C213.808 72.0314 213.722 72.0089 213.636 71.9922C213.453 71.9551 213.267 71.9327 213.08 71.925C212.065 71.9181 211.063 72.1481 210.152 72.597C209.262 73.0372 208.443 73.608 207.72 74.2904L207.338 74.6734C206.83 75.1761 206.437 75.7838 206.186 76.4542C206.137 76.5529 206.099 76.6565 206.072 76.7634C206.039 76.8745 206.023 76.9901 206.025 77.1061V212.534C206.028 213.59 206.308 214.627 206.837 215.54C207.367 216.453 208.126 217.21 209.04 217.736L271.471 253.419C271.549 253.456 271.629 253.487 271.712 253.513C275.437 255.099 279.403 251.806 279.403 248.352V112.924C279.412 112.693 279.408 112.462 279.39 112.232Z" fill="#F46E21"/>
<path d="M206.172 76.488C206.628 74.8954 209.857 71.858 213.067 71.9252C213.376 71.9324 213.681 71.9915 213.971 72.0999L276.402 107.716C277.439 108.318 278.274 109.216 278.8 110.296C279.204 111.113 279.415 112.012 279.417 112.924V248.359C279.417 251.813 275.45 255.079 271.725 253.52C271.643 253.494 271.562 253.463 271.484 253.426L209.04 217.722C208.125 217.199 207.364 216.442 206.835 215.529C206.305 214.615 206.026 213.578 206.025 212.521V77.1399C206.024 76.9142 206.074 76.6913 206.172 76.488Z" fill="#F46E21"/>
<path opacity="0.2" d="M279.39 112.923V248.358C279.39 251.812 275.424 255.078 271.698 253.519C271.924 253.606 272.166 253.636 272.406 253.607C272.645 253.578 272.873 253.49 273.072 253.353C273.27 253.215 273.431 253.031 273.542 252.816C273.653 252.602 273.71 252.363 273.708 252.122V116.666C273.706 115.489 273.356 114.339 272.703 113.36L278.814 110.296C279.204 111.116 279.401 112.015 279.39 112.923Z" fill="white"/>
<path opacity="0.4" d="M213.06 71.9181C213.369 71.9254 213.675 71.9844 213.965 72.0928L276.395 107.709C277.433 108.311 278.268 109.209 278.794 110.289L272.69 113.36C272.179 112.576 271.49 111.925 270.68 111.459L208.249 75.8426C208.071 75.7421 207.874 75.6796 207.671 75.6592C207.468 75.6388 207.262 75.6609 207.068 75.724C206.873 75.7871 206.694 75.89 206.541 76.026C206.388 76.1621 206.265 76.3284 206.179 76.5146C206.621 74.8883 209.851 71.8509 213.06 71.9181Z" fill="white"/>
<path opacity="0.3" d="M206.172 76.488C206.628 74.8954 209.857 71.858 213.067 71.9252C213.376 71.9324 213.681 71.9915 213.971 72.0999L276.402 107.716C277.439 108.318 278.274 109.216 278.8 110.296C279.204 111.113 279.415 112.012 279.417 112.924V248.359C279.417 251.813 275.45 255.079 271.725 253.52C271.643 253.494 271.562 253.463 271.484 253.426L209.04 217.722C208.125 217.199 207.364 216.442 206.835 215.529C206.305 214.615 206.026 213.578 206.025 212.521V77.1399C206.024 76.9142 206.074 76.6913 206.172 76.488Z" fill="white"/>
<path d="M212.31 84.4979L213.006 84.9078L213.02 81.8905L212.316 81.4873L212.31 84.4979Z" fill="white"/>
<path d="M211.11 83.8058L211.807 84.209L211.814 81.7697L211.117 81.3665L211.11 83.8058Z" fill="white"/>
<path d="M209.904 83.107L210.601 83.5102L210.608 81.7025L209.911 81.2993L209.904 83.107Z" fill="white"/>
<path d="M208.705 82.4147L209.402 82.8179V81.5948L208.705 81.1917V82.4147Z" fill="white"/>
<path d="M214.909 86.01L219.19 88.4897L219.197 85.9562L214.916 83.4766L214.909 86.01Z" fill="white"/>
<path d="M221.321 89.7194L223.458 90.9558L223.465 88.4291L221.328 87.1926L221.321 89.7194Z" fill="white"/>
<path d="M265.494 114.98L265.501 112.944L267.799 114.274L265.501 112.944L265.494 114.98Z" fill="white"/>
<path d="M265.494 114.98L267.792 116.31L267.799 114.274L265.501 112.944L265.494 114.98Z" fill="#F46E21"/>
<path d="M269.42 115.517V114.724L265.079 112.211V115.222L269.42 117.735V116.942L269.977 117.265V115.84L269.42 115.517ZM267.792 116.31L265.494 114.966V112.95L267.792 114.294V116.31Z" fill="white"/>
<path d="M258.861 111.412L263.143 113.885L263.149 111.358L258.868 108.878L258.861 111.412Z" fill="white"/>
<path d="M238.433 99.4298L242.714 101.909L242.721 99.3828L238.44 96.9031L238.433 99.4298Z" fill="white"/>
<path d="M262.291 123.501L199.385 87.0718C199.204 86.9459 198.996 86.8665 198.777 86.8407C198.559 86.815 198.337 86.8435 198.132 86.924H198.099L196.759 87.69L197.583 88.5099L197.536 106.526V106.95V111.808C197.57 112.441 197.752 113.056 198.068 113.605C198.383 114.154 198.823 114.62 199.352 114.967L259.806 150.038L262.131 152.336L263.43 151.591C263.478 151.569 263.523 151.542 263.564 151.51H263.625C263.771 151.373 263.885 151.204 263.958 151.017C264.031 150.83 264.062 150.628 264.047 150.428V145.979V145.146L264.1 126.713C264.076 126.072 263.898 125.446 263.584 124.887C263.269 124.329 262.826 123.853 262.291 123.501Z" fill="#F46E21"/>
<path opacity="0.2" d="M262.291 123.501L199.385 87.0718C199.204 86.9459 198.996 86.8665 198.777 86.8407C198.559 86.815 198.337 86.8435 198.132 86.924H198.099L196.759 87.69L197.583 88.5099L197.536 106.526V106.95V111.808C197.57 112.441 197.752 113.056 198.068 113.605C198.383 114.154 198.823 114.62 199.352 114.967L259.806 150.038L262.131 152.336L263.43 151.591C263.478 151.569 263.523 151.542 263.564 151.51H263.625C263.771 151.373 263.885 151.204 263.958 151.017C264.031 150.83 264.062 150.628 264.047 150.428V145.979V145.146L264.1 126.713C264.076 126.072 263.898 125.446 263.584 124.887C263.269 124.329 262.826 123.853 262.291 123.501Z" fill="black"/>
<path d="M260.945 124.26C261.473 124.607 261.913 125.073 262.229 125.622C262.544 126.171 262.726 126.786 262.76 127.419L262.707 145.845L196.156 107.313V108.153L262.707 146.678V151.12C262.707 152.283 261.883 152.753 260.878 152.169L197.958 115.766C197.43 115.421 196.991 114.955 196.675 114.408C196.36 113.86 196.177 113.246 196.142 112.615L196.209 88.8997C196.209 87.7439 197.027 87.2735 198.038 87.8514L260.945 124.26Z" fill="#F46E21"/>
<path d="M262.707 145.845V146.685L196.156 108.152V107.312L262.707 145.845Z" fill="#F46E21"/>
<g opacity="0.2">
<path d="M262.707 145.845V146.685L196.156 108.152V107.312L262.707 145.845Z" fill="white"/>
</g>
<g opacity="0.6">
<path d="M230.199 129.972L230.192 132.029L198.253 113.528L198.26 111.479L230.199 129.972Z" fill="white"/>
</g>
<path d="M210.105 97.4003C210.422 97.6082 210.686 97.8882 210.874 98.2175C211.063 98.5468 211.171 98.9161 211.191 99.2954V111.62C211.191 112.292 210.702 112.594 210.092 112.245L199.405 106.049C199.087 105.843 198.823 105.565 198.633 105.237C198.443 104.908 198.333 104.54 198.313 104.161L198.347 91.8362C198.347 91.1642 198.843 90.855 199.446 91.2045L210.105 97.4003Z" fill="white"/>
<g opacity="0.6">
<path d="M249.159 121.324L249.153 124.018L215.311 104.423L215.318 101.728L249.159 121.324Z" fill="white"/>
</g>
<g opacity="0.6">
<path d="M234.185 122.123L234.178 124.818L215.284 113.878L215.291 111.183L234.185 122.123Z" fill="white"/>
</g>
<g opacity="0.6">
<path d="M249.146 126.055L249.14 128.743L215.298 109.147L215.305 106.459L249.146 126.055Z" fill="white"/>
</g>
<g opacity="0.5">
<path d="M260.188 126.511L259.169 127.425L260.369 129.918L259.364 129.334L258.64 127.761L257.977 128.534L256.965 127.943L258.191 126.861L257.213 124.791L258.205 125.362L258.727 126.518L259.183 125.933L260.188 126.511Z" fill="white"/>
</g>
<path d="M262.291 157.067L199.385 120.638C199.204 120.513 198.995 120.435 198.776 120.41C198.558 120.386 198.337 120.416 198.132 120.497H198.099L196.759 121.263L197.583 122.083L197.536 140.099V140.523V145.381C197.571 146.012 197.754 146.627 198.069 147.174C198.384 147.722 198.824 148.187 199.352 148.533L259.853 183.571L262.178 185.869L263.477 185.116C263.525 185.097 263.57 185.072 263.611 185.043L263.672 185.009C263.818 184.872 263.932 184.703 264.005 184.516C264.078 184.329 264.109 184.128 264.094 183.927V179.478V178.638L264.147 160.212C264.107 159.578 263.918 158.963 263.595 158.417C263.273 157.87 262.826 157.408 262.291 157.067Z" fill="#F46E21"/>
<path opacity="0.2" d="M262.291 157.067L199.385 120.638C199.204 120.513 198.995 120.435 198.776 120.41C198.558 120.386 198.337 120.416 198.132 120.497H198.099L196.759 121.263L197.583 122.083L197.536 140.099V140.523V145.381C197.571 146.012 197.754 146.627 198.069 147.174C198.384 147.722 198.824 148.187 199.352 148.533L259.853 183.571L262.178 185.869L263.477 185.116C263.525 185.097 263.57 185.072 263.611 185.043L263.672 185.009C263.818 184.872 263.932 184.703 264.005 184.516C264.078 184.329 264.109 184.128 264.094 183.927V179.478V178.638L264.147 160.212C264.107 159.578 263.918 158.963 263.595 158.417C263.273 157.87 262.826 157.408 262.291 157.067Z" fill="black"/>
<path d="M260.945 157.833C261.473 158.18 261.913 158.646 262.229 159.195C262.544 159.744 262.726 160.359 262.76 160.992L262.707 179.418L196.156 140.886V141.719L262.707 180.278V184.72C262.707 185.883 261.883 186.353 260.878 185.768L197.971 149.339C197.444 148.994 197.004 148.528 196.689 147.981C196.373 147.433 196.191 146.819 196.156 146.188L196.223 122.473C196.223 121.31 197.04 120.84 198.052 121.424L260.945 157.833Z" fill="#F46E21"/>
<path d="M262.707 179.418V180.258L196.156 141.719V140.885L262.707 179.418Z" fill="#F46E21"/>
<g opacity="0.2">
<path d="M262.707 179.418V180.258L196.156 141.719V140.885L262.707 179.418Z" fill="white"/>
</g>
<path d="M210.105 130.974C210.422 131.181 210.686 131.461 210.874 131.791C211.063 132.12 211.171 132.489 211.191 132.869V145.186C211.191 145.858 210.702 146.161 210.092 145.818L199.405 139.622C199.086 139.416 198.821 139.136 198.631 138.807C198.441 138.477 198.332 138.107 198.313 137.727L198.347 125.409C198.347 124.737 198.843 124.428 199.446 124.778L210.105 130.974Z" fill="white"/>
<g opacity="0.6">
<path d="M249.159 154.897L249.153 157.591L215.311 137.989L215.318 135.294L249.159 154.897Z" fill="white"/>
</g>
<g opacity="0.5">
<path d="M260.188 160.085L259.169 160.998L260.369 163.485L259.364 162.907L258.64 161.334L257.977 162.101L256.965 161.516L258.191 160.434L257.213 158.364L258.205 158.935L258.727 160.091L259.183 159.507L260.188 160.085Z" fill="white"/>
</g>
<path opacity="0.6" d="M198.26 145.052L198.253 147.102L216.819 157.854V155.797L198.26 145.052Z" fill="white"/>
<path opacity="0.6" d="M215.305 140.025L215.298 142.72L231.438 152.061V149.366L215.305 140.025Z" fill="white"/>
<path d="M262.291 224.677L199.385 188.248C199.204 188.122 198.996 188.043 198.777 188.017C198.559 187.991 198.337 188.02 198.132 188.1H198.099L196.759 188.866L197.583 189.686L197.536 207.702V208.126V212.984C197.57 213.617 197.752 214.232 198.068 214.781C198.383 215.33 198.823 215.796 199.352 216.143L259.853 251.174L262.178 253.472L263.477 252.726L263.611 252.653L263.672 252.612C263.818 252.475 263.932 252.307 264.005 252.119C264.078 251.932 264.109 251.731 264.094 251.53V247.088V246.248L264.147 227.815C264.106 227.183 263.916 226.569 263.594 226.024C263.271 225.478 262.825 225.017 262.291 224.677Z" fill="#F46E21"/>
<path opacity="0.2" d="M262.291 224.677L199.385 188.248C199.204 188.122 198.996 188.043 198.777 188.017C198.559 187.991 198.337 188.02 198.132 188.1H198.099L196.759 188.866L197.583 189.686L197.536 207.702V208.126V212.984C197.57 213.617 197.752 214.232 198.068 214.781C198.383 215.33 198.823 215.796 199.352 216.143L259.853 251.174L262.178 253.472L263.477 252.726L263.611 252.653L263.672 252.612C263.818 252.475 263.932 252.307 264.005 252.119C264.078 251.932 264.109 251.731 264.094 251.53V247.088V246.248L264.147 227.815C264.106 227.183 263.916 226.569 263.594 226.024C263.271 225.478 262.825 225.017 262.291 224.677Z" fill="black"/>
<path d="M260.945 225.443C261.473 225.789 261.912 226.255 262.227 226.802C262.543 227.349 262.725 227.964 262.76 228.595L262.707 247.028L196.156 208.502V209.342L262.707 247.875V252.323C262.707 253.479 261.883 253.95 260.878 253.372L197.971 216.943C197.443 216.596 197.003 216.13 196.687 215.581C196.372 215.032 196.19 214.417 196.156 213.784L196.223 190.076C196.223 188.913 197.04 188.443 198.052 189.028L260.945 225.443Z" fill="#F46E21"/>
<path d="M262.707 247.028V247.861L196.156 209.329V208.489L262.707 247.028Z" fill="#F46E21"/>
<g opacity="0.2">
<path d="M262.707 247.028V247.861L196.156 209.329V208.489L262.707 247.028Z" fill="white"/>
</g>
<path d="M210.105 198.577C210.422 198.785 210.685 199.065 210.873 199.394C211.062 199.723 211.171 200.093 211.191 200.472V212.796C211.191 213.468 210.702 213.771 210.092 213.421L199.405 207.232C199.087 207.025 198.822 206.745 198.633 206.416C198.443 206.087 198.333 205.717 198.313 205.337L198.32 193.046C198.32 192.374 198.816 192.072 199.419 192.421L210.105 198.577Z" fill="white"/>
<g opacity="0.6">
<path d="M249.159 222.5L249.153 225.195L215.311 205.599L215.318 202.905L249.159 222.5Z" fill="white"/>
</g>
<g opacity="0.5">
<path d="M260.188 227.695L259.169 228.609L260.369 231.095L259.364 230.517L258.64 228.945L257.977 229.711L256.965 229.126L258.191 228.037L257.213 225.968L258.205 226.545L258.727 227.701L259.183 227.11L260.188 227.695Z" fill="white"/>
</g>
<path opacity="0.6" d="M198.26 212.655L198.253 214.711L216.819 225.457V223.4L198.26 212.655Z" fill="white"/>
<path opacity="0.6" d="M215.305 207.635L215.298 210.323L222.594 214.543V211.849L215.305 207.635Z" fill="white"/>
<path d="M262.291 190.64L199.385 154.211C199.205 154.083 198.996 154.003 198.777 153.978C198.558 153.953 198.336 153.985 198.132 154.07H198.099L196.759 154.843L197.583 155.656L197.536 173.679V174.102V178.961C197.571 179.592 197.754 180.207 198.069 180.754C198.384 181.302 198.824 181.767 199.352 182.113L259.853 217.151L262.178 219.449L263.477 218.696L263.611 218.622L263.672 218.589C263.819 218.451 263.934 218.281 264.007 218.093C264.08 217.904 264.11 217.702 264.094 217.5V213.058V212.218L264.147 193.792C264.108 193.157 263.919 192.541 263.597 191.993C263.274 191.445 262.827 190.982 262.291 190.64Z" fill="#F46E21"/>
<path opacity="0.2" d="M262.291 190.64L199.385 154.211C199.205 154.083 198.996 154.003 198.777 153.978C198.558 153.953 198.336 153.985 198.132 154.07H198.099L196.759 154.843L197.583 155.656L197.536 173.679V174.102V178.961C197.571 179.592 197.754 180.207 198.069 180.754C198.384 181.302 198.824 181.767 199.352 182.113L259.853 217.151L262.178 219.449L263.477 218.696L263.611 218.622L263.672 218.589C263.819 218.451 263.934 218.281 264.007 218.093C264.08 217.904 264.11 217.702 264.094 217.5V213.058V212.218L264.147 193.792C264.108 193.157 263.919 192.541 263.597 191.993C263.274 191.445 262.827 190.982 262.291 190.64Z" fill="black"/>
<path d="M260.945 191.406C261.473 191.752 261.912 192.218 262.227 192.765C262.543 193.313 262.725 193.927 262.76 194.558L262.707 212.991L196.156 174.452V175.292L262.707 213.831V218.273C262.707 219.436 261.883 219.899 260.878 219.321L197.971 182.892C197.444 182.547 197.004 182.081 196.689 181.534C196.373 180.986 196.191 180.372 196.156 179.741L196.223 156.026C196.223 154.863 197.04 154.393 198.052 154.977L260.945 191.406Z" fill="#F46E21"/>
<path d="M262.707 212.991V213.831L196.156 175.292V174.452L262.707 212.991Z" fill="#F46E21"/>
<g opacity="0.2">
<path d="M262.707 212.991V213.831L196.156 175.292V174.452L262.707 212.991Z" fill="white"/>
</g>
<g opacity="0.6">
<path d="M222.011 192.448L222.004 194.498L198.253 180.675L198.26 178.625L222.011 192.448Z" fill="white"/>
</g>
<path d="M210.105 164.54C210.422 164.748 210.685 165.028 210.873 165.357C211.062 165.687 211.171 166.056 211.191 166.435V178.759C211.191 179.431 210.702 179.734 210.092 179.384L199.405 173.195C199.086 172.989 198.821 172.709 198.631 172.38C198.441 172.05 198.332 171.68 198.313 171.3L198.347 158.982C198.347 158.31 198.843 158.001 199.446 158.351L210.105 164.54Z" fill="white"/>
<g opacity="0.6">
<path d="M249.159 188.463L249.153 191.158L215.311 171.562L215.318 168.868L249.159 188.463Z" fill="white"/>
</g>
<g opacity="0.6">
<path d="M243.19 194.538L243.183 197.233L215.284 181.024L215.291 178.329L243.19 194.538Z" fill="white"/>
</g>
<g opacity="0.6">
<path d="M249.146 193.194L249.14 195.889L215.298 176.293L215.305 173.598L249.146 193.194Z" fill="white"/>
</g>
<g opacity="0.5">
<path d="M260.188 193.658L259.169 194.572L260.369 197.058L259.364 196.48L258.64 194.908L257.977 195.674L256.965 195.089L258.191 194.007L257.213 191.938L258.205 192.509L258.727 193.665L259.183 193.08L260.188 193.658Z" fill="white"/>
</g>
<path d="M190.575 87.4951L179.359 81.0439C178.381 80.4795 176.056 81.2455 176.056 82.8315C176.056 82.703 176.089 82.5768 176.152 82.4653C176.216 82.3539 176.308 82.2612 176.418 82.1965C176.529 82.1318 176.655 82.0975 176.783 82.0969C176.911 82.0963 177.037 82.1294 177.148 82.1931L188.357 88.6443C188.726 88.8567 189.022 89.175 189.208 89.5582L191.386 88.315C191.194 87.9737 190.913 87.6905 190.575 87.4951Z" fill="#F46E21"/>
<path d="M189.208 89.5583C189.367 89.8608 189.452 90.1972 189.456 90.5394V103.448C189.455 103.576 189.421 103.702 189.357 103.812C189.293 103.923 189.201 104.015 189.09 104.078C188.98 104.142 188.855 104.176 188.727 104.176C188.6 104.177 188.475 104.144 188.364 104.08C188.687 104.283 189.058 104.396 189.439 104.409C189.82 104.421 190.197 104.333 190.533 104.152C190.869 103.971 191.152 103.705 191.352 103.379C191.552 103.054 191.663 102.682 191.674 102.299V89.397C191.67 89.0198 191.571 88.6498 191.385 88.3218L189.208 89.5583Z" fill="#F46E21"/>
<path opacity="0.4" d="M190.575 87.4951L179.359 81.0439C178.381 80.4795 176.056 81.2455 176.056 82.8315C176.056 82.703 176.089 82.5768 176.152 82.4653C176.216 82.3539 176.308 82.2612 176.418 82.1965C176.529 82.1318 176.655 82.0975 176.783 82.0969C176.911 82.0963 177.037 82.1294 177.148 82.1931L188.357 88.6443C188.726 88.8567 189.022 89.175 189.208 89.5582L191.386 88.315C191.194 87.9737 190.913 87.6905 190.575 87.4951Z" fill="white"/>
<path opacity="0.2" d="M189.208 89.5583C189.367 89.8608 189.452 90.1972 189.456 90.5394V103.448C189.455 103.576 189.421 103.702 189.357 103.812C189.293 103.923 189.201 104.015 189.09 104.078C188.98 104.142 188.855 104.176 188.727 104.176C188.6 104.177 188.475 104.144 188.364 104.08C188.687 104.283 189.058 104.396 189.439 104.409C189.82 104.421 190.197 104.333 190.533 104.152C190.869 103.971 191.152 103.705 191.352 103.379C191.552 103.054 191.663 102.682 191.674 102.299V89.397C191.67 89.0198 191.571 88.6498 191.385 88.3218L189.208 89.5583Z" fill="white"/>
<path d="M177.148 82.1663L188.357 88.6175C188.691 88.8088 188.969 89.0856 189.162 89.4196C189.355 89.7537 189.457 90.1331 189.456 90.5193V103.428C189.455 103.556 189.421 103.682 189.357 103.792C189.293 103.903 189.201 103.994 189.09 104.058C188.98 104.122 188.855 104.156 188.727 104.156C188.6 104.157 188.474 104.123 188.364 104.06L177.155 97.6357C176.82 97.4445 176.542 97.1677 176.349 96.8336C176.156 96.4995 176.055 96.1201 176.056 95.734V82.8383C176.049 82.707 176.078 82.5765 176.139 82.4602C176.2 82.344 176.292 82.2464 176.403 82.1777C176.515 82.109 176.643 82.0717 176.774 82.0697C176.905 82.0677 177.034 82.101 177.148 82.1663Z" fill="#F46E21"/>
<path d="M192.156 97.5348L189.476 98.0388V94.5713L192.263 97.219C192.287 97.2438 192.303 97.2748 192.31 97.3084C192.318 97.3419 192.316 97.3769 192.305 97.4095C192.294 97.442 192.274 97.4709 192.248 97.493C192.222 97.5151 192.19 97.5296 192.156 97.5348Z" fill="#F46E21"/>
<path d="M189.463 94.5713L191.674 93.3013L194.461 95.9893C194.481 96.0098 194.496 96.0347 194.505 96.062C194.515 96.0894 194.517 96.1185 194.513 96.147C194.51 96.1756 194.499 96.2029 194.483 96.2268C194.467 96.2507 194.446 96.2706 194.421 96.2849L192.216 97.5214L189.463 94.5713Z" fill="#F46E21"/>
<path opacity="0.2" d="M189.463 94.5713L191.674 93.3013L194.461 95.9893C194.481 96.0098 194.496 96.0347 194.505 96.062C194.515 96.0894 194.517 96.1185 194.513 96.147C194.51 96.1756 194.499 96.2029 194.483 96.2268C194.467 96.2507 194.446 96.2706 194.421 96.2849L192.216 97.5214L189.463 94.5713Z" fill="white"/>
<path d="M181.376 96.6143C181.523 97.3514 181.948 98.0035 182.562 98.4354H182.615C183.225 98.7915 183.821 98.6168 183.895 98.0456L181.376 96.6143Z" fill="white"/>
<path d="M179.614 93.6842C179.812 93.3523 179.922 92.9754 179.935 92.5888C179.975 92.0244 179.989 91.4397 180.009 90.8618C180.049 89.6724 180.525 89.0474 181.449 88.9937C181.671 88.9937 181.717 88.9063 181.684 88.5972C181.624 88.0797 181.771 87.7706 182.119 87.7101C182.306 87.6835 182.496 87.724 182.655 87.8244C182.871 87.9532 183.056 88.1275 183.198 88.3351C183.357 88.5261 183.477 88.7468 183.55 88.9843C183.624 89.2219 183.65 89.4717 183.627 89.7194C183.599 89.8416 183.605 89.9693 183.645 90.088C183.685 90.2068 183.758 90.3119 183.855 90.3914C184.552 91.2116 185.015 92.2053 185.195 93.2676C185.237 93.6198 185.258 93.9745 185.255 94.3293C185.247 94.952 185.287 95.5744 185.376 96.1908C185.467 96.8472 185.695 97.477 186.046 98.0388C186.167 98.2066 186.23 98.4095 186.227 98.6167C186.227 98.9191 186.106 98.993 185.831 98.8385L182.629 96.9501L180.022 95.4381L179.687 95.2433L179.346 95.0484C179.213 94.9706 179.112 94.8496 179.058 94.7057C178.95 94.4436 178.997 94.1143 179.158 94.0337C179.343 93.9677 179.502 93.8455 179.614 93.6842ZM182.093 93.617L183.185 94.2487L183.466 91.3927L181.831 90.4452L182.093 93.617ZM182.635 95.8682C183.104 96.1437 183.433 95.9556 183.433 95.4919C183.415 95.2287 183.333 94.974 183.194 94.7501C183.055 94.5263 182.863 94.3402 182.635 94.2084C182.166 93.9396 181.838 94.1009 181.838 94.5713C181.856 94.8362 181.938 95.0927 182.077 95.3187C182.216 95.5447 182.407 95.7333 182.635 95.8682ZM182.635 88.5905C182.454 88.4829 182.3 88.5905 182.3 88.7853C182.31 88.8996 182.345 89.0103 182.403 89.1091C182.461 89.208 182.54 89.2925 182.635 89.3565C182.667 89.381 182.705 89.3954 182.745 89.398C182.785 89.4005 182.825 89.3911 182.859 89.3709C182.894 89.3507 182.921 89.3207 182.939 89.2846C182.956 89.2485 182.963 89.208 182.957 89.1684C182.957 89.0517 182.927 88.9371 182.869 88.8358C182.811 88.7345 182.729 88.6499 182.629 88.5905" fill="white"/>
<path d="M190.575 122.318L179.359 115.867C178.381 115.303 176.056 116.069 176.056 117.648C176.057 117.52 176.091 117.395 176.155 117.284C176.219 117.174 176.311 117.082 176.421 117.018C176.532 116.954 176.657 116.92 176.784 116.92C176.912 116.92 177.037 116.953 177.148 117.016L188.357 123.467C188.727 123.682 189.023 124.002 189.208 124.388L191.386 123.145C191.194 122.801 190.914 122.515 190.575 122.318Z" fill="#F46E21"/>
<path d="M189.208 124.388C189.367 124.69 189.452 125.027 189.456 125.369V138.278C189.455 138.406 189.421 138.532 189.357 138.642C189.293 138.753 189.201 138.844 189.09 138.908C188.98 138.972 188.855 139.006 188.727 139.006C188.6 139.006 188.475 138.973 188.364 138.91C188.688 139.113 189.059 139.226 189.441 139.238C189.822 139.251 190.2 139.162 190.536 138.98C190.872 138.798 191.154 138.531 191.354 138.205C191.554 137.879 191.664 137.505 191.674 137.122V124.22C191.671 123.843 191.572 123.472 191.385 123.145L189.208 124.388Z" fill="#F46E21"/>
<path opacity="0.4" d="M190.575 122.318L179.359 115.867C178.381 115.303 176.056 116.069 176.056 117.648C176.057 117.52 176.091 117.395 176.155 117.284C176.219 117.174 176.311 117.082 176.421 117.018C176.532 116.954 176.657 116.92 176.784 116.92C176.912 116.92 177.037 116.953 177.148 117.016L188.357 123.467C188.727 123.682 189.023 124.002 189.208 124.388L191.386 123.145C191.194 122.801 190.914 122.515 190.575 122.318Z" fill="white"/>
<path opacity="0.2" d="M189.208 124.388C189.367 124.69 189.452 125.027 189.456 125.369V138.278C189.455 138.406 189.421 138.532 189.357 138.642C189.293 138.753 189.201 138.844 189.09 138.908C188.98 138.972 188.855 139.006 188.727 139.006C188.6 139.006 188.475 138.973 188.364 138.91C188.688 139.113 189.059 139.226 189.441 139.238C189.822 139.251 190.2 139.162 190.536 138.98C190.872 138.798 191.154 138.531 191.354 138.205C191.554 137.879 191.664 137.505 191.674 137.122V124.22C191.671 123.843 191.572 123.472 191.385 123.145L189.208 124.388Z" fill="white"/>
<path d="M177.148 117.016L188.357 123.467C188.692 123.659 188.969 123.935 189.162 124.269C189.355 124.604 189.457 124.983 189.456 125.369V138.278C189.455 138.406 189.421 138.532 189.357 138.642C189.293 138.753 189.201 138.844 189.09 138.908C188.98 138.972 188.855 139.006 188.727 139.006C188.6 139.006 188.475 138.973 188.364 138.91L177.155 132.486C176.819 132.294 176.541 132.016 176.348 131.681C176.155 131.345 176.054 130.964 176.056 130.577V117.648C176.057 117.52 176.091 117.395 176.155 117.284C176.219 117.174 176.311 117.082 176.421 117.018C176.532 116.954 176.657 116.92 176.784 116.92C176.912 116.92 177.037 116.953 177.148 117.016Z" fill="#F46E21"/>
<path d="M192.156 132.358L189.476 132.862V129.394L192.263 132.042C192.287 132.067 192.303 132.098 192.31 132.131C192.318 132.165 192.316 132.2 192.305 132.232C192.294 132.265 192.274 132.294 192.248 132.316C192.222 132.338 192.19 132.353 192.156 132.358Z" fill="#F46E21"/>
<path d="M189.463 129.394L191.674 128.124L194.461 130.812C194.481 130.833 194.496 130.858 194.505 130.885C194.515 130.912 194.517 130.941 194.513 130.97C194.51 130.999 194.499 131.026 194.483 131.05C194.467 131.074 194.446 131.094 194.421 131.108L192.216 132.344L189.463 129.394Z" fill="#F46E21"/>
<path opacity="0.2" d="M189.463 129.394L191.674 128.124L194.461 130.812C194.481 130.833 194.496 130.858 194.505 130.885C194.515 130.912 194.517 130.941 194.513 130.97C194.51 130.999 194.499 131.026 194.483 131.05C194.467 131.074 194.446 131.094 194.421 131.108L192.216 132.344L189.463 129.394Z" fill="white"/>
<path d="M181.376 131.43C181.522 132.17 181.947 132.825 182.562 133.258H182.615C183.225 133.614 183.821 133.433 183.895 132.868L181.376 131.43Z" fill="white"/>
<path d="M179.614 128.534C179.812 128.205 179.923 127.83 179.935 127.445C179.975 126.881 179.989 126.296 180.009 125.718C180.049 124.522 180.525 123.904 181.449 123.85C181.671 123.85 181.717 123.763 181.684 123.454C181.624 122.936 181.771 122.627 182.119 122.567C182.306 122.536 182.497 122.577 182.655 122.681C182.871 122.81 183.056 122.984 183.198 123.192C183.357 123.383 183.477 123.603 183.55 123.841C183.624 124.078 183.65 124.328 183.627 124.576C183.599 124.698 183.605 124.826 183.645 124.945C183.685 125.063 183.758 125.168 183.855 125.248C184.552 126.068 185.015 127.062 185.195 128.124C185.237 128.476 185.258 128.831 185.255 129.186C185.247 129.809 185.287 130.431 185.376 131.047C185.467 131.704 185.695 132.334 186.046 132.895C186.167 133.063 186.23 133.266 186.227 133.473C186.227 133.776 186.106 133.85 185.831 133.695L182.595 131.82L179.989 130.308L179.654 130.113L179.312 129.918C179.18 129.841 179.078 129.72 179.024 129.576C178.917 129.314 178.964 128.984 179.125 128.904C179.325 128.841 179.498 128.71 179.614 128.534ZM182.093 128.474L183.185 129.099L183.466 126.249L181.831 125.302L182.093 128.474ZM182.635 130.725C183.104 130.994 183.433 130.812 183.433 130.348C183.415 130.085 183.333 129.831 183.194 129.607C183.055 129.383 182.863 129.197 182.635 129.065C182.166 128.789 181.838 128.957 181.838 129.428C181.856 129.693 181.938 129.949 182.077 130.175C182.216 130.401 182.407 130.59 182.635 130.725ZM182.635 123.447C182.454 123.339 182.3 123.447 182.3 123.635C182.309 123.751 182.344 123.863 182.402 123.963C182.46 124.063 182.54 124.148 182.635 124.213C182.667 124.238 182.705 124.252 182.745 124.255C182.785 124.257 182.825 124.248 182.859 124.227C182.894 124.207 182.921 124.177 182.939 124.141C182.956 124.105 182.963 124.065 182.957 124.025C182.957 123.908 182.927 123.794 182.869 123.692C182.812 123.591 182.729 123.506 182.629 123.447" fill="white"/>
<path d="M190.575 157.141L179.359 150.71C178.381 150.146 176.056 150.912 176.056 152.491C176.057 152.363 176.091 152.238 176.155 152.127C176.219 152.017 176.311 151.925 176.421 151.861C176.532 151.797 176.657 151.763 176.784 151.763C176.912 151.763 177.037 151.796 177.148 151.859L188.357 158.311C188.727 158.525 189.023 158.846 189.208 159.231L191.386 157.988C191.197 157.637 190.917 157.344 190.575 157.141Z" fill="#F46E21"/>
<path d="M189.208 159.211C189.367 159.513 189.452 159.85 189.456 160.192V173.094C189.456 173.223 189.423 173.349 189.359 173.461C189.296 173.572 189.204 173.665 189.093 173.729C188.983 173.794 188.857 173.828 188.729 173.829C188.601 173.83 188.475 173.797 188.364 173.733C188.688 173.936 189.059 174.049 189.441 174.061C189.822 174.074 190.2 173.985 190.536 173.803C190.872 173.621 191.154 173.354 191.354 173.028C191.554 172.702 191.664 172.328 191.674 171.945V159.043C191.671 158.666 191.572 158.295 191.385 157.968L189.208 159.211Z" fill="#F46E21"/>
<path opacity="0.4" d="M190.575 157.141L179.359 150.71C178.381 150.146 176.056 150.912 176.056 152.491C176.057 152.363 176.091 152.238 176.155 152.127C176.219 152.017 176.311 151.925 176.421 151.861C176.532 151.797 176.657 151.763 176.784 151.763C176.912 151.763 177.037 151.796 177.148 151.859L188.357 158.311C188.727 158.525 189.023 158.846 189.208 159.231L191.386 157.988C191.197 157.637 190.917 157.344 190.575 157.141Z" fill="white"/>
<path opacity="0.2" d="M189.208 159.211C189.367 159.513 189.452 159.85 189.456 160.192V173.094C189.456 173.223 189.423 173.349 189.359 173.461C189.296 173.572 189.204 173.665 189.093 173.729C188.983 173.794 188.857 173.828 188.729 173.829C188.601 173.83 188.475 173.797 188.364 173.733C188.688 173.936 189.059 174.049 189.441 174.061C189.822 174.074 190.2 173.985 190.536 173.803C190.872 173.621 191.154 173.354 191.354 173.028C191.554 172.702 191.664 172.328 191.674 171.945V159.043C191.671 158.666 191.572 158.295 191.385 157.968L189.208 159.211Z" fill="white"/>
<path d="M177.148 151.839L188.357 158.29C188.692 158.482 188.969 158.758 189.162 159.092C189.355 159.427 189.457 159.806 189.456 160.192V173.094C189.456 173.223 189.423 173.349 189.359 173.461C189.296 173.572 189.204 173.665 189.093 173.729C188.983 173.794 188.857 173.828 188.729 173.829C188.601 173.83 188.475 173.797 188.364 173.733L177.155 167.309C176.82 167.116 176.542 166.838 176.349 166.503C176.156 166.168 176.055 165.787 176.056 165.4V152.471C176.057 152.343 176.091 152.218 176.155 152.107C176.219 151.997 176.311 151.905 176.421 151.841C176.532 151.777 176.657 151.743 176.784 151.743C176.912 151.743 177.037 151.776 177.148 151.839Z" fill="#F46E21"/>
<path d="M192.156 167.181L189.476 167.685V164.217L192.263 166.858C192.289 166.883 192.307 166.914 192.315 166.949C192.324 166.983 192.322 167.02 192.311 167.054C192.3 167.087 192.279 167.117 192.252 167.14C192.224 167.162 192.191 167.176 192.156 167.181Z" fill="#F46E21"/>
<path d="M189.463 164.217L191.674 162.947L194.461 165.635C194.481 165.656 194.496 165.681 194.505 165.708C194.515 165.735 194.517 165.764 194.513 165.793C194.51 165.822 194.499 165.849 194.483 165.873C194.467 165.897 194.446 165.917 194.421 165.931L192.216 167.167L189.463 164.217Z" fill="#F46E21"/>
<path opacity="0.2" d="M189.463 164.217L191.674 162.947L194.461 165.635C194.481 165.656 194.496 165.681 194.505 165.708C194.515 165.735 194.517 165.764 194.513 165.793C194.51 165.822 194.499 165.849 194.483 165.873C194.467 165.897 194.446 165.917 194.421 165.931L192.216 167.167L189.463 164.217Z" fill="white"/>
<path d="M181.376 166.253C181.52 166.992 181.945 167.645 182.562 168.075H182.615C183.225 168.424 183.821 168.249 183.895 167.685L181.376 166.253Z" fill="white"/>
<path d="M179.614 163.324C179.812 162.994 179.923 162.62 179.935 162.235C179.975 161.67 179.989 161.086 180.009 160.508C180.049 159.312 180.525 158.694 181.449 158.64C181.671 158.64 181.717 158.552 181.684 158.243C181.624 157.726 181.771 157.417 182.119 157.356C182.306 157.326 182.497 157.367 182.655 157.47C182.871 157.599 183.056 157.774 183.198 157.981C183.357 158.172 183.477 158.393 183.551 158.63C183.624 158.868 183.65 159.118 183.627 159.366C183.599 159.488 183.605 159.615 183.645 159.734C183.685 159.853 183.758 159.958 183.855 160.038C184.552 160.858 185.015 161.851 185.195 162.914C185.237 163.266 185.258 163.621 185.255 163.975C185.246 164.596 185.287 165.216 185.376 165.83C185.467 166.489 185.696 167.12 186.046 167.685C186.168 167.852 186.231 168.055 186.227 168.263C186.227 168.565 186.106 168.639 185.831 168.485L182.595 166.61L179.989 165.098L179.654 164.903L179.312 164.708C179.179 164.628 179.077 164.505 179.024 164.358C178.917 164.103 178.964 163.774 179.125 163.686C179.324 163.625 179.497 163.497 179.614 163.324ZM182.093 163.263L183.185 163.888L183.466 161.039L181.831 160.118L182.093 163.29M182.635 165.541C183.104 165.81 183.433 165.622 183.433 165.165C183.415 164.902 183.333 164.647 183.194 164.423C183.055 164.199 182.863 164.013 182.635 163.881C182.166 163.606 181.838 163.774 181.838 164.238C181.855 164.504 181.936 164.762 182.075 164.989C182.214 165.216 182.406 165.406 182.635 165.541ZM182.635 158.263C182.454 158.156 182.3 158.263 182.3 158.452C182.308 158.566 182.342 158.678 182.4 158.777C182.459 158.876 182.539 158.96 182.635 159.023C182.81 159.124 182.957 159.023 182.957 158.828C182.956 158.712 182.925 158.599 182.867 158.499C182.81 158.399 182.728 158.316 182.629 158.257" fill="white"/>
<path d="M190.575 191.964L179.359 185.513C178.381 184.942 176.056 185.708 176.056 187.294C176.055 187.165 176.088 187.039 176.151 186.927C176.215 186.815 176.307 186.722 176.418 186.658C176.529 186.594 176.655 186.56 176.784 186.561C176.912 186.562 177.038 186.597 177.148 186.662L188.357 193.113C188.727 193.328 189.023 193.648 189.208 194.034L191.386 192.791C191.196 192.446 190.916 192.16 190.575 191.964Z" fill="#F46E21"/>
<path d="M189.208 194.034C189.367 194.336 189.452 194.673 189.456 195.015V207.917C189.456 208.046 189.423 208.172 189.359 208.284C189.296 208.395 189.204 208.488 189.093 208.552C188.983 208.617 188.857 208.651 188.729 208.652C188.601 208.653 188.475 208.62 188.364 208.556C188.688 208.759 189.059 208.872 189.441 208.884C189.822 208.897 190.2 208.808 190.536 208.626C190.872 208.444 191.154 208.177 191.354 207.851C191.554 207.525 191.664 207.151 191.674 206.768V193.866C191.671 193.489 191.572 193.118 191.385 192.791L189.208 194.034Z" fill="#F46E21"/>
<path opacity="0.4" d="M190.575 191.964L179.359 185.513C178.381 184.942 176.056 185.708 176.056 187.294C176.055 187.165 176.088 187.039 176.151 186.927C176.215 186.815 176.307 186.722 176.418 186.658C176.529 186.594 176.655 186.56 176.784 186.561C176.912 186.562 177.038 186.597 177.148 186.662L188.357 193.113C188.727 193.328 189.023 193.648 189.208 194.034L191.386 192.791C191.196 192.446 190.916 192.16 190.575 191.964Z" fill="white"/>
<path opacity="0.2" d="M189.208 194.034C189.367 194.336 189.452 194.673 189.456 195.015V207.917C189.456 208.046 189.423 208.172 189.359 208.284C189.296 208.395 189.204 208.488 189.093 208.552C188.983 208.617 188.857 208.651 188.729 208.652C188.601 208.653 188.475 208.62 188.364 208.556C188.688 208.759 189.059 208.872 189.441 208.884C189.822 208.897 190.2 208.808 190.536 208.626C190.872 208.444 191.154 208.177 191.354 207.851C191.554 207.525 191.664 207.151 191.674 206.768V193.866C191.671 193.489 191.572 193.118 191.385 192.791L189.208 194.034Z" fill="white"/>
<path d="M177.148 186.662L188.357 193.113C188.692 193.305 188.969 193.581 189.162 193.916C189.355 194.25 189.457 194.629 189.456 195.015V207.918C189.456 208.046 189.423 208.172 189.359 208.284C189.296 208.395 189.204 208.488 189.093 208.553C188.983 208.617 188.857 208.652 188.729 208.652C188.601 208.653 188.475 208.62 188.364 208.556L177.155 202.132C176.82 201.939 176.542 201.661 176.349 201.326C176.156 200.991 176.055 200.61 176.056 200.223V187.294C176.055 187.165 176.088 187.039 176.151 186.927C176.215 186.815 176.307 186.722 176.418 186.658C176.529 186.594 176.655 186.56 176.784 186.561C176.912 186.562 177.038 186.597 177.148 186.662Z" fill="#F46E21"/>
<path d="M192.156 202.004L189.476 202.508V199.041L192.263 201.681C192.289 201.706 192.307 201.738 192.315 201.772C192.324 201.807 192.322 201.843 192.311 201.877C192.3 201.911 192.279 201.94 192.252 201.963C192.224 201.985 192.191 202 192.156 202.004Z" fill="#F46E21"/>
<path d="M189.463 199.04L191.674 197.77L194.461 200.458C194.481 200.479 194.496 200.504 194.505 200.531C194.515 200.558 194.517 200.587 194.513 200.616C194.51 200.645 194.499 200.672 194.483 200.696C194.467 200.72 194.446 200.74 194.421 200.754L192.216 201.99L189.463 199.04Z" fill="#F46E21"/>
<path opacity="0.2" d="M189.463 199.04L191.674 197.77L194.461 200.458C194.481 200.479 194.496 200.504 194.505 200.531C194.515 200.558 194.517 200.587 194.513 200.616C194.51 200.645 194.499 200.672 194.483 200.696C194.467 200.72 194.446 200.74 194.421 200.754L192.216 201.99L189.463 199.04Z" fill="white"/>
<path d="M181.376 201.11C181.52 201.849 181.945 202.502 182.562 202.931H182.615C183.225 203.281 183.821 203.106 183.895 202.535L181.376 201.11Z" fill="white"/>
<path d="M179.614 198.147C179.812 197.818 179.923 197.443 179.935 197.058C179.975 196.487 179.989 195.909 180.009 195.324C180.049 194.135 180.525 193.517 181.449 193.463C181.671 193.463 181.717 193.375 181.684 193.06C181.624 192.542 181.771 192.24 182.119 192.179C182.305 192.15 182.495 192.188 182.655 192.287C182.87 192.42 183.054 192.596 183.198 192.804C183.357 192.995 183.477 193.216 183.551 193.453C183.624 193.691 183.65 193.941 183.627 194.189C183.599 194.311 183.605 194.438 183.645 194.557C183.685 194.676 183.758 194.781 183.855 194.861C184.553 195.68 185.016 196.674 185.195 197.737C185.238 198.089 185.258 198.444 185.255 198.798C185.247 199.419 185.287 200.039 185.376 200.653C185.467 201.31 185.695 201.939 186.046 202.501C186.168 202.671 186.231 202.876 186.227 203.086C186.227 203.388 186.106 203.462 185.831 203.308L182.595 201.433L179.989 199.921L179.654 199.726L179.312 199.524C179.18 199.446 179.078 199.325 179.024 199.182C178.917 198.926 178.964 198.597 179.125 198.51C179.323 198.445 179.495 198.318 179.614 198.147ZM182.093 198.079L183.185 198.711L183.466 195.862L181.831 194.914L182.093 198.079ZM182.635 200.337C183.104 200.606 183.433 200.418 183.433 199.961C183.417 199.697 183.336 199.442 183.196 199.218C183.057 198.994 182.864 198.808 182.635 198.678C182.166 198.402 181.838 198.57 181.838 199.034C181.855 199.3 181.936 199.558 182.075 199.785C182.214 200.012 182.406 200.202 182.635 200.337ZM182.635 193.053C182.603 193.027 182.563 193.011 182.521 193.008C182.479 193.005 182.438 193.014 182.401 193.035C182.365 193.056 182.336 193.088 182.318 193.126C182.3 193.164 182.294 193.206 182.3 193.248C182.308 193.363 182.342 193.474 182.4 193.573C182.459 193.672 182.539 193.756 182.635 193.819C182.81 193.92 182.957 193.819 182.957 193.624C182.953 193.508 182.921 193.395 182.864 193.294C182.807 193.194 182.726 193.108 182.629 193.046" fill="white"/>
<path d="M172.599 218.703L171.319 205.209L169.47 185.775C169.321 184.22 168.857 182.712 168.105 181.344C167.354 179.976 166.332 178.776 165.102 177.819L125.679 147.196L123.521 139.132C123.438 138.817 123.29 138.524 123.086 138.271C123.06 138.237 123.031 138.205 122.999 138.177C120.989 135.718 118.228 133.628 114.731 133.594H114.543C114.351 133.594 114.159 133.621 113.974 133.675C113.781 133.725 113.596 133.802 113.424 133.903L75.1473 156.079C74.8775 156.239 74.62 156.419 74.3768 156.617C74.1352 156.81 73.911 157.023 73.7068 157.255C73.5117 157.486 73.3368 157.733 73.1842 157.995C73.0297 158.256 72.8975 158.53 72.7889 158.814C72.6883 159.077 72.6077 159.346 72.5477 159.621C72.4859 159.895 72.4478 160.174 72.4338 160.454C72.4138 160.731 72.4138 161.01 72.4338 161.287C72.4625 161.573 72.5141 161.856 72.5879 162.134L80.2058 190.6L76.9362 188.638L62.8662 226.095C63.3888 227.385 64.7154 226.666 64.7154 226.666L68.7823 218.105C68.9846 217.677 69.2731 217.296 69.6296 216.986C69.9861 216.675 70.4028 216.442 70.8536 216.301C71.3043 216.161 71.7792 216.115 72.2484 216.168C72.7175 216.22 73.1708 216.369 73.5795 216.606L116.58 241.477C117.747 242.15 118.75 243.074 119.519 244.182C120.287 245.291 120.8 246.557 121.022 247.888L121.572 251.14H124.252L124.124 249.796C123.959 248.052 124.297 246.298 125.098 244.741C125.898 243.184 127.128 241.89 128.64 241.013L165.812 219.55C166.215 219.317 166.668 219.185 167.133 219.166C167.598 219.146 168.061 219.239 168.482 219.437C168.904 219.634 169.271 219.931 169.554 220.302C169.837 220.673 170.026 221.106 170.106 221.566L172.116 233.521C172.403 233.706 172.743 233.79 173.083 233.759C173.423 233.729 173.743 233.586 173.992 233.353L172.599 218.703ZM161.383 181.804C162.087 182.229 162.692 182.803 163.154 183.485C163.617 184.167 163.927 184.941 164.063 185.755L166.482 200.142C166.291 199.867 166.041 199.637 165.751 199.47L134.663 181.326C134.651 180.931 134.592 180.539 134.489 180.157L129.86 162.86L161.383 181.804ZM80.2661 190.822L82.1555 197.891L79.4755 199.457C79.0276 199.711 78.6836 200.116 78.504 200.599C77.3918 202.656 76.9965 207.232 78.4102 210.33L77.3851 209.745C76.2825 209.119 75.4464 208.11 75.0342 206.908C74.622 205.706 74.6622 204.394 75.1473 203.22L76.1657 200.767L80.2661 190.822ZM167.648 207.333V207.104L167.681 207.299L167.648 207.333Z" fill="#455A64"/>
<path d="M114.201 234.515L76.6278 212.474C75.4376 211.774 74.5402 210.666 74.1017 209.354C73.6632 208.042 73.7133 206.615 74.2426 205.337L76.1387 200.767L75.1203 203.22C74.6353 204.394 74.595 205.706 75.0072 206.908C75.4194 208.11 76.2555 209.119 77.3581 209.745L118.228 232.936C118.109 233.337 117.901 233.705 117.619 234.013C117.336 234.321 116.988 234.56 116.599 234.712C116.211 234.865 115.793 234.926 115.378 234.892C114.962 234.858 114.56 234.729 114.201 234.515Z" fill="#37474F"/>
<path d="M76.9494 188.698L80.2994 190.714L76.132 200.794L74.236 205.364C73.7066 206.642 73.6565 208.069 74.095 209.381C74.5335 210.693 75.4309 211.801 76.6212 212.5L114.195 234.542C114.553 234.754 114.955 234.882 115.369 234.916C115.784 234.949 116.201 234.887 116.589 234.735C116.976 234.583 117.324 234.344 117.606 234.037C117.887 233.73 118.096 233.363 118.215 232.963L120.895 234.475L171.319 205.209L172.947 222.345L170.301 222.742L170.106 221.579C170.026 221.12 169.837 220.686 169.554 220.315C169.271 219.945 168.903 219.648 168.482 219.45C168.061 219.252 167.598 219.159 167.133 219.179C166.668 219.199 166.215 219.33 165.812 219.563L128.64 241.013C127.123 241.889 125.889 243.184 125.086 244.744C124.283 246.304 123.944 248.062 124.111 249.81L124.238 251.154H121.558L121.009 247.901C120.787 246.57 120.273 245.304 119.505 244.196C118.737 243.087 117.733 242.163 116.567 241.491L73.6195 216.68C73.2108 216.443 72.7576 216.294 72.2884 216.241C71.8192 216.189 71.3443 216.235 70.8936 216.375C70.4429 216.516 70.0261 216.749 69.6696 217.06C69.3131 217.37 69.0247 217.751 68.8224 218.179L64.7555 226.74C64.7555 226.74 63.4154 227.459 62.9062 226.169L76.9494 188.698Z" fill="#455A64"/>
<path d="M124.727 146.45L165.101 177.819C166.332 178.776 167.354 179.976 168.105 181.344C168.856 182.712 169.321 184.22 169.47 185.775L173.992 233.366C173.743 233.599 173.423 233.742 173.083 233.773C172.743 233.803 172.403 233.719 172.116 233.534L164.076 185.755C163.94 184.941 163.63 184.167 163.167 183.485C162.705 182.803 162.101 182.229 161.396 181.804L125.712 160.353C121.035 157.565 120.218 147.706 124.727 146.45Z" fill="#455A64"/>
<path opacity="0.3" d="M124.727 146.45L165.101 177.819C166.332 178.776 167.354 179.976 168.105 181.344C168.856 182.712 169.321 184.22 169.47 185.775L173.992 233.366C173.743 233.599 173.423 233.742 173.083 233.773C172.743 233.803 172.403 233.719 172.116 233.534L164.076 185.755C163.94 184.941 163.63 184.167 163.167 183.485C162.705 182.803 162.101 182.229 161.396 181.804L125.712 160.353C121.035 157.565 120.218 147.706 124.727 146.45Z" fill="white"/>
<path d="M78.477 200.599C78.6566 200.116 79.0007 199.711 79.4485 199.457L119.93 176.018C120.786 175.519 121.758 175.256 122.747 175.256C123.737 175.256 124.709 175.519 125.565 176.018L165.765 199.444C166.215 199.702 166.559 200.111 166.736 200.599C167.889 202.736 168.277 207.588 166.669 210.679C166.457 211.084 166.14 211.423 165.751 211.661L125.29 235.1C124.434 235.597 123.462 235.858 122.473 235.858C121.483 235.858 120.512 235.597 119.655 235.1L79.4552 211.674C79.0599 211.442 78.7444 211.096 78.5507 210.679C76.936 207.588 77.3246 202.736 78.477 200.599Z" fill="#F46E21"/>
<path opacity="0.3" d="M78.477 200.599C78.6566 200.116 79.0007 199.711 79.4485 199.457L119.93 176.018C120.786 175.519 121.758 175.256 122.747 175.256C123.737 175.256 124.709 175.519 125.565 176.018L165.765 199.444C166.215 199.702 166.559 200.111 166.736 200.599C167.889 202.736 168.277 207.588 166.669 210.679C166.457 211.084 166.14 211.423 165.751 211.661L125.29 235.1C124.434 235.597 123.462 235.858 122.473 235.858C121.483 235.858 120.512 235.597 119.655 235.1L79.4552 211.674C79.0599 211.442 78.7444 211.096 78.5507 210.679C76.936 207.588 77.3246 202.736 78.477 200.599Z" fill="white"/>
<path opacity="0.3" d="M78.477 200.599C78.2847 201.1 78.2762 201.652 78.4529 202.158C78.6297 202.664 78.9803 203.091 79.4418 203.361L119.642 226.787C120.498 227.284 121.47 227.545 122.459 227.545C123.448 227.545 124.42 227.284 125.277 226.787L165.758 203.341C166.219 203.075 166.571 202.653 166.751 202.151C166.93 201.649 166.925 201.098 166.736 200.599C167.889 202.736 168.277 207.588 166.669 210.679C166.457 211.084 166.14 211.423 165.751 211.66L125.29 235.1C124.434 235.597 123.462 235.858 122.473 235.858C121.483 235.858 120.512 235.597 119.655 235.1L79.4552 211.674C79.0599 211.442 78.7444 211.095 78.5507 210.679C76.936 207.588 77.3246 202.736 78.477 200.599Z" fill="black"/>
<path d="M75.1338 156.086L113.411 133.91C113.751 133.712 114.136 133.605 114.53 133.601H114.717C118.215 133.635 120.955 135.725 122.985 138.184C123.018 138.212 123.047 138.244 123.072 138.278C123.276 138.531 123.425 138.824 123.508 139.138L134.489 180.13C134.815 181.295 134.747 182.535 134.294 183.656C133.842 184.778 133.032 185.717 131.99 186.326L93.7196 208.502C93.3141 208.738 92.8465 208.843 92.3796 208.805C87.9978 208.348 85.4183 205.633 84.1252 204.201C83.8798 203.927 83.703 203.597 83.6093 203.24L72.628 162.248C72.3107 161.088 72.3843 159.855 72.8374 158.74C73.2906 157.626 74.0978 156.693 75.1338 156.086Z" fill="#F46E21"/>
<path opacity="0.2" d="M75.1338 156.086L113.411 133.91C113.751 133.712 114.136 133.605 114.53 133.601H114.717C118.215 133.635 120.955 135.725 122.985 138.184C123.018 138.212 123.047 138.244 123.072 138.278C123.276 138.531 123.425 138.824 123.508 139.138L134.489 180.13C134.815 181.295 134.747 182.535 134.294 183.656C133.842 184.778 133.032 185.717 131.99 186.326L93.7196 208.502C93.3141 208.738 92.8465 208.843 92.3796 208.805C87.9978 208.348 85.4183 205.633 84.1252 204.201C83.8798 203.927 83.703 203.597 83.6093 203.24L72.628 162.248C72.3107 161.088 72.3843 159.855 72.8374 158.74C73.2906 157.626 74.0978 156.693 75.1338 156.086Z" fill="white"/>
<path opacity="0.1" d="M75.1339 156.086L113.411 133.91C113.751 133.712 114.137 133.605 114.53 133.601H114.717C118.215 133.635 120.955 135.725 122.985 138.184C122.629 137.792 122.149 137.535 121.626 137.454C121.103 137.373 120.569 137.475 120.111 137.741L81.8339 159.917C80.7457 160.551 79.9099 161.543 79.4688 162.726L72.7688 158.855C73.2183 157.688 74.0531 156.711 75.1339 156.086Z" fill="black"/>
<path opacity="0.2" d="M79.4686 162.692C79.0586 163.766 79 164.943 79.3011 166.052L90.2824 207.044C90.4061 207.51 90.6711 207.926 91.0408 208.234C91.4106 208.542 91.8667 208.728 92.346 208.764C87.9642 208.307 85.3847 205.592 84.0916 204.161C83.8463 203.886 83.6695 203.557 83.5757 203.2L72.5944 162.208C72.2994 161.097 72.3627 159.921 72.7753 158.848L79.4686 162.692Z" fill="black"/>
<path d="M159.855 230.261C159.41 232.616 159.156 235.003 159.098 237.398L157.45 236.726C156.651 236.419 155.779 236.356 154.945 236.545C154.11 236.734 153.35 237.166 152.76 237.788L152.68 237.875C152.379 238.193 151.968 238.381 151.532 238.401C151.096 238.421 150.669 238.271 150.341 237.983C150.166 237.83 150.024 237.643 149.925 237.432C149.826 237.221 149.771 236.993 149.765 236.76L149.537 229.583L159.855 230.261Z" fill="#FFA8A7"/>
<path d="M153.37 256.92C156.854 260.663 163.279 263.935 167.942 260.743L167.42 261.933C162.73 265.125 156.331 261.852 152.847 258.116C149.363 254.38 151.621 251.779 148.485 248.459C147.301 247.327 146.376 245.952 145.772 244.427C145.913 244.071 146.04 243.601 146.207 243.083C146.884 244.641 147.833 246.066 149.008 247.29C152.144 250.589 149.879 253.183 153.37 256.92Z" fill="white"/>
<path d="M147.923 239.152C148.463 238.387 148.837 237.517 149.022 236.598C149.053 236.388 149.129 236.187 149.245 236.008C149.36 235.83 149.513 235.678 149.692 235.563L149.732 236.766C149.741 237.101 149.849 237.426 150.043 237.699C150.236 237.972 150.506 238.181 150.817 238.301C151.129 238.42 151.47 238.444 151.795 238.369C152.121 238.295 152.417 238.125 152.646 237.882L152.727 237.795C153.317 237.173 154.077 236.741 154.911 236.552C155.746 236.363 156.618 236.426 157.417 236.733L159.125 237.405C159.377 237.504 159.593 237.677 159.745 237.901C159.896 238.125 159.977 238.39 159.976 238.661C159.862 243.567 162.147 250.085 164.545 253.66C167.011 254.689 169.135 258.055 168.05 260.522L167.942 260.77C163.252 263.962 156.854 260.69 153.37 256.947C149.886 253.203 152.144 250.616 149.008 247.297C147.833 246.073 146.884 244.648 146.208 243.09C146.594 241.704 147.171 240.378 147.923 239.152Z" fill="#F46E21"/>
<path opacity="0.2" d="M147.923 239.152C148.463 238.387 148.837 237.517 149.022 236.598C149.053 236.388 149.129 236.187 149.245 236.008C149.36 235.83 149.513 235.678 149.692 235.563L149.732 236.766C149.741 237.101 149.849 237.426 150.043 237.699C150.236 237.972 150.506 238.181 150.817 238.301C151.129 238.42 151.47 238.444 151.795 238.369C152.121 238.295 152.417 238.125 152.646 237.882L152.727 237.795C153.317 237.173 154.077 236.741 154.911 236.552C155.746 236.363 156.618 236.426 157.417 236.733L159.125 237.405C159.377 237.504 159.593 237.677 159.745 237.901C159.896 238.125 159.977 238.39 159.976 238.661C159.862 243.567 162.147 250.085 164.545 253.66C167.011 254.689 169.135 258.055 168.05 260.522L167.942 260.77C163.252 263.962 156.854 260.69 153.37 256.947C149.886 253.203 152.144 250.616 149.008 247.297C147.833 246.073 146.884 244.648 146.208 243.09C146.594 241.704 147.171 240.378 147.923 239.152Z" fill="white"/>
<path d="M154.77 246.235C154.7 246.269 154.625 246.29 154.547 246.295C154.47 246.3 154.392 246.29 154.319 246.265C154.246 246.24 154.178 246.201 154.119 246.149C154.061 246.098 154.014 246.036 153.979 245.966C153.943 245.898 153.92 245.824 153.913 245.747C153.905 245.67 153.913 245.593 153.936 245.519C153.958 245.446 153.995 245.377 154.044 245.318C154.092 245.258 154.153 245.209 154.22 245.173C155.242 244.593 156.396 244.288 157.57 244.288C158.745 244.288 159.899 244.593 160.92 245.173C161.021 245.556 161.135 245.939 161.249 246.322C160.269 245.746 159.157 245.434 158.021 245.419C156.885 245.404 155.765 245.685 154.77 246.235Z" fill="white"/>
<path d="M153.892 243.581C153.752 243.654 153.588 243.668 153.438 243.62C153.287 243.572 153.161 243.466 153.088 243.325C153.015 243.184 153.001 243.02 153.049 242.869C153.097 242.718 153.202 242.592 153.343 242.519C154.413 241.933 155.615 241.63 156.835 241.641C158.054 241.651 159.251 241.975 160.311 242.579C160.378 242.976 160.465 243.379 160.552 243.782C158.515 242.707 156.465 242.277 153.892 243.581Z" fill="white"/>
<path d="M155.688 248.876C155.547 248.944 155.386 248.954 155.238 248.903C155.09 248.853 154.968 248.747 154.897 248.607C154.826 248.469 154.813 248.308 154.859 248.159C154.905 248.011 155.008 247.887 155.145 247.814C156.143 247.25 157.267 246.947 158.413 246.936C159.559 246.924 160.689 247.203 161.698 247.747C161.845 248.163 161.999 248.567 162.16 248.97C161.182 248.393 160.071 248.082 158.936 248.065C157.802 248.049 156.683 248.328 155.688 248.876Z" fill="white"/>
<path d="M164.545 253.634C167.011 254.662 169.135 258.029 168.049 260.495L167.942 260.743C163.346 263.888 157.055 260.743 153.531 257.088C156.465 251.315 162.602 252.753 164.545 253.634Z" fill="white"/>
<path d="M156.72 251.45C156.65 251.484 156.575 251.505 156.497 251.51C156.42 251.515 156.342 251.505 156.269 251.48C156.195 251.455 156.128 251.416 156.069 251.364C156.011 251.313 155.963 251.251 155.929 251.181C155.859 251.043 155.845 250.884 155.89 250.736C155.935 250.588 156.036 250.463 156.17 250.388C157.172 249.824 158.301 249.523 159.45 249.514C160.599 249.504 161.732 249.787 162.743 250.334C162.951 250.791 163.165 251.228 163.413 251.678C161.349 250.576 159.299 250.166 156.72 251.45Z" fill="white"/>
<path d="M167.185 244.521C167.72 246.846 168.444 249.123 169.349 251.329L167.56 251.429C166.709 251.475 165.889 251.771 165.205 252.281C164.521 252.792 164.002 253.494 163.714 254.299L163.674 254.406C163.527 254.818 163.226 255.156 162.835 255.351C162.444 255.545 161.993 255.58 161.577 255.448C161.355 255.381 161.15 255.268 160.975 255.116C160.799 254.965 160.658 254.778 160.559 254.568L157.45 248.09L167.185 244.521Z" fill="#FFA8A7"/>
<path d="M171.982 271.542C176.672 273.558 183.868 273.948 186.85 269.137V270.44C183.868 275.245 176.679 274.855 171.982 272.846C167.286 270.837 168.311 267.544 164.103 265.777C162.564 265.216 161.163 264.329 159.996 263.176C159.996 262.793 159.916 262.316 159.849 261.758C161.095 262.911 162.536 263.832 164.103 264.48C168.311 266.247 167.286 269.533 171.982 271.542Z" fill="white"/>
<path d="M159.849 257.491C160.042 256.574 160.042 255.626 159.849 254.709C159.794 254.5 159.786 254.283 159.823 254.071C159.86 253.859 159.942 253.657 160.063 253.479L160.586 254.568C160.684 254.778 160.826 254.965 161.002 255.116C161.177 255.268 161.382 255.381 161.604 255.448C162.02 255.58 162.471 255.545 162.862 255.351C163.253 255.157 163.553 254.818 163.701 254.407L163.741 254.299C164.029 253.494 164.548 252.792 165.232 252.282C165.916 251.771 166.735 251.475 167.587 251.43L169.409 251.329C169.68 251.319 169.946 251.391 170.175 251.537C170.403 251.682 170.583 251.893 170.689 252.142C172.565 256.671 177.275 261.704 180.907 264.016C183.587 263.949 186.876 266.173 186.876 268.868V269.137C183.895 273.948 176.706 273.552 172.009 271.543C167.312 269.533 168.337 266.247 164.13 264.48C162.562 263.832 161.122 262.911 159.875 261.758C159.67 260.344 159.661 258.908 159.849 257.491Z" fill="#F46E21"/>
<path opacity="0.2" d="M159.849 257.491C160.042 256.574 160.042 255.626 159.849 254.709C159.794 254.5 159.786 254.283 159.823 254.071C159.86 253.859 159.942 253.657 160.063 253.479L160.586 254.568C160.684 254.778 160.826 254.965 161.002 255.116C161.177 255.268 161.382 255.381 161.604 255.448C162.02 255.58 162.471 255.545 162.862 255.351C163.253 255.157 163.553 254.818 163.701 254.407L163.741 254.299C164.029 253.494 164.548 252.792 165.232 252.282C165.916 251.771 166.735 251.475 167.587 251.43L169.409 251.329C169.68 251.319 169.946 251.391 170.175 251.537C170.403 251.682 170.583 251.893 170.689 252.142C172.565 256.671 177.275 261.704 180.907 264.016C183.587 263.949 186.876 266.173 186.876 268.868V269.137C183.895 273.948 176.706 273.552 172.009 271.543C167.312 269.533 168.337 266.247 164.13 264.48C162.562 263.832 161.122 262.911 159.875 261.758C159.67 260.344 159.661 258.908 159.849 257.491Z" fill="white"/>
<path d="M168.941 261.207C168.841 261.331 168.697 261.41 168.539 261.427C168.381 261.444 168.223 261.398 168.1 261.298C167.976 261.198 167.897 261.053 167.88 260.895C167.863 260.737 167.91 260.578 168.009 260.454C168.716 259.516 169.652 258.776 170.727 258.305C171.802 257.834 172.98 257.649 174.147 257.766C174.394 258.082 174.649 258.385 174.91 258.687C173.783 258.553 172.64 258.715 171.594 259.156C170.547 259.598 169.633 260.305 168.941 261.207Z" fill="white"/>
<path d="M167.085 259.124C166.981 259.229 166.842 259.293 166.694 259.301C166.547 259.31 166.401 259.263 166.286 259.17C166.171 259.077 166.094 258.945 166.071 258.798C166.048 258.652 166.079 258.502 166.16 258.378C166.902 257.407 167.88 256.642 169 256.158C170.12 255.673 171.345 255.484 172.558 255.609C172.786 255.945 173.021 256.281 173.262 256.611C170.971 256.449 168.92 256.886 167.085 259.124Z" fill="white"/>
<path d="M170.85 263.236C170.746 263.342 170.607 263.405 170.46 263.414C170.312 263.422 170.167 263.376 170.051 263.283C169.936 263.19 169.86 263.057 169.836 262.911C169.813 262.765 169.845 262.615 169.925 262.491C170.615 261.576 171.524 260.85 172.567 260.38C173.61 259.91 174.755 259.712 175.895 259.803C176.197 260.125 176.505 260.434 176.813 260.737C175.688 260.601 174.548 260.76 173.503 261.198C172.458 261.636 171.544 262.338 170.85 263.236Z" fill="white"/>
<path d="M180.9 264.016C183.58 263.949 186.87 266.173 186.87 268.868V269.137C183.928 273.841 176.913 273.559 172.217 271.63C172.558 265.159 178.749 263.989 180.9 264.016Z" fill="white"/>
<path d="M172.86 265.179C172.759 265.296 172.617 265.37 172.463 265.384C172.31 265.399 172.156 265.353 172.036 265.256C171.915 265.159 171.837 265.02 171.817 264.866C171.797 264.713 171.837 264.557 171.929 264.433C172.62 263.515 173.532 262.787 174.579 262.317C175.626 261.847 176.775 261.65 177.918 261.745C178.294 262.081 178.662 262.417 179.037 262.692C176.726 262.504 174.676 262.934 172.86 265.179Z" fill="white"/>
<path d="M139.594 183.255L163.105 196.406C165.235 197.596 166.939 199.428 167.977 201.641C169.014 203.855 169.333 206.339 168.887 208.744L164.324 233.366L168.069 245.287C164.82 249.635 157.45 249.857 157.45 249.857C153.316 241.544 150.281 238.01 147.936 231.041C145.591 224.072 144.003 219.254 144.003 219.254L124.479 213.878C120.014 212.661 116.016 210.13 113 206.61C109.984 203.091 108.09 198.745 107.562 194.135C107.233 191.178 107.213 189.155 107.213 189.155L139.594 183.255Z" fill="#455A64"/>
<path d="M139.594 183.255L163.105 196.406C165.235 197.596 166.939 199.428 167.977 201.641C169.014 203.855 169.333 206.339 168.887 208.744L164.324 233.366L168.069 245.287C164.82 249.635 157.45 249.857 157.45 249.857C153.316 241.544 150.281 238.01 147.936 231.041C145.591 224.072 144.003 219.254 144.003 219.254L124.479 213.878C120.014 212.661 116.016 210.13 113 206.61C109.984 203.091 108.09 198.745 107.562 194.135C107.233 191.178 107.213 189.155 107.213 189.155L139.594 183.255Z" fill="#37474F"/>
<path opacity="0.2" d="M139.42 189.881C139.42 192.516 138.49 195.066 136.794 197.078L153.376 207.494C155.812 209.021 157.615 211.379 158.455 214.134L164.324 233.366L159.031 211.923C158.422 209.455 156.873 207.325 154.716 205.989L139.4 196.5C140.968 192.583 139.42 189.881 139.42 189.881Z" fill="black"/>
<path d="M137.055 142.754H137.658C141.718 142.794 146.857 145.569 149.37 152.672L159.125 171.623L147.99 176.575L141.893 158.694L137.055 142.754Z" fill="#F46E21"/>
<g opacity="0.2">
<path d="M137.055 142.754H137.658C141.718 142.794 146.857 145.569 149.37 152.672L159.125 171.623L147.99 176.575L141.893 158.694L137.055 142.754Z" fill="black"/>
</g>
<path opacity="0.2" d="M144.874 155.327C145.651 157.564 145.698 159.977 145.826 162.349C145.953 164.721 146.221 167.571 147.3 169.681C148.49 168.849 149.918 168.428 151.368 168.48C152.817 168.532 154.211 169.055 155.34 169.97C156.146 170.651 156.767 171.528 157.142 172.516L148.003 176.582L141.906 158.7L138.911 148.835C140.285 149.466 141.519 150.366 142.543 151.48C143.567 152.594 144.359 153.902 144.874 155.327Z" fill="black"/>
<path d="M147.882 173.162C148.309 172.109 148.995 171.182 149.876 170.467C150.758 169.753 151.805 169.274 152.921 169.076C154.084 168.959 155.259 169.13 156.341 169.575C157.423 170.021 158.379 170.726 159.125 171.63C160.338 173.101 160.15 175.097 159.38 176.844C158.738 178.203 157.647 179.297 156.293 179.94C154.938 180.583 153.403 180.736 151.949 180.372C149.075 179.566 146.797 175.957 147.882 173.162Z" fill="#F46E21"/>
<g opacity="0.2">
<path d="M147.882 173.162C148.309 172.109 148.995 171.182 149.876 170.467C150.758 169.753 151.805 169.274 152.921 169.076C154.084 168.959 155.259 169.13 156.341 169.575C157.423 170.021 158.379 170.726 159.125 171.63C160.338 173.101 160.15 175.097 159.38 176.844C158.738 178.203 157.647 179.297 156.293 179.94C154.938 180.583 153.403 180.736 151.949 180.372C149.075 179.566 146.797 175.957 147.882 173.162Z" fill="black"/>
</g>
<path d="M106.838 191.03C111.012 195.062 131.039 195.781 141.256 186.024C140.278 179.136 140.586 171.757 141.256 164.459C141.926 157.161 146.161 144.4 138.04 142.915C127.193 140.791 121.719 142.747 112.862 145.059C105.123 157.988 106.188 177.342 106.838 191.03Z" fill="#F46E21"/>
<path opacity="0.2" d="M106.838 191.03C111.012 195.062 131.039 195.781 141.256 186.024C140.278 179.136 140.586 171.757 141.256 164.459C141.926 157.161 146.161 144.4 138.04 142.915C127.193 140.791 121.719 142.747 112.862 145.059C105.123 157.988 106.188 177.342 106.838 191.03Z" fill="black"/>
<path opacity="0.2" d="M118.69 176.669C118.262 169.492 118.69 157.282 116.339 153.714L109.88 151.382C105.914 162.396 106.141 176.011 106.637 187.052C110.989 189.566 115.754 191.277 120.707 192.105C122.771 192.488 124.854 192.777 126.945 192.945C132.191 191.857 137.41 189.673 141.243 186.01C141.109 185.09 141.008 184.149 140.921 183.208C135.863 182.924 130.867 181.957 126.067 180.332C125.173 179.225 124.05 178.325 122.777 177.693C121.504 177.061 120.11 176.712 118.69 176.669Z" fill="black"/>
<path opacity="0.15" d="M136.392 190.546C136.392 190.546 136.392 190.546 136.392 190.513C136.392 190.479 136.392 190.513 136.392 190.472V190.439V190.398C136.392 190.398 136.392 190.398 136.392 190.358V190.325L143.681 176.717L144.686 177.866L137.397 191.474C137.351 191.55 137.319 191.634 137.303 191.722C137.295 191.748 137.295 191.775 137.3 191.801C137.306 191.827 137.319 191.85 137.337 191.87L136.332 190.728V190.674C136.332 190.674 136.332 190.64 136.332 190.627L136.392 190.546Z" fill="white"/>
<path opacity="0.2" d="M143.802 176.629V176.589V176.549V176.508V176.461V176.421V176.374L143.836 176.333V176.293V176.253V176.219L143.943 176.125H143.976H144.017H144.063H144.11H144.157L152.539 171.421H152.586H152.633H152.68H152.727H152.767H152.814H152.854H152.901H152.948H153.102C153.126 171.421 153.149 171.426 153.171 171.435C153.193 171.444 153.213 171.458 153.229 171.475L154.227 172.624C154.187 172.57 154.1 172.557 153.979 172.584C153.818 172.626 153.662 172.689 153.517 172.772L145.135 177.476C144.97 177.571 144.811 177.676 144.66 177.792C144.499 177.919 144.345 178.047 144.197 178.188C144.057 178.321 143.925 178.462 143.802 178.612C143.698 178.737 143.606 178.872 143.527 179.015L142.522 177.866L143.802 176.629Z" fill="white"/>
<path d="M148.016 181.804C148.016 181.804 142.723 184.492 140.378 183.013L141.618 180.702C138.287 180.65 135.042 181.756 132.432 183.833C127.427 182.915 122.541 181.434 117.866 179.418L116.205 178.746L107.783 185.769C113.525 189.498 140.613 192.052 143.427 190.311C146.241 188.571 148.398 185.117 148.016 181.804Z" fill="#FFA8A7"/>
<path d="M153.738 174.956C153.916 175.842 154.019 176.741 154.046 177.644C153.83 179.813 152.912 181.852 151.433 183.45C151.126 183.8 150.74 184.071 150.308 184.243C150.092 184.323 149.858 184.346 149.631 184.31C149.403 184.273 149.189 184.178 149.008 184.035C148.693 183.66 148.53 183.18 148.552 182.691C148.481 181.956 148.522 181.215 148.673 180.493C148.823 179.764 149.233 179.114 149.825 178.665C150.286 178.384 150.779 178.158 151.293 177.993C151.795 177.782 152.242 177.458 152.599 177.046L153.738 174.956Z" fill="#FFA8A7"/>
<path d="M116.205 178.726L116.459 156.012C116.494 152.943 115.742 149.917 114.275 147.223L112.862 145.065C111.734 145.178 110.653 145.572 109.717 146.212C108.78 146.852 108.019 147.717 107.502 148.728C105.543 152.102 104.635 155.987 104.895 159.883C104.895 159.883 104.004 183.296 107.783 185.748L116.205 178.726Z" fill="#F46E21"/>
<path d="M121.86 179.653L116.205 178.726L107.783 185.748C110.255 187.663 116.178 189.72 120.084 190.681C121.281 190.975 122.534 190.945 123.716 190.593L124.386 190.398L125.679 181.622C124.641 180.583 123.306 179.895 121.86 179.653Z" fill="#F46E21"/>
<g opacity="0.2">
<path d="M116.205 178.726L116.459 156.012C116.494 152.943 115.742 149.917 114.275 147.223L112.862 145.065C111.734 145.178 110.653 145.572 109.717 146.212C108.78 146.852 108.019 147.717 107.502 148.728C105.543 152.102 104.635 155.987 104.895 159.883C104.895 159.883 104.004 183.296 107.783 185.748L116.205 178.726Z" fill="black"/>
<path d="M121.86 179.653L116.205 178.726L107.783 185.748C110.255 187.663 116.178 189.72 120.084 190.681C121.281 190.975 122.534 190.945 123.716 190.593L124.386 190.398L125.679 181.622C124.641 180.583 123.306 179.895 121.86 179.653Z" fill="black"/>
</g>
<path d="M130.65 183.504C128.084 184.814 129.397 190.002 129.9 190.398L130.65 190.466C130.527 190.675 130.347 190.845 130.131 190.955C129.915 191.066 129.672 191.113 129.431 191.091C128.057 190.949 125.33 190.647 124.352 190.419C121.719 186.447 124.66 182.193 125.652 181.622C127.26 182.099 128.834 182.449 129.672 182.617C129.851 182.653 130.02 182.729 130.167 182.838C130.314 182.947 130.435 183.087 130.523 183.248L130.65 183.504Z" fill="#F46E21"/>
<path opacity="0.3" d="M130.65 183.504C128.084 184.814 129.397 190.002 129.9 190.398L130.65 190.466C130.527 190.675 130.347 190.845 130.131 190.955C129.915 191.066 129.672 191.113 129.431 191.091C128.057 190.949 125.33 190.647 124.352 190.419C121.719 186.447 124.66 182.193 125.652 181.622C127.26 182.099 128.834 182.449 129.672 182.617C129.851 182.653 130.02 182.729 130.167 182.838C130.314 182.947 130.435 183.087 130.523 183.248L130.65 183.504Z" fill="black"/>
<path d="M120.962 143.748C120.777 144.107 120.675 144.503 120.663 144.906C120.651 145.31 120.731 145.711 120.895 146.08C121.235 146.815 121.734 147.464 122.355 147.982C124.205 149.621 126.535 150.614 128.995 150.811C130.321 150.963 131.663 150.73 132.861 150.139C133.454 149.832 133.96 149.381 134.334 148.827C134.707 148.273 134.936 147.633 134.998 146.967C134.978 146.186 134.74 145.427 134.311 144.775C133.883 144.123 133.281 143.604 132.573 143.278C131.143 142.661 129.577 142.43 128.03 142.606C126.583 142.8 125.122 142.881 123.662 142.848C122.657 142.7 121.545 142.747 120.962 143.748Z" fill="#F46E21"/>
<path opacity="0.3" d="M120.962 143.748C120.777 144.107 120.675 144.503 120.663 144.906C120.651 145.31 120.731 145.711 120.895 146.08C121.235 146.815 121.734 147.464 122.355 147.982C124.205 149.621 126.535 150.614 128.995 150.811C130.321 150.963 131.663 150.73 132.861 150.139C133.454 149.832 133.96 149.381 134.334 148.827C134.707 148.273 134.936 147.633 134.998 146.967C134.978 146.186 134.74 145.427 134.311 144.775C133.883 144.123 133.281 143.604 132.573 143.278C131.143 142.661 129.577 142.43 128.03 142.606C126.583 142.8 125.122 142.881 123.662 142.848C122.657 142.7 121.545 142.747 120.962 143.748Z" fill="black"/>
<path d="M120.037 126.861L125.94 135.597H126.087L119.789 126.296C119.789 126.296 109.679 130.644 110.409 133.756C110.426 133.795 110.439 133.835 110.45 133.877L110.53 134.078C110.527 134.098 110.527 134.119 110.53 134.139L110.731 134.649C110.692 134.56 110.66 134.468 110.637 134.374C109.927 131.222 120.037 126.861 120.037 126.861Z" fill="#F46E21"/>
<path opacity="0.1" d="M120.037 126.861L125.94 135.597H126.087L119.789 126.296C119.789 126.296 109.679 130.644 110.409 133.756C110.426 133.795 110.439 133.835 110.45 133.877L110.53 134.078C110.527 134.098 110.527 134.119 110.53 134.139L110.731 134.649C110.692 134.56 110.66 134.468 110.637 134.374C109.927 131.222 120.037 126.861 120.037 126.861Z" fill="black"/>
<path d="M125.96 135.583L120.057 126.847C120.057 126.847 109.947 131.202 110.677 134.307C110.701 134.401 110.732 134.493 110.771 134.582C112.339 138.345 126.349 136.148 126.349 136.148L125.96 135.583Z" fill="#F46E21"/>
<path opacity="0.3" d="M125.96 135.583L120.057 126.847C120.057 126.847 109.947 131.202 110.677 134.307C110.701 134.401 110.732 134.493 110.771 134.582C112.339 138.345 126.349 136.148 126.349 136.148L125.96 135.583Z" fill="black"/>
<path d="M123.206 140.838C121.812 138.289 120.726 135.582 119.97 132.774C119.3 129.939 117.377 123.642 118.744 121.075C119.776 119.146 122.617 117.197 124.526 116.142C126.436 115.087 128.935 115.41 131.065 114.946C132.937 114.481 134.873 114.331 136.794 114.503C138.703 114.738 141.109 118.199 142.382 119.65C144.392 121.935 144.459 125.544 143.012 128.232C141.564 130.92 138.878 132.761 136.01 133.802C133.142 134.844 130.081 135.147 127.052 135.476C125.799 137.156 124.459 139.145 123.206 140.838Z" fill="#263238"/>
<path d="M139.253 112.991C136.278 110.303 131.782 109.765 127.863 110.8C124.546 111.68 120.701 112.708 118.784 115.504C116.868 118.3 117.84 122.278 118.061 126.256C121.522 123.485 125.619 121.628 129.98 120.853C130.496 120.759 131.025 120.692 131.561 120.638L131.3 119.334C131.223 118.963 131.227 118.58 131.311 118.21C131.395 117.84 131.557 117.493 131.787 117.192C132.016 116.891 132.307 116.642 132.64 116.463C132.974 116.285 133.341 116.18 133.719 116.156C134.32 116.122 134.922 116.136 135.521 116.196C136.354 116.282 137.139 116.627 137.768 117.182C138.396 117.738 138.835 118.476 139.025 119.294C139.159 119.899 139.293 120.51 139.42 121.061C140.903 121.323 142.365 121.691 143.795 122.164C142.817 118.891 141.792 115.289 139.253 112.991Z" fill="#455A64"/>
<path d="M138.931 119.019C136.406 118.446 133.794 118.369 131.24 118.79C131.238 118.973 131.256 119.156 131.293 119.334L131.555 120.638C134.181 120.422 136.825 120.565 139.414 121.062C139.286 120.51 139.152 119.899 139.018 119.294C138.992 119.2 138.958 119.126 138.931 119.019Z" fill="#37474F"/>
<path d="M132.821 139.958L132.432 144.299C132.417 144.637 132.503 144.972 132.68 145.26C132.919 145.713 133.01 146.229 132.942 146.736C132.873 147.244 132.648 147.717 132.298 148.089C131.743 148.518 131.063 148.754 130.362 148.761C129.044 148.832 127.726 148.624 126.494 148.149C125.263 147.674 124.144 146.944 123.213 146.006C123.026 145.808 122.88 145.575 122.783 145.32C122.686 145.065 122.641 144.794 122.65 144.521L122.932 133.514L132.821 139.958Z" fill="#FFA8A7"/>
<path d="M132.821 139.958L132.432 144.299C132.417 144.637 132.503 144.972 132.68 145.26C132.919 145.713 133.01 146.229 132.942 146.736C132.873 147.244 132.648 147.717 132.298 148.089C131.743 148.518 131.063 148.754 130.362 148.761C129.044 148.832 127.726 148.624 126.494 148.149C125.263 147.674 124.144 146.944 123.213 146.006C123.026 145.808 122.88 145.575 122.783 145.32C122.686 145.065 122.641 144.794 122.65 144.521L122.932 133.514L132.821 139.958Z" fill="#FFA8A7"/>
<path opacity="0.2" d="M126.154 142.115C127.246 143.059 128.573 143.686 129.993 143.93C130.834 144.046 131.691 143.961 132.492 143.681L132.821 139.965L122.932 133.5L122.831 137.532C123.534 139.317 124.678 140.894 126.154 142.115Z" fill="black"/>
<path d="M136.499 126.518C137.432 126.078 138.218 125.378 138.764 124.502C136.815 125.394 134.732 125.953 132.6 126.155C133.417 125.443 134.194 124.637 135.012 123.924C133.55 124.42 132.048 124.787 130.523 125.02C131.374 124.581 132.132 123.981 132.754 123.252C130.362 124.373 127.797 125.075 125.169 125.329C125.053 125.487 124.977 125.671 124.948 125.866L124.546 128.991C124.551 129.213 124.506 129.434 124.414 129.636C124.323 129.838 124.187 130.018 124.017 130.16C123.833 130.247 123.627 130.276 123.426 130.244C123.226 130.211 123.039 130.119 122.891 129.979C122.602 129.689 122.374 129.344 122.221 128.964C121.896 128.176 121.461 127.438 120.928 126.773C120.658 126.443 120.32 126.174 119.938 125.985C119.555 125.796 119.137 125.691 118.711 125.678C117.324 125.712 116.265 127.103 116.118 128.487C116.05 129.202 116.161 129.924 116.44 130.585C116.72 131.247 117.159 131.828 117.719 132.277C118.296 132.688 118.966 132.947 119.668 133.031C120.37 133.116 121.082 133.023 121.739 132.761C121.109 135.173 122.369 137.761 124.238 139.4C126.107 141.04 128.506 141.927 130.844 142.76C132.124 143.224 133.477 143.694 134.811 143.432C135.898 143.187 136.872 142.584 137.578 141.719C138.28 140.858 138.855 139.901 139.286 138.876C141.396 134.308 142.598 129.37 142.824 124.341C141.04 125.797 138.798 126.569 136.499 126.518Z" fill="#FFA8A7"/>
<path d="M134.757 131.437L136.713 136.625L133.29 136.665L134.757 131.437Z" fill="#F28F8F"/>
<path d="M129.498 137.667L133.089 139.152C132.814 139.567 132.412 139.882 131.943 140.048C131.474 140.214 130.964 140.223 130.489 140.072C129.612 139.736 129.31 138.614 129.498 137.667Z" fill="#F28F8F"/>
<path opacity="0.3" d="M129.498 137.667L133.089 139.152C132.814 139.567 132.412 139.882 131.943 140.048C131.474 140.214 130.964 140.223 130.489 140.072C129.612 139.736 129.31 138.614 129.498 137.667Z" fill="black"/>
<path d="M131.709 140.113C131.307 140.221 130.883 140.207 130.489 140.072C130.159 139.911 129.884 139.655 129.698 139.337C129.512 139.019 129.424 138.653 129.444 138.285C129.983 138.242 130.517 138.408 130.938 138.747C131.36 139.087 131.635 139.576 131.709 140.113Z" fill="#F28F8F"/>
<path d="M129.92 130.49C129.85 130.737 129.882 131.002 130.008 131.227C130.133 131.451 130.343 131.616 130.59 131.686C130.837 131.755 131.101 131.723 131.325 131.597C131.548 131.471 131.713 131.261 131.782 131.014C131.817 130.891 131.827 130.763 131.811 130.636C131.796 130.51 131.757 130.388 131.694 130.276C131.632 130.165 131.549 130.068 131.449 129.989C131.349 129.91 131.235 129.852 131.112 129.818C130.99 129.783 130.862 129.773 130.736 129.788C130.61 129.804 130.488 129.843 130.377 129.906C130.267 129.968 130.169 130.052 130.091 130.152C130.012 130.252 129.954 130.367 129.92 130.49Z" fill="#263238"/>
<path d="M137.638 132.109C137.569 132.357 137.6 132.622 137.726 132.846C137.852 133.071 138.061 133.236 138.308 133.305C138.555 133.375 138.819 133.343 139.043 133.217C139.267 133.091 139.431 132.881 139.501 132.633C139.535 132.511 139.545 132.382 139.53 132.256C139.515 132.129 139.475 132.007 139.413 131.896C139.35 131.785 139.267 131.687 139.167 131.609C139.067 131.53 138.953 131.472 138.831 131.437C138.708 131.403 138.58 131.393 138.454 131.408C138.328 131.423 138.206 131.463 138.096 131.525C137.985 131.588 137.887 131.672 137.809 131.772C137.73 131.872 137.672 131.987 137.638 132.109Z" fill="#263238"/>
<path d="M139.742 127.331L141.404 129.347C141.57 129.118 141.659 128.841 141.659 128.558C141.659 128.274 141.57 127.998 141.404 127.768C141.195 127.547 140.929 127.388 140.635 127.311C140.341 127.234 140.032 127.241 139.742 127.331Z" fill="#263238"/>
<path d="M131.186 125.732L128.72 126.585C128.698 126.304 128.764 126.023 128.91 125.782C129.055 125.541 129.272 125.352 129.531 125.241C129.825 125.159 130.136 125.162 130.429 125.249C130.721 125.335 130.984 125.503 131.186 125.732Z" fill="#263238"/>
<path d="M75.9779 174.795L116.345 206.164C117.577 207.12 118.601 208.319 119.352 209.688C120.103 211.056 120.567 212.565 120.714 214.12L125.243 261.711C124.993 261.944 124.673 262.087 124.334 262.118C123.994 262.148 123.654 262.064 123.367 261.879L115.327 214.1C115.192 213.285 114.883 212.509 114.42 211.826C113.957 211.143 113.352 210.568 112.647 210.142L76.9628 188.698C72.2862 185.91 71.4621 176.051 75.9779 174.795Z" fill="#455A64"/>
<path opacity="0.3" d="M75.9779 174.795L116.345 206.164C117.577 207.12 118.601 208.319 119.352 209.688C120.103 211.056 120.567 212.565 120.714 214.12L125.243 261.711C124.993 261.944 124.673 262.087 124.334 262.118C123.994 262.148 123.654 262.064 123.367 261.879L115.327 214.1C115.192 213.285 114.883 212.509 114.42 211.826C113.957 211.143 113.352 210.568 112.647 210.142L76.9628 188.698C72.2862 185.91 71.4621 176.051 75.9779 174.795Z" fill="white"/>
<path d="M136.392 190.587C136.392 190.587 136.392 190.62 136.392 190.634V190.687L137.397 191.83C137.397 191.83 137.397 191.783 137.397 191.756C137.437 191.931 137.692 191.924 138.127 191.682L146.509 186.978C147.157 186.601 147.708 186.076 148.117 185.446L155.44 171.818C155.554 171.589 155.554 171.455 155.44 171.394H155.473L154.475 170.245C154.459 170.228 154.439 170.214 154.417 170.205C154.395 170.196 154.372 170.191 154.348 170.191H154.194H154.147H154.1H154.06H154.013H153.973H153.926H153.879H153.832H153.785L145.403 174.895H145.356H145.31H145.263H145.222H145.189L145.082 174.989V175.023V175.063V175.104L145.048 175.144V175.191V175.231V175.278V175.319V175.359V175.399V175.44L137.759 189.048V189.081C137.759 189.081 137.759 189.081 137.759 189.122V189.162V189.196C137.759 189.196 137.759 189.196 137.759 189.236C137.759 189.276 137.759 189.236 137.759 189.269V189.323L136.392 190.587ZM155.199 171.374H155.232C155.232 171.374 155.266 171.374 155.293 171.374C155.262 171.368 155.23 171.368 155.199 171.374ZM137.397 191.702C137.413 191.614 137.444 191.53 137.491 191.453C137.441 191.538 137.41 191.632 137.397 191.729V191.702Z" fill="#455A64"/>
<path d="M87.1804 256.906L90.0413 258.573L90.0279 255.26L87.1804 256.906Z" fill="#E6E6E6"/>
<path d="M89.9139 223.104L62.1223 239.192L89.9139 223.104Z" fill="#CFCFCF"/>
<path d="M90.0278 255.26V258.573L93.0026 256.852L92.9021 217.91L59.114 237.479L59.2212 276.414L62.196 274.694V271.381L87.1803 256.886L90.0278 255.26ZM62.1223 239.192L89.9139 223.104L89.9474 235.731L62.1625 251.859L62.1223 239.192ZM62.1692 255.28L89.9608 239.185V239.226V251.819L62.2027 267.907L62.1692 255.28Z" fill="#E0E0E0"/>
<path d="M89.9945 251.819L89.961 239.226V239.192L62.1694 255.28L62.2029 267.907L89.9945 251.819Z" fill="#E0E0E0"/>
<path d="M89.9474 235.731L89.9139 223.104L62.1223 239.192L62.1625 251.826L89.9474 235.731Z" fill="#E0E0E0"/>
<path d="M59.1141 237.479L29.614 220.282L29.7212 259.225L59.2213 276.414L59.1141 237.479Z" fill="#E0E0E0"/>
<path d="M59.1141 237.479L92.9022 217.91L63.4021 200.714L29.614 220.282L59.1141 237.479Z" fill="#E0E0E0"/>
<path opacity="0.2" d="M87.1804 256.906L90.0413 258.573L90.0279 255.26L87.1804 256.906Z" fill="white"/>
<path d="M89.9139 223.104L62.1223 239.192L89.9139 223.104Z" fill="#CFCFCF"/>
<path opacity="0.8" d="M89.9945 251.819L89.961 239.226V239.192L62.1694 255.28L62.2029 267.907L89.9945 251.819Z" fill="white"/>
<path opacity="0.8" d="M89.9474 235.731L89.9139 223.104L62.1223 239.192L62.1625 251.826L89.9474 235.731Z" fill="white"/>
<path d="M80.8555 233.043L80.8421 231.303L71.2209 236.874L71.2276 238.621L80.8555 233.043Z" fill="#E0E0E0"/>
<path d="M80.8555 248.909L80.8421 247.162L71.2209 252.733L71.2276 254.48L80.8555 248.909Z" fill="#E0E0E0"/>
<path opacity="0.2" d="M59.1141 237.479L29.614 220.282L29.7212 259.225L59.2213 276.414L59.1141 237.479Z" fill="white"/>
<path opacity="0.4" d="M59.1141 237.479L92.9022 217.91L63.4021 200.714L29.614 220.282L59.1141 237.479Z" fill="white"/>
<path opacity="0.05" d="M52.5616 210.76C56.3136 208.583 62.3771 208.583 66.1023 210.76C69.8275 212.937 69.8074 216.452 66.0554 218.629C62.3034 220.806 56.2399 220.8 52.5147 218.629C48.7895 216.458 48.8096 212.93 52.5616 210.76Z" fill="black"/>
<path d="M49.3054 197.078L59.5966 197.381L69.8945 197.078C70.3367 204.053 68.9766 211.157 67.1073 214.631C66.6727 215.52 65.9692 216.249 65.0973 216.714C62.0622 218.475 57.1511 218.475 54.1361 216.714C53.248 216.245 52.5408 215.494 52.1261 214.577C50.2099 211.089 48.8632 204.027 49.3054 197.078Z" fill="white"/>
<path d="M52.3472 192.858C48.3272 195.196 48.287 198.98 52.2936 201.318C56.3002 203.657 62.8193 203.65 66.8527 201.318C70.8861 198.986 70.8727 195.196 66.8996 192.858C62.9265 190.519 56.3806 190.526 52.3472 192.858Z" fill="#EBEBEB"/>
<path d="M53.9417 193.785C50.7927 195.613 50.7793 198.563 53.9015 200.384C57.0237 202.205 62.1157 202.205 65.2915 200.384C68.4673 198.563 68.4539 195.613 65.3317 193.785C62.2095 191.957 57.084 191.964 53.9417 193.785Z" fill="#E0E0E0"/>
<g opacity="0.15">
<path d="M53.9417 193.785C50.7927 195.613 50.7793 198.563 53.9015 200.384C57.0237 202.205 62.1157 202.205 65.2915 200.384C68.4673 198.563 68.4539 195.613 65.3317 193.785C62.2095 191.957 57.084 191.964 53.9417 193.785Z" fill="black"/>
</g>
<path d="M60.4608 197.38C59.6353 198.071 58.6586 198.555 57.6106 198.795C56.5626 199.034 55.473 199.022 54.4308 198.758C53.4263 198.45 52.5139 197.896 51.7759 197.147C51.0379 196.397 50.4974 195.475 50.2031 194.464C51.4216 193.883 52.5373 193.107 53.5062 192.166C51.9585 191.776 50.3322 191.834 48.8162 192.334C48.3971 191.674 48.1456 190.92 48.0837 190.14C48.0218 189.36 48.1514 188.577 48.4611 187.858C50.2179 187.074 52.194 186.936 54.0422 187.468C53.2755 186.797 52.3784 186.292 51.4074 185.986C50.4365 185.679 49.4128 185.578 48.4008 185.688C48.2503 182.728 48.7064 179.768 49.7408 176.992C53.5799 177.194 57.2984 178.847 58.558 180.043C58.6131 181.421 58.4687 182.799 58.1292 184.135C58.6247 183.88 59.0479 183.504 59.3595 183.041C59.6711 182.578 59.8609 182.044 59.9114 181.488C62.3167 182.092 63.3418 183.295 63.717 184.209C63.3722 185.922 62.5895 187.515 61.4457 188.833C63.6969 188.161 64.6148 185.627 64.6148 185.627C66.8459 190.896 66.4238 196.863 60.4608 197.38Z" fill="#F46E21"/>
<path opacity="0.2" d="M60.4608 197.38C59.6353 198.071 58.6586 198.555 57.6106 198.795C56.5626 199.034 55.473 199.022 54.4308 198.758C53.4263 198.45 52.5139 197.896 51.7759 197.147C51.0379 196.397 50.4974 195.475 50.2031 194.464C51.4216 193.883 52.5373 193.107 53.5062 192.166C51.9585 191.776 50.3322 191.834 48.8162 192.334C48.3971 191.674 48.1456 190.92 48.0837 190.14C48.0218 189.36 48.1514 188.577 48.4611 187.858C50.2179 187.074 52.194 186.936 54.0422 187.468C53.2755 186.797 52.3784 186.292 51.4074 185.986C50.4365 185.679 49.4128 185.578 48.4008 185.688C48.2503 182.728 48.7064 179.768 49.7408 176.992C53.5799 177.194 57.2984 178.847 58.558 180.043C58.6131 181.421 58.4687 182.799 58.1292 184.135C58.6247 183.88 59.0479 183.504 59.3595 183.041C59.6711 182.578 59.8609 182.044 59.9114 181.488C62.3167 182.092 63.3418 183.295 63.717 184.209C63.3722 185.922 62.5895 187.515 61.4457 188.833C63.6969 188.161 64.6148 185.627 64.6148 185.627C66.8459 190.896 66.4238 196.863 60.4608 197.38Z" fill="black"/>
<path opacity="0.3" d="M60.4608 197.38C59.6353 198.071 58.6586 198.555 57.6106 198.795C56.5626 199.034 55.473 199.022 54.4308 198.758C53.4263 198.45 52.5139 197.896 51.7759 197.147C51.0379 196.397 50.4974 195.475 50.2031 194.464C51.4216 193.883 52.5373 193.107 53.5062 192.166C51.9585 191.776 50.3322 191.834 48.8162 192.334C48.3971 191.674 48.1456 190.92 48.0837 190.14C48.0218 189.36 48.1514 188.577 48.4611 187.858C50.2179 187.074 52.194 186.936 54.0422 187.468C53.2755 186.797 52.3784 186.292 51.4074 185.986C50.4365 185.679 49.4128 185.578 48.4008 185.688C48.2503 182.728 48.7064 179.768 49.7408 176.992C53.5799 177.194 57.2984 178.847 58.558 180.043C58.6131 181.421 58.4687 182.799 58.1292 184.135C58.6247 183.88 59.0479 183.504 59.3595 183.041C59.6711 182.578 59.8609 182.044 59.9114 181.488C62.3167 182.092 63.3418 183.295 63.717 184.209C63.3722 185.922 62.5895 187.515 61.4457 188.833C63.6969 188.161 64.6148 185.627 64.6148 185.627C66.8459 190.896 66.4238 196.863 60.4608 197.38Z" fill="white"/>
<path d="M60.5949 197.952C60.6535 197.945 60.7075 197.916 60.746 197.871C60.7845 197.827 60.8047 197.769 60.8026 197.71C60.4341 192.851 57.6603 184.828 51.0474 178.222C51.0274 178.201 51.0035 178.185 50.977 178.173C50.9505 178.162 50.9221 178.156 50.8933 178.156C50.8646 178.156 50.8361 178.162 50.8096 178.173C50.7832 178.185 50.7592 178.201 50.7392 178.222C50.7184 178.242 50.7018 178.267 50.6905 178.294C50.6792 178.321 50.6733 178.35 50.6733 178.38C50.6733 178.409 50.6792 178.438 50.6905 178.465C50.7018 178.492 50.7184 178.517 50.7392 178.538C57.265 185.069 59.9986 192.972 60.3604 197.757C60.3629 197.785 60.371 197.813 60.3842 197.838C60.3974 197.863 60.4154 197.885 60.4372 197.903C60.459 197.921 60.4841 197.935 60.5112 197.943C60.5383 197.952 60.5667 197.954 60.5949 197.952Z" fill="#F5F5F5"/>
<path d="M58.7791 199.981C59.5487 200.612 60.4562 201.051 61.4275 201.263C62.3988 201.475 63.4063 201.453 64.3676 201.199C65.3289 200.946 66.2167 200.467 66.9583 199.804C67.7 199.14 68.2745 198.31 68.6348 197.38C67.5337 196.884 66.5253 196.202 65.6533 195.364C67.1131 195.015 68.6392 195.062 70.0753 195.499C70.5094 194.942 70.794 194.282 70.9019 193.584C71.0098 192.885 70.9374 192.17 70.6917 191.507C69.0203 190.817 67.167 190.706 65.4255 191.191C66.9755 189.977 68.9264 189.396 70.886 189.565C71.2213 186.955 70.9695 184.303 70.149 181.803C66.4908 182.025 62.8728 183.544 61.6132 184.619C61.4723 185.831 61.5221 187.058 61.7606 188.255C61.3191 188.041 60.9445 187.71 60.6775 187.298C60.4106 186.885 60.2614 186.408 60.2464 185.916C57.955 186.474 56.8964 187.549 56.5145 188.362C56.7311 189.871 57.3727 191.286 58.3637 192.441C57.7214 192.207 57.1401 191.831 56.6632 191.339C56.1864 190.848 55.8263 190.256 55.61 189.605C53.2047 194.276 53.2449 199.531 58.7791 199.981Z" fill="#F46E21"/>
<path opacity="0.3" d="M58.7791 199.981C59.5487 200.612 60.4562 201.051 61.4275 201.263C62.3988 201.475 63.4063 201.453 64.3676 201.199C65.3289 200.946 66.2167 200.467 66.9583 199.804C67.7 199.14 68.2745 198.31 68.6348 197.38C67.5337 196.884 66.5253 196.202 65.6533 195.364C67.1131 195.015 68.6392 195.062 70.0753 195.499C70.5094 194.942 70.794 194.282 70.9019 193.584C71.0098 192.885 70.9374 192.17 70.6917 191.507C69.0203 190.817 67.167 190.706 65.4255 191.191C66.9755 189.977 68.9264 189.396 70.886 189.565C71.2213 186.955 70.9695 184.303 70.149 181.803C66.4908 182.025 62.8728 183.544 61.6132 184.619C61.4723 185.831 61.5221 187.058 61.7606 188.255C61.3191 188.041 60.9445 187.71 60.6775 187.298C60.4106 186.885 60.2614 186.408 60.2464 185.916C57.955 186.474 56.8964 187.549 56.5145 188.362C56.7311 189.871 57.3727 191.286 58.3637 192.441C57.7214 192.207 57.1401 191.831 56.6632 191.339C56.1864 190.848 55.8263 190.256 55.61 189.605C53.2047 194.276 53.2449 199.531 58.7791 199.981Z" fill="white"/>
<path d="M58.6317 200.512C58.6846 200.511 58.7356 200.492 58.7759 200.458C58.8163 200.423 58.8434 200.376 58.8528 200.324C59.4826 196.09 62.5445 189.061 69.1172 183.195C69.138 183.174 69.1546 183.149 69.1659 183.122C69.1772 183.095 69.1831 183.066 69.1831 183.037C69.1831 183.007 69.1772 182.978 69.1659 182.951C69.1546 182.924 69.138 182.899 69.1172 182.879C69.0972 182.858 69.0732 182.842 69.0468 182.83C69.0203 182.819 68.9918 182.813 68.9631 182.813C68.9343 182.813 68.9059 182.819 68.8794 182.83C68.8529 182.842 68.829 182.858 68.809 182.879C62.1492 188.833 59.0404 195.969 58.3972 200.277C58.3895 200.335 58.4049 200.393 58.4401 200.44C58.4752 200.486 58.5272 200.517 58.5848 200.525L58.6317 200.512Z" fill="white"/>
<path d="M133.524 52.6922L106.503 68.1482C105.894 68.507 105.389 69.0184 105.037 69.6322C104.684 70.246 104.497 70.9411 104.493 71.6493V97.0778C104.511 97.7804 104.713 98.4657 105.08 99.0644C105.447 99.6631 105.965 100.154 106.583 100.487C107.2 100.82 107.893 100.983 108.594 100.96C109.294 100.938 109.976 100.73 110.57 100.357L118.275 96.0026L118.597 96.5268C118.611 96.5459 118.629 96.5619 118.65 96.5738H118.69C119.28 96.9636 120.319 97.5281 120.553 97.6423C120.607 97.6597 120.666 97.6554 120.717 97.6304C120.768 97.6053 120.808 97.5615 120.828 97.5079L122.168 93.7514L137.578 84.9012C138.191 84.546 138.7 84.0344 139.053 83.4184C139.406 82.8024 139.591 82.1038 139.588 81.3933V55.9581C139.608 53.0618 135.34 51.6506 133.524 52.6922Z" fill="#F46E21"/>
<path opacity="0.2" d="M118.59 96.5536C118.604 96.5727 118.623 96.5887 118.644 96.6006H118.684C119.273 96.9904 120.312 97.5549 120.546 97.6691C120.519 97.6633 120.493 97.652 120.47 97.6358C120.447 97.6197 120.427 97.599 120.412 97.575L119.139 95.4985L119.387 95.3574L118.268 96.0294L118.59 96.5536Z" fill="white"/>
<path opacity="0.4" d="M109.009 71.9787C109.27 71.4594 109.638 71.0014 110.088 70.6347C110.242 70.5097 110.405 70.3974 110.577 70.2987L137.591 54.8427C137.795 54.7245 138.027 54.6624 138.263 54.6626C138.498 54.6629 138.73 54.7254 138.934 54.844C139.137 54.9626 139.306 55.133 139.424 55.3381C139.541 55.5432 139.602 55.7756 139.601 56.012C139.601 53.1022 135.327 51.691 133.518 52.7326L106.497 68.1886C105.869 68.5511 105.353 69.0785 105.002 69.7141L109.009 71.9787Z" fill="white"/>
<path opacity="0.2" d="M108.54 99.2215V73.793C108.53 73.6342 108.53 73.4748 108.54 73.3159C108.607 72.848 108.75 72.3942 108.962 71.9719L104.942 69.6938C104.602 70.2965 104.422 70.9769 104.419 71.6695V97.098C104.437 97.8005 104.64 98.4859 105.007 99.0846C105.373 99.6833 105.892 100.174 106.509 100.507C107.126 100.84 107.82 101.003 108.52 100.981C109.22 100.958 109.902 100.75 110.496 100.377C110.295 100.482 110.07 100.534 109.843 100.528C109.616 100.522 109.395 100.458 109.199 100.342C109.004 100.227 108.841 100.063 108.725 99.8673C108.61 99.6713 108.546 99.4491 108.54 99.2215Z" fill="white"/>
<path d="M127.823 85.3379C127.769 86.5475 126.483 88.5433 125.223 89.3161L125.116 89.3833C123.776 90.1561 122.483 89.7731 122.315 88.5299L127.823 85.3379Z" fill="white"/>
<path d="M132.66 79.7538C133.002 79.8815 133.109 80.6005 132.874 81.1717C132.756 81.4837 132.537 81.7466 132.251 81.9176L131.507 82.3544L130.764 82.7845L125.069 86.0773L118 90.1765C117.411 90.5125 117.163 90.3512 117.136 89.6927C117.13 89.2369 117.271 88.7913 117.538 88.4226C118.308 87.1977 118.813 85.8239 119.019 84.3906C119.21 83.0554 119.3 81.7075 119.287 80.3586C119.27 79.5814 119.313 78.8041 119.414 78.0335C119.816 75.7035 120.849 73.5295 122.402 71.7503C122.601 71.5738 122.752 71.3487 122.839 71.0967C122.926 70.8447 122.946 70.5744 122.898 70.3122C122.867 69.4977 123.044 68.6889 123.414 67.9629C123.783 67.237 124.332 66.6183 125.008 66.1659C125.359 65.9445 125.778 65.8563 126.188 65.9173C126.951 66.0584 127.273 66.7237 127.139 67.8527C127.059 68.5247 127.139 68.6927 127.655 68.7195C129.665 68.8405 130.717 70.1979 130.797 72.7986C130.837 74.0687 130.864 75.3387 130.951 76.5752C130.981 77.4182 131.226 78.2394 131.662 78.9608C131.9 79.3267 132.25 79.605 132.66 79.7538ZM126.248 78.8063L126.824 71.8847L123.28 73.941L123.89 80.1704L126.268 78.8264M125.089 83.7455C125.587 83.4501 126.006 83.0375 126.309 82.5435C126.613 82.0494 126.792 81.4886 126.831 80.9096C126.831 79.8882 126.114 79.5253 125.082 80.1234C124.584 80.4118 124.164 80.819 123.86 81.309C123.556 81.799 123.378 82.3566 123.34 82.9323C123.34 83.9336 124.064 84.3435 125.089 83.7455ZM125.042 67.8459C124.831 67.9834 124.656 68.1688 124.53 68.3872C124.404 68.6056 124.332 68.8507 124.318 69.1026C124.318 69.5595 124.64 69.741 125.035 69.5192C125.245 69.3825 125.42 69.1981 125.546 68.9809C125.672 68.7638 125.745 68.52 125.759 68.2693C125.759 67.8056 125.437 67.5973 125.035 67.8459" fill="white"/>
</svg>
