<svg width="49" height="36" viewBox="0 0 49 36" fill="none" xmlns="http://www.w3.org/2000/svg">
<g clip-path="url(#clip0_805_1990)">
<path d="M19.9923 10.7481C19.4914 10.7015 19.4613 11.158 19.3144 11.4426C18.0665 13.8929 17.2929 16.5133 16.5743 19.1605C15.7494 22.2034 15.3617 25.3178 14.8785 28.4196C14.5581 30.4691 13.843 32.3538 12.303 33.7857C8.76279 37.0719 3.50557 35.9819 1.45224 31.5609C0.294595 29.0729 0.335307 26.4615 0.823856 23.8518C1.7567 18.8598 4.01005 14.471 7.04578 10.476C9.82131 6.82286 13.0641 3.69772 17.1549 1.56775C18.3592 0.934164 19.6457 0.475035 20.9765 0.203858C24.6938 -0.544315 27.6251 0.817789 29.4005 4.19709C30.5758 6.43624 31.1192 8.86333 31.1706 11.3996C30.7174 10.9181 30.5369 10.2863 30.2501 9.70994C28.7668 6.73157 25.7346 5.25134 23.1024 6.89983C21.6616 7.80193 20.3428 8.89555 19.9923 10.7481Z" fill="#F78000"/>
<path d="M31.3742 15.5146C32.1477 14.6519 32.7248 13.6424 33.4753 12.7546C35.7428 10.0787 38.4865 9.35379 41.4266 10.8537C43.5508 11.942 44.5721 13.8017 44.9315 16.1661C45.1244 17.4423 45.4483 18.6988 45.4625 20.0018C45.4625 20.3598 45.4448 20.7178 45.4359 21.0758C44.9828 20.9075 45.0146 20.4672 44.9456 20.1128C44.6889 18.8294 44.3562 17.5676 43.772 16.397C43.241 15.3231 42.3559 14.906 41.4833 15.3571C40.5097 15.86 39.699 16.5778 39.2954 17.6624C38.0935 18.8563 37.4917 20.4278 36.7305 21.8919C34.679 25.8297 32.9071 29.9267 30.5352 33.7052C29.2961 35.6848 27.6499 36.2576 25.501 35.905C21.4386 35.2391 18.6825 30.8575 19.8774 26.9555C20.0353 27.0259 20.1864 27.111 20.3287 27.2097C21.6475 28.3337 22.3555 28.3713 23.7893 27.3887C24.6867 26.7783 25.2815 25.8834 25.9028 25.0278C27.2605 23.161 28.3296 21.108 29.4607 19.0997C30.1174 17.9184 30.9688 16.8355 31.3742 15.5146Z" fill="#F78000"/>
<path d="M31.3742 15.3013C30.9689 16.6223 30.1175 17.7051 29.4554 18.8811C28.3243 20.8894 27.2552 22.9424 25.8975 24.8092C25.2762 25.6648 24.6815 26.5597 23.784 27.1701C22.3502 28.1473 21.6422 28.1098 20.3234 26.9911C20.1811 26.8924 20.03 26.8073 19.8721 26.7369C20.7695 21.344 20.7288 15.9457 19.9924 10.5402C20.3465 8.68591 21.6599 7.59228 23.1114 6.68481C25.7435 5.03633 28.7757 6.51656 30.2591 9.49494C30.5458 10.0713 30.7264 10.7031 31.1795 11.1846C31.4397 12.5449 31.3671 13.9249 31.3742 15.3013Z" fill="#990000"/>
<path d="M39.2954 17.6555C39.699 16.5709 40.5097 15.8531 41.4868 15.3502C42.3719 14.8991 43.2392 15.3126 43.7756 16.3901C44.3597 17.5607 44.6925 18.8225 44.9491 20.1059C45.0182 20.4639 44.9863 20.9006 45.4395 21.0688C45.4908 23.7537 45.5598 26.4206 46.1298 29.0553C46.6219 31.3213 47.1919 33.5515 48.5053 35.5132C46.2803 36.1791 43.6357 35.2036 42.4374 33.3045C41.239 31.4054 40.9823 29.1878 40.7009 26.9987C40.2955 23.8736 40.0477 20.7198 39.2954 17.6555Z" fill="#990000"/>
</g>
<defs>
<clipPath id="clip0_805_1990">
<rect width="48" height="36" fill="white" transform="translate(0.5)"/>
</clipPath>
</defs>
</svg>
